<?xml version="1.0" encoding="UTF-8"?>
<svg width="480" height="320" version="1.1" viewBox="0 0 480 320" xmlns="http://www.w3.org/2000/svg">
 <defs>
  <linearGradient id="a" x1="81.598" x2="81.598" y2="84.667" gradientTransform="scale(3.7795)" gradientUnits="userSpaceOnUse">
   <stop stop-color="#fff" offset="0"/>
   <stop stop-color="#e6e6e6" offset="1"/>
  </linearGradient>
 </defs>
 <rect width="480" height="320" ry="16" fill="url(#a)" stroke-linecap="square" stroke-linejoin="round" stroke-width="2" style="paint-order:stroke fill markers"/>
 <path d="m337.25 200.3c-9.2772-0.52206-15.903-4.5456-19.579-11.888-1.5533-3.103-1.8764-4.7184-1.8589-9.2946 0.0181-4.7671 0.35611-6.3511 2.141-10.035 2.8191-5.8178 8.0304-10.667 15.502-14.423 9.1313-4.591 20.794-5.9573 31.553-3.6958 3.1229 0.65639 3.3466 0.6745 4.0369 0.32644 0.40191-0.20266 1.0038-0.62366 1.3375-0.93551 0.56821-0.53106 0.71085-0.5568 2.2461-0.40551 1.6271 0.16033 1.6382 0.16608 1.486 0.76642-0.0843 0.33267-0.94556 3.7709-1.9138 7.6407l-1.7605 7.0356-3.4825 0.13357-0.15866-1.5662c-0.73308-7.2367-4.6923-11.037-11.441-10.981-6.7446 0.0552-14.25 4.7195-18.907 11.749-3.984 6.0144-5.8099 11.712-5.8322 18.197-0.0189 5.489 0.9964 8.4816 3.8411 11.322 1.8508 1.8484 3.8283 2.9516 6.0212 3.3594 1.2064 0.22435 1.6392 0.19389 3.3341-0.23471 1.0712-0.27088 2.0183-0.57003 2.1047-0.66478 0.0864-0.0948 1.3109-3.6585 2.7213-7.9196 2.9808-9.0055 3.0444-9.4122 1.6683-10.656-0.59565-0.53813-1.2142-0.85641-1.8454-0.94957-0.52222-0.0771-1.374-0.20273-1.8929-0.27927-0.82628-0.12185-0.92693-0.20058-0.81052-0.63436 0.0731-0.27239 0.13429-0.57312 0.13599-0.66825 2e-3 -0.0952 5.8276-0.17299 12.946-0.17299h12.943l-0.15912 0.6339c-0.20243 0.80651-0.0765 0.72949-1.5962 0.97682-1.5285 0.24877-2.9793 1.001-3.5401 1.8354-0.21834 0.32489-1.8004 4.684-3.5158 9.6873l-3.1188 9.0966-2.3068 0.66153c-5.5472 1.5908-13.482 2.3654-20.3 1.9818zm-194.8-1.4013c5e-3 -0.78981 0.24136-0.99591 1.4959-1.3066 1.9378-0.47988 3.6814-1.5882 6.1251-3.8937 2.2765-2.1475 9.1774-9.2587 31.581-32.544l10.948-11.378 1.7398 0.16104c0.9569 0.0886 1.7612 0.18074 1.7874 0.20478 0.0469 0.043-0.73179 17.447-1.424 31.827-0.47765 9.9239-0.46745 12.723 0.0503 13.754 0.53061 1.0561 1.6927 1.8063 3.0839 1.9908 1.1763 0.15606 1.3471 0.39836 0.88683 1.2584-0.23169 0.43291-0.61984 0.44622-13.033 0.44622-12.19 0-12.795-0.0197-12.795-0.41726 0-0.85565 0.52933-1.1309 2.6434-1.3747 2.0329-0.23441 2.0827-0.25516 3.0377-1.2659 0.64211-0.6796 1.0966-1.4491 1.3419-2.2721 0.35172-1.1799 0.70972-4.7025 0.86494-8.5107l0.0705-1.7301-15.047-0.12155-3.9046 4.0978c-4.4251 4.6439-5.4013 5.927-5.5563 7.302-0.0911 0.80825-0.0121 1.0483 0.52157 1.5818 0.67423 0.67423 1.8411 1.0929 3.0518 1.095 0.70277 1e-3 0.74971 0.0518 0.74971 0.80867v0.80739h-18.224l4e-3 -0.51905zm38.529-18.801c6e-3 -0.34889 0.19895-3.3333 0.42962-6.6319 0.2307-3.2987 0.39885-6.0238 0.37368-6.0559-0.0253-0.0321-2.979 2.9524-6.5639 6.6319l-6.5182 6.6905h12.269l0.0102-0.63436zm19.14 19.031c0.0117-1.066 0.24733-1.2615 1.6879-1.4 0.7827-0.0753 1.9235-0.30939 2.5351-0.52022 1.574-0.54259 3.5926-2.4843 4.5952-4.4202 0.69203-1.3363 12.862-36.921 12.862-37.608 0-0.30482-1.4583-1.4661-2.5299-2.0148-0.50729-0.25969-1.5407-0.45169-2.8258-0.52497-2.0809-0.11864-2.1457-0.15829-1.8801-1.1495l0.13969-0.52127 21.738 0.11981 1.873 15.288c1.0302 8.4083 1.922 15.337 1.982 15.397 0.0599 0.0599 5.6459-6.8455 12.413-15.345l12.305-15.454h21.195l-0.15912 0.63391c-0.0875 0.34866-0.19665 0.67143-0.24249 0.71731-0.0459 0.0459-0.79945 0.16199-1.6746 0.25807-3.5785 0.3928-5.5268 1.698-6.9162 4.6333-0.71403 1.5084-11.262 33.061-11.921 35.659-0.48076 1.8962-0.45294 2.669 0.12234 3.4004 0.74022 0.94103 1.7279 1.3322 3.7059 1.4678 1.9005 0.13024 2.0821 0.27209 1.5712 1.2267-0.23226 0.43393-0.64075 0.44621-14.879 0.44621-15.859 0-15.061 0.0647-14.401-1.1686 0.18636-0.34825 0.48774-0.44621 1.3727-0.44621 3.6952 0 6.2472-1.4618 7.7669-4.4493 0.45135-0.88713 9.9987-28.973 9.9987-29.413 0-0.0397-4.489 5.565-9.9753 12.455s-11.844 14.863-14.129 17.717l-4.1541 5.1904-1.5919 0.069c-0.87553 0.0379-1.6849-0.0242-1.7986-0.13773-0.15443-0.15447-4.554-34.746-4.5657-35.898-1e-3 -0.11629-0.0453-0.16819-0.098-0.11535-0.0527 0.0529-2.2444 6.5839-4.8703 14.514-4.0966 12.37-4.7792 14.631-4.806 15.917-0.0261 1.2456 0.0625 1.6312 0.52392 2.2782 0.70522 0.9888 2.2413 1.671 4.0981 1.8201 1.429 0.11471 1.4501 0.12631 1.3086 0.71966-0.0791 0.33169-0.18746 0.68092-0.24083 0.77609-0.0534 0.0952-4.6065 0.17302-10.118 0.17302-7.8648 0-10.02-0.0621-10.018-0.28834zm74.275 0.0727c0-0.1186 0.10125-0.48193 0.22496-0.80738 0.19525-0.51353 0.36143-0.59173 1.2574-0.59173 1.3582 0 3.2785-0.4168 4.2845-0.93003 1.089-0.55547 1.9099-1.4654 2.7254-3.021 1.1224-2.1412 12.256-35.863 12.42-37.618 0.13206-1.4142 0.10405-1.533-0.52479-2.2275-0.52936-0.58465-0.99216-0.8022-2.279-1.0712-0.88811-0.18561-2.056-0.33929-2.5952-0.34152-1.0454-4e-3 -1.2195-0.27957-0.74158-1.1726 0.23217-0.43385 0.63832-0.44621 14.664-0.44621h14.425l-0.15681 0.51904c-0.25122 0.83146-0.4696 0.94292-2.2128 1.1292-2.0359 0.21755-3.86 1.0691-4.7728 2.2279-1.4108 1.7915-1.5483 2.1724-8.8441 24.498-1.1402 3.489-2.6389 8.0651-3.3305 10.169-0.69154 2.1039-1.3183 4.3397-1.3927 4.9682-0.1192 1.0065-0.0625 1.2297 0.4752 1.8686 0.75523 0.89756 1.7798 1.2483 4.1658 1.426 1.9453 0.1449 2.0052 0.19479 1.6164 1.3489-0.0763 0.22662-3.2338 0.28834-14.753 0.28834-8.9363 0-14.656-0.0842-14.656-0.21566zm91.291 0.0807c-0.0742-0.0742-0.0329-0.42724 0.0915-0.78444 0.17537-0.50302 0.41825-0.68425 1.0769-0.8036 1.2673-0.22965 3.2194-1.1779 4.41-2.1422 2.328-1.8856 2.917-2.4883 36.325-37.166l8.3051-8.6207 1.3719 0.1434c0.75451 0.0789 1.5765 0.1434 1.8267 0.1434 0.42777 0 0.44602 0.11312 0.30765 1.9031-0.0809 1.0467-0.40542 7.6645-0.72094 14.706-0.31559 7.0416-0.67604 14.827-0.80118 17.301-0.3888 7.6857-0.35112 10.673 0.1474 11.69 0.5492 1.1204 1.6831 1.8719 3.1101 2.0612 1.1763 0.15606 1.3471 0.39837 0.88679 1.2584-0.23168 0.4329-0.61984 0.44621-13.033 0.44621-11.458 0-12.794-0.0378-12.794-0.36118 0-0.94401 0.41167-1.1947 2.2424-1.3657 0.98698-0.0922 2.0706-0.31011 2.4081-0.48427 0.94303-0.48665 2.0185-1.9315 2.395-3.2177 0.3617-1.2349 0.78361-5.8084 0.7923-8.5848l4e-3 -1.6724-7.4396 4e-3c-4.0917 2e-3 -7.5485 0.0798-7.6815 0.17303-0.69959 0.48986-8.0961 8.5776-8.6653 9.4749-0.8809 1.389-0.90176 2.6089-0.0582 3.3908 0.66822 0.61927 1.8651 1.026 3.0252 1.028 0.70281 1e-3 0.74971 0.0518 0.74971 0.80867v0.80738h-9.0735c-4.9905 0-9.134-0.0607-9.2084-0.13496zm38.597-19.531c8e-3 -0.53922 0.192-3.5474 0.40748-6.6848l0.39178-5.7044-1.0035 0.97557c-0.55196 0.53654-3.4986 3.5448-6.548 6.6848l-5.5446 5.7094h12.281l0.0151-0.98041zm20.925 16.511-0.0646-2.9239-1.038-0.0174c-1.0002-0.0166-1.0407-0.0448-1.1108-0.77341l-0.0726-0.75613 6.6047 0.1282v0.69203c0 0.67404-0.0302 0.69256-1.1534 0.71165l-1.1534 0.0196-0.12926 5.8432h-1.8178l-0.0646-2.9239zm5.2063 1.1361c0.0771-0.98328 0.20749-2.6442 0.29027-3.6909l0.15004-1.9031h2.6939l1.5606 4.9444 0.28498-0.9151c0.15647-0.50332 0.54448-1.6158 0.86196-2.4722l0.57717-1.5571h1.233c0.97693 0 1.2568 0.0838 1.3475 0.40369 0.0631 0.22205 0.18557 1.8829 0.27213 3.6909l0.1576 3.2872h-1.8331l-0.14551-1.2111c-0.0801-0.6661-0.1508-1.8858-0.15761-2.7105l-0.0113-1.4994-0.97039 2.6528-0.97043 2.6528h-1.6147l-0.82722-2.5375-0.82715-2.5375-0.34545 5.1904h-1.8661zm-352-0.34604c-0.75088-0.83856-6.2521-6.7045-32.611-34.774-2.0857-2.221-4.2093-4.4795-4.7195-5.0185l-0.92723-0.98041h21.231l5.9837 6.6191c3.291 3.6405 8.1116 8.9684 10.713 11.84 2.6009 2.8713 6.1304 6.7884 7.8433 8.705 1.7128 1.9163 3.2277 3.4916 3.3664 3.5006 0.13875 9e-3 0.68251-0.49391 1.2084-1.1175l0.95614-1.1339-10.436-11.143c-5.7396-6.1289-11.702-12.496-13.25-14.149l-2.8141-3.0054 20.392-0.12541 0.40796 0.49724c1.2057 1.4695 15.468 16.814 15.628 16.814 0.19366 0 8.0126-8.5376 15.21-16.609 2.2063-2.474 10.647-11.895 18.758-20.934l14.746-16.436h20.118l-0.81778 0.86506c-0.44976 0.47577-7.2907 8.0277-15.202 16.782-7.9117 8.7541-15.953 17.63-17.869 19.723-2.9371 3.2084-7.725 8.5395-23.157 25.782l-1.9353 2.1623 1.0029 1.0219c0.55158 0.56202 1.0732 1.0219 1.1591 1.0219s2.5754-2.673 5.5325-5.9399c2.9568-3.267 8.7156-9.6253 12.797-14.129 4.0815-4.5037 12.444-13.799 18.584-20.656 6.1395-6.8564 14.017-15.653 17.506-19.547l6.3436-7.0802 10.005-4e-3c9.4031-4e-3 9.9863 0.02 9.6884 0.39005-0.26431 0.32878-26.512 29.354-36.775 40.668-1.669 1.8397-6.7056 7.4453-11.193 12.457-4.487 5.0116-11.361 12.671-15.275 17.022l-7.1168 7.9098-20.477-0.13334-1.8623-1.8189-1.6557 1.9342h-20.21z" fill="#1a1a1a" stroke-width=".23068"/>
 <style type="text/css">.st0{fill:#FC0C18;}
	.st1{fill:#FC0C18;}</style>
</svg>
