<?xml version="1.0" encoding="UTF-8"?>
<svg width="480" height="320" version="1.1" viewBox="0 0 480 320" xmlns="http://www.w3.org/2000/svg">
 <defs>
  <clipPath id="b">
   <path d="m659 4h86.871v120h-86.871z"/>
  </clipPath>
  <linearGradient id="a" x1="81.598" x2="81.598" y2="84.667" gradientTransform="scale(3.7795)" gradientUnits="userSpaceOnUse">
   <stop stop-color="#fff" offset="0"/>
   <stop stop-color="#e6e6e6" offset="1"/>
  </linearGradient>
 </defs>
 <rect width="480" height="320" ry="16" fill="url(#a)" stroke-linecap="square" stroke-linejoin="round" stroke-width="2" style="paint-order:stroke fill markers"/>
 <path d="m393.71 172.83c0 6.5903-2.6134 11.661-7.849 15.211-4.5838 3.1172-10.43 4.6738-17.53 4.6738-3.3209 0-6.5881-0.29586-9.7996-0.88543-3.2137-0.58957-6.7211-1.5243-10.531-2.7934v-15.264c3.6646 1.5812 4.8302 2.0152 6.9377 2.6798 4.7014 1.3228 8.3785 1.9874 11.037 1.9874 3.222 0.0113 9.6284-0.37723 9.6884-3.8162 0-2.1782-2.6498-4.1333-7.9514-5.8677-7.615-2.2511-10.303-3.9791-12.242-5.1881-6.364-3.6742-8.496-10.453-8.496-17.94 0-5.6062 2.4076-10.327 7.2227-14.16 4.8151-3.8355 10.902-5.7517 18.266-5.7517 3.5524 0 6.7298 0.20584 9.5191 0.61316 2.7934 0.41161 5.8122 1.3013 9.0603 2.6734v15.279c-3.5696-1.58-4.5664-2.7827-7.169-3.6082-2.5941-0.82537-5.1923-1.2392-7.7972-1.2392-2.4676 0-4.6821 0.5703-6.6422 1.7108-1.9595 1.1427-2.9393 2.6713-2.9393 4.588 0 2.7934 2.2618 4.8514 6.7941 6.1723 8.3225 2.4182 11.009 4.0218 12.231 4.8064 5.4607 3.338 8.1918 8.7125 8.1918 16.12" fill="#1a1a1a" stroke-width=".54882"/>
 <g transform="matrix(.55208 0 0 .55207 28.903 124.6)" clip-path="url(#b)" fill="#1a1a1a">
  <path d="m745.87 32.637-24.66-0.0078v91.262h-37.051v-91.262h-24.656v-28.289h86.363l4e-3 28.297" fill="#1a1a1a"/>
 </g>
 <style type="text/css">.st0{fill:#FC0C18;}
	.st1{fill:#FC0C18;}</style>
 <path d="m66.856 127v20.044c0 9.7523-3.7909 19.28-11.032 25.938-4.5502 4.1926-9.9957 6.836-15.825 8.7197v11.299c6.2098-0.85164 12.039-2.5126 17.352-5.9879 12.039-7.8686 17.037-21.295 17.037-35.218v-24.794zm9.1034 0v66.002h10.311v-66.002zm11.902 0v24.794c0 12.532 4.1923 25.131 14.214 33.18 5.941 4.7524 12.78 7.017 20.179 8.0258v-11.299c-4.9323-1.5923-9.5735-3.6758-13.676-6.881-8.5187-6.6807-13.184-17.037-13.184-27.776v-20.044zm67.483 0c-6.1844 0-9.6227 3.7856-11.238 9.3702l-16.571 56.628h16.571l3.2994-12.093h15.854l3.3209 12.093h16.548l-16.548-56.628c-1.6384-5.5846-5.0752-9.3702-11.237-9.3702zm75.923 0c-6.1614 0-9.6 3.7856-11.238 9.3702l-16.548 56.628h16.548l3.2994-12.093h15.879l3.2994 12.093h16.544l-16.544-56.628c-1.6379-5.5846-5.0782-9.3702-11.24-9.3702zm-57.925 0.57547v14.542h12.14v50.884h15.715v-50.884h12.137v-14.542zm98.287 0c-7.8229 0-12.16 5.1269-12.16 12.765v52.66h15.715v-25.246l14.79 25.246h16.893l-16.635-29.03c3.5768-1.4542 6.5042-3.3699 8.6736-6.6693 2.0313-3.1157 2.9771-6.6701 2.9771-10.386 0-6.5767-2.7197-12.807-8.3512-16.453-2.6536-1.7084-5.9535-2.8866-9.1385-2.8866zm35.517 0v65.423h15.713v-65.423zm-31.963 14.542h4.8004c3.6222 0 6.5529 2.2611 6.5529 6.045 0 1.9624-0.69279 4.0154-2.0548 5.4463-2.3307 2.4924-6.1368 2.5611-9.298 2.5843zm-119.84 9.7372 3.9685 14.537h-7.9601zm75.923 0 3.9685 14.537h-7.937z" fill="#1a1a1a" fill-rule="evenodd" stroke-width="3.7795"/>
</svg>
