<?xml version="1.0" encoding="UTF-8"?>
<svg width="480" height="320" version="1.1" viewBox="0 0 480 320" xmlns="http://www.w3.org/2000/svg">
 <defs>
  <linearGradient id="a" x1="81.598" x2="81.598" y2="84.667" gradientTransform="scale(3.7795)" gradientUnits="userSpaceOnUse">
   <stop stop-color="#fff" offset="0"/>
   <stop stop-color="#e6e6e6" offset="1"/>
  </linearGradient>
 </defs>
 <rect width="480" height="320" ry="16" fill="url(#a)" stroke-linecap="square" stroke-linejoin="round" stroke-width="2" style="paint-order:stroke fill markers"/>
 <g transform="matrix(0 -3.7795 3.7795 0 0 .82582)" fill="#4d4d4d" stroke-width=".26458" aria-label="7800">
  <path d="m-52.807 116.27h1.1576l2.6158-5.2045v-0.95311h-4.1943v0.93206h3.0397v0.0421z"/>
  <path d="m-45.994 116.35c1.3319 0 2.285-0.73362 2.2881-1.7348-3e-3 -0.7697-0.57126-1.4131-1.2868-1.5334v-0.0421c0.62238-0.13831 1.0553-0.69754 1.0583-1.365-3e-3 -0.94709-0.87493-1.6506-2.0595-1.6506-1.1936 0-2.0656 0.70055-2.0626 1.6506-3e-3 0.66748 0.42394 1.2267 1.0583 1.365v0.0421c-0.72761 0.12027-1.2898 0.76369-1.2868 1.5334-3e-3 1.0012 0.94709 1.7348 2.2911 1.7348zm0-0.8599c-0.69754 0-1.1485-0.38485-1.1425-0.9531-6e-3 -0.58931 0.47806-1.0072 1.1425-1.0072 0.65545 0 1.1365 0.42093 1.1425 1.0072-6e-3 0.56825-0.454 0.9531-1.1425 0.9531zm0-2.8052c-0.57126 0-0.98016-0.36981-0.97415-0.90499-6e-3 -0.52917 0.39086-0.88396 0.97415-0.88396 0.57427 0 0.96814 0.35479 0.97415 0.88396-6e-3 0.53818-0.41191 0.90499-0.97415 0.90499z"/>
  <path d="m-40.438 116.39c1.4853 3e-3 2.3722-1.1696 2.3722-3.19 0-2.0084-0.89297-3.169-2.3722-3.169s-2.3692 1.1576-2.3722 3.169c0 2.0174 0.88696 3.19 2.3722 3.19zm0-0.94108c-0.76669 0-1.2478-0.7697-1.2447-2.249 3e-3 -1.4672 0.48106-2.24 1.2447-2.24 0.76669 0 1.2447 0.77271 1.2478 2.24 0 1.4793-0.47806 2.249-1.2478 2.249z"/>
  <path d="m-34.792 116.39c1.4853 3e-3 2.3722-1.1696 2.3722-3.19 0-2.0084-0.89297-3.169-2.3722-3.169s-2.3692 1.1576-2.3722 3.169c0 2.0174 0.88696 3.19 2.3722 3.19zm0-0.94108c-0.76669 0-1.2478-0.7697-1.2447-2.249 3e-3 -1.4672 0.48106-2.24 1.2447-2.24 0.76669 0 1.2447 0.77271 1.2478 2.24 0 1.4793-0.47806 2.249-1.2478 2.249z"/>
 </g>
 <style type="text/css">.st0{fill:#FC0C18;}
	.st1{fill:#FC0C18;}</style>
 <path d="m74.181 118v25.51c0 12.412-4.8246 24.538-14.041 33.012-5.7914 5.3363-12.722 8.7001-20.141 11.098v14.381c7.9034-1.0839 15.322-3.1979 22.084-7.621 15.322-10.015 21.684-27.103 21.684-44.821v-31.557zm11.586 0v84h13.123v-84zm15.148 0v31.557c0 15.95 5.3356 31.984 18.09 42.228 7.5613 6.0484 16.266 8.931 25.682 10.215v-14.381c-6.2774-2.0265-12.184-4.6783-17.406-8.7579-10.842-8.5028-16.779-21.684-16.779-35.352v-25.51zm85.886 0c-7.8712 0-12.247 4.8181-14.303 11.926l-21.09 72.075h21.09l4.1991-15.391h20.178l4.2266 15.391h21.061l-21.061-72.075c-2.0852-7.1078-6.4596-11.926-14.301-11.926zm96.627 0c-7.8418 0-12.218 4.8181-14.303 11.926l-21.061 72.075h21.061l4.199-15.391h20.209l4.1991 15.391h21.057l-21.057-72.075c-2.0846-7.1078-6.463-11.926-14.305-11.926zm-73.72 0.73243v18.508h15.451v64.758h20v-64.758h15.447v-18.508zm125.09 0c-9.9564 0-15.476 6.5253-15.476 16.246v67.022h20v-32.131l18.824 32.131h21.5l-21.172-36.947c4.5524-1.8508 8.2783-4.289 11.039-8.4884 2.5853-3.9655 3.789-8.4892 3.789-13.219 0-8.3705-3.4614-16.3-10.629-20.94-3.3773-2.1744-7.5772-3.6738-11.631-3.6738zm45.203 0v83.266h19.998v-83.266zm-40.679 18.508h6.1092c4.6103 0 8.3399 2.8778 8.3399 7.6932 0 2.4976-0.88173 5.1103-2.6152 6.9316-2.9664 3.1722-7.8104 3.2596-11.834 3.2891zm-152.52 12.393 5.051 18.502h-10.131zm96.627 0 5.051 18.502h-10.102z" fill="#1a1a1a" fill-rule="evenodd" stroke-width="3.7795"/>
</svg>
