<svg width="480" height="320" version="1.1" viewBox="0 0 480 320" xml:space="preserve" xmlns="http://www.w3.org/2000/svg"><defs><linearGradient id="a" x2="0" y1="200" y2="300" gradientUnits="userSpaceOnUse"><stop stop-color="#fff" offset="0"/><stop stop-color="#e6e6e6" offset="1"/></linearGradient></defs><rect width="480" height="320" ry="16" fill="url(#a)"/><path d="m293.3 90.23-5.779-22.05h-40.88l-8.904 37.66-13.96-53.26h-40.88l4e-3 0.01172h-0.0137l-38.68 163.6h40.89l19.29-81.57 13.95 53.25h40.88l8.912-37.67 5.781 22.06 40.87 0.0215 20.91-88.44-40.88-0.0049zm-71.42-35.18 34.16 130.3h-35.78l-34.14-130.3zm27.96 15.6h35.78l25.98 99.1h-35.78zm112.2 160.1 3.043 33.33c0.1771 1.896 1.761 3.345 3.668 3.355l23.88 0.0195 8.68-36.68h-12.27v-0.0117l-7.555 31.96h-4.533l-2.918-31.98zm-313.4 0.01-8.68 36.68h12.26l2.25-9.535h11.89l0.875 9.535h11.99l-3.043-33.32c-0.1771-1.896-1.761-3.355-3.668-3.355zm31.22 0 0.4375 4.699h12.65l-6.492 27.44c-0.5522 2.313 1.208 4.531 3.584 4.531h7.607l7.564-31.98h12.74v0.01l1.262-4.699zm82.69 0-8.68 36.68h12.27l7.564-31.98h5.887l-7.564 31.99h12.27l7.564-31.99h5.887l-7.564 32h12.26l7.605-32.14c0.5522-2.313-1.208-4.531-3.584-4.531zm105.6 0-32.99 0.041-3.146 13.29c-0.5522 2.313 1.208 4.533 3.584 4.533h16.06l-3.334 14.12h-20.71l-1.127 4.699h32.99l4.48-18.97c0.5418-2.313-1.21-4.533-3.586-4.533h-16.04v-0.01l2-8.461h20.71zm60.38 0-8.68 36.68h12.28l2.26-9.535h11.89l0.8652 9.535h11.99l-3.041-33.32c-0.1771-1.896-1.761-3.355-3.668-3.355zm84.02 0-5.355 0.0312-7.605 32.14c-0.5522 2.313 1.208 4.533 3.584 4.533h7.605l20.52-0.0313 1.115-4.699h-20.51l3.334-14.12h18.15l1.105-4.699h-18.15l2-8.461h20.51l1.104-4.678zm-260.6 0.01-28.33 0.0312-7.596 32.13c-0.5522 2.313 1.21 4.533 3.596 4.533l28.33-0.0313 7.596-32.13c0.5522-2.313-1.208-4.533-3.594-4.533zm122 0-7.607 32.14c-0.5522 2.313 1.208 4.533 3.584 4.533l43.92 0.0215 8.668-36.68h-12.26v-0.01l-7.553 31.96h-5.889l7.555-31.96h-12.26l-7.555 31.96h-5.887l7.555-31.97zm-57.03 0.0117-7.596 32.14c-0.5522 2.313 1.208 4.531 3.584 4.531h7.605l8.68-36.68zm-157.2 4.668h4.533l1.625 17.74h-10.36zm279.9 0h4.531l1.615 17.74h-10.35zm-204.9 0.01h8.451l-6.449 27.28h-8.451z" fill="#444"/></svg>
