<svg version="1.1" viewBox="0 0 480 320" xmlns="http://www.w3.org/2000/svg"><defs><linearGradient id="a" x2="0" y1="200" y2="300" gradientUnits="userSpaceOnUse"><stop stop-color="#fff" offset="0"/><stop stop-color="#e6e6e6" offset="1"/></linearGradient></defs><rect width="480" height="320" ry="16" fill="url(#a)"/><path d="m240.9 206.7 40.02 24.16a4.22 4.22 144 0 0 6.29-4.571l-10.62-45.53a1.657 1.657 108 0 1 0.5286-1.629l35.37-30.64a4.227 4.227 72.01 0 0-2.405-7.407l-46.56-4.015a1.662 1.662 35.96 0 1-1.387-1.006l-18.18-42.83a4.245 4.245 0 0 0-7.815 0l-18.18 42.83a1.662 1.662 144 0 1-1.387 1.006l-46.56 4.015a4.233 4.233 108 0 0-2.411 7.414l35.29 30.63a1.661 1.661 72 0 1 0.5294 1.63l-10.56 45.52a4.227 4.227 35.97 0 0 6.303 4.574l40.02-24.16a1.657 1.657 0 0 1 1.712 0z" fill="#444"/></svg>
