<?xml version="1.0" encoding="UTF-8"?>
<svg version="1.1" viewBox="0 0 480 320" xmlns="http://www.w3.org/2000/svg"><defs><linearGradient id="a" x2="0" y1="200" y2="300" gradientUnits="userSpaceOnUse"><stop stop-color="#fff" offset="0"/><stop stop-color="#e6e6e6" offset="1"/></linearGradient></defs><rect width="480" height="320" ry="16" fill="url(#a)"/><path d="m248 88c-39.76 0-72 32.24-72 72h-24l31.12 31.12 0.56 1.12 32.32-32.24h-24c0-30.96 25.04-56 56-56s56 25.04 56 56-25.04 56-56 56c-15.44 0-29.44-6.32-39.52-16.48l-11.36 11.36c13.04 13.04 30.96 21.12 50.88 21.12 39.76 0 72-32.24 72-72s-32.24-72-72-72zm-8 40v40l34 20.16 6.16-10.24-28.16-16.72v-33.2z" fill="#444"/></svg>
