<?xml version="1.0" encoding="UTF-8"?>
<svg version="1.1" viewBox="0 0 480 320" xmlns="http://www.w3.org/2000/svg"><defs><linearGradient id="a" x2="0" y1="200" y2="300" gradientUnits="userSpaceOnUse"><stop stop-color="#fff" offset="0"/><stop stop-color="#e6e6e6" offset="1"/></linearGradient></defs><rect width="480" height="320" ry="16" fill="url(#a)"/><path d="m311.6 152h12.4v16h-12.4c-3.6 33.36-30.24 60-63.6 63.6v12.4h-16v-12.4c-33.36-3.6-60-30.24-63.6-63.6h-12.4v-16h12.4c3.6-33.36 30.24-60 63.6-63.6v-12.4h16v12.4c33.36 3.6 60 30.24 63.6 63.6m-127 0h11.44v16h-11.44c3.44 24.56 22.88 44 47.44 47.44v-11.44h16v11.44c24.56-3.44 44-22.88 47.44-47.44h-11.44v-16h11.44c-3.44-24.56-22.88-44-47.44-47.44v11.44h-16v-11.44c-24.56 3.44-44 22.88-47.44 47.44m87.44 40h-64v-8c0-10.64 21.36-16 32-16 10.64 0 32 5.36 32 16v8m-32-64a16 16 0 0 1 16 16 16 16 0 0 1-16 16 16 16 0 0 1-16-16 16 16 0 0 1 16-16z" fill="#444"/></svg>
