<?xml version="1.0" encoding="UTF-8"?>
<svg version="1.1" viewBox="0 0 480 320" xmlns="http://www.w3.org/2000/svg"><defs><linearGradient id="a" x2="0" y1="200" y2="300" gradientUnits="userSpaceOnUse"><stop stop-color="#fff" offset="0"/><stop stop-color="#e6e6e6" offset="1"/></linearGradient></defs><rect width="480" height="320" ry="16" fill="url(#a)"/><path d="m296 104h-16v-16h-80v16h-16c-8.8 0-16 7.2-16 16v8c0 20.4 15.36 37.04 35.12 39.52 5.04 12 15.84 21.04 28.88 23.68v24.8h-32v16h80v-16h-32v-24.8c13.04-2.64 23.84-11.68 28.88-23.68 19.76-2.48 35.12-19.12 35.12-39.52v-8c0-8.8-7.2-16-16-16zm-112 24v-8h16v30.56c-9.28-3.36-16-12.16-16-22.56zm56 48c-13.2 0-24-10.8-24-24v-48h48v48c0 13.2-10.8 24-24 24zm56-48c0 10.4-6.72 19.2-16 22.56v-30.56h16z" fill="#444"/></svg>
