<?xml version="1.0" encoding="UTF-8"?>
<svg width="480" height="320" version="1.1" viewBox="0 0 480 320" xmlns="http://www.w3.org/2000/svg">
 <defs>
  <linearGradient id="a" x1="81.598" x2="81.598" y2="84.667" gradientTransform="scale(3.7795)" gradientUnits="userSpaceOnUse">
   <stop stop-color="#fff" offset="0"/>
   <stop stop-color="#e6e6e6" offset="1"/>
  </linearGradient>
 </defs>
 <rect width="480" height="320" ry="16" fill="url(#a)" stroke-linecap="square" stroke-linejoin="round" stroke-width="2" style="paint-order:stroke fill markers"/>
 <path d="m308.5 81.021v13.512c-1.9447-2.5946-3.6744-3.998-10.697-3.998-11.237 0-13.397 3.025-13.397 12.105 0 9.2968 3.0252 12.002 13.937 12.002 6.9146 0 8.9673-1.7309 10.588-4.7576v4.2168h8.4276v-33.08zm-157.31 9.1895c-6.3746 0-8.1056 2.1614-9.1858 5.9452l0.10938-5.297h-7.8867v23.242h8.4257v-12c0-3.5673 1.7287-4.7558 6.4823-4.7558 4.4296 0 5.619 1.621 5.619 5.9452v10.703h8.6426v-12.324c0-3.3511 2.5937-4.4315 6.6992-4.4315 3.8895 0 5.619 1.0805 5.619 4.4315v12.324h8.4257v-13.731c0-6.9188-4.213-10.053-11.992-10.053-6.6988 0-9.1824 2.4879-10.047 5.0819-1.7286-3.0269-4.2134-5.0819-10.912-5.0819zm56.829 0c-6.1584 0-7.7802 2.1614-8.9688 5.9452v-5.297h-7.8867v23.242h8.4276v-12c0-3.5673 2.1613-4.7558 6.3749-4.7558 4.4296 0 5.6171 1.4049 5.6171 5.9452v10.703h8.6445v-12.324c0-3.3511 2.4852-4.4315 6.4823-4.4315 3.8899 0 5.8341 1.1886 5.8341 4.4315v12.324h8.4276v-13.731c0-6.9188-4.213-10.053-11.992-10.053-6.6988 0-8.9684 2.2713-10.049 5.0819-1.7286-3.0269-4.2134-5.0819-10.912-5.0819zm168.98 0.10741c-5.0782 0-6.9131 1.0811-8.75 4.9727v-4.4315h-8.1037v23.242h8.4276v-12.11c0-3.135 1.9442-4.7558 5.5098-4.7558 3.5653 0 4.4292 1.0812 4.5373 3.9999h7.8867c0-7.8916-1.0807-10.918-9.5078-10.918zm-264.49 0.32421c-14.586 0-16.424 2.2701-16.424 12.107 0 10.054 2.4863 12.107 16.424 12.107 14.802 0.10681 16.205-2.3781 16.205-12.756 0-9.513-2.5918-11.459-16.205-11.459zm150.18 0c-14.586 0-16.424 2.4871-16.424 12.324 0 9.8373 2.4864 12 16.424 12 14.802 0 16.424-2.4877 16.424-12.865 0-9.513-2.8103-11.459-16.424-11.459zm76.169 0c-14.478 0-16.207 2.2701-16.207 12.107 0 10.054 2.4858 12.107 16.207 12.107 14.802 0.10681 16.207-2.3781 16.207-12.756 0-9.513-2.5938-11.459-16.207-11.459zm65.798 0.10741c-12.641 0-15.451 2.2725-15.451 12.326 0 9.2968 3.6735 11.673 13.937 11.781 11.453 0 16.856-0.54021 16.856-8.1074h-8.3184c-0.3239 1.8377-0.97364 2.7012-4.5392 2.7012-8.1033 0-9.2912-0.75628-9.2912-4.7558h22.148c-0.32429-11.243-0.32429-13.945-15.342-13.945zm-328.24 0.10938c-13.397 0-16.422 2.1624-16.422 12 0 9.8373 2.8088 12.107 15.342 12.107 13.181 0 15.883-1.7308 15.883-10.055h-8.4276c0 2.2704-0.86513 3.3516-7.3478 3.3516-5.6183 0-6.9143-1.4069-6.9143-5.9474 0-4.4322 1.1881-4.4315 7.8867-4.4315 4.9701 0 5.8348 0.5421 6.3749 2.8125h8.4276c-0.75651-7.8916-3.0259-9.8377-14.803-9.8377zm327.91 5.6213c6.1584 0 7.0227 0.32508 7.4551 3.3516h-14.154c0.3239-2.4865 1.0811-3.3516 6.6992-3.3516zm-101.99 0.64845c4.7539 0 6.373 0.64773 6.373 4.4315 0 5.6213-0.32304 6.1621-7.0216 6.1621-6.6988 0-8.4276-0.2157-8.4276-4.9708 0-5.4051 2.0532-5.6232 9.0762-5.6232zm-190.37 0.21679c6.9146 0 8.1037 0.21566 8.1037 5.2951 0 4.7565-0.86513 5.6232-7.3478 5.6232-6.9146 0-7.7794-0.75847-7.7794-5.6232 0-4.7565 1.0811-5.2951 7.0235-5.2951zm150.29 0c6.9146 0 8.1014 0.21566 8.1014 5.2951 0 4.7565-0.86314 5.6232-7.3459 5.6232-7.1308 0-7.996-0.75847-7.996-5.6232 0-4.7565 1.0821-5.2951 7.2404-5.2951zm76.063 0c6.9146 0 8.1014 0.21566 8.1014 5.2951 0 4.7565-0.86313 5.6232-7.3459 5.6232-7.1308 0-7.996-0.75847-7.996-5.6232 0-4.7565 1.0821-5.2951 7.2404-5.2951zm-200.28 37.631c-27.703 0-52.04 23.179-52.04 52.101 0 29.715 24.536 51.9 52.241 51.9 4.9474 0 7.9181-0.59535 14.053-2.1797v-26.94c-6.1342 3.1695-9.3033 3.9609-14.25 3.9609-15.435 0-27.108-12.878-27.108-27.141 0-14.857 11.475-27.535 26.91-27.535 5.1451 0 9.6983 1.3868 14.447 4.1601v-26.348c-5.3431-1.3863-8.9072-1.9785-14.25-1.9785zm151.74 10.4v2e-3c-18.842 0-31.089 10.478-31.049 27.522h20.855c-0.0393-6.802 4.1102-10.6 10.193-10.6 6.0438 0 10.348 3.7565 10.348 9.9647 0 5.7339-3.6721 9.4514-9.6367 14.395l-30.18 24.992v15.818h62.098v-17.558h-31.6v-0.4746l7.584-6.3261c18.447-15.383 23.147-23.37 23.147-32.742 0-15.106-12.363-24.992-31.758-24.992zm70.25 2e-3c-17.855 0-30.969 9.2912-30.969 21.984 0 9.016 6.5972 16.291 15.801 17.873v0.63477c-10.547 1.5817-18.805 9.6086-18.805 19.613 0 13.129 14.381 23.096 33.973 23.096 19.593 0 33.971-9.967 33.971-23.096 0-10.005-8.414-18.032-18.803-19.613v-0.63477c9.0455-1.5818 15.799-8.8176 15.799-17.873 0-12.654-13.112-21.984-30.967-21.984zm-131.34 1.1055-19.908 12.18v18.664l17.695-10.598h0.47463v60.741h21.963v-80.987zm131.34 14.709c5.4905 0 9.4806 3.6792 9.4806 8.7012 0 5.1012-3.9897 8.8573-9.4806 8.8573s-9.4825-3.7958-9.4825-8.8573 3.9916-8.7012 9.4825-8.7012zm-206.36 3.5v20.402h24.537l20.184-20.402zm0 24.76v20.406h44.719l-19.789-20.406zm206.36 4.4844c6.2018 0 10.742 4.0728 10.742 9.6483 0 5.6545-4.5407 9.8048-10.742 9.8048s-10.744-4.1896-10.744-9.8048 4.5426-9.6483 10.744-9.6483z" fill="#1a1a1a" stroke-width="1.299"/>
 <style type="text/css">.st0{fill:#FC0C18;}
	.st1{fill:#FC0C18;}</style>
</svg>
