<?xml version="1.0" encoding="UTF-8"?>
<svg width="480" height="320" version="1.1" viewBox="0 0 480 320" xmlns="http://www.w3.org/2000/svg">
 <defs>
  <linearGradient id="a" x1="81.598" x2="81.598" y2="84.667" gradientTransform="scale(3.7795)" gradientUnits="userSpaceOnUse">
   <stop stop-color="#fff" offset="0"/>
   <stop stop-color="#e6e6e6" offset="1"/>
  </linearGradient>
 </defs>
 <rect width="480" height="320" ry="16" fill="url(#a)" stroke-linecap="square" stroke-linejoin="round" stroke-width="2" style="paint-order:stroke fill markers"/>
 <path d="m308.5 81.022v13.514c-1.9447-2.5946-3.6744-3.9999-10.697-3.9999-11.236 0-13.396 3.027-13.396 12.107 0 9.2966 3.0252 12 13.938 12 6.9145 0 8.9671-1.7309 10.588-4.7577v4.2147h8.4276v-33.077h-8.8593zm-157.31 9.1893c-6.3744 0-8.1053 2.1634-9.1855 5.9472l0.10937-5.2987h-7.8866v23.244h8.4257v-12.004c0-3.5671 1.7287-4.7538 6.4823-4.7538 4.4295 0 5.619 1.6231 5.619 5.9472v10.701h8.6425v-12.326c0-3.351 2.5937-4.4315 6.6991-4.4315 3.8894 0 5.619 1.0805 5.619 4.4315v12.326h8.4257v-13.729c0-6.9187-4.2132-10.055-11.992-10.055-6.6987 0-9.1824 2.4879-10.047 5.0819-1.7286-3.0268-4.2132-5.0819-10.912-5.0819zm56.827 0c-6.1582 0-7.78 2.1634-8.9687 5.9472v-5.2987h-7.8866v23.244h8.4276v-12.004c0-3.5671 2.1613-4.7538 6.3749-4.7538 4.4295 0 5.6171 1.4069 5.6171 5.9472v10.701h8.6444v-12.326c0-3.351 2.4851-4.4315 6.4823-4.4315 3.8898 0 5.8339 1.1886 5.8339 4.4315v12.326h8.4276v-13.729c0-6.9187-4.2132-10.055-11.992-10.055-6.6987 0-8.9682 2.2713-10.049 5.0819-1.7286-3.0268-4.2132-5.0819-10.912-5.0819zm168.98 0.10549c-5.0781 0-6.9131 1.0811-8.7499 4.9726v-4.4315h-8.1034v23.242h8.4276v-12.107c0-3.1349 1.9442-4.7558 5.5097-4.7558 3.5653 0 4.4294 1.0812 4.537 3.9999h7.8866c0-7.8915-1.0807-10.92-9.5077-10.92zm-264.49 0.32421c-14.586 0-16.424 2.2701-16.424 12.107 0 10.054 2.4863 12.109 16.424 12.109 14.802 0.10681 16.205-2.3802 16.205-12.758 0-9.5128-2.5918-11.459-16.205-11.459zm150.18 0c-14.586 0-16.424 2.4872-16.424 12.324 0 9.8371 2.4864 12 16.424 12 14.802 0 16.424-2.4877 16.424-12.865 0-9.5128-2.8103-11.459-16.424-11.459zm76.169 0c-14.478 0-16.207 2.2701-16.207 12.107 0 10.054 2.4858 12.109 16.207 12.109 14.802 0.10681 16.207-2.3802 16.207-12.758 0-9.5128-2.5938-11.459-16.207-11.459zm65.796 0.10938c-12.641 0-15.451 2.2705-15.451 12.324 0 9.2966 3.6734 11.675 13.938 11.783 11.453 0 16.855-0.54024 16.855-8.1073h-8.3183c-0.32428 1.8377-0.97361 2.7012-4.539 2.7012-8.1032 0-9.2909-0.75624-9.2909-4.7557h22.148c-0.32427-11.243-0.32389-13.945-15.342-13.945zm-328.24 0.10741c-13.397 0-16.422 2.1624-16.422 12 0 9.8371 2.8088 12.107 15.342 12.107 13.181 0 15.883-1.7308 15.883-10.055h-8.4276c0 2.2704-0.86514 3.3515-7.3476 3.3515-5.6181 0-6.914-1.4049-6.914-5.9452 0-4.4321 1.1881-4.4315 7.8866-4.4315 4.97 0 5.8348 0.54018 6.3749 2.8106h8.4276c-0.7565-7.8915-3.0259-9.8377-14.803-9.8377zm327.91 5.6229c6.1582 0 7.0226 0.32319 7.455 3.3495h-14.154c0.32427-2.4865 1.0811-3.3495 6.6991-3.3495zm-101.99 0.64647c4.7538 0 6.3729 0.64773 6.3729 4.4315 0 5.6212-0.32304 6.164-7.0214 6.164-6.6987 0-8.4276-0.2177-8.4276-4.9726 0-5.405 2.0532-5.6229 9.0761-5.6229zm-190.38 0.21679c6.9145 0 8.1034 0.2177 8.1034 5.2968 0 4.7564-0.86514 5.621-7.3476 5.621-6.9145 0-7.7792-0.75681-7.7792-5.621 0-4.7564 1.0811-5.2968 7.0233-5.2968zm150.29 0c6.9145 0 8.1015 0.2177 8.1015 5.2968 0 4.7564-0.86316 5.621-7.3456 5.621-7.1307 0-7.996-0.75681-7.996-5.621 0-4.7564 1.0821-5.2968 7.2401-5.2968zm76.061 0c6.9145 0 8.1015 0.2177 8.1015 5.2968 0 4.7564-0.86312 5.621-7.3456 5.621-7.1307 0-7.996-0.75681-7.996-5.621 0-4.7564 1.0821-5.2968 7.2401-5.2968zm-166.39 37.63-4e-3 4e-3c-27.643 0-51.927 23.175-51.927 52.095 0 29.714 24.484 51.899 52.128 51.899 4.9366 0 7.898-0.59141 14.02-2.1758v-26.943c-6.1208 3.1694-9.2805 3.9608-14.217 3.9608-15.402 0-27.051-12.876-27.051-27.139 0-14.857 11.452-27.535 26.854-27.535 5.1339 0 9.6751 1.3848 14.414 4.1581v-26.346c-5.3313-1.3863-8.8853-1.9804-14.217-1.9805zm155.9 10.402c-21.167 0-35.079 16.294-35.158 42.55-0.0788 29.421 16.161 40.649 35.002 40.649 19.077 0 32.401-11.508 32.322-28.947 0.079-14.829-9.8159-25.623-24.439-25.623-9.2234 0-17.58 4.4267-20.654 11.861h-0.47266c0.0788-13.089 4.1768-21.826 13.4-21.826 4.6115 0 8.6317 2.0535 9.6171 6.6405h21.602c-1.3796-13.84-13.403-25.307-31.219-25.307zm-65.448 1.1074-19.865 12.18v18.666l17.658-10.6h0.47265v60.741h21.918v-80.987h-20.184zm-74.853 18.207v20.404h24.484l20.141-20.404zm139.99 24.186c6.543 0 11.272 4.8639 11.193 11.547 0.0788 6.6829-4.6505 11.545-11.193 11.545-6.3853 0-11.118-4.8621-11.197-11.545 0.0788-6.6829 4.8117-11.547 11.197-11.547zm-139.99 0.57616v20.404h44.624l-19.746-20.404z" fill="#1a1a1a" stroke-width="1.2976"/>
 <style type="text/css">.st0{fill:#FC0C18;}
	.st1{fill:#FC0C18;}</style>
</svg>
