<?xml version="1.0" encoding="UTF-8"?>
<svg width="480" height="320" version="1.1" viewBox="0 0 480 320" xmlns="http://www.w3.org/2000/svg">
 <defs>
  <linearGradient id="a" x1="81.598" x2="81.598" y2="84.667" gradientTransform="scale(3.7795)" gradientUnits="userSpaceOnUse">
   <stop stop-color="#fff" offset="0"/>
   <stop stop-color="#e6e6e6" offset="1"/>
  </linearGradient>
 </defs>
 <rect width="480" height="320" ry="16" fill="url(#a)" stroke-linecap="square" stroke-linejoin="round" stroke-width="2" style="paint-order:stroke fill markers"/>
 <path d="m189 74.983v3.6972c0 4.1449-0.2819 3.9483 6.746 4.7304 5.7844 0.64349 15.476 2.7872 19.625 4.3417 6.7523 2.53 8.029 5.3127 8.0351 17.508l4e-3 7.6757-2.1934-0.49804c-6.2111-1.4074-9.8696-1.6172-28.676-1.6543l-20.41-0.041v7.5136c0 7.1473 0.0828 7.5889 1.6875 9.076l1.6856 1.5625v17.576c0 9.6663-0.26614 17.574-0.59179 17.574-1.3912 0-2.952-3.4884-12.332-27.574l-9.8866-25.391h-24.723l-9.8964 25.977c-5.4428 14.287-10.201 26.736-10.572 27.664-0.53317 1.3319-0.68939 0.44327-0.74609-4.2187l-0.0723-5.9042h-15.266l-1.4766 2c-3.8033 5.1441-13.616 3.6615-18.043-2.7266-3.2763-4.7277-4.4423-11.011-2.8828-15.533 2.3452-6.8003 9.3695-10.292 11.463-5.6972 0.52591 1.1543 0.4476 2.0239-0.3125 3.4745l-1.0137 1.9355 5.8378 3.8964c3.2106 2.1434 6.1464 3.818 6.5253 3.7206 0.79973-0.2056 18.541-18.805 18.541-19.438 0-1.1157-5.2351-6.9424-8.3534-9.2967-7.5752-5.719-13.604-7.6374-24.033-7.6483-5.7814-6e-3 -8.0962 0.31472-12.588 1.7461-16.524 5.2655-25.809 18.856-25.041 36.649 0.27923 6.4689 0.47856 7.2826 3.1094 12.592 4.8074 9.7018 14.571 17.24 26.424 20.404 3.9911 1.0654 10.359 1.1919 70.675 1.4082l66.292 0.23826v-7.4666c0-7.2655-0.0453-7.4873-1.6504-8.2187-1.96-0.893-2.6302-2.2634-1.5137-3.0897 0.44182-0.32701 2.625-1.1438 4.8515-1.8144 2.2269-0.67048 6.4013-2.3874 9.2773-3.8163l5.2284-2.5976v32.31l-139.33 0.36718-2.6992 1.457c-5.7901 3.1244-8.6809 7.9218-8.6776 14.398 0.0034 6.5831 2.9608 11.373 9.0155 14.598 2.2526 1.2002 5.5456 1.2679 72.026 1.4434l69.663 0.18361v3.2577c0 2.2634-0.46541 3.9484-1.5215 5.5155-3.1725 4.7076-8.6996 6.4258-22.938 7.1308l-9.2772 0.45898v4.2851l-6e-3 4.2851h101.88v-8.5722l-6.2401-0.44727c-8.7642-0.62739-18.235-2.7108-21.791-4.7948-3.3174-1.9442-5.703-5.7447-5.703-9.0838v-2.0371l140-0.36718 2.6992-1.4551c5.7885-3.1234 8.6815-7.9226 8.6815-14.4s-2.8929-11.277-8.6815-14.4l-2.6992-1.4551-140-0.36914v-7.5585l2.1914 0.48241c4.8449 1.0691 12.878 1.6394 23.615 1.6738l11.303 0.0352v-6.0722c0-3.3398 0.1349-6.0722 0.30077-6.0722 0.16592 0 2.3189 1.5278 4.7851 3.3944 16.737 12.667 35.367 13.4 51.878 2.0391l3.0859-2.125v8.8358h31.664l0.19141-6.578 0.19336-6.578 19.904-0.37304v13.529h33.736v-8.4667c0-8.1468-0.0619-8.5214-1.6621-9.951-1.5024-1.3421-1.8938-2.9468-4.0488-16.625-2.8088-17.827-2.9131-19.954-1.0352-20.959 1.2236-0.65498 1.3496-1.4116 1.3496-8.1308v-7.4101l-34.074 0.36132-0.98241 3.8788c-0.54008 2.1338-1.1828 3.8788-1.4277 3.8788-0.24513 0-1.11-1.8203-1.9219-4.0468l-1.4766-4.0487h-32.988l-0.0137 15.855-1.7988-2.3613c-9.4517-12.416-24.862-17.817-41.226-14.449-8.5514 1.7601-15.934 5.4801-21.127 10.645l-2.4336 2.418-2.2129-2.7538c-2.9851-3.7148-9.3861-7.7347-15.16-9.5214-3.7682-1.166-6.4757-1.4745-13.094-1.4941l-8.3437-0.0253 0.29296-7.4218c0.33562-8.4997 1.4606-11.691 4.8651-13.795 2.9665-1.8333 8.5327-3.1905 16.746-4.0819 3.8104-0.41354 8.2177-0.90586 9.7948-1.0938l2.8672-0.34178v-7.338h-101.88zm138.39 40.69c1.3409 0.0264 2.7001 0.12536 4.0742 0.2988 11.623 1.4668 20.832 7.7063 25.564 17.32 2.0352 4.1343 2.3271 5.4105 2.541 11.133 0.2895 7.7494-1.0182 12.674-4.9276 18.564-4.1918 6.3151-12.541 11.676-20.551 13.195-19.711 3.7382-37.357-7.9106-40.014-26.414-2.6993-18.796 13.199-34.494 33.312-34.097zm-249.95 0.17967c1.4673-1e-3 2.9436 0.098 4.4198 0.30664 4.9855 0.70448 12.453 4.2525 16.65 7.9101l2.9648 2.582-5.3515 5.6386c-4.7739 5.0305-5.5031 5.5587-6.7479 4.8925-1.1931-0.63832-1.3501-1.2197-1.082-4.0097 0.26766-2.7856 0.05847-3.5669-1.4316-5.3378-2.4794-2.9462-5.0217-3.7961-10.438-3.4901-5.5187 0.31181-8.2955 1.9104-11.451 6.5897-4.2037 6.2335-4.5521 14.88-0.91015 22.584 3.7353 7.901 9.3169 11.874 17.43 12.404 6.6288 0.43293 9.3029-0.20179 12.32-2.9276 1.4146-1.2779 3.2198-2.3242 4.0098-2.3242 1.3741 0 1.4355 0.30618 1.4355 7.0839v7.0839l-12.65-0.0469c-17.366-0.0661-22.755-1.6991-30.74-9.3142-4.6177-4.4038-6.8648-7.9565-8.6405-13.662-1.5491-4.9771-1.5869-7.3775-0.20508-13.453 2.9563-12.997 16.234-22.499 30.418-22.51zm188.17 0.37304c0.92674-0.0159 1.8826-3e-3 2.873 0.0391 5.6495 0.24113 7.1551 0.57617 11.039 2.4473 2.4733 1.1913 5.9505 3.482 7.7284 5.0917l3.2324 2.9276-4.9901 5.4999c-6.3435 6.9912-7.7381 7.1239-7.7597 0.74608-0.0208-6.1791-4.0176-9.066-11.93-8.619-5.755 0.32504-9.2689 2.602-12.301 7.9745-1.9562 3.4665-2.0938 4.1566-2.0938 10.473 0 6.2799 0.15696 7.0816 2.2168 11.266 4.0104 8.1463 10.683 12.278 19.74 12.223 4.8388-0.0295 8.2906-1.3007 10.803-3.9745 0.85191-0.9068 2.1037-1.6484 2.7812-1.6484 1.118 0 1.2305 0.68602 1.2305 7.4218l2e-3 7.4237-9.6151-0.0859c-5.2878-0.0471-11.448-0.32629-13.688-0.61913-12.07-1.5779-21.634-8.2807-26.807-18.787-2.0203-4.1037-2.1816-4.9351-2.1816-11.193 0-6.1631 0.18551-7.1529 2.0938-11.18 2.6381-5.5667 5.5892-8.9488 10.697-12.256 5.3875-3.4879 10.44-5.0583 16.928-5.1698zm-132.96 1.2226 15.391 0.37891 9.3085 24.182c5.1193 13.3 9.7846 24.91 10.367 25.799 0.58249 0.88899 1.7494 2.0671 2.5918 2.6191 1.0324 0.67644 1.5044 1.6144 1.4492 2.877l-0.082 1.873h-22.029l-0.084-1.9082c-0.0528-1.2048 0.36027-2.1475 1.1211-2.5547 1.7257-0.9237 1.5023-3.1566-0.96874-9.6912l-2.1738-5.7499h-18.412l-2.1133 5.6015c-2.4785 6.5668-2.66 8.9041-0.76561 9.9178 0.8836 0.47288 1.3496 1.4128 1.3496 2.7226v2h-17.543v-2.0664c0-1.4426 0.57897-2.5544 1.9141-3.6776 1.5655-1.3175 3.6196-6.2213 11.297-26.967l9.3827-25.355zm46.226 0.041h17.135c15.137 0 17.634 0.15334 21.422 1.3262 7.7633 2.4034 11.035 6.833 10.984 14.867-0.0707 11.185-5.9122 16.574-24.707 22.795l-7.2909 2.414v4.5487c0 3.9018 0.24773 4.8421 1.7363 6.6112 1.0292 1.2232 1.6465 2.6855 1.5176 3.5937-0.21354 1.5062-0.38816 1.5336-10.508 1.7168l-10.289 0.1875v-1.9238c0-1.18 0.65304-2.5379 1.6875-3.5098l1.6875-1.584v-44.198l-1.6875-1.3262c-1.1524-0.90651-1.6875-1.99-1.6875-3.4218v-2.0957zm200.37 0h10.773l3.4688 10.965c1.9079 6.0305 3.6866 11.198 3.9512 11.484 0.26418 0.28611 2.2641-4.6481 4.4452-10.965l3.9668-11.484h10.998c10.86 0 10.998 0.0185 10.998 1.4746 0 0.81103-0.64947 2.1648-1.4414 3.0078l-1.4395 1.5332 3.4004 23.014c2.4168 16.359 3.7116 23.358 4.4765 24.203 0.59186 0.654 1.0762 2.0009 1.0762 2.9922v1.8008h-20.916v-1.7188c0-0.99766 0.71472-2.3429 1.7051-3.205l1.707-1.4844-1.3691-8.7733c-3.3138-21.213-4.0206-25.478-4.2538-25.711-0.20485-0.20485-1.9336 4.9263-8.9452 26.555-0.18973 0.58604-2.0004 0.84373-5.9374 0.84373h-5.6659l-4.2012-12.314c-2.3106-6.7724-4.3599-12.768-4.5546-13.324-0.52157-1.4925-0.62715-0.94996-2.8652 14.766-2.5471 17.885-2.559 18.608-0.33398 20.066 1.1156 0.73102 1.6487 1.6253 1.5176 2.5449l2e-3 2e-3c-0.19276 1.3521-0.63678 1.4265-9.4804 1.6055l-9.2772 0.1875v-2.0195c0-1.3211 0.46128-2.2673 1.334-2.7344 0.73367-0.39264 1.6104-1.238 1.9492-1.8789 0.33863-0.641 2.218-11.158 4.1757-23.371l3.5606-22.207-1.7988-1.4336c-0.98924-0.78877-1.7988-2.1067-1.7988-2.9276 0-1.4784 0.10425-1.4922 10.773-1.4922zm-51.962 7.4745c-0.63345 2.8e-4 -1.305 0.0219-2.0234 0.0625-3.8114 0.21535-5.1443 0.62174-7.5194 2.291-6.058 4.2575-8.3169 10.291-7.7987 20.824 0.48831 9.9293 3.4826 15.405 9.953 18.203 1.299 0.5617 4.3512 1.0325 6.7831 1.0469 11.511 0.0688 18.162-8.7538 17.367-23.035-0.3976-7.1504-2.334-11.79-6.4218-15.389-3.3596-2.9574-5.9055-4.0058-10.34-4.0038zm-124.72 0.30665c-0.77811 4e-3 -1.59 0.0534-2.4336 0.14842l-2.9824 0.33592-0.19532 12.398c-0.10827 6.8197 0.0686 12.397 0.39454 12.396 1.2877-2e-3 7.9261-4.2559 11.117-7.1249 2.134-1.9185 3.8092-4.1716 4.5565-6.1288 1.0588-2.7724 1.0809-3.3775 0.2168-5.8222-1.4333-4.0549-5.2269-6.2318-10.674-6.203zm-64.907 4.8886c-0.4403 0.50078-5.3358 15.078-5.3358 15.889 0 0.24972 2.582 0.45313 5.7362 0.45313s5.7343-0.18067 5.7343-0.40235c0-1.313-5.7832-16.339-6.1347-15.939zm94.511 66.837c3.5978 0 6.032 1.5858 6.0897 3.8261h-2.9473c-0.15679-1.1267-1.36-1.793-3.1836-1.793-1.9144 0-3.0546 0.73135-3.0625 1.7285-0.0165 1.1072 1.4848 1.5672 2.8711 1.8262l1.5859 0.31056c2.5415 0.47266 4.9588 1.5217 4.9667 3.8202-8e-3 2.3375-2.3605 3.9237-6.412 3.9237-3.936 0-6.4367-1.4819-6.5605-4.1171h3.0137c0.12376 1.3921 1.609 2.0644 3.5234 2.0644 1.9969 0 3.3671-0.75749 3.375-1.8906-8e-3 -1.0295-1.2135-1.4753-3.0371-1.8379l-1.9238-0.38866c-2.7808-0.56332-4.5038-1.6588-4.5038-3.5624-8e-3 -2.344 2.6568-3.9101 6.205-3.9101zm36.553 0c3.5978 0 6.032 1.5858 6.0897 3.8261h-2.9453c-0.15678-1.1267-1.3619-1.793-3.1855-1.793-1.9144 0-3.0546 0.73135-3.0625 1.7285-0.0165 1.1072 1.4868 1.5672 2.873 1.8262l1.584 0.31056c2.5415 0.47266 4.9587 1.5217 4.9667 3.8202-8e-3 2.3375-2.3605 3.9237-6.412 3.9237-3.936 0-6.4347-1.4819-6.5585-4.1171h3.0117c0.12377 1.3921 1.609 2.0644 3.5234 2.0644 1.9969 0 3.3671-0.75749 3.375-1.8906-8e-3 -1.0295-1.2135-1.4753-3.0371-1.8379l-1.9219-0.38866c-2.7808-0.56332-4.5058-1.6588-4.5058-3.5624-8e-3 -2.344 2.6568-3.9101 6.205-3.9101zm-121.32 0.18165h6.3378c3.8866 0 5.9569 1.8589 5.9569 4.3905 0 2.5512-2.095 4.3886-5.9979 4.3886h-3.2344v4.4804h-3.0625v-13.26zm17.502 0h3.0605v11.246h7.4433v2.0137h-10.504v-13.26zm21.189 0h3.7792l5.9569 13.26h-3.2676l-1.4023-3.2694h-6.3554l-1.3945 3.2694h-3.2676zm11.641 0h3.459l4.1328 5.8651h0.16602l4.1327-5.8651h3.459l-6.1483 8.3143v4.9452h-3.0527v-4.9452l-6.1483-8.3143zm44.87 0h3.457l4.1347 5.8651h0.16407l4.1348-5.8651h3.457l-6.1483 8.3143v4.9452h-3.0527v-4.9452l-6.1464-8.3143zm36.965 0h13.484v2.0137h-5.2245v11.246h-3.0371v-11.246h-5.2226v-2.0137zm18.623 0h10.992v2.0137h-7.9296v3.5995h7.3593v2.0137h-7.3593v3.619h7.994v2.0137h-11.057v-13.26zm16.668 0h3.746l5.0175 9.6092h0.19726l5.0175-9.6092h3.7461v13.26h-2.9375v-9.1092h-0.15625l-4.6718 9.0702h-2.1953l-4.6698-9.0896h-0.15625v9.1288h-2.9375v-13.26zm-164.4 2.0078v4.7968h2.8203c2.2775 0 3.293-1.0025 3.293-2.4141s-1.0146-2.3828-3.3086-2.3828zm37.451 0.71093-2.2852 5.3417h4.703l-2.2852-5.3417h-0.13281z" fill="#1a1a1a" stroke-width=".99998"/>
 <style type="text/css">.st0{fill:#FC0C18;}
	.st1{fill:#FC0C18;}</style>
</svg>
