<?xml version="1.0" encoding="UTF-8"?>
<svg width="480" height="320" version="1.1" viewBox="0 0 480 320" xmlns="http://www.w3.org/2000/svg">
 <defs>
  <linearGradient id="a" x1="81.598" x2="81.598" y2="84.667" gradientTransform="matrix(3.7795 0 0 3.7795 -.056445 0)" gradientUnits="userSpaceOnUse">
   <stop stop-color="#fff" offset="0"/>
   <stop stop-color="#e6e6e6" offset="1"/>
  </linearGradient>
 </defs>
 <rect x="-.056445" width="480" height="320" ry="16" fill="url(#a)" stroke-linecap="square" stroke-linejoin="round" stroke-width="2" style="paint-order:stroke fill markers"/>
 <path d="m235.18 50.003c-2.3383 0.05049-4.6122 0.6929-6.8553 0.83202-1.3462 0.52222-5.0831 1.0504-7.7677 2.0078-4.642 1.9323-6.3454 2.7185-11.021 5.0487-2.3338 1.7234-4.4523 2.4185-6.9022 4.3124-1.4808 0.55355-2.8967 2.1635-3.1172 2.3027-2.1388 1.8905-3.245 2.1884-5.1307 4.0743-0.79725 0.91562-3.1366 3.5577-3.9628 4.6601-2.8897 3.5546-4.7747 7.6248-6.5722 11.162-1.2499 2.27-1.4867 3.9417-2.4453 5.9728-0.31798 1.2336-1.5002 4.0044-1.6406 4.9258-0.14393 2.1539-0.74075 3.1486-1.1934 5.5309-0.51523 2.8247-0.12125 5.2675-0.41601 7.861 0.20421 1.1617 0.43151 3.261 0.38283 4.1522 0.43404 3.7867 1.5478 6.2158 2.207 9.9919 0.6232 1.6178 1.6872 5.4051 3.2109 8.5349 0.57445 1.8499 3.2184 6.0699 3.953 7.4823 3.3562 4.5562 8.5538 9.445 10.875 10.881 0.57445 0.55702 3.9647 2.8761 4.9765 3.3866 1.5516 0.84136 5.2543 2.3922 7.1679 3.1093 3.4665 1.063 9.3339 2.7115 15.191 3.4101 5.856 0.69517 11.222 0.2352 16.443-0.23826 2.6946-0.55589 5.1968-1.3941 7.1815-2.0312 4.8752-1.9056 7.5209-3.2316 10.998-5.3064 2.5624-1.5272 3.9844-2.3369 5.6406-3.7167 2.1679-1.7617 4.0437-3.3809 5.8065-5.4746 4.1522-4.7255 6.2578-9.6294 7.4589-13.648 0.53847-2.1528 1.4573-9.1759 0.88278-12.617-0.33887-4.0097-1.1244-8.2972-1.584-10.568-0.51639-2.2073-0.74158-3.9371-1.2012-5.8926-0.36091-1.2325-0.91816-3.3415-1.1016-4.0762-0.39341-1.4669-2.8626-6.7328-3.2422-7.2714-2.082-3.2146-3.7183-5.8318-7.115-8.3221-1.3265-1.2267-3.3369-2.7366-5.043-3.8377-2.0773-1.2522-3.5368-2.3803-6.0642-3.0859-2.3616-0.65918-4.3657-1.5014-7.861-1.9668-1.8835-0.34118-5.7109-1.1699-8.3418-1.1934-5.85-0.094-7.7061-0.61364-13.885 1.9023-4.9738 2.3617-8.6487 4.252-13.051 7.83-1.7257 1.2383-3.0158 2.9933-4.789 5.1424-1.1756 1.3949-1.844 2.6235-3.2285 4.5917-0.76826 1.0015-1.4338 2.9095-2.5723 5.0506-2.0182 5.3752-2.2472 13.751-1.877 15.752 0.33075 1.7814 0.57275 4.3865 1.0625 5.5468 0.36208 0.85878 0.8013 4.9243 3.0526 9.2519 0.4503 0.6116 1.9912 3.5996 3.5625 5.2497 2.8328 2.9975 6.5556 5.4554 9.871 6.8515 4.8624 2.1458 13.026 2.6774 16.006 1.9277 3.03-0.45143 4.8797-0.48862 7.2892-1.4414 2.2236-0.61738 3.9284-1.4024 5.3904-2.0918 1.6642-0.83557 2.7363-1.3407 4.3321-2.3086 1.1246-0.58258 2.5097-1.5833 3.3848-2.3945 2.1795-1.6038 3.6244-3.7366 4.453-5.4901 0.89477-1.9044 1.3416-3.3058 1.4356-4.7403 1.1559-8.5005-0.43336-14.811-3.207-20.486-1.3044-2.1888-3.641-4.834-5.9607-6.2695-2.7493-1.7338-3.7058-1.9726-7.0526-3.1679-1.9578-0.65454-4.9119-0.96015-7.4139-1.1992-3.0811-0.17987-6.4906 0.19835-8.4355 1.2266-2.2062 0.99919-4.4663 3.1474-6.2442 4.9531-1.3671 1.851-2.2149 3.4759-2.8984 5.6111-0.34118 1.8812-0.68394 2.4309-0.79884 3.7167-0.16596 1.9067 0.2716 3.8162 0.48631 4.8143 0.17873 0.84023 0.53257 1.7912 1.2266 3.0839 0.5698 1.0514 1.3982 2.5126 2.1328 3.1718 1.0201 0.91449 2.471 2.2645 3.418 2.8262 1.41 1.0572 7.8353 2.2966 10.365 1.873 2.8236-0.21354 5.4739-0.545 5.8904-3.3106 0.59418-1.4367-0.0359-3.4918-1.6758-4.4235-1.106-0.506-4.4209 0.3586-7.2911-0.24023-4.179 0.21933-5.2615-2.7499-6.1561-5.5351-0.98759-3.08 1.4943-6.0578 2.75-7.4921 1.4472-1.4785 3.829-2.7725 6.6758-2.4336 1.5017 0.17639 5.0366 0.85761 6.531 1.5957 2.6634 1.3172 5.0041 2.9676 6.0937 4.662 1.0758 1.6734 2.0662 4.3873 2.6465 6.7306 0.58375 2.3419 0.16796 3.9579 0.24805 6.8046 0.16827 2.0808-0.7875 5.4414-1.3457 6.1425-1.0584 1.3369-3.3886 3.1621-3.3886 3.1621-1.6978 1.251-3.3479 1.6568-5.785 2.787-2.7156 1.1779-3.2004 1.1956-5.836 1.8281-1.2986 0.30988-3.7878 0.46193-4.7618 0.52343-1.9822-5e-3 -5.562-0.19971-7.6834-1.3672-2.3686-0.67887-5.5264-2.4315-7.1641-4.2187-2.2131-2.147-3.5286-4.2436-4.2168-5.7071-0.1706-0.36208-1.3855-2.8425-1.498-3.3124-0.10908-0.47116-0.61996-2.814-0.82421-3.5684-0.20307-0.75201-0.71482-4.2066-0.71482-6.0877-0.17408-2.473 0.19117-6.3159 1.3262-9.0466 1.0468-2.7446 2.6067-5.2894 4.0097-7.1973 1.0212-1.1663 1.9256-3.1525 3.1894-4.3223 1.5841-1.4831 2.7526-2.1709 4.3007-3.0702 3.3272-2.0367 4.523-2.7631 7.7771-3.9061 1.1153-0.3911 4.1408-1.0108 5.4452-1.2383 3.7878-0.27617 4.4311-0.54206 8.3887-0.12892 1.8534 0.33887 4.7698 1.0191 6.5545 1.6191 6.333 2.4927 10.896 6.4826 12.367 8.1736 2.3744 2.7271 5.5408 6.5435 6.6191 10.662 1.1431 3.6579 1.8924 6.5132 2.7871 10.328 0.66497 2.82 0.48502 5.3813 0.99216 8.2851 0.16728 0.53382 0.39451 3.6805 0.1914 4.6171-0.21472 3.2274-0.0407 3.0809-1.1641 6.1251-0.93883 2.0553-1.4918 3.7186-2.4551 5.297-0.89011 1.135-1.8138 2.4172-2.3906 3.2539-1.0398 1.4866-1.8681 2.1801-3.2422 3.3788-0.94813 0.98875-1.9165 1.385-3.5215 2.412-0.82859 0.68935-3.4947 2.263-5.2403 3.2285 0.051-0.0592-4.3056 1.9104-8.07 3.2948-3.4758 1.2824-9.2069 1.8438-13.365 1.7637-3.9526-0.0754-8.058-0.45278-11.18-1.0156-1.829-0.48393-8.1521-2.1765-10.174-3.207-7.1732-3.2285-13.609-7.7026-18.4-18.031-1.0526-1.4321-2.7614-7.5798-3.127-9.3554-0.43056-2.574-1.4629-4.7535-1.4746-7.8984-0.32148-3.4931 0.0535-4.3744-0.0314-8.6464-0.18221-2.386 0.9154-7.2964 1.4922-9.9295 0.84484-2.5926 2.941-6.2661 4.0214-8.6403 2.4429-4.8 4.2153-6.8322 7.7598-10.619 3.5175-3.3434 8.8169-7.2616 12.312-9.1774 3.246-1.9067 6.5567-3.4739 8.9393-4.4451 2.95-1.1269 6.2238-1.3504 8.293-1.9121 5.4626-0.63828 7.4786-0.26388 11.691 0.03326 3.4083 0.24023 5.7679 0.80628 9.3574 1.209 2.6414 0.35164 6.8992 1.6039 7.8924 1.9277 3.1183 0.95161 7.4408 2.8014 10.117 4.4235 2.8909 1.9323 5.9426 4.6488 7.5798 6.6482 1.8545 2.3791 4.9652 6.0272 7.951 10.623l1.6856 2.8535c2.1528 3.2424 2.7386 7.7522 4.0857 10.855 1.7292 3.8388 1.5177 7.1936 3.0449 9.5565 1.1036 1.7083 3.4455 2.8722 5.9766 2.2676 2.5346-0.60347 2.4142-4.9168 2.2715-6.0937l-1.5213-6.8027c-0.69748-3.8585-0.85573-5.1957-3.1582-9.8124-2.0588-4.1303-4.4878-8.6188-6.5544-11.633-1.2951-1.8278-3.3264-4.7917-4.3907-6.1602-1.0944-1.4042-3.911-4.1964-5.2539-5.2615-2.8363-2.2514-10.864-6.9498-15.809-8.4608-2.4545-0.7497-7.1614-2.3611-11.768-3.0526-3.629-0.78916-6.3058-0.88943-8.3554-1.0078-3.0416-0.27621-6.0896-0.49047-9.1151-0.46288-0.33683-0.02003-0.67181-0.02495-1.0059-0.01776zm-194.51 118c0.98657 1.2249 1.4102 4.1374 1.4102 6.3866v53.159c0 2.4125-0.707 5.4697-1.918 7.7204 5.91 0 22.567 0.0527 26.93 0.0527 19.89 0 34.563-14.351 34.563-33.616 0-25.96-20.787-33.66-34.563-33.66-5.9879 0-19.956-0.043-26.422-0.043zm22.287 5.8496c1.6604-9e-3 3.3276 0.0405 5.0135 0.14064 10.339 0.61152 23.758 5.6118 23.859 27.488 0.10757 23.083-17.162 26.83-22.301 27.57-5.311 0.76369-11.18 0.50857-17.539-0.32421l-2e-3 -53.911c3.6972-0.64445 7.3157-0.94333 10.969-0.96287zm364.97 0.66017-9.123 2.5391c1.2573 1.1848 1.666 4.6511 1.666 6.9373 0 0-8e-3 4.2353-8e-3 4.7459-0.40891 0-5.0438 0.0234-5.8106 0.0234v4.67c0.80916 0 5.6353 2e-3 5.6387 2e-3v30.28c0 9.507 6.5084 12.049 11.33 12.049 2.037 0.0999 4.9266-0.37912 6.9434-0.83005l1.2402-5.8669c-2.3505 0.90561-5.0823 1.1172-6.7226 1.1172-3.0228 0-5.209-2.0213-5.209-5.1813 0-2.8355-0.0714-30.631 0-31.52 0.44671-1.8e-4 6.6444-0.0223 7.2752 0 2.0556 0.0728 3.6359 0.19914 4.9962 0.75l8e-3 -5.5272s-12.04-0.0155-12.275-0.0155l0.0488-14.174zm-30.006 12.432c-7.7367 0-15.855 3.4397-15.855 12.582 0 13.521 24.128 11.754 24.128 22.409 0 5.7736-4.4855 8.8395-10.746 8.8395-4.5128 0-10.667-2.5037-14.588-5.3242l1.8262 8.2888c3.9137 1.1288 8.6177 1.9336 13.129 1.9336 9.2583 0 17.67-4.5596 17.67-14.336 0-15.117-24.111-14.689-24.111-22.053 0-5.0154 3.8457-7.5742 8.9647-7.5742 3.2248 0 8.1169 0.66686 11.324 3.4258l0.0302-6.2441c-3.6079-1.406-9.2855-1.9492-11.773-1.9492zm-280.7 0.17185-9.8982 1.5566c1.5457 1.2399 2.048 5.0797 2.0508 7.5605v34.199c0 1.1288-0.48299 3.5777-1.5215 4.8672h10.283c-0.66852-1.4612-0.91404-3.7383-0.91404-4.8672v-23.709c0-11.49 8.7576-15.798 19.033-10.887l2.6328-6.9392c-11.226-4.3994-19.127 0.67812-21.666 6.9959v-8.7772zm83.845 0.0117c-4.1465 0-10.756 0.75862-14.854 2.412l2e-3 6.9101c3.9322-2.3687 8.6385-4.1268 14.385-4.1268 7.8285 0 11.658 4.0448 10.557 9.4412-0.67038 3.2621-5.1137 4.247-8.5701 4.7384-6.2468 0.89816-20.631 1.0735-20.631 16.289 0 4.2629 2.8151 13.135 15.713 13.135 6.5359 0 10.387-1.8752 13.607-6.0642l0.3086 5.3964h8.5096c-1.3445-2.5274-1.4023-6.1247-1.4023-9.9235v-20.516c0-12.366-7.036-17.691-17.625-17.691zm157.59 0c-4.142 0-10.761 0.75862-14.857 2.412l-4e-3 2e-3v6.9082c3.9334-2.3687 8.6404-4.1268 14.385-4.1268 7.8293 0 11.658 4.0448 10.555 9.4412-0.66297 3.2621-5.1107 4.247-8.5682 4.7384-6.2438 0.89816-20.627 1.0735-20.627 16.289 0 4.2629 2.8186 13.135 15.709 13.135 6.5359 0 10.383-1.8752 13.607-6.0642l0.3086 5.3964h8.5077c-2.2205-2.6049-1.3963-6.1247-1.3963-9.9235v-20.516c0-12.366-7.0356-17.691-17.619-17.691zm-111.05 0.13478c-6.5983-3e-3 -10.495 3.8929-12.4 6.2615 0-0.55272 0.0196-5.5026 0.0196-6.1364l-10.021 1.5605c1.2082 1.2744 2.1348 5.2498 2.1348 8.0916v33.061c0 1.1288-0.48114 3.8695-1.5215 5.156h10.926c-1.0366-1.2894-1.5176-4.0282-1.5176-5.156v-24.877c0-9.103 5.593-12.289 11.16-12.289 5.0385 0 9.5898 2.1945 9.5898 12.289v24.879c0 1.1288-0.48185 3.8668-1.5176 5.1541h10.596c-1.0414-1.2894-1.5177-4.0263-1.5177-5.1541v-24.879c0-10.094 6.1931-12.289 11.242-12.289 5.0347 0 10.301 3.1831 10.301 12.289v24.879c0 1.1288-0.47649 3.8668-1.5215 5.1541h10.207c-1.045-1.2894-1.5195-4.0263-1.5195-5.1541v-29.602c0-5.0453-5.1145-13.131-17.053-13.131-6.9468 0-10.958 3.1122-14.004 5.7891-2.5898-3.0436-6.8066-5.8983-13.582-5.8983zm-88.668 0.0136c-13.876 0-22.113 10.927-22.113 24.863 0 12.602 9.1706 23.863 24.879 23.863 4.9663 0 9.1181-1.2318 13.602-2.8124l1.5762-8.0564c-3.834 3.178-10.03 5.0585-15.623 5.0585-10.052 0-16.464-7.3285-16.42-18.494 8e-3 -1.1521 0.15916-2.2501 0.28709-3.3143h32.826c0-11.362-5.6447-21.107-19.014-21.107zm163.04 0.0566c-14.435 0-25.102 9.7995-25.102 23.73 0 12.606 7.9521 24.723 24.916 24.723 4.9625 0 8.7103-0.63549 13.16-1.9688l1.7793-8.0232c-4.3718 2.7038-10.003 4.5781-14.141 4.5781-12.071 0-17.602-8.3527-17.602-19.258 0-11.009 5.6564-18.65 18-18.65 3.515 0 8.5553 1.4887 11.748 3.3671l0.0136-6.4082c-1.8591-0.53215-6.4634-2.0898-12.773-2.0898zm-163.59 4.8514c9.2889 0 11.977 7.2994 11.977 11.16-2e-3 0-24.201 0.0178-24.201 0 1.0654-5.5272 6.1455-11.16 12.225-11.16zm53.186 16.852h2e-3v7.7204c0 6.1451-2.7742 13.943-13.51 13.943-4.0528 0-9.1718-3.7201-9.1718-8.4472 0-7.9668 7.0375-9.3275 15.162-10.398 3.0914-0.41079 6.0869-1.4618 7.5175-2.8183zm157.58 0v7.7204c0 6.1451-2.7762 13.943-13.51 13.943-4.0528 0-9.1657-3.7201-9.1657-8.4472 0-7.9668 7.0356-9.3275 15.158-10.398 3.0932-0.41079 6.0884-1.4618 7.5175-2.8183z" fill="#1a1a1a" stroke-width="0" style="paint-order:stroke markers fill"/>
 <style type="text/css">.st0{fill:#FC0C18;}
	.st1{fill:#FC0C18;}</style>
</svg>
