<?xml version="1.0" encoding="UTF-8"?>
<svg width="480" height="320" version="1.1" viewBox="0 0 480 320" xmlns="http://www.w3.org/2000/svg">
 <defs>
  <linearGradient id="a" x1="81.598" x2="81.598" y2="84.667" gradientTransform="matrix(3.7795 0 0 3.7795 -.056445 0)" gradientUnits="userSpaceOnUse">
   <stop stop-color="#fff" offset="0"/>
   <stop stop-color="#e6e6e6" offset="1"/>
  </linearGradient>
 </defs>
 <rect x="-.056445" width="480" height="320" ry="16" fill="url(#a)" stroke-linecap="square" stroke-linejoin="round" stroke-width="2" style="paint-order:stroke fill markers"/>
 <path d="m73.094 181.19c-10.079 0-18.089 3.2297-24.029 9.6884-5.9395 6.4599-8.908 15.189-8.908 26.187 0 10.639 3.1294 19.078 9.3895 25.318 6.2593 6.2396 14.747 9.3573 25.466 9.3573 4.2796 0 8.5005-0.43952 12.66-1.3191 4.1601-0.87934 8.2193-2.1595 12.179-3.8388v-3.2707c0.6796 0.93906 1.4516 1.8201 2.3147 2.6408 4.0588 3.86 9.5282 5.7879 16.408 5.7879 5.4391 0 10.039-0.96725 13.799-2.9075 3.7592-1.9395 6.8995-4.9512 9.4193-9.0315v10.2h11.04v-2.2678c4.0955 1.3021 8.0024 2.2905 11.717 2.9569 3.8997 0.6991 7.6502 1.0499 11.25 1.0499 8.6392 0 15.428-1.8192 20.368-5.4595 4.9395-3.6391 7.4086-8.578 7.4086-14.817 0-5.4795-1.6483-9.7508-4.9482-12.811-3.2997-3.0587-8.8706-5.427-16.709-7.107l-3.7795-0.84238c-5.9199-1.3192-9.8589-2.7071-11.818-4.1673-1.9608-1.4603-2.9421-3.4704-2.9421-6.0298 0-3.3601 1.3705-5.879 4.1106-7.559 2.7387-1.6794 6.8493-2.5197 12.329-2.5197 3.5989 0 7.0775 0.40082 10.437 1.2006 3.3602 0.80111 6.601 2.0002 9.7206 3.5992v-0.43475l22.253 54.13-1.9812 5.0396c-2.0396 5.3594-3.9005 8.7602-5.5805 10.2-1.6802 1.4398-4.0388 2.159-7.0775 2.159h-6.4796v9.239h8.8192c4.9587 0 8.9174-1.219 11.877-3.6585 2.9592-2.44 6.0011-7.6607 9.1204-15.659l29.323-72.945v66.705h17.27v-25.345h4.8911c2.8108 0 5.0608 0.61459 6.7514 1.8404 1.6888 1.2272 3.357 3.5134 5.0022 6.8625l8.1645 16.642h18.394l-9.3774-19.021c-1.9147-3.8574-3.806-6.7362-5.6742-8.6362-1.8696-1.8985-3.987-3.1153-6.3488-3.6536 4.3068-1.3454 7.5307-3.4404 9.6688-6.2819 2.1381-2.841 3.2065-6.4743 3.2065-10.901 0-6.3983-2.0578-11.078-6.1682-14.039-4.1129-2.9605-10.581-4.4417-19.402-4.4417h-26.269l0.0865-0.2174h-11.7l-20.998 52.554-20.998-52.554h-11.7l0.168 0.40758c-1.6636-0.45123-3.3984-0.82609-5.2025-1.1264-3.5998-0.60008-7.4392-0.90164-11.519-0.90164-8.2398 0-14.599 1.7207-19.078 5.1605-4.4795 3.4397-6.7192 8.3198-6.7192 14.639 0 5.1995 1.52 9.2885 4.5604 12.268 3.0388 2.9797 7.9797 5.1904 14.82 6.6304l3.8389 0.89919c6.8394 1.4797 11.27 3.0205 13.29 4.6193 2.0194 1.5998 3.0286 3.9001 3.0286 6.8995 0 3.2401-1.4004 5.7498-4.1994 7.5295-2.8 1.7795-6.7998 2.6679-11.998 2.6679-3.8801 0-7.7994-0.52826-11.758-1.5884-3.7614-1.0062-7.578-2.4975-11.447-4.4613v-24.787c0-10.238-2.4018-17.878-7.2011-22.917-4.7992-5.0396-12.059-7.559-21.778-7.559-3.5992 0-7.2968 0.38838-11.097 1.1684-3.7999 0.78009-7.722 1.9504-11.761 3.5103v10.198c3.3602-1.8394 6.861-3.2171 10.501-4.1378 3.6389-0.91956 7.3776-1.3809 11.218-1.3809 6.0378 0 10.728 1.3907 14.069 4.1699 3.3388 2.7811 5.0098 6.7098 5.0098 11.788v1.082h-15.479c-10.04 0-17.588 1.9181-22.648 5.7581-0.43079 0.32689-0.84102 0.66886-1.2352 1.0227v-0.72132c0-9.998-2.6307-17.91-7.8901-23.73-5.26-5.8193-12.409-8.7276-21.447-8.7276zm340.24 0.62744c-11.545 0-20.635 3.0933-27.275 9.2832-6.6391 6.1916-9.9602 14.686-9.9602 25.481 0 10.677 3.2602 19.132 9.7799 25.367 6.5204 6.2351 15.356 9.355 26.511 9.355 4.9353 0 9.7221-0.52444 14.357-1.5711 4.6352-1.0467 9.1072-2.6146 13.414-4.7085v-32.21h-26.917v11.576h10.541v13.009c-1.2272 0.47947-2.6084 0.83005-4.1476 1.0548-1.5405 0.22337-3.208 0.33596-5.0026 0.33596-6.6112 0-11.71-1.9305-15.299-5.7879-3.589-3.8589-5.3828-9.3316-5.3828-16.42 0-7.1467 1.8623-12.641 5.5854-16.484 3.723-3.8426 9.0225-5.7656 15.901-5.7656 3.7077 0 7.4098 0.52449 11.104 1.5711 3.6928 1.0472 7.4082 2.6321 11.146 4.7554v-13.863c-3.6192-1.644-7.4665-2.8849-11.549-3.7228-4.0823-0.83727-8.3524-1.2549-12.808-1.2549zm-91.521 1.2104v66.973h17.27v-23.238h11.396c8.5228 0 15.065-1.8902 19.627-5.6742 4.5596-3.7822 6.8402-9.1872 6.8402-16.215 0-6.9985-2.28-12.389-6.8402-16.173-4.5619-3.7829-11.103-5.6742-19.627-5.6742zm-248.59 7.5197c5.4391 0 9.8079 1.8004 13.107 5.4002 3.3005 3.6006 4.9886 8.42 5.0691 14.459l-39.356 0.0618c0.5596-6.3193 2.6884-11.219 6.3882-14.698 3.6988-3.4802 8.6306-5.2222 14.79-5.2222zm204.31 4.995h7.2676c3.6175 0 6.2132 0.65813 7.7839 1.9738 1.5696 1.3156 2.3542 3.5009 2.3542 6.5514 0 3.0806-0.78463 5.2917-2.3542 6.6376-1.5707 1.3462-4.1662 2.0207-7.7839 2.0207h-7.2676zm61.557 0h9.555c3.349 0 5.9373 0.80822 7.7616 2.4234 1.8232 1.6149 2.7371 3.9194 2.7371 6.9093 0 2.9907-0.91389 5.2992-2.7371 6.9294-1.8246 1.63-4.4126 2.4456-7.7616 2.4456h-9.555v-18.705zm-208.26 20.684h10.981v2.4604c0 7.1996-1.8515 12.968-5.5506 17.307-3.7001 4.3408-8.6082 6.5117-14.728 6.5117-4.4394 0-7.9483-1.151-10.529-3.451-2.5795-2.3-3.871-5.4077-3.871-9.3278 0-4.9194 1.72-8.3992 5.1606-10.439 3.4397-2.0399 9.6178-3.0607 18.537-3.0607zm-79.136 2.8186h47.021c-1.7471 3.1576-2.621 6.9585-2.621 11.401 0 2.5725 0.32103 4.9376 0.96094 7.0972-2.9952 1.3947-6.0068 2.4891-9.0365 3.2805-3.9798 1.0402-8.0905 1.5612-12.329 1.5612-7.3191 0-13.028-1.9905-17.127-5.9709-4.1004-3.9794-6.39-9.7689-6.87-17.369z" fill="#1a1a1a" stroke-width=".26982"/>
 <g transform="matrix(1.1669 0 0 1.1669 257.42 81.577)" fill="#1a1a1a">
  <path d="m-13.953-27.062c-7.8079 0-14.83 2.8295-20.217 8.2227-0.65569 0.65637-1.2363 1.3556-1.8164 2.0547-14.583 7.2658-24.621 22.295-24.621 39.654 0 0.45464 0.02881 0.89275 0.04297 1.3398-0.65362 0.97061-1.203 2.0092-1.5352 3.1328l-0.0118 0.04296c-2.1587 7.6221-1.2035 15.327 2.7559 22.186 3.9043 6.762 9.8663 11.428 17.23 13.396 3.0295 0.80999 6.0808 1.0531 9.0977 0.85547 5.1829 2.1233 10.821 3.3828 16.756 3.3828 7.0236 0 13.642-1.7205 19.555-4.6387 0.27849 0.19931 0.52827 0.4385 0.82422 0.60938 2.3021 1.3288 5.1328 1.5892 7.7031 0.9707l0.02344-0.0039 0.02149-0.0059c7.6803-1.9414 13.875-6.6221 17.834-13.48 3.9037-6.7613 4.9653-14.258 2.9883-21.619-0.95992-3.5751-2.6397-6.7658-4.8008-9.6074-1.0454-13.537-8.1668-25.356-18.658-32.758-0.44801-1.8496-1.238-3.6161-2.5488-4.9961l-0.015625-0.01758-0.015625-0.01563c-5.5216-5.6803-12.673-8.7051-20.592-8.7051z" color="#000000" fill-opacity=".3" style="-inkscape-stroke:none"/>
  <path transform="matrix(.85698 0 0 .85698 -220.47 -69.911)" d="m238.44 61.246a47.104 47.104 0 0 0-47.104 47.104 47.104 47.104 0 0 0 47.104 47.105 47.104 47.104 0 0 0 47.105-47.105 47.104 47.104 0 0 0-47.105-47.104zm0.83984 6.8086a42.254 42.254 0 0 1 42.254 42.254 42.254 42.254 0 0 1-42.254 42.256 42.254 42.254 0 0 1-42.254-42.256 42.254 42.254 0 0 1 42.254-42.254z" fill-opacity=".3"/>
  <path d="m28.986 30.139c-1.7251-6.4246-5.5838-11.365-11.573-14.823-5.9894-3.4578-12.21-4.3365-18.665-2.6345-0.72443 0.19103-1.4293 0.41037-2.1161 0.65537-0.58949-0.15002-1.2248-0.22648-1.9076-0.22648h-8.5368c-3.1975 0-5.9153-1.1377-8.1534-3.4147-2.2381-2.2757-3.3573-5.0173-3.3573-8.2246 0-3.2049 1.1179-5.9304 3.3547-8.1748 2.2357-2.2445 4.9525-3.3674 8.1484-3.3674 0.82947 0 1.66 0.087578 2.4918 0.26114l-6.8845 6.8345c-1.4153 1.3962-2.122 2.8866-2.122 4.4715 0 1.7759 0.65458 3.3298 1.9659 4.6612 1.3115 1.3314 2.8615 1.9971 4.6527 1.9971 1.5986 0 3.1012-0.64452 4.5088-1.9349l12.278-12.023c1.8537-1.41 2.7816-3.1737 2.7816-5.2909 0-1.6023-0.6395-3.0776-1.9185-4.4241-4.8609-5.0009-10.776-7.5028-17.746-7.5028-6.9072 0-12.71 2.3532-17.41 7.0593-4.7011 4.7064-7.0506 10.518-7.0506 17.433s2.3492 12.742 7.0506 17.481c0.56568 0.57044 1.148 1.106 1.7457 1.6076 0.16484 0.54398 0.40402 1.0906 0.72099 1.6396l4.2685 7.3933c1.5986 2.7689 1.9722 5.6917 1.1195 8.7683-0.85169 3.0763-2.6665 5.4163-5.4441 7.0199-2.7755 1.6023-5.6949 1.9968-8.7569 1.1819-3.0615-0.81412-5.3922-2.6051-6.9903-5.3732-0.4146-0.71808-0.75433-1.4811-1.0197-2.2884l9.3612 2.5453c1.9169 0.52705 3.5608 0.39449 4.9334-0.3982 1.538-0.88821 2.5564-2.2318 3.0538-4.033 0.49742-1.8018 0.29871-3.4769-0.59664-5.0279-0.79931-1.3846-2.1087-2.3638-3.9299-2.9377l-16.551-4.6212c-2.1482-0.90011-4.1391-0.8218-5.9727 0.23654-1.3877 0.80116-2.3455 2.0926-2.8721 3.8735-1.9005 6.7104-1.1094 13.084 2.3752 19.12 3.4536 5.9814 8.3928 9.8301 14.819 11.547 6.4265 1.7182 12.634 0.8472 18.623-2.6106 5.9888-3.4578 9.8605-8.4058 11.614-14.847 0.20426-0.75009 0.37147-1.4965 0.50509-2.2402 0.38576-0.41302 0.73686-0.89085 1.0517-1.4362l4.2685-7.393c1.5986-2.7689 3.9431-4.5537 7.0339-5.3536 3.0901-0.80036 6.0238-0.39899 8.8014 1.2049 2.7755 1.6023 4.577 3.933 5.4023 6.9927 0.82603 3.0581 0.44 5.9724-1.1581 8.7402-0.4146 0.71834-0.90593 1.3938-1.4719 2.0275l-2.4768-9.3792c-0.50165-1.9238-1.4385-3.2808-2.8112-4.0733-1.538-0.88821-3.211-1.0983-5.0197-0.62838-1.8087 0.47016-3.1604 1.4796-4.0558 3.0308-0.79931 1.3846-0.99272 3.0078-0.57891 4.872l4.2733 16.644c0.29448 2.3101 1.3576 3.9955 3.1911 5.0541 1.388 0.80116 2.985 0.98478 4.7905 0.55033 6.7614-1.7092 11.886-5.5811 15.37-11.617 3.4531-5.9809 4.3164-12.183 2.5911-18.606z" color="#000000" style="-inkscape-stroke:none;paint-order:stroke fill markers"/>
 </g>
 <style type="text/css">.st0{fill:#FC0C18;}
	.st1{fill:#FC0C18;}</style>
</svg>
