<?xml version="1.0" encoding="UTF-8"?>
<svg width="480" height="320" version="1.1" viewBox="0 0 480 320" xmlns="http://www.w3.org/2000/svg">
 <defs>
  <linearGradient id="a" x1="81.598" x2="81.598" y2="84.667" gradientTransform="matrix(3.7795 0 0 3.7795 -.056445 0)" gradientUnits="userSpaceOnUse">
   <stop stop-color="#fff" offset="0"/>
   <stop stop-color="#e6e6e6" offset="1"/>
  </linearGradient>
 </defs>
 <rect x="-.056445" width="480" height="320" ry="16" fill="url(#a)" stroke-linecap="square" stroke-linejoin="round" stroke-width="2" style="paint-order:stroke fill markers"/>
 <path d="m365.03 205.79-12.384-0.0582v-61.1l28.696 0.11187 0.11415 16.04h-11.571v6.983h11.129v15.93h-11.577l0.0603 3.3279 0.0602 3.3279 11.456 0.11641v15.487l-1.8003-0.0525c-0.99016-0.0302-7.3731-0.079-14.185-0.11074zm58.537-21.828c0-24.431 0.0907-22.962-1.4149-22.962-0.53476 0-0.85908 0.15685-1.1879 0.57497-0.4507 0.57298-0.45229 0.65102-0.45229 22.368v21.793h-16.366v-21.902c0-21.827-2e-3 -21.904-0.4523-22.477-0.30009-0.38128-0.66213-0.57498-1.0753-0.57498-0.4131 0-0.77533 0.19351-1.0752 0.57498-0.45071 0.57297-0.4523 0.65102-0.4523 22.368v21.793h-15.93v-60.68l23.677 0.12322 1.2273 0.60298c0.67502 0.33146 1.6885 1.0089 2.2523 1.5052l1.025 0.90225 0.76596-0.7886c0.42131-0.43374 1.3226-1.062 2.003-1.3961 1.2371-0.60751 1.2371-0.60751 8.6188-0.67037 7.883-0.0673 8.9231 0.034 10.949 1.0712 1.1297 0.57811 2.6135 2.0129 3.3246 3.2148 1.1654 1.9696 1.1419 1.3543 1.1455 29.983l3e-3 26.568h-16.585zm-316.9 21.468c-2.8156-0.75798-5.574-4.0055-6.2725-7.384-0.15647-0.75749-0.2177-4.6458-0.1799-11.424l0.0578-10.275 15.494 9.4507 0.10923 2.241c0.10356 2.1227 0.14135 2.2688 0.7214 2.7676 0.33675 0.28951 0.74948 0.52664 0.91717 0.52664 0.45895 0 1.3816-0.46265 1.4733-0.73878 0.0446-0.1338 0.0393-1.3908-0.0113-2.7934l-0.0918-2.5502-6.8666-4.1057c-3.7767-2.258-7.395-4.5759-8.0409-5.1504-1.4051-1.2505-3.1763-3.8256-3.7358-5.4315-0.36775-1.0552-0.40468-1.9501-0.40468-9.781 0-7.5813 0.04573-8.7677 0.38044-9.8487 0.75307-2.4323 2.7285-4.5203 5.1345-5.4274 2.1542-0.81195 3.8408-0.91918 12.787-0.81301 7.0012 0.0832 8.7908 0.1663 9.9383 0.4631 3.961 1.024 6.7147 3.863 7.4298 7.6607 0.16819 0.89313 0.22601 4.732 0.18217 12.076l-0.0643 10.767-16.694-11.007v-1.9351c0-1.6645-0.0631-1.9982-0.45068-2.3858-0.35074-0.35074-0.60472-0.41793-1.1456-0.30311-1.3245 0.28119-1.459 0.57051-1.4571 3.1334l2e-3 2.312 3.8718 2.5022c2.1295 1.3762 5.6886 3.6638 7.909 5.0834 5.6901 3.638 7.3047 5.4674 7.8463 8.8902 0.2914 1.8415 0.2914 14.089 0 15.93-0.31294 1.9768-1.0863 3.4397-2.5639 4.8491-1.3397 1.2778-2.4392 1.93-4.3786 2.5973-1.0983 0.37795-1.9514 0.40841-11.031 0.3948-7.2057-0.0113-10.115-0.0884-10.865-0.29064zm101.5 8e-3c-2.8151-0.759-5.0328-3.1173-6.2665-6.6629-0.29707-0.85432-0.36056-2.6064-0.42754-11.771-0.0431-5.9221 0-10.723 0.0968-10.668 0.0964 0.0544 3.6858 2.234 7.9767 4.8434l7.8013 4.744v2.1696c0 2.0126 0.0389 2.2084 0.53564 2.7052 0.61504 0.61504 1.3369 0.68455 2.0345 0.19578 0.45676-0.31974 0.48461-0.49447 0.47838-3.0006l-8e-3 -2.6608-6.5764-3.928c-3.6171-2.1604-7.1248-4.3362-7.7949-4.8355-1.4261-1.0622-3.2327-3.3573-4.0985-5.2067-0.61134-1.3055-0.61134-1.3055-0.61134-10.58 0-9.1956 4e-3 -9.2851 0.50642-10.529 0.98404-2.4368 3.501-4.4969 6.3678-5.2116 0.92273-0.23017 3.3444-0.29896 10.475-0.29858 9.0848 7.9e-4 9.3112 0.0113 11.074 0.51481 3.5146 1.0036 6.0733 3.4558 6.9124 6.6247 0.32005 1.2088 0.35524 2.6856 0.2987 12.537l-0.0641 11.167-16.366-10.794-0.10923-1.9838c-0.13341-2.4237-0.48321-2.9852-1.7278-2.7728-1.3472 0.22979-1.5692 0.70722-1.4982 3.2213l0.062 2.1913 5.6738 3.676c11.648 7.5466 10.944 7.0454 12.123 8.6362 1.8825 2.5408 1.9525 2.972 1.9525 12.021 0 8.6165-0.10284 9.4904-1.3451 11.426-1.2094 1.8848-3.4344 3.4412-6.0544 4.2353-1.3229 0.40089-19.931 0.395-21.421-8e-3zm34.713-7.121v-7.4196h16.366v-2.8369h-5.7426c-3.2105 0-6.3099-0.10469-7.0288-0.23773-2.442-0.45139-4.2588-1.7902-5.3647-3.953-1.0682-2.0894-1.0619-1.9655-1.0647-21.068l-2e-3 -17.949h16.582l0.11233 27.823h2.8369l0.11232-27.823h16.582l-2e-3 26.677c-2e-3 29.223 0.0528 27.941-1.3044 30.056-1.2454 1.9408-2.8198 3.0854-5.2248 3.7984-1.0309 0.30576-2.8568 0.3515-14.021 0.3515h-12.836v-7.4196zm43.109 7.062c-2.0927-0.65019-4.1987-2.5711-5.246-4.7845-1.1551-2.4417-1.2122-3.1432-1.1506-14.147l0.0567-10.146 15.821 9.6415v2.2431c0 2.1634 0.0204 2.2592 0.57498 2.6954 0.70269 0.55275 1.4055 0.57713 2.0279 0.0703 0.43975-0.35792 0.46511-0.54535 0.40607-3.0006l-0.063-2.6186-7.0923-4.2648c-7.6494-4.5997-8.9235-5.5944-10.462-8.1687-1.5231-2.5476-1.5252-2.564-1.5293-11.898-4e-3 -9.0704 0.0898-10.044 1.1384-11.816 0.779-1.3166 2.2349-2.6677 3.6178-3.3576 2.012-1.0036 3.7724-1.1769 12.042-1.1852 10.453-0.0113 12.497 0.30198 15.221 2.328 1.5781 1.1738 2.6587 2.6779 3.3075 4.6034 0.44134 1.3101 0.45339 1.6942 0.39859 12.692l-0.0565 11.341-16.43-10.848-0.0772-2.0074c-0.0686-1.785-0.13312-2.0526-0.58216-2.4161-0.62147-0.50305-1.7151-0.36585-2.2846 0.28649-0.32833 0.37606-0.37951 0.78901-0.32735 2.6414l0.0619 2.1957 4.8008 3.1281c2.6405 1.7205 6.2113 4.024 7.9355 5.119 3.7021 2.3515 4.9848 3.5756 6.0907 5.8125l0.81287 1.644 0.0667 8.1426c0.0755 9.2065-0.0155 9.9775-1.42 12.029-1.0398 1.5187-2.2016 2.4483-4.3298 3.4644l-1.7363 0.82896-10.257 0.0435c-8.7001 0.0378-10.42-8e-3 -11.336-0.29177zm-245.84-30.306v-30.454l13.693 0.0635c13.496 0.0627 13.714 0.0707 15.112 0.54859 1.7495 0.59826 4.1854 2.4062 5.1534 3.8249 0.3899 0.57142 0.93653 1.6025 1.2147 2.2913 0.50581 1.2524 0.50581 1.2524 0.56444 23.381 0.0514 19.424 0.0189 22.291-0.28044 23.459-2.0536 4.7739-4.1314 6.0502-8.6551 7.2226l-12.661 0.0593-14.141 0.0593zm18.427 14.516c0.44319-0.44311 0.45033-0.64494 0.50876-14.421l0.05934-13.972-0.65598-0.65598c-0.53681-0.53684-0.80519-0.64361-1.4777-0.58805l-0.82174 0.068-0.05594 14.934c-0.04422 11.798 0.0016 14.973 0.21808 15.12 0.43238 0.29216 1.7314 0.0113 2.2252-0.48404zm21.29-14.404v-30.333h16.803v60.665h-16.803zm58.484-0.11187v-30.444l16.258 0.11414 0.21846 18.894 2.073-2.466v-16.537h16.148v23.024l-3.0456 3.4905c-1.675 1.9198-3.0481 3.5887-3.0512 3.7087-3e-3 0.12019 1.3674 1.8863 3.0456 3.925l3.0512 3.7068v23.028h-16.148v-16.965l-2.0731-1.9105-0.11415 18.876h-16.362zm186.58 8.186v-22.258h-7.2011l-2.2e-4 -16.257 5.1829 0.0522c2.8506 0.0302 10.119 0.11376 16.151 0.18973l10.968 0.13758-0.0572 7.8844-0.0573 7.8844-7.5288 0.11943v44.508h-17.458zm-183.09-48.453c-1.4872-0.26419-2.7233-0.7666-4.0464-1.6447-1.5513-1.0297-2.561-2.2268-3.5299-4.185-0.6983-1.4114-0.794-1.8153-0.88679-3.7418-0.0858-1.7821-0.0227-2.4257 0.3583-3.6814 0.89375-2.9425 2.8786-5.1674 5.8201-6.5242 1.7256-0.79585 4.8794-0.97648 7.005-0.40112 4.8525 1.3135 8.1214 6.415 7.341 11.457-0.89552 5.7857-6.3572 9.7345-12.062 8.7212zm4.7116-4.636c3.7826-1.9261 4.6057-6.909 1.6441-9.9492-3.1079-3.1907-8.245-2.3538-10.21 1.6633-1.5298 3.1269-0.17159 6.8179 3.0893 8.395 1.1534 0.55782 1.4952 0.62351 2.8389 0.5455 1.0808-0.0627 1.8523-0.25398 2.6383-0.65431zm48.51 4.5607c-1.2198-0.43593-2.2947-1.1725-3.1229-2.1401-1.3824-1.615-1.4341-1.9964-1.4341-10.582v-7.7079h4.1462v15.101l0.74196 0.74196c0.63329 0.63329 0.89212 0.74191 1.7676 0.74191 0.87546 0 1.1343-0.10847 1.7676-0.74191l0.74196-0.74196v-15.101h4.1461v15.642l-0.66958 1.34c-0.7951 1.5911-2.0199 2.7078-3.6312 3.3106-1.3398 0.50132-3.2682 0.56062-4.4538 0.13682zm-73.784-0.34053c-1.6439-0.52555-3.2127-1.551-4.4103-2.8832-5.9822-6.6538-1.2995-17.214 7.6263-17.198 1.8801 3e-3 3.076 0.26834 4.667 1.0333 1.335 0.6421 3.6693 2.7962 4.2527 3.9243l0.36624 0.70812h-2.3915c-2.2744 0-2.443-0.0302-3.4426-0.65143-2.1421-1.3276-4.8113-1.2517-6.9165 0.19653-1.8742 1.2895-2.9577 3.9061-2.5368 6.1258 0.85274 4.4965 5.907 6.6077 9.6835 4.0448 0.74521-0.5057 1.0055-0.55037 3.2074-0.55037h2.3963l-0.35641 0.68897c-0.95777 1.8521-3.4983 3.8596-5.785 4.5713-1.7448 0.54304-4.6443 0.53831-6.3606-0.0113zm86.249-7.7593v-8.1834h-3.2733v-4.1461h10.693v4.1461h-3.4916v16.366h-3.9281zm8.0742-2.0731v-10.256h10.693v3.9167l-6.6558 0.12019-0.0624 2.2368-0.062 2.2368h6.7801v4.1461h-6.782l0.1262 3.8188 6.6558 0.12019v3.9167h-10.693zm11.348-0.0151v-10.272l4.7463 0.0699c4.6825 0.0688 4.763 0.0779 5.9815 0.67642 2.438 1.1972 3.7498 3.3135 3.7498 6.0491 0 2.5082-1.2308 4.7164-3.2283 5.7921-0.4261 0.22942-0.77477 0.48004-0.77477 0.55672 0 0.0767 0.9329 1.7266 2.0731 3.6666s2.0731 3.5733 2.0731 3.6298c0 0.0563-0.97285 0.1028-2.162 0.1028h-2.1619l-6.0416-10.335-0.0585 5.1677-0.0586 5.1677h-4.1382zm9.6155-1.6742c0.72121-0.80776 0.96729-1.5595 0.76906-2.3493-0.0756-0.30085-0.42165-0.86562-0.76906-1.2548-0.63077-0.70643-0.63545-0.70764-3.0505-0.78138l-2.4188-0.0741v5.3148l2.4188-0.0741c2.4151-0.0737 2.4198-0.0748 3.0505-0.78138zm-196.31 11.455c-0.05745-0.15005-0.07899-4.741-0.04762-10.202l0.05707-9.9292h10.911v3.928l-6.8738 0.12018v4.1352h6.9831v4.1461h-6.9831v8.0742h-1.9708c-1.3754 0-2.0024-0.0824-2.0755-0.27288zm5.7921 0.10053c0-0.0949 3.1688-4.6855 7.0416-10.202l7.0416-10.03 3.1562-0.12851v20.549l-3.8188-0.12624-0.1285-3.1642h-6.6928l-2.126 3.2676-2.2368 2e-3c-1.2302 2e-3 -2.2368-0.0748-2.2368-0.16932zm13.311-9.5387c0-1.3803-0.03817-2.5096-0.08504-2.5096-0.10469 0-3.6248 4.7747-3.6248 4.9168 0 0.0563 0.83471 0.10242 1.8549 0.10242h1.8548zm5.119 9.4382c-0.05745-0.15005-0.07899-4.741-0.04762-10.202l0.05707-9.9292 4.4122-0.12397 2.2391 5.0808c1.2315 2.7945 2.559 5.7683 2.9499 6.6085l0.71074 1.5276 0.69097-1.5276c0.38003-0.84015 1.6968-3.7863 2.9261-6.5465l2.2352-5.0192 2.2288-0.062 2.2288-0.0624v20.528h-3.9194l-0.11792-9.4926-4.3462 9.4926h-3.9798l-4.1126-9.3928-0.11792 9.3928h-1.9666c-1.372 0-1.9982-0.0824-2.0712-0.27288zm21.607 8e-3c-0.05934-0.15459-0.08202-4.749-0.05102-10.21l0.05707-9.9292h4.1461v20.294l-2.0222 0.0627c-1.495 0.0465-2.0503-0.0113-2.13-0.21807zm4.916-9.9919v-10.256h4.1408l0.11414 16.476 4.91 0.12321v3.9137h-9.1654zm11.129 6.5117v-3.7446l-3.2733-6.3893c-1.8003-3.5141-3.2733-6.4444-3.2733-6.5117s1.0306-0.12245 2.2902-0.12245h2.2902l1.9663 3.928c1.0815 2.1604 2.0158 3.928 2.0764 3.928 0.0605 0 0.95906-1.7676 1.9966-3.928l1.8864-3.928h2.2576c1.2417 0 2.2576 0.0499 2.2576 0.11036 0 0.0609-1.473 3.0552-3.2733 6.6542l-3.2733 6.5438v7.2041h-3.9281zm52.811-6.5193v-10.264l2.2144 0.0624 2.2144 0.062 2.8513 6.4921c1.5682 3.5707 2.904 6.4917 2.9684 6.4913 0.0642-5.2e-4 1.412-2.9219 2.9948-6.4921l2.8778-6.4913h4.501v20.294l-4.0286 0.12548-0.11792-9.4098-4.2361 9.2844h-4.0407l-4.1616-9.3607-0.11792 9.4696h-3.9194zm21.604-0.0113v-10.277l3.9825 0.0801c3.4859 0.0703 4.1083 0.13795 4.9912 0.54179 1.381 0.63193 2.73 1.9023 3.4242 3.2246 0.78327 1.4919 0.83463 4.2652 0.10809 5.8446-1.1357 2.4694-3.5434 3.88-6.6225 3.88h-1.7376v6.983h-4.1461zm7.6448-1.1831c0.78527-0.40607 1.3022-1.3544 1.3022-2.3891 0-0.58034-0.18822-0.98335-0.74211-1.5876-0.7118-0.77673-0.8098-0.8132-2.4004-0.89355l-1.6583-0.0835v5.2849h1.4293c0.85074 0 1.6884-0.13379 2.0694-0.33108z" fill="#1a1a1a" stroke-width=".21822"/>
 <style type="text/css">.st0{fill:#FC0C18;}
	.st1{fill:#FC0C18;}</style>
</svg>
