<svg width="480" height="320" version="1.1" viewBox="0 0 480 320" xml:space="preserve" xmlns="http://www.w3.org/2000/svg" xmlns:xlink="http://www.w3.org/1999/xlink"><defs><linearGradient id="a" x2="0" y1="200" y2="300" gradientUnits="userSpaceOnUse"><stop stop-color="#fff" offset="0"/><stop stop-color="#e6e6e6" offset="1"/></linearGradient></defs><rect id="b" width="480" height="320" ry="16" fill="url(#a)"/><g transform="translate(0 -12.25)" fill="#444"><g transform="translate(-4.583 191.5)"><path d="m162.7-52.45c-1.168-0.0036-2.356 0.01113-2.933 0.04599-0.6784 0.04095-1.279 0.1903-1.506 0.3759-0.0894 0.0732-0.2672 0.1903-0.3973 0.2599-0.1301 0.06961-0.2376 0.1488-0.2376 0.176 0 0.02723-0.036 0.04999-0.0799 0.04999-0.044 3.1e-5 -0.2624 0.0864-0.4852 0.192-0.2228 0.1055-0.4851 0.192-0.583 0.192-0.0979 0-0.2138 0.04325-0.2576 0.09598-0.0438 0.05282-0.1178 0.09598-0.1637 0.09598-0.0829 0-1.093 0.5092-1.472 0.7418-0.4534 0.2784-1.271 1.094-1.605 1.602-0.0432 0.06572-0.1448 0.2207-0.2256 0.3439-0.4192 0.6382-0.626 1.377-0.615 2.207 5e-3 0.4172-0.0745 0.8685-0.1977 1.112-0.0288 0.05692-0.1611 0.3343-0.2935 0.6158-0.1324 0.2815-0.3152 0.627-0.4053 0.7678-0.0902 0.1408-0.1918 0.3027-0.2276 0.3599-0.0359 0.05723-0.2096 0.3162-0.3854 0.5759-0.1757 0.2597-0.3906 0.616-0.4772 0.7918-0.0866 0.1758-0.2269 0.4116-0.3115 0.5259-0.0927 0.1254-0.1399 0.2587-0.1198 0.3359 0.0184 0.07043 8e-3 0.1442-0.024 0.164-0.032 0.01976-0.045 0.1364-0.0299 0.2579 0.015 0.1215 4.2e-4 0.2049-0.0299 0.186-0.0307-0.01894-0.085 0.07509-0.1218 0.2079-0.083 0.2987-0.0863 0.4464-0.01 0.4939 0.0324 0.02007 0.0772 0.1212 0.0998 0.2239 0.0225 0.1027 0.0853 0.2223 0.1378 0.2659 0.0524 0.04361 0.1357 0.1676 0.1857 0.2759 0.05 0.1084 0.127 0.2536 0.1717 0.3219 0.5526 0.8459 0.736 1.33 0.8266 2.191 0.0524 0.4987 0.0511 0.7569-6e-3 1.05-0.105 0.5347-0.5185 1.794-0.7548 2.297-0.3281 0.6986-1.199 2.086-1.719 2.739-0.9929 1.247-1.286 1.541-2.897 2.915-0.3463 0.2954-0.9632 0.7438-1.024 0.7438-0.0355 0-0.0969 0.06867-0.1358 0.154-0.0572 0.1258-0.0442 0.208 0.0659 0.4359 0.0747 0.1545 0.1358 0.345 0.1358 0.4219 0 0.07688 0.0574 0.1976 0.1278 0.2679 0.265 0.2654 0.0845 0.6789-0.5571 1.282-0.5086 0.4777-1.374 1.026-3.039 1.924-0.0629 0.03389-0.3648 0.1491-0.6709 0.2559-0.3061 0.1068-0.629 0.2319-0.7168 0.2779-0.2097 0.1098-1.399 0.4898-2.204 0.7038-1.202 0.3194-1.619 0.4642-1.801 0.6278-0.0769 0.06921-0.2003 0.3308-0.2756 0.5819-0.1734 0.5789-0.4384 1.059-0.8526 1.546-0.4674 0.5496-0.6697 0.7301-1.667 1.492-1.178 0.8995-1.633 1.325-1.633 1.526 0 0.08601 0.0569 0.2618 0.1258 0.3919 0.069 0.1301 0.1422 0.3233 0.1637 0.4279 0.0515 0.25 0.8548 1.02 1.541 1.48 0.7524 0.5032 3.212 1.732 4.495 2.245 0.2987 0.1195 0.6294 0.2558 0.7348 0.3039 0.9014 0.4115 3.245 0.9169 4.6 0.9917 1.159 0.06404 2.87 0.00522 3.806-0.13v0.00205c0.4764-0.0688 1.152-0.1972 1.502-0.2839 0.9518-0.2362 1.247-0.2521 1.945-0.106 1.827 0.3828 2.163 0.4454 2.396 0.4499 0.1406 0.00276 0.4712 0.02993 0.7348 0.05998 0.5167 0.05891 1.111 0.036 1.47-0.05599 0.2232-0.05726 1.463-0.8455 1.949-1.24 0.2491-0.2023 1.342-0.9387 1.47-0.9897 0.0352-0.01406 0.2364-0.1027 0.4473-0.1979 0.4436-0.2004 1.075-0.4075 1.533-0.5039 0.1757-0.03696 0.4489-0.09963 0.607-0.138 0.1581-0.03833 0.4169-0.08269 0.575-0.09797s0.3451-0.04015 0.4153-0.05599c0.0702-0.01585 0.4153-0.04782 0.7667-0.06998 0.3514-0.02217 0.682-0.0546 0.7348-0.07198 0.0528-0.01738 0.9009-0.04518 1.885-0.06199 2.297-0.03923 3.296-0.113 4.089-0.3059 0.3514-0.08545 0.7396-0.1711 0.8626-0.19 0.123-0.01882 0.3818-0.07137 0.5751-0.116 0.1934-0.04466 0.7392-0.08079 1.214-0.07999 0.752 0.0012 0.911 0.02122 1.242 0.152 0.6388 0.2523 1.093 0.5572 1.973 1.328 2.066 1.81 3.028 2.335 4.816 2.619 0.9484 0.1509 6.184 0.1478 7.464-0.00399 2.764-0.3276 4.235-0.6343 5.463-1.142 1.286-0.5314 2.285-1.357 2.741-2.267 0.2006-0.4005 0.3068-1.75 0.2057-2.607-0.0814-0.6907-0.1649-1.026-0.609-2.465-0.7213-2.338-1.043-3.039-1.787-3.889-0.3773-0.4308-0.9694-0.734-1.254-0.6418-0.0527 0.0171-0.2881 0.09384-0.5231 0.17-0.5342 0.1731-0.7564 0.1742-0.9704 6e-3 -0.1286-0.1012-0.1677-0.1901-0.1677-0.3739 0-0.3512 0.393-1.484 0.601-1.734 0.1514-0.1816 0.489-1.056 0.4972-1.29 5e-3 -0.1378-0.0484-0.3278-0.1298-0.4659-0.0758-0.1287-0.1378-0.2814-0.1378-0.3379 0-0.1701-0.3256-0.6734-0.603-0.9338-0.1433-0.1345-0.4976-0.4166-0.7887-0.6258-0.2911-0.2092-0.6936-0.5085-0.8945-0.6658-0.6095-0.4773-0.7026-0.5439-0.7627-0.5439-0.0318 0-0.1424-0.08897-0.2456-0.1979-0.242-0.2555-1.14-0.7082-1.753-0.8838-0.2636-0.07555-0.623-0.1799-0.7987-0.2319-0.1757-0.05201-0.5351-0.1379-0.7987-0.19-0.2636-0.05201-0.6805-0.1393-0.9265-0.194-1.354-0.3005-3.965-0.6917-5.144-0.7718-0.8396-0.05703-2.229-0.05537-2.747 4e-3 -0.5946 0.06859-1.495 0.2326-1.563 0.2839-0.0357 0.02682-0.1665 0.08732-0.2895 0.134-0.8591 0.3256-1.9 1.033-2.522 1.716-0.177 0.1945-0.417 0.456-0.5331 0.5799-0.3172 0.3383-0.7526 1.024-0.8686 1.37-0.1587 0.4725-0.1297 0.8999 0.0978 1.486 0.3544 0.9124 0.4642 2.008 0.2656 2.639-0.153 0.486-0.3319 0.6142-1.028 0.7418-0.705 0.1292-1.013 0.1307-1.531 8e-3 -0.3517-0.08301-0.4602-0.08334-0.8626-4e-3 -0.2532 0.05026-0.5906 0.1122-0.7488 0.136-0.4613 0.06921-1.551 0.3479-1.725 0.4419-0.1964 0.1061-0.3766 0.1347-1.47 0.2259-1.054 0.08794-1.525 0.1663-1.657 0.2779-0.1777 0.1495-1.096 0.3627-1.663 0.3859-0.4516 0.01843-0.49 0.07268 2.252-3.215 1.191-1.428 1.529-1.957 1.615-2.533 0.0299-0.1994 0.1041-0.3742 0.2037-0.4779 0.0863-0.08978 0.2413-0.2982 0.3454-0.4639 0.2308-0.3674 0.8402-0.8096 2.252-1.634 0.5588-0.3261 1.025-0.5918 1.034-0.5918 9e-3 0 0.1992-0.1075 0.4213-0.2379 0.8222-0.4826 1.489-1.084 2.029-1.83 0.3194-0.4414 0.9646-1.478 1.072-1.722 0.0419-0.095 0.154-0.2965 0.2496-0.4479 0.0956-0.1513 0.3713-0.6626 0.611-1.138 0.2397-0.4751 0.564-1.089 0.7208-1.364 0.3173-0.5553 1.085-1.679 1.192-1.746 0.0381-0.02355 0.1508-0.1727 0.2516-0.3319 0.2233-0.3525 1.349-1.519 1.583-1.642 0.0931-0.04852 0.3998-0.285 0.6809-0.5259 0.2811-0.2409 0.588-0.4811 0.6829-0.5339 0.1642-0.09132 0.8191-0.6896 0.9984-0.9118 0.0805-0.09981 0.2303-0.6167 0.4393-1.52 0.0529-0.2287 0.1101-0.653 0.1278-0.9418 0.0288-0.471 0.0184-0.5466-0.1118-0.7358-0.1995-0.29-0.4129-0.4929-0.8426-0.8078-0.2015-0.1477-0.4091-0.355-0.4632-0.4599-0.0542-0.1048-0.1233-0.19-0.1538-0.19-0.0305 0-0.0734-0.06479-0.0939-0.144-0.0316-0.1227-0.1988-0.3374-0.6369-0.8158-0.0484-0.05283-0.223-0.2831-0.3894-0.5119-0.3466-0.4767-0.4567-0.5509-0.8985-0.5998-0.8899-0.09859-1.112-0.1054-1.406-0.04599-1.032 0.2087-1.31 0.2846-1.597 0.4359-1.237 0.6504-2.031 0.9676-2.228 0.8918-0.0797-0.03071-0.0792-0.09177 6e-3 -0.4699 0.0541-0.2398 0.2077-0.749 0.3434-1.132 0.1357-0.3827 0.2652-0.8755 0.2875-1.094 0.0387-0.3775 0.0312-0.407-0.1537-0.6178-0.2837-0.3236-0.8641-0.4808-2.232-0.6018-0.1843-0.01628-0.515-0.09123-0.7348-0.166-0.4856-0.1651-0.4727-0.1628-1.741-0.2599-0.501-0.03839-1.649-0.06037-2.817-0.06398z"/><path d="m257.5-31.48c-0.2169 0.01601-0.5299 0.101-0.7568 0.2159-0.356 0.1804-1.372 0.2704-2.278 0.2019-1.014-0.07658-7.987-0.03267-8.873 0.05599-0.959 0.09592-1.563 0.2326-1.809 0.4079-0.3337 0.2377-1.408 1.735-1.755 2.445-0.4072 0.8334-0.5758 1.618-0.585 2.717-8e-3 0.95 0.052 1.596 0.1757 1.876 0.0496 0.1119 0.5138 0.6358 1.03 1.164 1.216 1.242 1.774 1.985 2.376 3.157 0.2651 0.5161 0.6395 1.176 0.8326 1.468 0.4047 0.6105 1.199 1.383 1.651 1.608 0.337 0.1673 0.7858 0.5993 0.9604 0.9238 0.0782 0.1453 0.128 0.4935 0.1797 1.234 0.0666 0.9521 0.0885 1.063 0.2736 1.44 0.1917 0.39 0.6263 0.8932 0.9784 1.13 0.5226 0.351 1.611 1.062 2.176 1.422 0.8258 0.5258 1.382 0.9539 2.228 1.714 0.8163 0.733 1.011 0.8381 1.949 1.064 0.2151 0.05176 1.502-0.02916 1.683-0.106 0.0937-0.03974 0.6873-0.5964 1.32-1.238 0.8437-0.8553 1.24-1.211 1.488-1.334 0.1857-0.09232 0.4953-0.2699 0.6889-0.3939 0.3595-0.2303 1.594-0.8317 2.168-1.058 0.1757-0.06909 0.492-0.2162 0.7028-0.3259 0.2108-0.1097 0.4923-0.2553 0.625-0.3239 0.1327-0.06862 0.283-0.1838 0.3334-0.2559 0.0811-0.116 0.0786-0.1404-0.018-0.2139-0.0601-0.04577-0.0811-0.08435-0.0459-0.08598 0.0352-0.0016 0.0244-0.02926-0.024-0.05998-0.0481-0.03072-0.0684-0.08827-0.0439-0.128 0.0245-0.03973 0.0671-0.0586 0.0939-0.04198 0.0269 0.01663 0.0538-0.01794 0.0599-0.07798 0.0462-0.4353-0.0673-0.6125-0.9924-1.54-0.3276-0.3283-0.595-0.648-0.595-0.7118s-0.0481-0.1338-0.1058-0.156c-0.0578-0.02219-0.0868-0.05903-0.0659-0.07999 0.021-0.02096-5e-3 -0.07852-0.0559-0.13-0.0518-0.05143-0.0759-0.1216-0.0559-0.154 0.0199-0.03236 7e-3 -0.05798-0.03-0.05798-0.0362 0-0.0475-0.04563-0.026-0.102 0.0216-0.05634 9e-3 -0.1211-0.028-0.144-0.0367-0.02284-0.0848-0.1509-0.1058-0.2839-0.0211-0.1331-0.0829-0.349-0.1378-0.4799-0.0549-0.1309-0.1092-0.3531-0.1218-0.4939-0.0127-0.1408-0.0431-0.4863-0.0659-0.7678-0.0228-0.2815-0.053-0.6558-0.0679-0.8318-0.0149-0.176-0.0841-0.9998-0.1537-1.83-0.0696-0.8297-0.1672-1.694-0.2176-1.92-0.0504-0.226-0.1122-0.7056-0.1358-1.066-0.0393-0.5996-0.0318-0.6687 0.0899-0.8398 0.0784-0.1103 0.1352-0.2886 0.1358-0.4339 6.1e-4 -0.1353 0.0245-0.2834 0.0539-0.3299 0.0805-0.1271-0.0279-0.6102-0.1537-0.6838-0.1549-0.0906-0.605-0.5423-0.605-0.6078 0-0.02989-0.0503-0.1049-0.1118-0.166-0.0615-0.06112-0.1693-0.1881-0.2396-0.2819-0.1429-0.1908-0.7414-0.8798-1.19-1.372-0.1622-0.1778-0.5791-0.6862-0.9265-1.128-1.331-1.692-1.564-1.966-1.699-2.001-0.0443-0.01162-0.1054-0.01334-0.1777-8e-3z"/><path d="m437-33.39c-0.3148 8.29e-4 -0.9733 0.1425-1.565 0.3359-0.5967 0.1949-2.865 0.9904-3.866 1.356-0.1933 0.07053-0.4808 0.1672-0.639 0.2159-0.1581 0.04883-0.6613 0.2224-1.118 0.3839-1.152 0.4072-1.531 0.5336-3.067 1.024-0.738 0.2355-1.457 0.4666-1.597 0.5139-0.1406 0.0473-0.845 0.275-1.565 0.5059-1.877 0.6016-2.214 0.7145-2.716 0.9018-0.246 0.09193-0.5462 0.1972-0.6669 0.2339-0.1207 0.03675-0.2788 0.1025-0.3514 0.148-0.0726 0.04545-0.2468 0.1183-0.3874 0.162-0.1406 0.04371-0.2843 0.1014-0.3195 0.128-0.0352 0.02651-0.1933 0.07774-0.3514 0.114-0.1581 0.03624-0.5607 0.1439-0.8945 0.2379-0.7677 0.2162-1.917 0.4969-2.62 0.6398-0.2987 0.06081-0.7156 0.1535-0.9265 0.2059-0.2109 0.05252-0.4408 0.1045-0.5112 0.116-1.359 0.2226-2.779 0.5999-2.779 0.7378 0 0.02826-0.0594 0.06894-0.1318 0.09197-0.0725 0.02303-0.163 0.111-0.2017 0.196-0.0386 0.08487-0.1065 0.156-0.1518 0.156-0.0453 0-0.1057 0.03915-0.1338 0.08798-0.0281 0.04883-0.1957 0.203-0.3714 0.3419-0.1757 0.1389-0.4941 0.4256-0.7068 0.6378-0.6184 0.6168-1.269 0.8352-2.616 0.8798-0.4568 0.01515-1.14 0.07479-1.52 0.132-1.23 0.1854-3.771 0.8738-5.126 1.388-0.2811 0.1067-0.6262 0.229-0.7667 0.2719-0.1406 0.0429-0.2987 0.09523-0.3514 0.116-0.2367 0.09326-0.9862 0.1875-1.208 0.152-0.1345-0.0215-0.4376-0.1297-0.6729-0.2399-0.4241-0.1987-0.4361-0.2001-1.43-0.196-0.8831 0.0041-3.898 0.2177-4.255 0.3019-0.0732 0.0173-0.3926 0.05711-0.7088 0.08998-2.379 0.2577-4.752 0.6599-7.092 1.164-1.527 0.3398-2.561 0.6577-2.775 0.8518-0.06 0.05437-0.133 0.09998-0.1617 0.09998-0.1014 0-0.584 0.4371-0.7548 0.6838-0.3258 0.4708-0.7858 1.787-0.9345 2.675-0.0354 0.2111-0.1091 0.643-0.1637 0.9598-0.0546 0.3167-0.1437 1.107-0.1977 1.756-0.143 1.719-0.4104 3.453-0.6928 4.483-0.0821 0.2991-0.2109 0.7657-0.2855 1.038-0.1726 0.6292-0.1703 0.7018 0.028 0.9378 0.1655 0.197 1.02 0.8572 1.721 1.33 0.6025 0.406 2.157 1.186 2.899 1.454 1.4 0.5057 2.777 0.7635 4.513 0.8458 0.492 0.02331 0.9089 0.05551 0.9265 0.07198 0.0919 0.08616 2.655-0.06505 3.482-0.2059 0.492-0.08376 1.067-0.1958 1.278-0.2479 0.5757-0.1423 1.131-0.2918 1.31-0.3539 0.0878-0.03045 0.2747-0.08597 0.4153-0.124 0.6105-0.165 1.219-0.3545 1.278-0.3979 0.0764-0.05616 0.7909-0.2303 1.15-0.2799 0.9772-0.1349 1.421-0.1617 1.897-0.116 0.6105 0.05865 1.068-0.01766 1.428-0.2399 0.3504-0.2169 0.4436-0.3433 0.8087-1.082 0.5159-1.043 1.374-1.971 2.734-2.953 0.6915-0.4998 2.538-1.487 3.165-1.692 0.1757-0.05748 0.4122-0.1465 0.5251-0.1979 0.3419-0.1558 2.09-0.7238 2.456-0.7978 0.1883-0.03809 0.7296-0.2003 1.204-0.3619 0.6661-0.2269 1.001-0.3852 1.47-0.6918 0.3338-0.2184 0.7364-0.461 0.8945-0.5399 0.1581-0.07883 0.3878-0.2395 0.5112-0.3579 0.1234-0.1184 0.2862-0.2264 0.3614-0.2379 0.0752-0.0115 0.1763-0.05194 0.2236-0.08998 0.0473-0.03804 0.1506-0.0877 0.2296-0.112 0.079-0.02427 0.1438-0.07308 0.1438-0.108 0-0.03485 0.0247-0.04728 0.0559-0.02799s0.0924-0.0076 0.1358-0.05998c0.0435-0.05241 0.13-0.09598 0.1917-0.09598 0.0616 0 0.1475-0.04099 0.1897-0.09197 0.0422-0.05099 0.1753-0.1262 0.2955-0.166 0.1202-0.03972 0.2176-0.093 0.2176-0.118 0-0.02497 0.0542-0.04907 0.1198-0.05398 0.0656-0.0049 0.3662-0.1266 0.6689-0.2699 0.3026-0.1433 0.5631-0.2599 0.579-0.2599 0.016 0 0.1107-0.03332 0.2097-0.07399 0.099-0.04066 0.3091-0.1239 0.4672-0.184 0.1581-0.06003 0.4888-0.1865 0.7348-0.2819 0.246-0.09544 0.6342-0.2395 0.8626-0.3199 0.2284-0.08039 0.5447-0.2028 0.7028-0.2719 0.4643-0.203 0.7876-0.3297 0.9584-0.3759 0.0878-0.02378 0.3559-0.1409 0.595-0.2599 0.2391-0.119 0.4588-0.216 0.4892-0.216 0.0558 0 1.255-0.5653 2.646-1.248 0.4175-0.2048 0.9207-0.4772 1.118-0.6058 0.1975-0.1286 0.4389-0.2849 0.5371-0.3459 0.0983-0.06102 0.2059-0.1783 0.2376-0.2619 0.0934-0.2462 0.4525-0.5705 0.8466-0.7618 0.2021-0.09807 0.3674-0.2068 0.3674-0.2419 0-0.03511 0.0431-0.02094 0.0958 0.03199 0.0759 0.07596 0.1394 0.0839 0.3035 0.03199 0.1142-0.03614 0.2724-0.08176 0.3514-0.09998 0.079-0.01833 0.1438-0.05254 0.1438-0.07598s0.0648-0.04733 0.1438-0.05398c0.2386-0.02007 1.076-0.333 1.516-0.5659 0.2273-0.1203 0.4501-0.2179 0.4952-0.2179 0.0451 0 0.0819-0.02476 0.0819-0.05599 0-0.03133 0.0978-0.07545 0.2176-0.09797 0.1406-0.02641 0.2992-0.1318 0.4473-0.2959 0.2285-0.2535 0.2557-0.3123 0.2336-0.5279-6e-3 -0.06265 0.016-0.2066 0.0519-0.3199 0.0358-0.1133 0.0848-0.4651 0.1078-0.7818 0.0431-0.5952 0.1537-0.9739 0.2975-1.022 0.1917-0.06378 1.308-0.07399 1.543-0.014 0.1888 0.04798 0.2631 0.04569 0.2815-0.01003 0.0137-0.04115 0.0535-0.07399 0.0879-0.07399 0.0343 0 0.0436 0.02877 0.022 0.06398-0.0217 0.03522-0.0124 0.06398 0.022 0.06398 0.0342 0 0.0741-0.03462 0.0879-0.07598 0.0192-0.05774 0.1124-0.05774 0.3994 0 0.4995 0.1004 1.017 0.09626 1.442-0.01399 0.1916-0.04974 0.3709-0.07759 0.3994-0.05998 0.0284 0.01761 0.0954-3e-3 0.1478-0.04599 0.0759-0.06307 0.1261-0.06305 0.2516 4e-3 0.0867 0.04648 0.1578 0.1087 0.1578 0.138 0 0.07147 0.2155 0.06899 0.2915-4e-3 0.1138-0.1089 0.6515-0.3853 0.6849-0.3519 0.0183 0.01822 0.1727-0.1295 0.3434-0.3279 0.556-0.6461 1.107-1.191 1.168-1.154 0.0327 0.02017 0.0805 0.0033 0.1058-0.03799 0.0315-0.05098 0.0172-0.05813-0.0439-0.02199-0.0494 0.02918 0.0395-0.07534 0.1977-0.2319 0.3026-0.2996 0.7667-0.6651 0.7667-0.6038 0 0.08405 0.5226-0.3037 0.8726-0.6478 0.5039-0.4955 0.6301-0.5938 1.044-0.8098 0.1933-0.1008 0.3752-0.2224 0.4033-0.2719 0.0281-0.04955 0.0767-0.08998 0.1098-0.08998 0.132 0 0.9013-0.6132 1.018-0.8118 0.0686-0.1164 0.1698-0.2119 0.2236-0.2119 0.0539 0 0.1017-0.03607 0.1058-0.07998 4e-3 -0.04402 0.0165-0.1593 0.028-0.2559 0.0148-0.125-0.0174-0.1964-0.1098-0.2459-0.1578-0.08456-1.268-0.2483-1.855-0.2739-0.3344-0.01464-0.5158-0.0661-0.8426-0.2339-0.2293-0.1178-0.4043-0.2337-0.3894-0.2579 0.0294-0.0476-0.2656-0.4158-0.585-0.7318-0.1094-0.1083-0.2179-0.2591-0.2416-0.3339-0.0237-0.07473-0.0843-0.1693-0.1358-0.2119-0.0513-0.04269-0.0939-0.133-0.0939-0.2 0-0.1775-0.2705-0.2561-0.8905-0.2579-0.297-9.01e-4 -0.6133-0.02928-0.7028-0.06398-0.1384-0.05355-1.208-0.1393-1.729-0.138z"/><path d="m366.6-45.57c-0.1996-0.0056-0.3666-0.0027-0.4752 0.01003-0.1933 0.02264-0.5096 0.05576-0.7028 0.07399-1.036 0.09756-2.121 0.2363-2.46 0.3139-0.2108 0.04832-0.5559 0.1057-0.7667 0.128-0.2108 0.02222-0.4963 0.06995-0.635 0.106-0.8856 0.2302-2.17 0.3335-3.039 0.2439-0.2712-0.02795-0.5845 0.02347-1.406 0.2339-1.124 0.2881-1.375 0.3466-1.891 0.4339-0.7241 0.1224-0.9299 0.1648-0.9964 0.2059-0.0742 0.04597-0.2583 0.07134-0.8506 0.116-0.2811 0.02119-0.7124 0.05808-0.9584 0.08398-0.9358 0.09859-2.945 0.03666-4.473-0.14-0.1054-0.01218-0.4011-0.04254-0.6569-0.06598-0.2558-0.02334-0.5577-0.07963-0.6709-0.126-0.1132-0.04627-0.5076-0.1041-0.8766-0.128-1.086-0.07023-2.068-0.1534-2.3-0.196-0.1511-0.02774-0.4644-0.05559-1.502-0.13-0.4767-0.03419-0.9946-0.07493-1.565-0.122-0.1933-0.01587-0.5814-0.04469-0.8626-0.06598-0.7407-0.0561-1.074-0.0954-1.108-0.13-0.0168-0.01679-0.0687 0.0012-0.1158 0.03999-0.063 0.05241-0.1084 0.05264-0.1717 0-0.0502-0.04177-0.4587-0.08488-0.9784-0.102-0.4905-0.01617-0.9337-0.04288-0.9844-0.05998-0.2316-0.07812-3.57-0.1338-4.309-0.07198-1.581 0.1322-2.541 0.3697-3.592 0.8918-0.2538 0.126-0.4781 0.2299-0.4972 0.2299-0.0315 0-0.3235 0.1673-0.9764 0.5579-0.5612 0.3357-1.167 0.5998-1.52 0.6638-0.912 0.1655-1.82 0.3934-1.865 0.4679-0.0265 0.04443-0.0997 0.1082-0.1617 0.142-0.0912 0.04965-0.1176 0.1725-0.1398 0.6358-0.0279 0.5829-0.2642 1.637-0.4732 2.107-0.1726 0.3885-0.2861 0.9554-0.2436 1.218 0.0464 0.2862 0.3567 0.6985 1.132 1.502 0.7256 0.7515 1.049 1.184 1.36 1.822 0.187 0.3833 0.1973 0.654 0.0459 1.218-0.0757 0.2815-0.1426 0.5623-0.1478 0.6238-5e-3 0.06152-0.0291 0.112-0.0519 0.112-0.0586 0-0.0362 0.5913 0.026 0.6878 0.0283 0.04402 0.0273 0.07999-2e-3 0.07999-0.0295 0-0.0607 0.07298-0.0679 0.162-0.0217 0.2624 0.2924 0.3417 2.126 0.5439 0.6326 0.06972 1.193 0.1406 1.246 0.156 0.0528 0.01536 0.4984 0.05861 0.9904 0.09597 1.666 0.1266 2.543 0.2283 3.099 0.3599 0.2284 0.05416 0.5303 0.1219 0.6709 0.152 0.5625 0.1203 1.099 0.2814 1.322 0.3959 0.1291 0.06644 0.3469 0.1302 0.4852 0.142 0.1384 0.01177 0.2865 0.0426 0.3274 0.06799 0.1405 0.08692 0.9165 0.1095 1.244 0.03599 0.4918-0.1103 1.762-0.5244 2.372-0.7718 0.0702-0.02856 0.2428-0.08385 0.3834-0.124 0.1406-0.04013 0.313-0.09638 0.3834-0.124 0.2974-0.1166 0.7786-0.2771 0.9185-0.3079 0.0829-0.01822 0.3848-0.117 0.6709-0.2199 0.2861-0.1029 0.5911-0.2019 0.6789-0.2199 0.0878-0.01812 0.2172-0.05768 0.2875-0.08798 0.3714-0.1597 4.427-0.8258 4.76-0.7818 0.0528 0.0072 0.3546-0.01908 0.6709-0.05798 1.075-0.1322 2.919-0.03708 3.814 0.1979 0.6732 0.1768 1.369 0.5253 1.859 0.9298 0.3623 0.2993 0.4291 0.3908 0.579 0.7958 0.2909 0.7858 0.1791 1.494-0.3354 2.109-0.2146 0.2568-0.2624 0.3616-0.2716 0.6118-7e-3 0.1772 0.0209 0.3201 0.0659 0.3479 0.0446 0.02754 0.058 0.09782 0.0319 0.166-0.0311 0.08108-0.0217 0.102 0.0299 0.06998 0.0411-0.0255 0.0739-0.01527 0.0739 0.02199s-0.0287 0.06799-0.0639 0.06799-0.0639 0.04325-0.0639 0.09597c0 0.05283 0.0274 0.09598 0.0619 0.09598 0.0378 0 0.0343 0.06265-0.01 0.16-0.0547 0.1203-0.0543 0.2006 2e-3 0.3239 0.0571 0.1256 0.0577 0.1536 0 0.118-0.053-0.03276-0.06-0.01032-0.026 0.07598 0.0567 0.1435 0.2023 0.667 0.4712 1.69 0.5035 1.915 0.533 3.57 0.0779 4.381-0.2509 0.4473-0.335 0.5419-0.6689 0.7638-0.4942 0.3285-1.054 0.5168-2.32 0.7798-1.041 0.2161-1.372 0.2747-2.093 0.3719-0.1406 0.01896-0.6437 0.09343-1.118 0.164-1.12 0.1665-1.458 0.193-2.46 0.1979-0.8437 0.0042-3.071-0.1496-3.77-0.2599-0.6377-0.1008-0.8745-0.1352-1.342-0.194-0.246-0.03093-0.7923-0.09949-1.214-0.154-3.8-0.4908-3.545-0.4668-6.198-0.5799-1.431-0.06102-2.5 0.1273-4.952 0.8758-1.731 0.5283-4.279 1.477-5.201 1.938l-0.3894 0.194-0.0559 0.4799c-0.0305 0.2638-0.0588 0.8398-0.0639 1.28-8e-3 0.7862-0.0108 0.8052-0.2136 1.12-0.1135 0.176-0.2956 0.4913-0.4053 0.6998-0.1879 0.357-0.1955 0.392-0.1178 0.6278 0.051 0.1549 0.1837 0.3359 0.3494 0.4719 0.2787 0.2287 1.237 0.6749 1.625 0.7578 0.3912 0.08363 1.162 0.4996 1.414 0.7618 0.1337 0.1393 0.3221 0.4074 0.4173 0.5958 0.2235 0.4424 0.6732 0.8622 1.414 1.32 0.6434 0.3975 0.9087 0.5258 2.123 1.016 2.701 1.09 5.107 1.742 6.773 1.836 1.049 0.05896 2.314 0.03341 3.131-0.06198 0.3338-0.03899 0.6301-0.08416 0.6589-0.102 0.0288-0.0178 0.2588-0.08407 0.5112-0.146 0.2523-0.06188 0.948-0.3074 1.545-0.5459 1.737-0.6934 2.049-0.7451 2.406-0.4019 0.1963 0.1885 0.2595 0.209 0.7568 0.2479 0.4896 0.03829 3.211-0.09598 3.321-0.164 0.0247-0.01532 1.063-0.1014 2.308-0.19 2.929-0.2083 6.29-0.2373 10.31-0.09198 3.606 0.1302 8.942 0.05288 9.878-0.142 1.214-0.2528 2.537-0.672 3.087-0.9798 0.5746-0.3218 1.249-1.002 1.537-1.55 0.1272-0.2418 0.2715-0.5119 0.3215-0.5998 0.1942-0.3417 0.608-1.351 0.609-1.488 7.2e-4 -0.07913 0.0446-0.3167 0.0998-0.5279 0.0553-0.2111 0.1107-0.5279 0.1218-0.7038 0.0111-0.176 0.035-0.4173 0.0539-0.5359 0.0189-0.1186 8e-3 -0.4497-0.024-0.7358-0.0498-0.4422-0.1114-0.6223-0.4093-1.204-0.3508-0.6845-1.11-1.778-1.569-2.259-0.2582-0.2705-1.352-1.976-1.665-2.597-0.3811-0.7559-0.6147-2.128-0.5431-3.189 0.0796-1.182 0.1662-1.962 0.2955-2.659 0.1988-1.072 1.363-4.523 1.899-5.631 0.1022-0.2111 0.2049-0.523 0.2276-0.6938 0.0578-0.4345 0.4277-1.194 0.6669-1.368 0.4826-0.3512 2.084-1.945 2.226-2.215 0.0602-0.114 0.1074-0.4339 0.1258-0.8638 0.0161-0.3755 0.0395-0.797 0.0519-0.9378 0.0124-0.1408-0.0161-0.3423-0.0619-0.4479-0.0458-0.1056-0.1032-0.2919-0.1278-0.4139-0.0246-0.122-0.0685-0.266-0.0978-0.3199-0.1318-0.2424-0.5253-1.132-0.5451-1.232-0.0224-0.1126-0.1225-0.2523-0.4073-0.5679-0.2558-0.2834-0.3549-0.4079-0.5231-0.6558-0.1408-0.2075-0.7645-0.9232-1.202-1.38-0.9336-0.9739-3.7-2.355-5.583-2.787-0.4432-0.1017-1.33-0.1912-1.929-0.2079z"/><path d="m396.2-50.49c-1.739 0.04586-1.925 0.06243-2.743 0.2439-0.5363 0.1189-0.7983 0.1843-1.725 0.4379-0.3237 0.08855-2.553 0.6213-2.779 0.6638-0.1054 0.01986-0.278 0.05217-0.3834 0.07399-0.1054 0.02181-0.5798 0.109-1.054 0.192-0.4744 0.08292-1.193 0.2114-1.597 0.2859-1.095 0.2018-2.531 0.6566-2.867 0.9078-0.0838 0.06265-0.1866 0.114-0.2276 0.114s-0.1101 0.03626-0.1537 0.07999c-0.0851 0.08517-0.6579 0.4113-1.384 0.7898-0.7731 0.4032-0.8471 0.4475-1.244 0.7358-0.3317 0.241-0.401 0.3284-0.4832 0.6018-0.0608 0.2026-0.073 0.3262-0.032 0.3399 0.0424 0.01423 0.0419 0.06602-4e-3 0.152-0.0452 0.08445-0.0473 0.1165-4e-3 0.08998 0.0449-0.02785 0.0598 0.3038 0.0479 1.032-0.0173 1.055-0.0653 1.353-0.3055 1.852-0.1006 0.209-0.0272 1.646 0.1058 2.069 0.3174 1.011 0.7081 1.622 1.354 2.115 0.2045 0.1562 0.4548 0.3559 0.5551 0.4439 0.1775 0.1557 0.7514 0.5438 1.368 0.9238 0.3871 0.2387 1.091 0.7876 1.276 0.9957 0.0782 0.08794 0.1854 0.2484 0.2376 0.3559 0.0522 0.1075 0.1753 0.3011 0.2736 0.4299 0.0983 0.1288 0.2293 0.3059 0.2915 0.3939 0.0661 0.09357 0.2255 0.1897 0.3834 0.2319 0.1486 0.03972 0.3054 0.1018 0.3494 0.138 0.044 0.03624 0.3029 0.08925 0.5751 0.118 0.2722 0.02877 0.8833 0.1128 1.358 0.186 0.4744 0.0732 1.006 0.1482 1.182 0.168 0.1757 0.01976 0.4201 0.06126 0.5431 0.09197 0.28 0.07002 0.4758 0.1026 1.118 0.186 0.693 0.08999 1.181 0.1674 1.789 0.2859 1.008 0.1966 1.45 0.2926 1.508 0.3279 0.0831 0.05149 1.802 0.3622 3.285 0.5938 0.4568 0.07136 1.018 0.1612 1.246 0.198 0.5856 0.09418 2.004 0.2174 3.227 0.2819 0.8125 0.0429 4.019-0.01077 4.505-0.07598 0.8624-0.1157 1.432-0.2171 1.502-0.2659 0.0352-0.02488 0.2203-0.06561 0.4113-0.08998 0.3651-0.04658 0.9687-0.3068 1.506-0.6498 0.9653-0.6169 2.716-2.961 2.716-3.637 0-0.121 0.0287-0.2382 0.0639-0.2599 0.0352-0.0217 0.0639-0.111 0.0639-0.1979 0-0.2163 0.2923-0.8982 0.5171-1.206 0.1017-0.1389 0.1857-0.3355 0.1857-0.4359 0-0.1004 0.0444-0.2664 0.0978-0.3699 0.0928-0.1799 0.0917-0.3505-2e-3 -0.5859-0.0439-0.1102-0.2314-0.2554-0.575-0.4419-0.1054-0.05723-0.2556-0.1957-0.3334-0.3099-0.1227-0.1805-0.1399-0.2821-0.1278-0.7678 0.0124-0.4982 0.0335-0.5874 0.1957-0.8218 0.1001-0.1446 0.2241-0.3864 0.2756-0.5379 0.0514-0.1515 0.1721-0.3767 0.2676-0.4999 0.4065-0.5243 0.5846-0.9713 0.595-1.492 7e-3 -0.3697-0.0482-0.5279-0.3175-0.9078-0.2197-0.31-0.9274-1.056-1.002-1.056-0.044 0-0.0929-0.04004-0.5112-0.4159-0.1757-0.1579-0.3406-0.2876-0.3654-0.2879-0.0617-9.42e-4 -0.4628-0.2775-0.595-0.4099-0.0593-0.05938-0.2784-0.1934-0.4852-0.2979-0.2068-0.1045-0.3754-0.2161-0.3754-0.2479 0-0.03184-0.151-0.1077-0.3354-0.168-0.1845-0.0603-0.3642-0.1304-0.3994-0.156-0.0352-0.02559-0.1573-0.06427-0.2716-0.08597-0.1142-0.0217-0.3442-0.1014-0.5112-0.178-0.3149-0.1445-0.4102-0.1735-1.262-0.3859-0.5994-0.1495-0.9893-0.231-1.342-0.2819-0.14-0.02027-0.2694-0.05613-0.2875-0.07999-0.0409-0.05395-0.1316-0.07478-0.4473-0.09598-0.1366-0.0092-0.2703-0.0366-0.2955-0.06199-0.0253-0.02529-0.1241-0.04599-0.2216-0.04599-0.0975 0-0.196-0.02877-0.2176-0.06398-0.0218-0.03522-0.1171-0.06635-0.2116-0.06799-0.2047-0.0031-0.7538-0.141-0.8186-0.2059-0.0251-0.02518-0.1647-0.04599-0.3115-0.04599s-0.4347-0.05764-0.639-0.128c-0.2043-0.07033-0.4167-0.128-0.4732-0.128-0.0565 0-0.204-0.05376-0.3275-0.12-0.7128-0.3826-2.772-0.6166-4.922-0.5599z"/><path d="m283.3-52.9c-0.4499-0.01075-1.099 0.1404-1.262 0.2939-0.044 0.04146-0.2093 0.1597-0.3674 0.2619-0.1581 0.1023-0.3641 0.2386-0.4572 0.3019-0.0931 0.06327-0.2437 0.1329-0.3354 0.156-0.0917 0.02303-0.1824 0.06865-0.2017 0.09998-0.0193 0.03133-0.0818 0.05599-0.1378 0.05599-0.0559 0-0.2624 0.0756-0.4592 0.168-0.5417 0.2542-0.7255 0.3305-0.9005 0.3759-0.0878 0.02283-0.3035 0.09572-0.4792 0.16-0.1757 0.06429-0.4776 0.1497-0.6709 0.19-0.7575 0.1577-1.778 0.405-2.14 0.5199-0.1054 0.03337-0.5576 0.1474-1.004 0.2519-0.5039 0.118-0.9405 0.2628-1.15 0.3819-0.1858 0.1056-0.4036 0.2192-0.4832 0.2539-0.0796 0.03481-0.2305 0.1544-0.3374 0.2639l-0.1957 0.198 0.04 2.835-0.1997 0.5759c-0.1102 0.3167-0.295 0.7486-0.4093 0.9598s-0.3071 0.5711-0.4293 0.7998c-0.2189 0.4098-0.9045 1.537-0.9724 1.6-0.2011 0.1847-0.5238 0.9199-0.5551 1.264-0.0177 0.1945-0.0594 0.4245-0.0918 0.5099-0.0324 0.08538-0.0579 0.269-0.0579 0.4099 0 0.3046-0.3179 1.656-0.3894 1.656-0.0274 0-0.0873 0.03596-0.1338 0.07998-0.1219 0.1156-0.8583 0.5599-0.9285 0.5599-0.0773 0-0.6507 0.3782-0.8246 0.5439-0.0744 0.07084-0.2685 0.2382-0.4313 0.3719-0.1925 0.1581-0.2955 0.2923-0.2955 0.3859 0 0.07914-0.0251 0.1725-0.0559 0.2059-0.0907 0.09828-0.2458 0.6632-0.3235 1.18-0.0397 0.2639-0.084 0.5519-0.0978 0.6398-0.0138 0.08794-0.0269 0.224-0.0299 0.3019-5e-3 0.1621-0.358 0.5938-0.4852 0.5938-0.0465 0-0.1233 0.03724-0.1697 0.08198-0.0736 0.07084-1.091 0.4306-1.216 0.4299-0.0254 0-0.1979 0.06804-0.3834 0.152-0.1854 0.08395-0.4381 0.1889-0.5611 0.2319-0.3869 0.1355-1.034 0.4591-1.15 0.5759-0.0616 0.06163-0.1365 0.1228-0.1677 0.136-0.1069 0.04525-0.4712 0.5338-0.4712 0.6318 0 0.05395 0.0648 0.171 0.1438 0.2599 0.0791 0.08896 0.1522 0.2025 0.1637 0.2539 0.0115 0.05149 0.0671 0.1431 0.1218 0.2039s0.1076 0.1867 0.1178 0.2799c0.0251 0.2287 0.041 0.2403 0.6988 0.4719 0.4622 0.1627 0.7067 0.2084 1.246 0.2319 0.369 0.01607 0.9872 0.05788 1.374 0.09197 0.3866 0.03409 1.048 0.05865 1.47 0.05599 0.74-0.0051 0.9641-0.02638 1.907-0.194 0.5122-0.09111 0.5727-0.04954 0.5112 0.3599-0.0656 0.437-0.2146 0.8133-0.5072 1.288-0.281 0.4555-0.2815 0.4595-0.2815 1.064 0 0.7439 0.0564 0.8427 0.8306 1.472 0.6211 0.5045 1.392 0.9001 1.987 1.02 0.5739 0.1154 1.654 0.09468 2.198-0.04199 0.5054-0.1268 1.56-0.6132 2.059-0.9498 0.5612-0.3785 1.047-0.8322 3.135-2.921 1.107-1.107 2.049-2.019 2.095-2.025 0.1322-0.01945 0.4046-0.2377 0.4453-0.3579 0.0206-0.06091 0.0583-0.1041 0.0839-0.09598 0.0255 0.0082 0.3615-0.2103 0.7468-0.4839 0.3853-0.2736 0.9633-0.6688 1.284-0.8798 0.3206-0.2109 0.6529-0.4473 0.7388-0.5259 0.0859-0.07852 0.4563-0.2988 0.8226-0.4879l0.6649-0.3439 0.7048-4e-3c0.6593-0.0041 0.7236 0.0057 1.036 0.178 0.4943 0.2725 0.5568 0.4419 0.5671 1.538 4e-3 0.4927 0.0148 1.472 0.024 2.175 0.0187 1.428-0.01 1.607-0.3534 2.175-0.4656 0.771-0.4768 0.8027-0.4493 1.432 0.0208 0.474 0.0597 0.6491 0.2156 0.9798 0.2302 0.4883 0.3442 1.013 0.3534 1.616 5e-3 0.3838-0.0228 0.5177-0.1997 0.8958-0.2934 0.627-0.8658 1.456-1.216 1.762-0.1636 0.1429-0.4374 0.3831-0.609 0.5319-0.1716 0.1488-0.3657 0.3203-0.4313 0.3819-0.0656 0.06163-0.1347 0.112-0.1538 0.112-0.019 0-0.1125 0.05269-0.2077 0.118-0.0952 0.06521-0.5619 0.3748-1.036 0.6878-1.915 1.264-2.963 2.171-4.279 3.705-0.3322 0.3871-0.6359 0.7326-0.6749 0.7678-0.0389 0.03519-0.1964 0.2223-0.3514 0.4159-0.2263 0.2826-1.643 1.857-1.785 1.983-0.0197 0.0176-0.1174 0.1328-0.2176 0.2559-0.1003 0.1232-0.3258 0.3839-0.4992 0.5799-0.3648 0.4125-0.6232 0.7678-1.308 1.788-0.2717 0.4047-0.6012 0.8798-0.7308 1.056-0.1296 0.176-0.2959 0.4392-0.3694 0.5859-0.0735 0.1467-0.2868 0.449-0.4752 0.6718-0.438 0.5181-0.5104 0.6498-0.4093 0.7518 0.0601 0.06062 0.0534 0.0673-0.0339 0.03399-0.092-0.03508-0.1137-0.00481-0.1198 0.172-0.0171 0.4973 0.0786 0.6776 0.4772 0.9058 0.5129 0.2936 1.103 0.4629 2.182 0.6238 0.246 0.03667 0.6198 0.09264 0.8306 0.126 1.204 0.1904 3.526 0.3762 5.048 0.4039 2.577 0.04695 2.623 0.0464 3.299-0.08798h2e-3c1.009-0.2008 2.098-0.7178 3.39-1.61 0.5096-0.3516 1.015-0.7558 0.8167-0.6538-0.0531 0.0273-0.0738 0.02465-0.0459-6e-3 0.0277-0.03042 0.1175-0.06496 0.1997-0.07598 0.2277-0.03054 1.585-0.5163 2.184-0.7818 0.3876-0.1717 1.036-0.5783 1.527-0.9578 0.2108-0.1629 0.5418-0.4086 0.7348-0.5459 1.859-1.322 4.116-3.545 4.814-4.743 0.2853-0.4891 0.9982-1.264 1.416-1.54 0.1757-0.1158 0.4489-0.3137 0.607-0.4379 0.1581-0.1242 0.5463-0.4037 0.8626-0.6218 1.352-0.9325 2.57-1.91 2.961-2.377 0.5563-0.6641 0.5828-0.7331 0.591-1.464 4e-3 -0.3616-0.0239-0.8544-0.0639-1.094-0.0742-0.4441-0.0493-0.9231 0.0719-1.324 0.1114-0.3686 1.032-1.728 1.296-1.914 0.0703-0.04945 0.3221-0.284 0.5591-0.5219 0.4163-0.418 0.5681-0.6548 0.595-0.9238 0.0244-0.2446-0.1029-0.9569-0.1977-1.102-0.1533-0.2343-0.177-0.6524-0.0679-1.226 0.1286-0.6757 0.1287-1.188 0-1.975-0.1241-0.7611-0.0908-1.172 0.1338-1.624 0.19-0.3818 0.7906-0.9914 1.164-1.182 0.1324-0.06746 0.2518-0.1436 0.2636-0.17 0.0118-0.0264 0.0687-0.04798 0.1278-0.04798 0.0591 0 0.2214-0.06312 0.3614-0.14 0.1758-0.09644 0.3841-0.1427 0.6709-0.152 1.361-0.04392 2.376-0.1047 2.676-0.158 0.1886-0.03348 0.3616-0.04873 0.3854-0.03399 0.0237 0.01474 0.3282-0.01326 0.6769-0.06199s1.239-0.1057 1.979-0.126c2.394-0.06552 2.886-0.09362 3.352-0.192 0.2524-0.05313 0.472-0.09598 0.4872-0.09598 0.0152 0 0.0277-0.07912 0.0279-0.176 0-0.09674 0.0435-0.2576 0.0958-0.3579 0.0591-0.1141 0.0777-0.2459 0.0499-0.3519-0.0249-0.09316-0.0362-0.2233-0.026-0.2879 0.0102-0.0646-0.0238-0.1654-0.0739-0.2239-0.132-0.1544-0.1828-0.3299-0.0958-0.3299 0.12 0-0.1325-0.204-0.8466-0.6838-0.369-0.2479-0.7111-0.4983-0.7588-0.5559-0.0477-0.05753-0.1105-0.104-0.1398-0.104-0.0292 0-0.1622-0.07466-0.2955-0.166-0.1333-0.09122-0.4716-0.277-0.7528-0.4139-0.6737-0.328-0.9556-0.572-0.8945-0.7738 0.0596-0.1973 0.3151-0.4674 0.6709-0.7118 0.1581-0.1086 0.6084-0.4877 1-0.8418 0.3919-0.3541 0.8496-0.7446 1.018-0.8678 0.6052-0.4418 1.236-1.098 1.41-1.468 0.0921-0.1959 0.1967-0.3762 0.2336-0.3999 0.1272-0.0817-0.0775-0.2252-0.3874-0.2719-0.1665-0.02518-0.5623-0.05884-0.8786-0.07399s-0.612-0.0415-0.6569-0.05799c-0.0449-0.01648-1.166-0.03267-2.492-0.03799-4.095-0.01658-5.859-0.1352-6.883-0.4599-0.3864-0.1226-0.5777-0.1413-1.406-0.134-0.6783 0.0061-1.061 0.04019-1.31 0.114-0.7417 0.2202-1.711 0.3138-3.323 0.3199-0.861 0.0031-1.839-0.01783-2.172-0.04599-0.3339-0.02826-0.9377-0.0804-1.342-0.116-0.4042-0.03552-1.166-0.08026-1.693-0.09797-0.9749-0.03286-1.26-0.09545-1.298-0.2899-0.0204-0.1064 0.3717-0.5904 1.012-1.252 0.2196-0.2267 0.3145-0.3729 0.2915-0.4479-0.0188-0.06122-0.0742-0.2847-0.1238-0.4959-0.1181-0.5027-0.4514-1.738-0.621-2.303-0.0739-0.2463-0.149-0.5055-0.1677-0.5759-0.0601-0.2256-0.3114-0.7057-0.4912-0.9418-0.1109-0.1456-0.3423-0.3118-0.635-0.4539-0.5108-0.248-0.7281-0.2974-1.48-0.3399-0.8639-0.04884-1.273-0.08198-1.44-0.118-0.1453-0.03133-0.3771-0.0719-1.118-0.194-0.1406-0.02314-0.4137-0.1124-0.607-0.1979-0.1933-0.08548-0.5958-0.2247-0.8945-0.3099-0.5856-0.1671-1.008-0.3079-1.482-0.4939-0.3243-0.1274-1.65-0.466-2.065-0.5279-0.1406-0.02099-0.3706-0.0533-0.5112-0.06998-0.1406-0.01669-0.4026-0.0605-0.583-0.09797-0.3281-0.06807-1.067-0.1239-1.909-0.144z"/><path d="m69.3-54.16c0.09522 0.06486 0.1959 0.119 0.2236 0.12 0.02778 9.83e-4 0.1635 0.08736 0.3015 0.192 0.138 0.1046 0.288 0.19 0.3335 0.19 0.04545 0 0.2482 0.07403 0.4513 0.166 0.2031 0.0915 0.6112 0.252 0.9065 0.3559 0.6154 0.2166 0.8166 0.3147 0.9964 0.4839 0.07028 0.06612 0.4294 0.3503 0.7987 0.6318 0.6995 0.5333 1.388 0.8578 1.817 0.8578 0.1666 0 1.052 0.1371 1.41 0.2179 0.7437 0.1681 1.445 0.5641 2.051 1.158 0.2699 0.2646 0.4063 0.4535 0.4393 0.6078 0.02636 0.1232 0.07379 0.2544 0.1038 0.2919 0.06763 0.0845 0.07649 0.3718 0.01997 0.6678-0.03798 0.1989-0.3539 0.7457-0.4812 0.8338-0.1656 0.1145-0.2341 0.6754-0.1118 0.9138 0.2094 0.4081 0.9136 0.8748 1.569 1.04 0.5526 0.139 1.851 0.2066 3.502 0.182 4.708-0.07022 6.133-0.1189 7.188-0.2479 0.369-0.04515 1.375-0.08784 2.236-0.09398 0.861-0.0058 1.81-0.02197 2.109-0.03599 0.2987-0.01403 1.061-0.04172 1.693-0.06199s1.653-0.0646 2.268-0.09797c1.315-0.07135 2.875-0.1255 6.262-0.2199 0.9664-0.02692 1.944-0.05579 2.172-0.06398 0.5401-0.01844 1.496 0.06891 1.821 0.166 0.1406 0.04207 0.2843 0.07891 0.3195 0.08198 0.0974 0.0086 0.5579 0.1652 0.7188 0.2439 0.1064 0.05209 0.1243 0.08904 0.0739 0.15-0.0373 0.04474-0.1138 0.06549-0.1697 0.04399-0.0674-0.0259-0.0845-0.01366-0.0539 0.03599 0.0255 0.04115 0.1322 0.07399 0.2376 0.07399 0.1115 0 0.1748 0.02672 0.1518 0.06398-0.0217 0.03522-0.0956 0.06398-0.1637 0.06398-0.0823 0-0.1238 0.04516-0.1238 0.132 0 0.08904 0.0357 0.1248 0.1118 0.112 0.0625-0.01044 0.1051 0.01524 0.0958 0.05998-9e-3 0.04392 5e-3 0.07612 0.032 0.06998 0.0264-0.0056 0.1342 0.02879 0.2396 0.07598 0.1808 0.08089 0.1843 0.08622 0.048 0.11-0.0796 0.01382-0.1311 0.04793-0.1138 0.07598 0.0173 0.02804-0.1423 0.08713-0.3534 0.132-0.2111 0.04489-0.3987 0.1078-0.4173 0.138-0.0186 0.0302-0.1322 0.05398-0.2536 0.05398s-0.2704 0.02671-0.3315 0.05998c-0.1112 0.06069-0.6093 0.2201-1.326 0.4219-1.61 0.4537-1.845 0.5462-2.132 0.8458-0.2636 0.2745-0.277 0.3069-0.2496 0.5918 0.0339 0.3535 0.1379 0.5059 0.609 0.8958 0.4007 0.3316 0.8329 0.8656 1.03 1.276 0.1661 0.3451 0.1679 0.3879 0.022 0.3879-0.0627 0-0.1644 0.08616-0.2256 0.19-0.1218 0.2064-0.5396 0.5499-1.402 1.154-0.3076 0.2154-0.631 0.4965-0.7188 0.6258-0.1904 0.2806-0.2128 0.6518-0.0479 0.7958 0.1827 0.1595 1.332 0.4989 2.644 0.7818 0.4084 0.0881 0.8142 0.1884 0.9025 0.2219 0.0883 0.03363 0.6884 0.1386 1.334 0.2339 1.253 0.1851 2.36 0.2227 4.624 0.156 1.062-0.03126 1.101-0.02729 1.757 0.16l0.6709 0.192h3.354c3.382 2.05e-4 4.174-0.04078 5.144-0.2599 0.2846-0.06439 1.009-0.08593 2.811-0.08798 2.224-0.0025 3.947-0.03645 5.016-0.09797 0.5334-0.03095 4.419-0.03061 5.048 0 0.2636 0.0128 0.9536 0.03679 1.533 0.05398 0.5798 0.01719 1.284 0.07329 1.565 0.124 0.2811 0.05078 0.5831 0.09486 0.6709 0.09998 0.0878 0.0048 0.2028 0.01843 0.2556 0.02999 0.0527 0.01157 0.2109 0.0428 0.3514 0.06799 0.3842 0.06896 0.9764 0.3584 1.012 0.4959 0.0172 0.06586-0.011 0.1611-0.0618 0.2119-0.0508 0.05093-0.1331 0.1928-0.1837 0.3139-0.0505 0.1211-0.1577 0.2731-0.2376 0.3379-0.1918 0.1555-0.3796 0.6673-0.4153 1.13-0.0401 0.5184 0.0824 0.692 1.314 1.848 0.3155 0.2349 0.4207 0.59 0.605 0.8958 0.0692 0.09424 0.1094 0.2128 0.0899 0.2639-0.0195 0.05102-9e-3 0.1183 0.022 0.15 0.0604 0.06054-0.3068 0.8538-0.3954 0.8538-0.0272 0-0.1602 0.07464-0.2935 0.166-0.4111 0.2815-0.94 0.5259-1.234 0.5699-0.1544 0.02302-0.3325 0.07029-0.3954 0.104-0.0629 0.03368-0.2937 0.07596-0.5132 0.09398-0.2194 0.01802-0.4856 0.04319-0.591 0.05599-0.2885 0.03494-1.997 0.3353-2.386 0.4199-0.1874 0.04074-0.3771 0.08081-0.4233 0.08798-0.0462 0.0069-0.1243 0.04261-0.1717 0.07998-0.0474 0.03734-0.2871 0.1764-0.5331 0.3099-0.246 0.1336-0.5479 0.3051-0.6709 0.3819-0.4659 0.2909-0.9574 0.3811-2.428 0.4459-0.4744 0.02099-1.006 0.05212-1.182 0.06799s-1.196 0.04504-2.268 0.06398c-1.072 0.01904-2.236 0.0476-2.588 0.06398s-1.257 0.04525-2.013 0.06398c-1.356 0.03368-2.486 0.07443-3.482 0.128-0.2811 0.01515-0.813 0.04284-1.182 0.06199-1.709 0.08851-1.977 0.1072-2.396 0.164-0.5159 0.06986-1.642 0.2443-2.109 0.3259-0.5106 0.08935-2.649 0.3283-3.61 0.4039-0.2284 0.01802-0.6022 0.06374-0.8306 0.09998-0.2284 0.03625-0.5878 0.08237-0.7987 0.104-0.2109 0.0216-0.4121 0.06198-0.4473 0.08798-0.0352 0.026-0.2076 0.06474-0.3834 0.08798-0.1757 0.02324-0.4488 0.06835-0.607 0.09998-0.1581 0.03165-0.6613 0.1303-1.118 0.2199-0.4568 0.08967-0.9313 0.1948-1.054 0.2319-0.123 0.03723-0.4824 0.09587-0.7987 0.13-0.3163 0.03402-0.7907 0.08936-1.054 0.124-1.672 0.2198-2.85 0.2094-3.215-0.02799-0.1349-0.08791-1.352-0.5928-2.472-1.026-0.2987-0.1154-1.104-0.4844-1.789-0.8198-1.325-0.6485-2.362-1.037-2.945-1.106-0.9893-0.1158-2.588 0.7536-3.762 2.043-0.479 0.5263-0.7228 0.9033-0.8226 1.276-0.06544 0.244-0.06524 0.243 0.3095 1.55 0.3314 1.155 0.3311 1.194-4e-3 1.806-0.2684 0.4897-0.5173 1.457-0.613 2.383-0.07886 0.7629-0.3579 1.299-1.192 2.291-0.9244 1.1-1.654 1.662-3.59 2.763-1.175 0.6686-2.063 1.225-3.684 2.309-0.8314 0.5559-1.997 1.276-2.067 1.276-0.01542 0-0.2661 0.1399-0.5571 0.3099-0.291 0.17-0.7304 0.4177-0.9764 0.5519-0.246 0.1341-0.5623 0.3371-0.7028 0.4499-0.2843 0.2281-1.137 0.824-1.919 1.344-1.054 0.7005-3.169 1.656-5.086 2.295-0.839 0.28-2.334 0.6401-3.059 0.7378-2.112 0.2846-2.732 0.3265-5.303 0.3539-1.138 0.01214-1.851-0.00434-1.901-0.04399-0.1073-0.08522-0.1002-0.3699 0.01398-0.5978 0.05119-0.1022 0.3747-0.4739 0.7188-0.8258 0.4819-0.4927 0.6846-0.7575 0.8845-1.152 0.1428-0.2815 0.2571-0.5407 0.2536-0.5759-0.01433-0.144-0.1722-0.3519-0.2676-0.3519-0.1176 0-1.412 0.5608-1.555 0.6738-0.4983 0.3929-2.247 1.132-3.193 1.35-0.2297 0.05295-0.7623 0.2069-1.184 0.3419-0.4217 0.135-1.011 0.3114-1.31 0.3919-0.2987 0.08049-1.003 0.3293-1.565 0.5539-0.5657 0.226-1.136 0.4136-1.278 0.4199-0.1406 0.00621-0.275 0.03978-0.2995 0.07398-0.02558 0.03575-0.06265 0.01858-0.08585-0.04199-0.03048-0.07952-0.09175-0.09828-0.2536-0.07198-0.2053 0.03336-0.217 0.02524-0.2596-0.2019-0.1837-0.9807 0.8292-3.341 1.777-4.141 0.4728-0.3992 0.6362-0.5057 1.527-1.006 1.547-0.8678 2.633-1.513 2.923-1.734 0.1618-0.1232 0.5096-0.3682 0.7727-0.5439 0.4866-0.3248 1.718-1.508 2.526-2.427 0.7951-0.9055 1.39-1.446 2.011-1.83 0.2538-0.1568 0.7131-0.482 1.022-0.7218 0.479-0.3715 0.6301-0.5372 1.012-1.12 0.3027-0.4613 0.493-0.8315 0.585-1.14 0.07506-0.2513 0.2209-0.5721 0.3235-0.7118 0.1782-0.2426 0.2148-0.259 0.8286-0.3899 0.3534-0.07535 0.7078-0.138 0.7887-0.138 0.2838 0 1.125-0.2504 1.328-0.3959 0.2835-0.2032 0.554-0.5159 0.8127-0.9398 0.3026-0.4959 0.5437-0.8738 1.13-1.768 0.7114-1.084 1.22-2.099 1.276-2.549 0.06779-0.5434-0.2269-1.638-0.6909-2.569-0.1337-0.2683-0.771-1.783-0.9285-2.207-0.07183-0.1935-0.2789-0.7694-0.4612-1.28-0.4305-1.205-0.4413-1.221-0.8306-1.434l-0.3315-0.182-0.3494 0.2479c-0.2534 0.1794-0.4425 0.3936-0.6809 0.7718-0.1813 0.2876-0.6457 0.986-1.032 1.552-0.3866 0.5656-0.8466 1.266-1.022 1.558-0.1757 0.292-0.3938 0.6302-0.4852 0.7518-0.09135 0.1216-0.3163 0.4726-0.4992 0.7798-0.1829 0.3072-0.4437 0.7018-0.581 0.8758-0.2778 0.3519-0.9152 0.8283-1.316 0.9838-0.3511 0.1363-1.575 0.2869-2.71 0.3339-0.5096 0.02113-1.041 0.06835-1.182 0.104-0.1406 0.03563-0.3562 0.07878-0.4792 0.09598-0.123 0.01726-0.2811 0.06831-0.3514 0.114-0.07028 0.04568-0.2356 0.1188-0.3674 0.162-0.1318 0.04328-0.2396 0.1055-0.2396 0.138 0 0.03245-0.0317 0.05798-0.06988 0.05798s-0.1891 0.08419-0.3354 0.186c-0.1463 0.1018-0.5939 0.3931-0.9944 0.6478-0.6126 0.3896-0.7749 0.4637-1.022 0.4719-0.3115 0.0097-0.6627-0.08374-0.7867-0.2079-0.04105-0.04115-0.1136-0.07399-0.1597-0.07399-0.04616 0-0.1327-0.02615-0.1937-0.05799-0.348-0.1815-1.629-0.7796-1.901-0.8878-0.9793-0.3893-2.361-0.5129-6.038-0.5399-1.341-0.0098-2.07-0.05524-2.148-0.134-0.01072-0.01074 0.0094-0.1275 0.04592-0.2599 0.04733-0.1717 0.04647-0.265-4e-3 -0.3259-0.04258-0.0514-0.04695-0.09456-0.01002-0.108 0.05128-0.01855 0.07808-0.1594 0.1318-0.7078 0.0025-0.02559 0.05431-0.02972 0.1158-0.01003 0.08018 0.0258 0.0888 0.01839 0.02995-0.024-0.06457-0.04655-0.04198-0.1465 0.1038-0.4719 0.1019-0.2275 0.2256-0.4567 0.2755-0.5079 0.0897-0.09206 0.1519-0.1806 0.9085-1.308 0.2126-0.3167 0.4067-0.5901 0.4313-0.6078 0.02461-0.01775 0.1546-0.2095 0.2895-0.4259 0.3882-0.6227 0.8943-1.278 1.845-2.387 1.917-2.238 2.417-3.301 2.64-5.615 0.05035-0.5228 0.0866-0.6399 0.3155-1.026 0.1421-0.2395 0.4437-0.644 0.6709-0.8978 0.5058-0.5648 0.9101-1.221 1.08-1.756 0.1138-0.3576 0.1228-0.4868 0.07588-1.17-0.1103-1.603-0.05698-1.945 0.7108-4.543 0.3706-1.254 0.5362-2.06 0.581-2.815 0.06743-1.137 0.2042-2.008 0.3434-2.203 0.1477-0.2077 0.5793-0.5802 1.056-0.9098 0.3033-0.2095 1.232-0.7531 1.438-0.8418 0.05271-0.02277 0.4409-0.2288 0.8626-0.4559 1.334-0.7186 3.09-1.572 3.233-1.572 0.05316 0 0.1244-0.02594 0.1577-0.05798 0.1172-0.1126 1.79-0.6524 2.232-0.7198 0.246-0.03747 0.6116-0.06506 0.8127-0.06199 1.143 0.01766 2.766 0.6696 4.345 1.746z"/><path d="m96.73-56.53c-1.02 0.02549-2.02 0.08827-3.095 0.194-1.524 0.2928-2.358 0.6388-3.666 1.522-0.3473 0.2343-0.6779 0.4547-0.7348 0.4899-0.05685 0.03522-0.2088 0.1545-0.3374 0.2659-0.1287 0.1115-0.2973 0.2372-0.3734 0.2779-0.07605 0.04075-0.1901 0.121-0.2536 0.18-0.06345 0.05886-0.1911 0.1656-0.2835 0.2359-0.2848 0.2167-0.3463 0.4-0.3175 0.9278 0.04177 0.7654 0.06374 0.9197 0.1418 0.9458 0.04037 0.01351 0.07388 0.06724 0.07388 0.12 0 0.05272 0.1006 0.2483 0.2236 0.4339s0.2236 0.3588 0.2236 0.3859c0 0.1377 0.6291 0.9029 1.004 1.222 0.8811 0.7485 1.48 1.01 2.462 1.07 0.2377 0.01454 0.4473 0.03997 0.4652 0.05799 0.04528 0.04536 11.44 0.03817 12.09-8e-3v2e-3c0.3431-0.02426 0.5555-0.07123 0.615-0.134 0.0501-0.05282 0.1095-0.2945 0.1318-0.5379 0.0223-0.2433 0.085-0.7472 0.1378-1.12 0.1923-1.359 0.0925-3.638-0.1877-4.293-0.207-0.4838-0.5246-0.6902-1.957-1.268-0.778-0.3137-1.507-0.5957-1.749-0.6778-0.194-0.06572-0.9994-0.2167-1.398-0.2619-1.154-0.04378-2.194-0.05549-3.215-0.02999z"/><path d="m230.6-57.26c-0.5207 0.01665-1.048 0.05813-1.368 0.118-0.6603 0.1236-1.362 0.3332-1.502 0.4499-0.0528 0.04402-0.1678 0.1021-0.2556 0.128-0.0878 0.0259-0.2028 0.08355-0.2556 0.128-0.0527 0.04443-0.2684 0.1604-0.4792 0.2579-0.4196 0.1941-0.8857 0.4277-1.456 0.7298-0.4563 0.2419-1.29 0.5404-2.091 0.7478-2.398 0.6213-3.619 0.9126-3.993 0.9518-0.3787 0.03962-1.417 0.3214-1.783 0.4839-0.5124 0.2274-1.827 1.631-1.827 1.952 0 0.02257 0.0472 0.02401 0.1038 2e-3 0.0689-0.02631 0.0911-0.0115 0.0699 0.04399-0.0176 0.04597 0.027 0.1967 0.0978 0.3359 0.0708 0.1392 0.1259 0.3165 0.1218 0.3939-4e-3 0.07739 0.0213 0.1585 0.0559 0.18 0.0348 0.0214 0.0619 0.09563 0.0619 0.164 0 0.07146 0.0448 0.124 0.1038 0.124 0.0651 0 0.0891 0.03527 0.0659 0.09598-0.0202 0.05282-0.0127 0.09598 0.018 0.09598 0.0306 0 0.087 0.0864 0.1238 0.192 0.0367 0.1056 0.0987 0.192 0.1378 0.192 0.0391 0 0.0549 0.02528 0.0359 0.05599s0.1411 0.2539 0.3554 0.4959c0.5998 0.6772 1.293 1.561 1.476 1.88 0.6496 1.135 1.326 2.511 1.326 2.695 0 0.03061-0.5535 0.05538-1.23 0.05599-0.6765 6.45e-4 -1.503 0.03205-1.837 0.06799-0.8881 0.09562-2.444 0.07907-3.592-0.03599-0.7585-0.07606-1.322-0.1805-2.3-0.4299-1.176-0.2999-1.361-0.3307-1.999-0.3299-0.4308 5.12e-4 -0.8636 0.0405-1.118 0.104-0.2284 0.05692-0.6166 0.1235-0.8626 0.148-0.246 0.02447-0.5192 0.07268-0.607 0.108-0.2683 0.1079-1.966 0.2346-2.795 0.2079-0.6547-0.02099-0.8416-0.0047-1.144 0.09998-0.1991 0.06859-0.4077 0.165-0.4632 0.2159-0.4496 0.413-0.5958 0.5075-1.106 0.6998-0.3886 0.1465-0.6914 0.2042-1.336 0.2599-0.1626 0.01402-0.5508 0.1119-0.8626 0.2159-0.3118 0.104-0.6596 0.2076-0.7727 0.2319-0.2359 0.05078-1.106 0.9659-1.512 1.59-0.3178 0.4881-0.466 0.6296-1.084 1.034-0.7022 0.459-1.602 1.359-1.681 1.682-0.0852 0.3477-7e-3 0.686 0.2256 0.9758 0.1115 0.1389 0.2197 0.3482 0.2416 0.4639 0.0219 0.1157 0.0605 0.2387 0.0858 0.2739 0.0254 0.03522 0.0974 0.2799 0.1597 0.5439 0.0624 0.2639 0.1517 0.5543 0.1977 0.6458 0.1635 0.3253 0.7496 0.9617 1.136 1.234 0.5452 0.3835 1.853 1.118 2.692 1.512 1.056 0.4958 1.079 0.4998 3.354 0.6098 0.4744 0.02293 1.558 0.04666 2.406 0.05199 1.42 0.0092 1.553 0.01984 1.677 0.132 0.0829 0.07514 0.1338 0.1986 0.1338 0.3239 0 0.3012-0.2496 1.048-0.3973 1.186-0.1884 0.1757-0.7033 0.4031-1.382 0.6098-0.6632 0.2021-0.7557 0.3008-0.6869 0.7378 0.0648 0.4116-0.2227 1.544-0.575 2.263-0.2328 0.4755-0.259 0.586-0.1458 0.6238 0.0979 0.03276 0.0915 0.3741-8e-3 0.4359-0.1135 0.07023-0.0256 0.3839 0.1078 0.3839 0.0579 0 0.0859 0.01993 0.0619 0.04399s0.0484 0.08112 0.1597 0.128c0.1113 0.04689 0.1854 0.1023 0.1657 0.122-0.0196 0.01966 0.086 0.2125 0.2336 0.4299 0.3825 0.5634 0.4976 0.844 0.5331 1.288 0.0621 0.7753-0.2683 1.582-1.064 2.595-0.2349 0.2991-0.4731 0.6158-0.5291 0.7038-0.0927 0.1455-0.5628 0.7079-1.4 1.674-0.6289 0.7257-1.717 2.226-1.717 2.367 0 0.02564-0.0865 0.1739-0.1917 0.3299-0.5239 0.7774-0.7596 1.358-0.8466 2.091-0.0966 0.8138-0.0692 1.129 0.1278 1.492 0.4073 0.7494 1.465 1.617 2.162 1.774 0.1614 0.03622 0.3751 0.1081 0.4752 0.16 0.1001 0.05183 0.2838 0.09398 0.4073 0.09398 0.1601 0 0.2883 0.0564 0.4493 0.1979 0.1242 0.1092 0.2276 0.2283 0.2276 0.2639 0 0.1556 0.6649 1.571 0.9345 1.989 0.6333 0.9826 1.162 1.448 2.292 2.015 0.7988 0.4011 1.154 0.4833 1.709 0.3979 0.7301-0.1123 1.168-0.3547 1.873-1.038 0.7242-0.7015 1.996-2.372 2.951-3.879 0.1496-0.2359 0.3548-0.5575 0.4552-0.7158 0.1005-0.1584 0.2523-0.4175 0.3394-0.5759 0.6382-1.16 0.6466-1.171 1.847-2.783 0.3406-0.4575 0.7434-1.012 0.8965-1.232 2.467-3.533 2.595-3.749 2.927-5.007 0.1492-0.5647 0.2106-0.7196 0.3874-0.9818 0.2939-0.4359 0.7059-0.8738 0.8226-0.8738 0.1731 0 0.9786 0.8287 1.182 1.216 0.851 1.618 1.191 2.375 1.338 2.975 0.3106 1.271 0.3229 1.404 0.1617 2.047-0.2489 0.9938-0.1539 2.527 0.1577 2.527 0.1538 0 0.3532 0.2838 0.4253 0.6058 0.0874 0.3907 0.0305 1.028-0.1358 1.506-0.0858 0.2465-0.12 0.5052-0.1138 0.8638 0.0113 0.6527-0.0589 1.417-0.1538 1.662-0.0406 0.1046-0.186 0.407-0.3215 0.6718-0.212 0.4145-0.2491 0.5512-0.2696 0.9877-0.0135 0.2892 4e-3 0.5428 0.0419 0.5879 0.0362 0.04342 0.04 0.09337 0.01 0.112-0.03 0.0186-0.049 0.1654-0.0439 0.3259 5e-3 0.1605-0.0142 0.2919-0.0439 0.2919s-0.0539 0.05758-0.0539 0.128c0 0.07038 0.0236 0.128 0.0539 0.128 0.0304 0 0.0525 0.06476 0.0479 0.144-0.0223 0.3928 0.6254 1.243 1.282 1.682 0.2047 0.1369 0.4309 0.2962 0.5012 0.3539 0.0702 0.0577 0.2284 0.1597 0.3514 0.2259 0.123 0.06627 0.2714 0.1594 0.3315 0.2079 0.2479 0.2003 0.7365 0.2172 1.204 0.04199 0.2878-0.109 1.121-0.8872 1.268-1.184 0.0898-0.1819 0.1076-0.3681 0.0939-0.9917-9e-3 -0.4223-0.0333-0.8398-0.0539-0.9278-0.0206-0.08798-0.0527-0.3327-0.0719-0.5439-0.0192-0.2111-0.0749-0.7257-0.1238-1.144-0.0908-0.7753-0.0634-0.9997 0.1258-0.9997 0.1526 0 0.4186 0.3777 0.4193 0.5958 6.1e-4 0.1117 0.0446 0.3481 0.0978 0.5239 0.0538 0.1758 0.0809 0.3917 0.0619 0.4799-0.0448 0.2068 0.0885 0.6369 0.2696 0.8718 0.078 0.1013 0.2377 0.3135 0.3534 0.4719 0.3912 0.5354 0.9834 0.6871 3.211 0.8238 1.704 0.1045 3.092 0.01598 3.498-0.2239 0.4915-0.2906 0.8686-0.7715 1.322-1.688 0.148-0.2991 0.3004-0.6014 0.3394-0.6718 0.0392-0.07038 0.1526-0.3007 0.2516-0.5119 0.099-0.2111 0.2207-0.4559 0.2696-0.5439 0.0489-0.08798 0.2985-0.5775 0.5551-1.088 0.2566-0.5103 0.5442-1.044 0.639-1.186 0.0948-0.1416 0.2095-0.3863 0.2556-0.5439 0.0461-0.1575 0.1347-0.3723 0.1977-0.4779 0.1489-0.2499 0.1467-0.3981-0.01-0.4479-0.0782-0.02486-0.1522-0.1357-0.1937-0.2899-0.0368-0.1371-0.1032-0.2863-0.1478-0.3319-0.0445-0.04557-0.1617-0.2259-0.2596-0.4019-0.3364-0.6048-0.2266-1.226 0.5072-2.863 0.186-0.415 0.4241-0.8625 0.5271-0.9937 0.103-0.1312 0.2315-0.3282 0.2875-0.4379 0.0874-0.1712 0.3741-0.4909 1.174-1.314 0.1588-0.1634 0.1659-0.1941 0.1338-0.7098-0.04-0.6412-0.1678-0.9514-0.4333-1.052-0.1743-0.06583-0.1926-0.09937-0.1977-0.3819-3e-3 -0.1702 2e-3 -0.4395 0.01-0.5978 0.0357-0.6725 0.0252-1.152-0.026-1.152-0.0302-5.2e-5 -0.0407-0.03925-0.022-0.08798s-0.0137-0.1567-0.0719-0.2399c-0.0582-0.08323-0.1019-0.1664-0.0978-0.184 4e-3 -0.01761-0.0636-0.1554-0.1518-0.3059-0.0881-0.1506-0.1856-0.3809-0.2156-0.5119-0.0819-0.3576-7.2e-4 -0.8769 0.1737-1.114 0.083-0.1127 0.1518-0.2657 0.1518-0.3399 0-0.07422 0.0823-0.2657 0.1837-0.4259 0.2363-0.3732 0.2768-0.5057 0.3055-1.014 0.0275-0.4872 0.0264-0.5823-2e-3 -1.202-0.0211-0.4515-0.0494-0.5492-0.1717-0.5659-0.0323-0.0041-0.0878-0.0116-0.1218-0.016-0.0341-0.0041-0.0452-0.04992-0.026-0.09998s4e-3 -0.1473-0.0339-0.2179c-0.4535-0.8486 0.5459-3.539 1.581-4.257 0.6344-0.4396 0.9867-0.465 6.687-0.4699 3.926-0.0031 4.778 0.01479 6.262 0.136 0.246 0.02007 0.7779 0.05284 1.182 0.07198s1.135 0.06132 1.623 0.09398c0.673 0.04504 0.9132 0.04087 0.9964-0.018 0.4656-0.3296 2.092-1.84 3.712-3.445 1.483-1.47 1.73-1.737 2.674-2.909 0.1565-0.1944 0.3081-0.5823 0.2616-0.6678-0.028-0.0516-0.0701-0.2119-0.0938-0.3559-0.0333-0.2027-0.1183-0.3357-0.3774-0.5879-0.4604-0.4481-0.932-0.7533-1.316-0.8518-0.1778-0.04566-0.3235-0.1054-0.3235-0.134 0-0.02856-0.0432-0.05199-0.0958-0.05199-0.0528 0-0.0958-0.02877-0.0958-0.06398 0-0.03522-0.0451-0.06398-0.0998-0.06398s-0.0834-0.02625-0.0639-0.05798c0.0195-0.03174-0.1926-0.2692-0.4732-0.5279-0.2806-0.2586-0.5107-0.5059-0.5112-0.5499-6.2e-4 -0.04402-0.0244-0.07999-0.0519-0.07999-0.0276 0-0.0988-0.08468-0.1597-0.188-0.129-0.2186-0.6097-0.4687-1.164-0.6078-0.2108-0.05293-0.6134-0.1712-0.8945-0.2619-0.9492-0.3063-1.147-0.3558-2.684-0.6798-0.8434-0.1778-1.634-0.3467-1.757-0.3739-0.3355-0.07412-1.367-0.3504-1.981-0.5319-1.606-0.4745-2.596-0.6641-3.121-0.5978-0.1637 0.02068-0.585 0.1557-0.9365 0.3019-0.3514 0.1463-0.7683 0.3048-0.9265 0.3519-0.627 0.1867-2.018 0.447-3.259 0.6078-0.2987 0.0387-0.7444 0.1124-0.9904 0.164-0.6647 0.1393-2.173 0.186-2.492 0.07798-0.4767-0.1615-0.3357-0.5941 0.4812-1.49 0.5584-0.6122 0.674-0.8718 0.613-1.374-0.0564-0.4643-0.1154-0.7293-0.1997-0.9018-0.0429-0.08794-0.1146-0.3176-0.1597-0.5099-0.0452-0.1923-0.1357-0.4689-0.1997-0.6138-0.1337-0.3028-0.7869-1.169-1.056-1.402-0.4326-0.3735-0.5104-0.4352-0.6769-0.5339-0.0966-0.05724-0.1757-0.1245-0.1757-0.15 0-0.04709-1.387-1.068-1.769-1.302-1.05-0.6431-2.088-1.505-2.608-2.167-0.3595-0.4579-1.149-0.7753-2.093-0.8398-0.2902-0.01986-0.6962-0.05911-0.9025-0.08798-0.289-0.04044-0.8031-0.04864-1.324-0.03199z"/><path d="m114.4-57.53c-1.195-0.01245-2.453 0.09579-3.39 0.3259-0.6318 0.1551-1.476 0.4902-2.069 0.8218-0.1573 0.08804-0.577 0.4618-0.9325 0.8298-0.6292 0.6514-0.6488 0.6783-0.6929 1.032-0.1085 0.8695 0.1057 1.617 0.7548 2.633 0.5029 0.7873 1.045 1.384 1.454 1.604 0.8799 0.4724 1.609 0.6632 2.875 0.7538 0.2985 0.0214 0.5502 0.04913 0.5611 0.05998 0.0294 0.02948 1.514-0.02646 2.57-0.09598 0.5096-0.03358 1.43-0.07504 2.045-0.09398s1.248-0.05259 1.406-0.07399c0.1581-0.0214 0.3594-0.04764 0.4473-0.05798 0.0878-0.01044 0.3179-0.03865 0.5112-0.06199 0.572-0.0689 1.301-0.4608 1.801-0.9698 0.4107-0.418 0.604-0.7333 0.5271-0.8578-0.0199-0.03225-4e-3 -0.05799 0.0359-0.05799 0.0461 0 0.0544-0.05171 0.024-0.144-0.0262-0.07914-0.043-0.4249-0.0399-0.7678 5e-3 -0.5039-0.0205-0.6756-0.1258-0.8958-0.0717-0.1498-0.1694-0.2958-0.2176-0.3239-0.0482-0.02815-0.0879-0.0801-0.0879-0.116 0-0.2627-1.01-1.335-1.735-1.842-0.4835-0.338-1.655-0.9431-2.162-1.118-0.1581-0.05446-0.4025-0.1415-0.5431-0.192-0.688-0.2471-1.82-0.3795-3.015-0.3919z"/><path d="m257.5-60.48c-1.447 0.0199-2.074 0.1775-4.568 0.8058-2.052 0.5168-2.865 0.7562-3.578 1.048-0.682 0.279-1.333 0.5805-1.725 0.8018-0.2108 0.119-0.6709 0.3617-1.022 0.5379-0.3514 0.1761-0.7252 0.3849-0.8306 0.4639-0.1054 0.07903-0.2779 0.1872-0.3834 0.2419-0.4119 0.2138-0.9441 0.8217-0.7987 0.9118 0.1068 0.06613 0.0717 0.2345-0.0559 0.2679-0.1116 0.02918-0.1149 0.05047-0.0339 0.3199 0.0986 0.3278 0.2254 0.5539 0.7348 1.312 0.6358 0.9458 0.8227 1.364 1.048 2.355 0.152 0.6678 0.269 1.028 0.3994 1.224 0.2756 0.4134 0.548 0.7336 0.6809 0.8038 0.0794 0.04197 0.4424 0.08261 0.8087 0.08998 0.7677 0.01536 2.216 0.1461 2.775 0.2499 0.2108 0.03921 0.5415 0.0958 0.7348 0.126 0.1933 0.0302 0.4233 0.08245 0.5112 0.116 0.0878 0.03348 0.3431 0.08123 0.5671 0.106 0.5601 0.06194 1.347 0.3584 2.164 0.8178 0.6873 0.3863 1.504 0.7872 1.805 0.8858 0.1944 0.06356 2.197 0.0082 2.68-0.07399 0.191-0.03245 0.5-0.05798 0.6869-0.05798 0.1868 0 0.3394-0.02666 0.3394-0.05799 0-0.06327 0.2338-0.1344 0.575-0.176 0.123-0.01495 0.4393-0.08022 0.7028-0.146 0.2636-0.06583 0.7667-0.1547 1.118-0.196 0.3514-0.04126 0.682-0.09056 0.7348-0.11 0.0528-0.01945 0.1678-0.04313 0.2556-0.05398 0.3762-0.04658 1.824-0.5593 2.286-0.8098 0.1153-0.06245 0.2387-0.114 0.2736-0.114 0.1369 0 0.8414-0.5177 1.076-0.7898 0.0556-0.0645 0.2168-0.1754 0.3574-0.2479 0.3087-0.1593 2.047-1.885 2.306-2.289 0.1015-0.1584 0.1998-0.3023 0.2176-0.3199 0.0649-0.06388 0.2733-0.4858 0.3634-0.7358 0.2532-0.703 0.3333-1.717 0.1797-2.249-0.0595-0.2062-0.1553-0.4266-0.2136-0.4919-0.0583-0.06531-0.101-0.1373-0.0958-0.16 0.016-0.07207-0.2209-0.495-0.3255-0.5819-0.0553-0.04597-0.0998-0.1095-0.0998-0.14 0-0.1512-1.132-1.305-1.821-1.856-0.246-0.1968-0.5723-0.4773-0.7248-0.6218-0.2653-0.2514-0.8066-0.5445-1.156-0.6278-0.0905-0.0216-0.1934-0.06372-0.2296-0.09197-0.0362-0.02826-0.2231-0.05661-0.4153-0.06398-0.1922-0.0072-0.3807-0.0382-0.4193-0.06799-0.0387-0.02979-0.1466-0.06031-0.2396-0.06799-0.0932-0.0082-0.1697-0.03645-0.1697-0.06398 0-0.02754-0.0575-0.04999-0.1278-0.04999-0.0703 0-0.1278 0.0282-0.1278 0.06199 0 0.03659-0.1999 0.04703-0.4952 0.02799-0.2723-0.01761-0.6964-0.04258-0.9424-0.05599-0.4288-0.02344-0.9985-0.07728-1.406-0.132-0.1054-0.01413-1.256-0.04043-2.556-0.05998-0.7642-0.01145-1.339-0.02063-1.821-0.01399z"/></g><g transform="translate(2.543 12.71)"><g transform="translate(0 .2496)"><path d="m53.11 188.3v5a5.5 5.5 45 0 0 5.5 5.5h10a4.5 4.5 135 0 0 4.5-4.5v-1a4.5 4.5 45 0 0-4.5-4.5h-4.5a1.5 1.5 135 0 0-1.5 1.5v1a1.5 1.5 45 0 0 1.5 1.5h4.2a0.8 0.8 45 0 1 0.8 0.8v0.4a0.8 0.8 135 0 1-0.8 0.8h-7.7a2.5 2.5 45 0 1-2.5-2.5v-3a2.5 2.5 135 0 1 2.5-2.5h10.5a1.5 1.5 135 0 0 1.5-1.5v-1a1.5 1.5 45 0 0-1.5-1.5h-12.5a5.5 5.5 135 0 0-5.5 5.5z"/><path d="m95.11 188.3v5a5.5 5.5 135 0 1-5.5 5.5h-10a4.5 4.5 45 0 1-4.5-4.5v-1a4.5 4.5 135 0 1 4.5-4.5h8a1.5 1.5 45 0 1 1.5 1.5v1a1.5 1.5 135 0 1-1.5 1.5h-7.699a0.8 0.8 135 0 0-0.8 0.8v0.4a0.8 0.8 45 0 0 0.8 0.8h7.7a2.5 2.5 135 0 0 2.5-2.5v-3a2.5 2.5 45 0 0-2.5-2.5h-10.5a1.5 1.5 45 0 1-1.5-1.5v-1a1.5 1.5 135 0 1 1.5-1.5h12.5a5.5 5.5 45 0 1 5.5 5.5z"/><path d="m97.11 183.8v13.5a1.5 1.5 45 0 0 1.5 1.5h2a1.5 1.5 135 0 0 1.5-1.5v-8.5a2 2 135 0 1 2-2h2a2 2 45 0 1 2 2v8.5a1.5 1.5 45 0 0 1.5 1.5h2a1.5 1.5 135 0 0 1.5-1.5v-8.5a2 2 135 0 1 2-2h2a2 2 45 0 1 2 2v8.5a1.5 1.5 45 0 0 1.5 1.5h2a1.5 1.5 135 0 0 1.5-1.5v-10.5a4 4 45 0 0-4-4h-22a1 1 135 0 0-1 1z"/><path d="m126.1 193.3v-5a5.5 5.5 135 0 1 5.5-5.5h10a4.5 4.5 45 0 1 4.5 4.5v1a4.5 4.5 135 0 1-4.5 4.5h-8a1.5 1.5 45 0 1-1.5-1.5v-1a1.5 1.5 135 0 1 1.5-1.5h7.699a0.8 0.8 135 0 0 0.8-0.8v-0.4a0.8 0.8 45 0 0-0.8-0.8h-7.7a2.5 2.5 135 0 0-2.5 2.5v3a2.5 2.5 45 0 0 2.5 2.5h10.6a1.5 1.5 45 0 1 1.5 1.5v1a1.5 1.5 135 0 1-1.5 1.5h-12.6a5.5 5.5 45 0 1-5.5-5.5z"/></g><g transform="translate(-.1348)"><path d="m152.2 187.3v10a1.5 1.5 45 0 0 1.5 1.5h2a1.5 1.5 135 0 0 1.5-1.5v-8.5a2 2 135 0 1 2-2h5.5a1 1 45 0 1 1 1v2a1 1 135 0 1-1 1h-5a1.5 1.5 135 0 0-1.5 1.5v1a1.5 1.5 45 0 0 1.5 1.5h6a4.5 4.5 135 0 0 4.5-4.5v-3a4.5 4.5 45 0 0-4.5-4.5h-9a4.5 4.5 135 0 0-4.5 4.5z"/><path d="m172.2 187.3v7a4.5 4.5 45 0 0 4.5 4.5h12a4.5 4.5 135 0 0 4.5-4.5v-7a4.5 4.5 45 0 0-4.5-4.5h-12a4.5 4.5 135 0 0-4.5 4.5zm7.5-0.5h6a2.5 2.5 45 0 1 2.5 2.5v3a2.5 2.5 135 0 1-2.5 2.5h-6a2.5 2.5 45 0 1-2.5-2.5v-3a2.5 2.5 135 0 1 2.5-2.5z"/><path d="m198.8 182.8c-2.727-0.0961-4.746 2.53-4.5 5.107v6.393c-0.0962 2.727 2.53 4.746 5.107 4.5h10.89a1 1 135 0 0 1-1v-2a1 1 45 0 0-1-1h-8.5c-1.72 0.0628-2.655-1.64-2.5-3.154 0.0344-1.04-0.0937-2.093 0.1224-3.119 0.3772-1.371 1.818-1.817 3.078-1.727h7.8a1 1 135 0 0 1-1v-2a1 1 45 0 0-1-1z"/><path d="m213.3 181.3a1 1 0 0 0-1 1v15.5a1 1 0 0 0 1 1h3a1 1 0 0 0 1-1v-15.5a1 1 0 0 0-1-1zm13.7 2.5a1.57 1.57 0 0 0-1.422 0.9062l-2.842 6.094h-3.432a1 1 0 0 0-1 1v2a1 1 0 0 0 1 1h3.432l1.443 3.094a1.57 1.57 0 0 0 1.422 0.9062h3.5a0.9557 0.9557 0 0 0 0.8672-1.359l-1.951-4.188a1.073 1.073 0 0 1 0-0.9062l3.35-7.188a0.9557 0.9557 0 0 0-0.8672-1.359z"/><path d="m232.4 193.3v-5a5.5 5.5 135 0 1 5.5-5.5h10a4.5 4.5 45 0 1 4.5 4.5v1a4.5 4.5 135 0 1-4.5 4.5h-8a1.5 1.5 45 0 1-1.5-1.5v-1a1.5 1.5 135 0 1 1.5-1.5h7.699a0.8 0.8 135 0 0 0.8-0.8v-0.4a0.8 0.8 45 0 0-0.8-0.8h-7.7a2.5 2.5 135 0 0-2.5 2.5v3a2.5 2.5 45 0 0 2.5 2.5h10.6a1.5 1.5 45 0 1 1.5 1.5v1a1.5 1.5 135 0 1-1.5 1.5h-12.6a5.5 5.5 45 0 1-5.5-5.5z"/><path d="m253.4 182.3v12.5a4 4 45 0 0 4 4h4.5a1 1 135 0 0 1-1v-2a1 1 45 0 0-1-1h-2.5a1 1 45 0 1-1-1v-6.5h3.5a1 1 135 0 0 1-1v-2a1 1 45 0 0-1-1h-3.5v-1a1 1 45 0 0-1-1h-3a1 1 135 0 0-1 1z"/></g><g transform="translate(-1.193)"><path d="m274.5 182.8c-2.727-0.0961-4.746 2.53-4.5 5.107v6.393c-0.0962 2.727 2.53 4.746 5.107 4.5h10.89a1 1 135 0 0 1-1v-2a1 1 45 0 0-1-1h-8.5c-1.72 0.0628-2.655-1.64-2.5-3.154 0.0344-1.04-0.0937-2.093 0.1224-3.119 0.3772-1.371 1.818-1.817 3.078-1.727h7.8a1 1 135 0 0 1-1v-2a1 1 45 0 0-1-1z"/><path d="m288 187.3v7a4.5 4.5 45 0 0 4.5 4.5h12a4.5 4.5 135 0 0 4.5-4.5v-7a4.5 4.5 45 0 0-4.5-4.5h-12a4.5 4.5 135 0 0-4.5 4.5zm7.5-0.5h6a2.5 2.5 45 0 1 2.5 2.5v3a2.5 2.5 135 0 1-2.5 2.5h-6a2.5 2.5 45 0 1-2.5-2.5v-3a2.5 2.5 135 0 1 2.5-2.5z"/><path d="m310 183.8v13.5a1.5 1.5 45 0 0 1.5 1.5h2a1.5 1.5 135 0 0 1.5-1.5v-8.5a2 2 135 0 1 2-2h2a2 2 45 0 1 2 2v8.5a1.5 1.5 45 0 0 1.5 1.5h2a1.5 1.5 135 0 0 1.5-1.5v-8.5a2 2 135 0 1 2-2h2a2 2 45 0 1 2 2v8.5a1.5 1.5 45 0 0 1.5 1.5h2a1.5 1.5 135 0 0 1.5-1.5v-10.5a4 4 45 0 0-4-4h-22a1 1 135 0 0-1 1z"/><path d="m339 187.3v12.5a1 1 45 0 0 1 1h3a1 1 135 0 0 1-1v-9.5a3 3 135 0 1 3-3h5a3 3 45 0 1 3 3v1.5a3 3 135 0 1-3 3h-6a1 1 135 0 0-1 1v2a1 1 45 0 0 1 1h9a4.5 4.5 135 0 0 4.5-4.5v-7a4.5 4.5 45 0 0-4.5-4.5h-11.5a4.5 4.5 135 0 0-4.5 4.5z"/><path d="m392 193.3v-5a5.5 5.5 135 0 1 5.5-5.5h10a4.5 4.5 45 0 1 4.5 4.5v1a4.5 4.5 135 0 1-4.5 4.5h-8a1.5 1.5 45 0 1-1.5-1.5v-1a1.5 1.5 135 0 1 1.5-1.5h7.699a0.8 0.8 135 0 0 0.8-0.8v-0.4a0.8 0.8 45 0 0-0.8-0.8h-7.7a2.5 2.5 135 0 0-2.5 2.5v3a2.5 2.5 45 0 0 2.5 2.5h10.6a1.5 1.5 45 0 1 1.5 1.5v1a1.5 1.5 135 0 1-1.5 1.5h-12.6a5.5 5.5 45 0 1-5.5-5.5z"/><path d="m381.5 182.3v12.5a4 4 45 0 0 4 4h4.5a1 1 135 0 0 1-1v-2a1 1 45 0 0-1-1h-2.5a1 1 45 0 1-1-1v-6.5h3.5a1 1 135 0 0 1-1v-2a1 1 45 0 0-1-1h-3.5v-1a1 1 45 0 0-1-1h-3a1 1 135 0 0-1 1z"/><path d="m361.5 184.3v10a4.5 4.5 45 0 0 4.5 4.5h10a4.5 4.5 135 0 0 4.5-4.5v-10a1.5 1.5 45 0 0-1.5-1.5h-2a1.5 1.5 135 0 0-1.5 1.5v8.5a2 2 135 0 1-2 2h-5a2 2 45 0 1-2-2v-8.5a1.5 1.5 45 0 0-1.5-1.5h-2a1.5 1.5 135 0 0-1.5 1.5z"/><path d="m413 187.8v9.5a1.5 1.5 45 0 0 1.5 1.5h2a1.5 1.5 135 0 0 1.5-1.5v-7.5a3 3 135 0 1 3-3h0.5a1.5 1.5 135 0 0 1.5-1.5v-1a1.5 1.5 45 0 0-1.5-1.5h-3.5a5 5 135 0 0-5 5z"/></g></g></g></svg>
