<?xml version="1.0" encoding="UTF-8"?>
<svg width="480" height="320" version="1.1" viewBox="0 0 480 320" xmlns="http://www.w3.org/2000/svg">
 <defs>
  <linearGradient id="a" x1="81.598" x2="81.598" y2="84.667" gradientTransform="matrix(3.7795 0 0 3.7795 -.056445 0)" gradientUnits="userSpaceOnUse">
   <stop stop-color="#fff" offset="0"/>
   <stop stop-color="#e6e6e6" offset="1"/>
  </linearGradient>
 </defs>
 <rect x="-.056445" width="480" height="320" ry="16" fill="url(#a)" stroke-linecap="square" stroke-linejoin="round" stroke-width="2" style="paint-order:stroke fill markers"/>
 <g transform="matrix(3.7795 0 0 3.7795 .15689 0)" fill="#808080" fill-opacity=".5">
  <g stroke-width="1.9634" aria-label="2">
   <path d="m11.471 71.438h35.189l0.56077-3.2525h-30.142l0.02804-0.30843 18.59-17.973c10.907-10.486 14.468-15.113 15.505-21.506 1.458-8.6359-4.0656-15.169-13.178-15.169-9.3649 0-17.272 6.8414-18.73 15.73h3.3927c1.2057-7.0097 7.4022-12.505 14.917-12.505 7.1779 0 11.412 4.9348 10.234 11.944-0.89724 5.5797-4.2619 9.7294-13.823 18.954l-22.095 21.422z" fill="#808080" fill-opacity=".5"/>
  </g>
  <g stroke-width=".32899" aria-label="players">
   <path d="m56.274 71.438h1.4829l0.84739-5.0594h0.12462c0.243 0.52339 0.6667 1.6699 2.5173 1.6699 2.3864 0 4.3803-1.9191 4.885-4.9597 0.49224-3.0157-0.85362-4.9348-3.265-4.9348-1.8755 0-2.6481 1.1465-3.0406 1.6449h-0.17446l0.24923-1.5203h-1.4206zm2.8537-8.3742c0.3427-2.1434 1.539-3.589 3.3397-3.589 1.863 0 2.511 1.5702 2.1932 3.589-0.35516 2.0437-1.5515 3.6637-3.3896 3.6637-1.7758 0-2.4986-1.4954-2.1434-3.6637z"/>
   <path d="m71.165 55.088h-1.4705l-2.1185 12.761h1.4705z"/>
   <path d="m74.53 68.073c1.6699 0 2.6917-0.89724 3.0905-1.5203h0.07477l-0.22431 1.296h1.4705l1.0468-6.3056c0.49847-3.0406-1.7446-3.3896-2.9659-3.3896-1.4456 0-3.1902 0.49847-4.212 2.2431l1.296 0.49847c0.44862-0.69785 1.3957-1.4456 2.7914-1.4456 1.3459 0 1.8443 0.72278 1.6449 1.944v0.04985c-0.12462 0.69785-0.84739 0.64801-2.6169 0.87232-1.8194 0.22431-3.8133 0.62308-4.1871 2.8163-0.29908 1.8692 0.97201 2.9409 2.7914 2.9409zm0.4237-1.3209c-1.1714 0-1.9191-0.52339-1.7446-1.5452 0.17446-1.1215 1.2711-1.4705 2.4425-1.62 0.62308-0.07477 2.3179-0.24923 2.6169-0.54831l-0.22431 1.3459c-0.19939 1.1963-1.3459 2.3677-3.0905 2.3677z"/>
   <path d="m81.645 71.438c1.296 0 2.3677-0.67293 3.1902-2.2057l5.8694-10.954h-1.6574l-3.913 7.6515h-0.09969l-1.3708-7.6515h-1.5328l1.9191 9.5705-0.41123 0.7477c-0.79755 1.4518-1.4206 1.6449-2.4425 1.3708l-0.59816 1.296c0.13708 0.07477 0.54831 0.17446 1.0468 0.17446z"/>
   <path d="m94.693 68.048c1.9502 0 3.5204-0.97201 4.212-2.4176l-1.3459-0.39877c-0.54208 0.99693-1.4642 1.4954-2.6419 1.4954-1.8443 0-2.8288-0.82247-2.4736-3.1653h6.9598l0.09969-0.62308c0.60439-3.564-1.3147-4.7853-3.3148-4.7853-2.5858 0-4.6544 2.0437-5.1342 4.9847-0.49224 2.9409 0.87855 4.9099 3.6388 4.9099zm-2.0437-5.7573c0.29285-1.3583 1.7072-2.8163 3.3148-2.8163 1.6013 0 2.4238 1.1963 2.1434 2.8163z"/>
   <path d="m100.95 67.849h1.4705l0.99693-6.0564c0.22431-1.296 1.3957-2.2431 2.7914-2.2431 0.39877 0 0.79754 0.07477 0.89724 0.09969l0.24923-1.4954c-0.17446-0.02492-0.54831-0.02492-0.77262-0.02492-1.1465 0-2.268 0.64801-2.7665 1.5951h-0.0997l0.24923-1.4456h-1.4206z"/>
   <path d="m115.53 60.421c-0.24923-1.3708-1.1216-2.268-3.0157-2.268-2.0188 0-3.7136 1.1465-3.9877 2.7665-0.22431 1.3209 0.42369 2.1932 2.1185 2.6169l1.5203 0.37385c0.94708 0.22431 1.3209 0.67293 1.1963 1.3459-0.12462 0.82247-1.1216 1.4954-2.4923 1.4954-1.1963 0-1.8692-0.52339-1.944-1.5452l-1.4705 0.34893c0.0748 1.62 1.2711 2.4923 3.24 2.4923 2.2182 0 3.9379-1.2212 4.212-2.8662 0.22431-1.3459-0.47354-2.1683-2.1185-2.592l-1.3708-0.34893c-1.0717-0.27416-1.5203-0.67293-1.3957-1.3957 0.12462-0.82247 1.0966-1.4206 2.268-1.4206 1.296 0 1.6948 0.69785 1.8443 1.3708z"/>
  </g>
 </g>
 <path d="m84.585 124.98c-10.906-0.10299-19.77 3.6957-26.387 7.7968-13.173 8.0601-19.495 20.453-17.754 37.282 1.9529 19.494 27.199 31.814 48.608 19.387 0.24854-0.10651 0.35532-0.21256 0.56835-0.24805l-2.0586 4.5448h14.381l9.0546-20.062h15.906l3.4804 20.062h23.434l11.932-37.462 9.8007 37.462h9.1601l15.73-41.472 6.2128 41.72h13.742l-5.0077-67.249-16.541-2e-3 -15.803 36.749-6.994-36.749h-13.6l-19.354 54.149-9.0546-54.149h-16.973l-25.707 58.374 3.834-24.393h-25.529l-2.0254 12.568h10.725l-1.2422 6.7108c-6.1072 2.521-16.478 1.5632-20.916-6.3905-2.8051-5.042-5.4314-16.263 6.3925-26.596 9.6581-8.4152 26.346-9.9418 35.969-5.539 0 0 1.2077-7.0654 2.1309-13.6-5.7811-1.9973-11.16-2.8496-16.117-2.8964zm301.53 1.2988 16.262 35.329-5.0409 31.636h13.812l4.1894-27.979 24.82-38.987h-16.121l-13.564 21.838-8.5917-21.838h-15.766zm-19.189 0.46484c-13.325 0.22232-25.948 11.544-29.707 27.73-4.2254 18.535 4.6532 36.395 19.887 39.946 15.268 3.4797 31.105-8.6638 35.436-27.164 4.2254-18.535-4.6869-36.394-19.885-39.909-1.9085-0.43941-3.8268-0.63526-5.7304-0.60351zm-135.84 0.31639-10.688 66.966h38.383l2.3086-14.344h-24.004l1.8828-11.967h20.914l2.2715-14.381h-21.09l1.8105-11.895h24.037l2.2734-14.381h-38.1zm78.304 0.41601c-8.1618-0.0147-18.158 0.0431-18.479 0.0449l-10.652 66.505h30.998c12.783 0 31.425-18.784 14.416-34.122 17.399-18.073 0.14257-32.168-9.1249-32.382-1.8553-0.0264-4.3936-0.0399-7.1581-0.0449zm57.919 12.309c1.4304-0.0348 2.8468 0.23588 4.205 0.84178 7.2791 3.2668 10.226 14.948 6.4979 26.098-3.6929 11.078-12.641 17.54-19.92 14.238-7.2435-3.2312-10.191-14.913-6.4628-26.062 3.0292-9.0876 9.4812-14.964 15.68-15.115zm-64.573 1.9043h8.9472c9.7291 0 7.742 12.428-1.5254 12.428h-9.5175zm-180.48 6.037 2.5566 12.996h-8.3788zm176.22 20.098h11.506c10.972 0 10.651 13.35-1.4922 13.35h-12.143l2.1289-13.35z" fill="#1a1a1a" stroke-width=".99998"/>
 <style type="text/css">.st0{fill:#FC0C18;}
	.st1{fill:#FC0C18;}</style>
 <style type="text/css">.st0{fill:#FC0C18;}
	.st1{fill:#FC0C18;}</style>
 <style type="text/css">.st0{fill:#FC0C18;}
	.st1{fill:#FC0C18;}</style>
</svg>
