<?xml version="1.0" encoding="UTF-8"?>
<svg width="480" height="320" version="1.1" viewBox="0 0 480 320" xmlns="http://www.w3.org/2000/svg">
 <defs>
  <linearGradient id="a" x1="81.598" x2="81.598" y2="84.667" gradientTransform="matrix(3.7795 0 0 3.7795 -.056445 0)" gradientUnits="userSpaceOnUse">
   <stop stop-color="#fff" offset="0"/>
   <stop stop-color="#e6e6e6" offset="1"/>
  </linearGradient>
 </defs>
 <rect x="-.056445" width="480" height="320" ry="16" fill="url(#a)" stroke-linecap="square" stroke-linejoin="round" stroke-width="2" style="paint-order:stroke fill markers"/>
 <g transform="matrix(3.8449 0 0 3.8449 -10.091 -4.5683)" fill="#1a1a1a" stroke-width=".26458" aria-label="hacks">
  <path d="m51.481 68.059c0.0038-0.57126 0.33449-0.91702 0.84185-0.91702 0.52992 0 0.83058 0.34576 0.82682 0.91702v3.2471h2.0746v-3.6831c0.0038-1.2628-0.793-2.1648-2.0144-2.1648-0.85313 0-1.4845 0.43596-1.7438 1.1726h-0.06013v-3.0217h-1.9994v7.6969h2.0746z"/>
  <path d="m57.855 71.396c0.75165 0 1.3192-0.25556 1.6687-0.90199h0.0451v0.81179h1.9393v-3.9537c0-1.0673-1.011-1.8942-2.6609-1.8942-1.725 0-2.5744 0.90199-2.6458 1.9543h1.9092c0.04886-0.35704 0.31194-0.52616 0.70656-0.52616 0.36079 0 0.61636 0.16536 0.61636 0.46603v0.01503c0 0.33449-0.36831 0.43972-1.3379 0.51112-1.1914 0.08644-2.1197 0.5675-2.1197 1.834 0 1.15 0.7742 1.6837 1.8791 1.6837zm0.67649-1.3079c-0.35328 0-0.60132-0.17288-0.60132-0.49609 0-0.2969 0.21046-0.52616 0.69152-0.60132 0.33073-0.05262 0.60884-0.12026 0.82682-0.21046v0.48106c0 0.52616-0.44724 0.82682-0.91702 0.82682z"/>
  <path d="m65.281 71.411c1.71 0 2.7586-0.98091 2.7811-2.5105h-1.9242c-0.0451 0.60508-0.37207 0.93205-0.82682 0.93205-0.54495 0-0.90199-0.46603-0.90199-1.4131s0.35704-1.4131 0.90199-1.4131c0.45851 0 0.77045 0.32697 0.82682 0.93205h1.9242c-0.01128-1.5033-1.0824-2.4805-2.7811-2.4805-1.8791 0-2.9916 1.2026-2.9916 2.9766 0 1.7739 1.1124 2.9766 2.9916 2.9766z"/>
  <path d="m68.919 71.306h2.0746v-1.6386l0.31194-0.39462 1.1763 2.0332h2.3752l-2.022-3.2434 1.9618-2.5293h-2.3301l-1.3981 1.9393h-0.07517v-3.8635h-2.0746z"/>
  <path d="m80.615 67.413c-0.05262-1.2214-1.0674-1.9543-2.736-1.9543-1.6499 0-2.6684 0.67649-2.6609 1.8791-0.0075 0.9095 0.58253 1.492 1.7589 1.6987l1.0222 0.1804c0.45099 0.08268 0.65394 0.20295 0.66146 0.42093-0.0075 0.24053-0.28187 0.37583-0.66146 0.37583-0.46978 0-0.80051-0.20295-0.85689-0.57126h-2.0595c0.11275 1.1839 1.135 1.9693 2.9014 1.9693 1.5973 0 2.7736-0.77796 2.7811-2.0144-0.0075-0.85313-0.57877-1.3492-1.7589-1.5634l-1.1726-0.21046c-0.43972-0.07892-0.56374-0.23677-0.55622-0.40589-0.0075-0.24053 0.28939-0.37583 0.64642-0.37583 0.40965 0 0.75166 0.21798 0.78172 0.57126z"/>
 </g>
 <path d="m80.793 66.356c-6.742-0.06482-12.22 2.2926-16.312 4.828-8.1073 5.0157-12.006 12.663-10.967 23.062 1.2058 12.061 16.826 19.66 30.061 12.004 0.14349-0.083 0.20202-0.124 0.30078-0.18553l-1.248 2.83h8.8866l5.578-12.381h9.83l2.1738 12.381h14.461l7.3749-23.158 4.7245 23.158h5.6718l11.059-25.615 1.1367 25.615h8.5058l-1.7969-41.399h-10.209l-9.6444 22.688-4.1601-22.688h-8.4101l-10.871 33.462-5.5761-33.462h-10.49l-15.885 36.044 2.3711-15.061h-15.791l-1.207 7.7519h6.5976l-0.75585 4.1601c-3.78 1.5116-10.208 0.94244-12.949-3.9706-1.7361-3.113-3.3436-10.061 3.9726-16.447 5.95-5.1996 16.259-6.1432 22.213-3.4022 0 0 0.75586-4.3494 1.3203-8.4159-3.5745-1.2407-6.9002-1.7694-9.9647-1.7988zm171.05 1.125c-8.2219 0.135-15.998 7.1381-18.311 17.154-2.6405 11.443 2.8604 22.487 12.289 24.666 9.4264 2.1786 19.209-5.3344 21.852-16.779 2.6383-11.447-2.86-22.489-12.293-24.668-1.178-0.27231-2.3625-0.39233-3.5371-0.37304zm-82.53 0.01361-6.619 41.399h23.729l1.4199-8.8826h-14.846l1.1777-7.3749h12.908l1.4199-8.8827h-13.047l1.1348-7.3749h14.836l1.4219-8.8847h-23.535zm94.239 0 10.023 21.834-3.0918 19.566h8.5116l2.6094-17.297 15.316-24.104h-9.9257l-8.414 13.516-5.2909-13.516h-9.7382zm-46.333 0.19725c-5.0438-0.0102-11.211 0.02986-11.422 0.03137v2e-3l-6.5663 41.089h19.135c7.8806 0 19.403-11.617 8.914-21.107 10.786-11.165 0.0883-19.888-5.6308-19.984-1.1486-0.0189-2.7194-0.02759-4.4296-0.03137zm34.895 7.8593c0.88671-0.02154 1.7655 0.14581 2.6094 0.52343 4.5004 2.0119 6.284 9.2304 3.9922 16.117-2.292 6.8843-7.806 10.832-12.307 8.8202-4.4984-2.014-6.2865-9.2244-3.9882-16.113 1.8657-5.597 5.8508-9.2534 9.6933-9.3475zm-39.002 0.90038h5.539c6.0035 0 4.7837 7.6913-0.93749 7.6913h-5.912l1.3106-7.6913zm-109.02 3.996 1.5566 8.0292h-5.1483zm106.4 12.137h7.1288c6.756 0 6.569 8.2558-0.93749 8.2558h-7.5038zm73.884 13.16-0.28906 1.2285h2.3164l-1.3438 5.7187h1.6074l1.3457-5.7187h2.3164l0.29297-1.2285h-6.246zm7.119 0-1.6348 6.9472h1.5l1.3652-5.8065h0.0215l0.0371 5.8065h1.5703l2.7969-5.8065h0.0215l-1.3652 5.8065h1.498l1.6328-6.9472h-2.3203l-2.6562 5.4784h-0.0215l-0.10547-5.4784h-2.3398zm-192.57 7.1561c-13.116 0.19582-21.244 6.9003-21.244 6.9003s-11.804 6.3882-25.93 28.639c-9.6146 13.805-10.773 24.641-10.773 24.641s-1.1621 2.5812-0.71093 14.064c-0.25444 8.9646 3.0977 15.475 3.0977 15.475s5.0978 15.422 21.221 21.744c9.8027 4.0621 24.125 3.996 24.125 3.996s13.867-0.19207 24.51-0.77147c5.8068 0.45111 8.58-2.582 8.58-2.582s6.5126-4.2546 5.869-11.676v-2e-3c11.289 9.42 23.352 10.385 23.352 10.385s9.7408 2.1918 21.094-0.77147c9.931-2.0012 17.158-6.9061 17.158-6.9061s16.447-9.0906 20.963-27.668c0 3.8077 3.0957 29.414 3.0957 29.414s0.31985 8.3249 8.3202 9.8064c8.1906 1.3534 16.253-2.7125 19.672-4.3202 3.4166-1.6163 7.9354-3.0352 7.9354-3.0352s3.7412-0.83517 7.4784-1.1602c8.7765-0.84023 11.934-2.3848 11.934-2.3848s3.4006-0.5134 5.6796-3.746l2e-3 -2e-3c8.187 7.6734 11.539 7.6735 12.059 8.1288 10.835 4.9024 23.412 2.0625 23.412 2.0625s15.87-1.5494 30.385-12.836c11.605-8.5103 16.641-21.014 16.645-21.023 0 0 0.38391 10.317-1.2324 12.836-2.1915 4.7057-1.8711 9.289-1.8711 9.289s-1.4806 13.932 14.646 16.258c11.094-0.0663 12.446-9.2924 12.639-13.227 0.6478-3.0936 0.39063-17.48 0.39063-17.48l14.387 11.738s10.453 8.7742 16.578 13.867c6.3883 5.0328 7.9921 5.9315 7.9921 5.9315s1.3616 1.6128 6.2597 1.0312c3.9382 0.0663 7.5487-3.4824 7.5487-3.4824s4.5776-3.3535 5.7343-9.2244c1.4239-6.9656-3.9922-10.379-3.9922-10.379s-19.995-16.127-33.541-27.221c9.0908-4.9644 13.48-8.3866 13.48-8.3866s12.645-8.3839 15.352-21.221c3.7458-14.126-6.9003-19.674-6.9003-19.674s-6.6474-4.7745-12.26-7.2909c-14.126-6.9014-27.281-5.4823-27.281-5.4823s-18.707-1.29-30.9 13.74c-5.6079 7.2863-2.125 16.836-2.125 16.836s0.69296 1.532 2.2559 8.7732c2.7e-4 1e-3 -2.7e-4 3e-3 0 4e-3 -2e-3 -2e-3 -2e-3 -4e-3 -4e-3 -6e-3 -11.287-18.447-31.15-21.221-31.15-21.221s-6.3226-2.1307-19.869-0.32617c-25.415 4.8382-34.252 24.383-34.252 24.383s-9.0979 14.318-5.4804 31.667l4e-3 6e-3c-1e-3 -2.7e-4 -3e-3 2.8e-4 -4e-3 0-5.4369-1.1952-14.127 1.0312-14.127 1.0312s-12.125 4.4467-14 4.3847c-0.70768-1.0305-2.2539-20.833-1.8027-28.768 0.25871-13.998-0.90428-25.414-0.90428-25.414s-0.57818-13.48-7.8046-21.479c-8.5135-8.5798-14.449-4.9029-17.863-2.8398-8.1949 7.3525-4.3906 16.318-4.3906 16.318l4.2578 12.066s2.0654 5.162 1.8066 13.609c-7.5e-4 -1e-3 -1e-3 -3e-3 -2e-3 -4e-3 -2.1273-6.4482-7.7421-12.576-7.7421-12.576s-8.4471-10.966-25.025-14.703c-14.192-2.9696-25.35 3.287-25.35 3.287s-10.127 4.0619-17.74 12.447c-12.125 11.676-15.609 28.705-15.609 28.705s-4.6389 14.83 2.707 26.568c-5.7609-1.7193-12.379-0.57811-12.379-0.57811s-18.709 1.8093-28.447-0.25391c-15.094-2.6426-14.58-18.9-14.58-18.9s-0.51308-10.773 8.5819-25.346c11.222-17.998 23.605-21.225 23.605-21.225s3.0985-1.1591 6.0019 0.38671c1.8045 10.448 11.932 10.385 11.932 10.385s14.581 0.96757 13.867-16.703c-1.6762-14.517-15.676-16.516-21.545-17.867-2.751-0.49409-5.3503-0.68079-7.7792-0.64454zm285.2 30.854c3.889-2e-3 9.6487 0.0934 12.713 0.61718 9.6787 1.4838 9.1581 4.1933 9.1581 4.1933s-0.32116 3.4168-7.6757 6.7733c-7.9961 3.8697-16.961 5.289-16.961 5.289l-1.2285-16.834s1.6607-0.0378 3.994-0.0391zm-213.45 12.412c1.1994-0.0121 1.8887 0.0723 1.8887 0.0723s7.4167 0.71363 11.225 12.969c4.8981 15.612-0.97069 21.605-0.97069 21.605s-6.5807 11.485-21.027 10.127c-16.963-1.7403-18.963-16.641-18.963-16.641s-2.3215-10.965 8.1269-20.512c7.9341-6.6769 16.123-7.5843 19.721-7.621zm139.98 2.2109c0.47053 4e-3 0.94986 0.0223 1.4336 0.0586 7.7417 0.5794 10.189 0.0609 16.447 4.7089 5.9286 5.3535 5.5448 9.289 5.5448 9.289s2.1286 13.285-10.967 21.738c-18.252 10.962-29.736-1.0352-29.736-1.0352s-5.0945-3.3508-6.1913-13.545c-0.77181-11.802 10.967-17.932 10.967-17.932s5.4439-3.3426 12.502-3.2832z" clip-rule="evenodd" fill="#1a1a1a" fill-rule="evenodd" stroke-width="2.138"/>
 <style type="text/css">.st0{fill:#FC0C18;}
	.st1{fill:#FC0C18;}</style>
 <style type="text/css">.st0{fill:#FC0C18;}
	.st1{fill:#FC0C18;}</style>
</svg>
