<?xml version="1.0" encoding="UTF-8"?>
<svg width="480" height="320" version="1.1" viewBox="0 0 480 320" xmlns="http://www.w3.org/2000/svg">
 <defs>
  <linearGradient id="a" x1="81.598" x2="81.598" y2="84.667" gradientTransform="matrix(3.7795 0 0 3.7795 -.056445 0)" gradientUnits="userSpaceOnUse">
   <stop stop-color="#fff" offset="0"/>
   <stop stop-color="#e6e6e6" offset="1"/>
  </linearGradient>
 </defs>
 <rect x="-.056445" width="480" height="320" ry="16" fill="url(#a)" stroke-linecap="square" stroke-linejoin="round" stroke-width="2" style="paint-order:stroke fill markers"/>
 <g transform="matrix(0 8.0001 -8.0001 0 336.16 63.998)" fill="#1a1a1a">
  <path d="m17 1.01-10-0.01c-1.1 0-2 0.9-2 2v18c0 1.1 0.9 2 2 2h10c1.1 0 2-0.9 2-2v-18c0-1.1-0.9-1.99-2-1.99zm0 19.99h-10v-1h10zm0-3h-10v-12h10zm0-14h-10v-1h10zm-7.5 4.5h2.5v-1.5h-4v4h1.5zm2.5 8.5h4v-4h-1.5v2.5h-2.5z" fill="#1a1a1a"/>
 </g>
 <style type="text/css">.st0{fill:#FC0C18;}
	.st1{fill:#FC0C18;}</style>
</svg>
