<?xml version="1.0" encoding="UTF-8"?>
<svg width="480" height="320" version="1.1" viewBox="0 0 480 320" xmlns="http://www.w3.org/2000/svg">
 <defs>
  <linearGradient id="a" x1="81.598" x2="81.598" y2="84.667" gradientTransform="matrix(3.7795 0 0 3.7795 -.056445 0)" gradientUnits="userSpaceOnUse">
   <stop stop-color="#fff" offset="0"/>
   <stop stop-color="#e6e6e6" offset="1"/>
  </linearGradient>
 </defs>
 <rect x="-.056445" width="480" height="320" ry="16" fill="url(#a)" stroke-linecap="square" stroke-linejoin="round" stroke-width="2" style="paint-order:stroke fill markers"/>
 <path d="m259.66 214.3c-1.4171-0.79767-1.9564-1.8115-1.9564-3.6775 0-2.1565 1.6018-3.6704 3.5491-3.3544 1.6973 0.27553 2.3345 0.7491 3.8922 2.8932l1.1591 1.5955 1.3954-1.4796c1.7383-1.8431 5.4936-8.2537 5.805-9.9095 0.22862-1.2156-0.48869-3.1167-9.0418-23.963-1.0632-2.5914-2.2188-5.2014-2.5679-5.7997-0.67124-1.1505-3.2361-2.8041-4.3495-2.8041-0.47664 0-0.66119-0.38241-0.66119-1.3698 0-2.7273-2.332-8.177-4.6088-10.77-3.9738-4.526-11.967-4.5842-14.929-0.10923-1.8995 2.8704-1.6514 7.1754 0.56545 9.8101 1.5778 1.8751 3.332 2.8529 9.9092 5.5234 11.414 4.6344 14.119 7.5654 14.061 15.235-0.0287 3.7743-1.4094 7.0227-4.1065 9.6612-5.4308 5.3136-13.969 6.2884-22.404 2.5577-1.2935-0.57203-2.4163-1.0401-2.4952-1.0401-0.0788 0-0.42936 0.55309-0.77896 1.2291-0.48869 0.94503-0.91544 1.2291-1.8464 1.2291-1.5653 0-1.5846-0.10431-1.7261-9.321l-0.11479-7.4774 1.2667 2.3e-4c1.1363 1.5e-4 1.3196 0.17953 1.7811 1.7414 0.84027 2.8438 3.3154 7.2102 5.1674 9.1158 2.9377 3.0227 4.6382 3.6875 9.4318 3.6875 3.8396 0 4.2482-0.0805 5.8704-1.1538 2.259-1.495 3.297-3.7369 3.309-7.1471 0.0189-5.416-2.3488-8.0247-9.959-10.972-10.041-3.8887-13.508-6.4747-14.844-11.071-1.0274-3.5339-0.66372-7.6516 0.92538-10.479 4.0936-7.2835 14.564-9.4975 22.645-4.7886l1.421 0.82805 0.84779-1.0632c0.59633-0.74789 1.2381-1.0632 2.1639-1.0632h1.3162v14.749h12.701v1.1768c0 1.0494-0.17148 1.2042-1.5856 1.4303-2.957 0.47281-2.9696 0.38883 1.8471 12.288 2.4199 5.978 4.5275 10.79 4.6836 10.694 0.3501-0.21619 6.1028-14.113 7.4124-17.906 1.1336-3.2833 0.91956-3.8793-1.748-4.8669-1.4244-0.5272-1.828-0.89124-1.9305-1.7412l-0.12964-1.0747h6.1727c3.6208 0 6.1727 0.16063 6.1727 0.38879 0 0.21393 0.65903 0.11339 1.4645-0.22299 3.2116-1.3419 6.4494-1.2182 12.307 0.47029 0.64996 0.18746 0.92092 0.0378 1.0884-0.60295 0.27375-1.047 2.7578-1.2612 2.7578-0.23773 0 0.4718 0.5235 0.61455 2.2534 0.61455h2.2534v-10.652h6.1455v10.652h9.8328v2.8679h-9.8328l0.0231 11.574c0.0249 12.563 0.19703 13.772 2.164 15.223 0.99942 0.73727 1.6792 0.84721 4.8386 0.78266l3.6758-0.0752-0.12699 1.0835c-0.18406 1.5704-4.2214 2.9332-8.7307 2.9473-3.8997 0.0113-5.718-0.73508-6.9509-2.8564-0.77941-1.3411-0.84661-2.3092-1.0382-14.954l-0.20485-13.52h-4.097l0.2982 6.4138-1.1394-0.13417c-0.86007-0.10129-1.2481-0.45388-1.583-1.4387-1.796-5.2804-7.214-7.9869-11.868-5.9285-2.2454 0.99325-3.3527 2.9778-2.9716 5.3261 0.42096 2.594 2.3804 4.0078 8.2503 5.952 4.6711 1.5474 7.9623 3.4846 9.4163 5.543 1.0344 1.464 1.246 2.1964 1.3755 4.7618 0.12589 2.4922-6e-3 3.362-0.74635 4.8896-1.2835 2.6514-3.7452 4.5951-7.1161 5.619-4.4451 1.3502-7.906 0.82877-13.477-2.0303-0.16762-0.0862-0.48571 0.31937-0.70685 0.90115-0.30992 0.81521-0.68602 1.0576-1.6413 1.0576h-1.2393v-5.9406c0-5.9089 5e-3 -5.9406 0.93309-5.9406 0.75629 0 1.1529 0.50457 2.0931 2.6627 1.4497 3.3276 4.6016 6.3806 7.3943 7.1626 2.2259 0.62321 5.6239 0.32693 7.0632-0.61613 2.3351-1.53 3.1703-4.5732 2.0144-7.3394-0.7276-1.7414-2.7999-2.9564-8.4363-4.9466-4.769-1.6839-6.2317-2.4587-7.8652-4.1665-2.2677-2.3712-2.9931-6.2936-1.7884-9.6706 0.49384-1.3842 0.4859-1.4947-0.074-1.0301-0.73138 0.60699-0.54097 0.17764-7.9608 17.944-7.6853 18.402-10.095 22.92-13.686 25.659-1.25 0.95338-1.9916 1.1772-4.2244 1.2752-1.8634 0.0816-3.0565-0.0771-3.8245-0.50963zm-153.55-14.106c-3.7268-1.1337-5.6806-3.505-6.0257-7.3145-0.26418-2.9133 0.33472-4.9659 2.0035-6.8666 1.7361-1.9772 3.2094-2.7745 8.5315-4.6163 2.5914-0.89688 5.7967-2.0408 7.1225-2.5421l2.4111-0.91143-0.229-3.028c-0.40256-5.3223-2.5454-7.9336-6.5106-7.9336-1.9968 0-4.5188 0.78327-4.9931 1.5507-0.13772 0.22299-0.0436 1.4351 0.20916 2.6938 0.39553 1.9695 0.36336 2.4356-0.2307 3.3422-1.4644 2.2349-5.0646 2.3512-6.1773 0.19955-1.8957-3.6659 1.1496-7.6248 7.3024-9.4938 2.3033-0.69963 3.481-0.81967 6.1754-0.62952 5.1088 0.36057 7.6388 1.69 9.3653 4.9213 0.8742 1.636 0.92749 2.2832 1.1229 13.64 0.15946 9.2666 0.33041 12.073 0.76744 12.598 1.2291 1.4782 1.4892 0.77763 1.3568-3.6546l-0.12938-4.3325 1.122 0.13228c0.89945 0.10621 1.2303 0.45733 1.6679 1.771 0.79934 2.3995 3.3402 5.5313 5.6398 6.952 1.7463 1.0786 2.3922 1.2414 4.9088 1.2367 4.6435-8e-3 6.7903-1.8554 6.7903-5.8409 0-3.4101-1.8337-4.9066-8.8479-7.2196-4.151-1.369-7.4381-3.3158-8.654-5.125-3.7646-5.6016-0.97969-12.557 5.8507-14.613 3.1504-0.94809 5.6976-0.7347 10.894 0.91256 0.44236 0.14022 0.77186-0.0828 0.94942-0.64214 0.3309-1.0425 2.675-1.2548 2.675-0.24227 0 0.4718 0.5235 0.61459 2.2534 0.61459h2.2534v-10.652h6.1455v10.652h9.8328v2.8419l-9.628 0.23055v11.881c0 10.707 0.0735 12.016 0.74419 13.245 1.0954 2.0073 3.0504 2.6873 6.7601 2.3512l3.0016-0.27212-0.13152 1.1464c-0.19291 1.681-3.7954 2.9326-8.5368 2.9657-4.1994 0.0302-5.8919-0.70189-7.1426-3.0859-0.78932-1.5045-0.84722-2.4122-0.95842-15.019l-0.11833-13.418h-4.0653v3.2776c0 3.1727-0.031 3.2776-0.96858 3.2776-0.77378 0-1.1135-0.37946-1.6892-1.8867-1.4467-3.7882-4.7365-6.28-8.315-6.2982-3.8468-0.0189-6.2347 2.0354-6.2347 5.3658 0 3.1008 1.157 4.0841 7.6263 6.4826 2.9551 1.0955 6.1206 2.4639 7.0348 3.0408 6.8538 4.3268 5.6621 13.982-2.1651 17.537-1.636 0.7432-2.791 0.93263-5.7358 0.94076-3.2869 8e-3 -3.9798-0.12813-6.3798-1.2636-2.6798-1.2678-2.6941-1.2697-3.0728-0.40872-0.43779 0.99545-1.805 1.365-5.297 1.4317-3.1279 0.0597-4.9361-0.94907-5.8439-3.2606l-0.64222-1.635-1.2636 1.1787c-3.6192 3.3758-8.7757 4.9368-12.533 3.7939zm9.6283-4.1227c0.92977-0.4501 2.2229-1.374 2.8735-2.0532 1.177-1.2285 1.1839-1.2661 1.3573-7.3719l0.17435-6.1372-1.3821 0.44594c-9.0459 2.9189-11.966 5.3968-11.966 10.155 0 1.2656 0.22685 2.725 0.50412 3.2431 1.3054 2.4392 5.2789 3.2483 8.4389 1.7186zm65.405 4.0902c-4.2418-0.89491-7.8172-3.5476-9.803-7.2733-4.0433-7.5859-3.1148-17.679 2.1531-23.404 4.0241-4.3729 9.2606-5.865 15.192-4.3287 5.9501 1.5414 8.7519 5.4312 9.4484 13.116l0.27625 3.0485h-23.056l3e-3 0.92182c8e-3 2.4476 0.96019 6.4977 2.0595 8.762 2.3637 4.8688 7.3398 6.9634 12.892 5.4266 1.6038-0.44398 4.6122-3.0743 5.9645-5.2146 0.60624-0.95966 0.60908-0.95996 1.5922-0.16366l0.98495 0.79756-0.86589 1.3929c-1.4281 2.2973-4.252 4.7671-6.7578 5.9108-2.6458 1.2074-7.0484 1.6472-10.082 1.0072zm10.248-21.494c0.49991-0.49991-0.54656-6.6107-1.3954-8.1482-2.9412-5.3272-9.964-4.5823-12.999 1.3793-0.86929 1.7079-1.8064 5.961-1.4429 6.5491 0.25527 0.41302 15.433 0.62347 15.837 0.21959zm148.67 21.28c-7.426-2.0831-11.481-8.2322-11.481-17.408 0-7.7038 3.3461-13.72 9.2406-16.614 2.1754-1.0681 2.852-1.1956 6.3281-1.1918 3.3178 3e-3 4.2251 0.15988 6.1482 1.0583 4.6847 2.1889 6.9347 5.8666 7.2786 11.896l0.2072 3.6339h-22.768l0.25656 3.0349c0.65344 7.7306 4.8106 12.519 10.878 12.53 4.1477 8e-3 6.8126-1.4866 9.6756-5.4251 0.81275-1.1181 0.82738-1.121 1.7998-0.36359l0.98037 0.76346-1.2636 1.8366c-2.91 4.2293-6.8447 6.4528-11.884 6.7151-2.0578 0.10734-3.9318-0.0544-5.3964-0.46526zm11.052-22.841c0-2.335-1.0496-6.2627-2.0483-7.6652-1.7145-2.4077-5.6304-3.1561-8.5965-1.6428-2.7932 1.425-4.6919 4.645-5.178 8.7821l-0.26838 2.2836h16.091zm-310.96 21.462c0-1.1134 0.12907-1.2084 1.9901-1.4643 2.6407-0.36321 4.4625-1.5311 5.2993-3.397 0.60457-1.3482 0.6858-3.546 0.69233-18.735 0.0072-16.627-0.02116-17.256-0.83418-18.64-1.0683-1.8186-2.9534-3.0932-5.0767-3.4327-1.4256-0.2279-1.6613-0.41023-1.6613-1.285v-1.0194l16.593 6e-3 6.9245 18.229c3.8083 10.026 7.0409 18.229 7.1834 18.229 0.35089 0 12.305-30.709 13.157-33.8l0.6779-2.4582 15.69-0.22299v0.9798c0 0.86993-0.27382 1.0337-2.4422 1.4602-4.3756 0.86086-4.1129-0.54515-4.1129 22.029v19.424l0.97194 0.97194c0.97894 0.97897 3.3644 1.8522 5.071 1.8565 0.75061 2e-3 0.92182 0.23055 0.92182 1.2314v1.2291h-21.714v-1.1707c0-1.1295 0.08674-1.1798 2.464-1.4283 2.9162-0.30463 4.2788-1.0909 4.8801-2.8153 0.62891-1.8041 0.61285-37.73-0.01663-37.52-0.25141 0.0839-4.2338 9.5939-8.8501 21.134-6.7098 16.774-8.5402 20.981-9.1272 20.981-0.4038 0-0.86222-0.32277-1.0187-0.71697-0.15651-0.39432-3.6626-9.7508-7.7911-20.792-4.1288-11.041-7.6354-20.398-7.7923-20.792-0.92315-2.3177-1.0707 0.33487-0.94552 17.003 0.12971 17.275 0.15579 17.769 1.0389 19.681 0.96688 2.0942 2.681 3.1839 5.9565 3.7871 1.3555 0.24944 1.5364 0.42213 1.5364 1.4663v1.1835h-19.666zm155.69 0.21014c0-1.0418 0.67472-1.4778 2.2869-1.4778 0.5449 0 1.3595-0.36888 1.8102-0.8194 0.78342-0.78341 0.8194-1.3657 0.8194-13.26 0-11.973-0.0321-12.481-0.85069-13.522-0.51326-0.65249-1.5696-1.2625-2.6631-1.5378-1.4801-0.37266-1.8124-0.62762-1.8124-1.3907 0-0.90931 0.13988-0.94177 5.2237-1.2114 2.873-0.15232 5.5003-0.30917 5.8382-0.34848 0.47811-0.0555 0.64184 0.50525 0.7375 2.5261l0.12295 2.5975 2.0414-1.9095c5.0362-4.7108 10.719-4.8408 12.194-0.27855 0.46156 1.4279 0.46156 1.987 0 3.4429-0.72295 2.2806-2.2142 3.0751-4.4912 2.3929-1.874-0.56145-2.51-1.5698-2.3539-3.7317 0.0633-0.87643-9e-3 -1.7182-0.16195-1.8705-0.48722-0.48722-4.71 1.8627-6.0121 3.3456l-1.2571 1.4318v11.048c0 10.396 0.047 11.095 0.79654 11.844 0.43812 0.43812 1.4982 0.90965 2.3558 1.0479 3.282 0.52894 3.4029 0.58745 3.4029 1.6459v1.0164h-18.027zm159.78 0c0-1.0277 0.67476-1.4778 2.2154-1.4778 0.50562 0 1.3202-0.4267 1.8101-0.94824 0.87322-0.92949 0.89083-1.1879 0.89083-13.079v-12.131l-1.0542-1.2528c-0.6023-0.71577-1.7438-1.4385-2.663-1.686-1.2958-0.34885-1.6089-0.62158-1.6089-1.4013 0-0.94741 0.10265-0.97379 4.814-1.2373 2.6477-0.14815 5.1829-0.30463 5.6334-0.34771 0.73618-0.0703 0.83172 0.20409 0.94091 2.7028l0.12155 2.7812 2.3002-2.0502c3.9156-3.4898 7.8357-4.7165 11.933-3.7335 2.2668 0.5438 5.0389 2.6474 6.0401 4.5838l0.62438 1.2074 2.1303-1.9257c6.6187-5.983 15.041-5.4856 18.074 1.0674 0.78955 1.7055 0.86166 2.6876 0.96239 13.11 0.0601 6.1969 0.20296 11.687 0.31785 12.2 0.21052 0.93981 1.7942 1.8662 3.9776 2.3268 0.86245 0.18179 1.1267 0.47603 1.1267 1.2542v1.0164h-16.798v-1.0194c0-0.87874 0.23471-1.0569 1.7011-1.2914 3.5232-0.56338 3.7856-1.6437 3.5428-14.577-0.18936-10.086-0.41715-11.169-2.7615-13.142-1.063-0.89446-1.7283-1.1076-3.4577-1.1076-2.643 0-5.98 1.5535-7.4351 3.461l-1.0128 1.3278v10.83c0 12.272-8e-3 12.242 3.0596 13.014 1.5792 0.39761 1.8568 0.61977 1.8568 1.4859v1.0184h-16.388v-0.9804c0-1.0418 0.67472-1.4778 2.2869-1.4778 0.54489 0 1.3595-0.36888 1.8101-0.8194 0.77907-0.77904 0.81895-1.3592 0.8104-11.779-8e-3 -12.075-0.21959-13.273-2.6578-15.191-2.585-2.0334-8.1517-0.61341-10.825 2.7612l-1.297 1.6376 0.12185 10.708c0.12155 10.67 0.12529 10.71 1.0825 11.485 0.52834 0.4275 1.6806 0.97118 2.5606 1.2081 1.3102 0.35263 1.6 0.61353 1.6 1.4393v1.0084h-16.388zm64.426-25.523c0.61531-0.16101 0.71698-0.70605 0.71698-3.8445 0-3.6246-8e-3 -3.6572-1.0208-3.6572-0.57706 0-1.2432 0.35603-1.5325 0.81936-0.6934 1.1103-1.134 1.0307-1.134-0.20485v-1.0243h9.0134v1.0243c0 1.2355-0.44066 1.3151-1.134 0.20485-0.28913-0.46322-0.95543-0.81936-1.5325-0.81936-1.0082 0-1.0208 0.0431-1.0208 3.4956 0 3.2422 0.0669 3.5225 0.92187 3.8661 0.6963 0.27969 0.3205 0.3651-1.5364 0.34885-1.352-0.0113-2.1356-0.10582-1.7413-0.20901zm8.3989-0.14022c0.84914-0.34129 0.92182-0.63106 0.92182-3.6745 0-3.0434-0.0726-3.3332-0.92182-3.6746-0.74646-0.3001-0.54675-0.37531 1.0498-0.39647l1.9716-0.0265 1.3778 2.9703 1.3779 2.9703 2.7242-5.9078 1.8436 8e-3c1.5108 8e-3 1.6772 0.0763 0.92183 0.38007-0.83857 0.33713-0.92126 0.64002-0.91556 3.354 8e-3 3.102 0.192 3.7264 1.2228 4.1189 0.33789 0.1285-0.49164 0.23659-1.8436 0.24037-1.8675 4e-3 -2.2367-0.0828-1.5364-0.36396 0.84703-0.34054 0.92077-0.62933 0.90879-3.5589-0.0151-3.6882-0.28309-3.5831-2.2835 0.89495-0.65223 1.4601-1.3163 2.6596-1.4756 2.6657-0.1595 8e-3 -1.0191-1.51-1.9106-3.369l-1.6208-3.38-0.034 3.1884c-0.034 2.94 0.0378 3.2172 0.8863 3.5589 0.71581 0.28762 0.41824 0.37039-1.3316 0.37039-1.7498 0-2.0474-0.0828-1.3315-0.37039zm-253.2-27.268c-0.16804-0.16819-0.3055-1.2888-0.3055-2.4906v-2.185l8.7061-8e-3c9.7141-8e-3 10.982-0.28271 13.116-2.8192 2.2551-2.6801 2.3089-5.9837 0.14355-8.8225-1.5534-2.0366-3.318-2.6885-7.279-2.6893-2.4467-4.5e-4 -3.8203-0.20447-4.8253-0.71697-3.9144-1.9959-4.2898-7.0775-0.71694-9.7005 1.0865-0.79759 1.6977-0.8485 10.185-0.8485h9.0297l0.057 2.3481 0.057 2.348-8.3989 0.10998c-7.1437 0.0937-8.3989 0.20183-8.3989 0.72472 0 0.49028 0.82847 0.66009 4.097 0.83981 3.5027 0.19275 4.4156 0.3987 6.2925 1.4209 4.1877 2.2806 6.2067 5.8046 6.1992 10.82-7e-3 4.7626-2.4802 8.547-6.9585 10.648-2.182 1.0236-2.5575 1.0627-11.476 1.1931-5.071 0.0741-9.3574-3e-3 -9.5255-0.17084zm39.08-0.24453c-2.3666-0.40736-3.8411-1.2903-5.7207-3.4256-2.3812-2.7052-2.6227-4.2724-2.4596-15.959 0.12768-9.1491 0.19869-9.9469 1.0215-11.472 1.1577-2.1454 2.7832-3.6495 5.0562-4.6783 1.6882-0.76418 2.6728-0.83539 11.676-0.84431l9.8328-8e-3 -0.27765 4.9179h-9.5365c-13.417 0-12.924-0.51039-12.924 13.404 0 13.943-0.30206 13.636 13.411 13.636h9.1223v4.4757l-8.7863 0.11792c-4.8325 0.065-9.5195-8e-3 -10.416-0.16252zm40.475 0.0756-12.119-0.20485-2.0042-1.2399c-1.2399-0.76705-2.4771-2.0043-3.2442-3.2442l-1.24-2.0042-0.12779-10.606c-0.14808-12.291 0.0519-13.408 2.9001-16.2 2.7837-2.7292 3.9451-2.9635 14.691-2.9635h9.3717v4.9164h-18.943l-3.1812 3.1812 2e-3 9.9836c1e-3 9.0451 0.0739 10.102 0.77102 11.245 1.3629 2.2351 2.8718 2.6303 10.044 2.6303h6.3908v-14.339h-9.4231v-4.9164h14.326l0.21891 20.69 5.0774-14.954c2.7926-8.2246 5.4353-15.465 5.8726-16.09 2.6892-3.8415 10.243-3.8415 12.921 0 0.55479 0.79581 11.978 33.461 11.978 34.251 0 0.0386-4.6091 0.0699-10.243 0.0699h-10.243v-4.7115h6.7601c5.3201 0 6.7601-0.1149 6.7601-0.53986 0-0.29707-0.618-2.2788-1.3733-4.4043s-2.7142-7.8973-4.3529-12.827c-1.6388-4.9292-3.3254-9.3078-3.748-9.7304-0.97281-0.97281-3.0043-0.99046-3.9606-0.034-0.40366 0.40361-3.1011 7.7321-5.9943 16.286-2.8933 8.5534-5.3745 15.644-5.514 15.756-0.13946 0.11263-5.7075 0.11263-12.373 0zm14.2-0.4097c0.13576-0.33789 2.5377-7.3349 5.3378-15.549 4.4988-13.198 5.4618-15.576 6.3061-15.576 0.8259 0 1.6768 2.0257 5.3114 12.646 2.2614 6.6073 4.1118 12.178 4.1118 12.378s-2.5811 0.3651-5.7358 0.3651h-5.7358v-2.1168c0-1.1642-0.1383-1.981-0.30728-1.8151-0.16902 0.16592-1.0508 2.5192-1.9596 5.2293l-1.6523 4.9277-2.9616 0.0624c-2.4845 0.0525-2.9218-0.0378-2.7148-0.55196zm13.579-11.24c0.17443-0.13909-1.6937-5.5578-1.916-5.5578-0.1231 0-0.58054 1.1164-1.0165 2.4809-0.43597 1.3645-0.94296 2.5737-1.1266 2.6872-0.89816 0.55509-0.12037 0.83754 1.817 0.65979 1.183-0.10847 2.192-0.23018 2.2421-0.26986zm-107.64 3.0459v-2.4582h8.6037c7.3255 0 8.6037-0.0899 8.6037-0.60672 0-0.75364-0.91582-0.9507-5.3261-1.146-4.0033-0.17725-5.8855-0.95867-8.2764-3.4362-4.7399-4.9115-4.4024-12.77 0.74249-17.299 3.0197-2.6581 4.3226-2.9132 14.879-2.9135l9.2478-2.6e-4 -0.11059 4.7119-9.3679 0.20485c-10.023 0.21921-10.343 0.28422-12.181 2.4676-2.4306 2.8886-2.2232 6.7275 0.51137 9.462 1.7664 1.7664 3.5322 2.3062 7.8327 2.3942 3.5832 0.0733 5.0574 0.75632 6.2256 2.8837 1.4038 2.5569 0.42822 5.7577-2.2532 7.3927-1.1916 0.72653-2.1104 0.79846-10.22 0.79986l-8.911 2e-3zm38.891 1.2606c-1.1727-1.1727-1.1976-1.2877-1.1976-5.5309v-4.3332h17.207v4.5067h-6.1758c-5.661 0-6.164 0.0597-6.0378 0.71697 0.12461 0.64853 0.89027 0.72759 8.0194 0.82824l7.8814 0.11112v4.8986h-18.5zm30.554 0.72445c-1.794-0.98123-1.8436-1.2939-1.8436-11.62v-9.888l1.0564-0.99326c1.044-0.98161 1.1638-0.99469 10.243-1.1174l9.1862-0.12435v4.9599h-7.4974c-5.2853 0-7.6426 0.14513-7.9892 0.49168-0.33898 0.33902-0.49164 2.4127-0.49164 6.678 0 4.2656 0.15266 6.339 0.49164 6.678 0.27039 0.27061 1.2844 0.49164 2.2534 0.49164 1.4886 0 1.7617-0.12699 1.7617-0.81936 0-0.66335-0.27315-0.81944-1.434-0.81944h-1.434v-4.5067h7.7843v11.062l-5.6334-0.0113c-3.2808-8e-3 -5.9754-0.19956-6.4528-0.46065zm-31.752-16.711c0-4.148 0.074-4.5698 0.98808-5.6334l0.98808-1.1495 18.844-0.24718 0.27976 4.9436-7.9839 0.10998c-7.2272 0.0994-7.9971 0.17802-8.1218 0.82692-0.12631 0.65726 0.37694 0.71701 6.0378 0.71701h6.1758v4.9164h-17.207zm82.144-9.4235c-2.5452-1.0418-3.3019-4.4863-1.4026-6.3855 0.57033-0.57029 1.7135-1.1467 2.5404-1.2809 1.3298-0.21581 1.6704-0.0771 2.9483 1.2008 1.9446 1.9446 1.9598 3.5519 0.0519 5.4599-1.3982 1.3982-2.5155 1.6698-4.1378 1.0056zm2.8105-0.58654c1.8053-0.75428 2.6166-2.6248 1.8946-4.368-1.4327-3.4588-6.5488-2.4864-6.5488 1.2448 0 1.7281 1.194 3.0969 3.1883 3.6549 0.0636 0.0189 0.72318-0.22148 1.4658-0.53182zm-3.0154-3.0793c0-2.1821 0.51417-2.6971 2.2563-2.2598 1.2548 0.31483 1.6182 1.3302 0.79967 2.2346-0.43083 0.47607-0.50347 0.81074-0.21472 0.98921 0.24 0.14816 0.42671 0.48926 0.41492 0.75764-0.0117 0.26835-0.31087 0.073-0.66452-0.43388-0.79695-1.1425-1.7722-1.1989-1.7722-0.10243 0 0.45067-0.18436 0.8194-0.4097 0.8194s-0.4097-0.9021-0.4097-2.0046zm2.7913-0.96567c0.10148-0.5325-0.13462-0.71697-0.91763-0.71697-0.79298 0-1.0543 0.21014-1.0543 0.84789 0 0.64399 0.22069 0.81641 0.91763 0.71698 0.50472-0.0722 0.97913-0.45358 1.0543-0.8479z" fill="#1a1a1a" stroke-width=".4097"/>
 <style type="text/css">.st0{fill:#FC0C18;}
	.st1{fill:#FC0C18;}</style>
</svg>
