<?xml version="1.0" encoding="UTF-8"?>
<svg width="480" height="320" version="1.1" viewBox="0 0 480 320" xmlns="http://www.w3.org/2000/svg">
 <defs>
  <linearGradient id="a" x1="81.598" x2="81.598" y2="84.667" gradientTransform="matrix(3.7795 0 0 3.7795 -.056445 0)" gradientUnits="userSpaceOnUse">
   <stop stop-color="#fff" offset="0"/>
   <stop stop-color="#e6e6e6" offset="1"/>
  </linearGradient>
 </defs>
 <rect x="-.056445" width="480" height="320" ry="16" fill="url(#a)" stroke-linecap="square" stroke-linejoin="round" stroke-width="2" style="paint-order:stroke fill markers"/>
 <path d="m143.99 268.33c-1.0289-2.6813 2.2863-31.721 6.2684-54.909 1.6006-9.3203 1.6125-11.254 0.0961-15.704-1.9439-5.7052-0.98188-14.577 1.7697-16.321 4.4398-2.8129 7.793-0.25705 11.929 9.092 2.2995 5.1983 2.5116 7.1663 1.825 16.934-0.42727 6.0786-1.6021 16.571-2.6106 23.316-2.1613 14.455-1.842 16.037 3.0395 15.061 4.8299-0.96597 18.112-7.6524 27.913-14.051 9.3672-6.116 11.02-9.6944 10.228-22.141-0.4094-6.4297-1.142-8.2439-6.1792-15.303-3.5004-4.9054-7.429-8.8788-10.139-10.255-4.6749-2.3735-18.031-5.4776-28.89-6.7143-3.573-0.4069-7.4755-1.2639-8.6725-1.9045-2.7983-1.4976-5.7948-7.2979-5.7948-11.216 0-2.6821 0.50237-3.0543 4.1223-3.0543 7.0008 0 46.458 8.3168 52.615 11.091 11.983 5.3964 17.438 15.99 18.657 36.227 0.88694 14.734 0.0453 23.194-2.7289 27.428-3.1271 4.7724-13.255 10.766-25.401 15.031-5.9006 2.0719-17.784 7.2476-26.408 11.501-16.08 7.9313-20.405 9.1094-21.639 5.8938zm136.82-12.029c-1.0397-1.0397-2.4448-2.9264-3.1225-4.1926-1.5702-2.9339-4.9387-2.9093-12.841 0.094-3.4661 1.3174-8.5871 2.3834-11.381 2.369-10.822-0.056-21.117-7.8244-24.261-18.307-2.4272-8.0923-4.5449-41.473-2.7671-43.616 1.8722-2.2559 5.4357-1.8834 8.1736 0.85436 2.0966 2.0966 2.3976 4.0044 2.4101 15.274 0.0212 19.327 3.16 29.194 10.226 32.146 8.6642 3.6201 18.121 0.87129 21.5-6.2494 1.0873-2.2913 2.523-9.1226 3.1904-15.181 2.0264-18.393 2.078-18.6 4.868-19.485 1.8854-0.59842 3.1827-0.0735 4.8219 1.9506 1.8899 2.3339 2.1159 3.9511 1.4373 10.287-0.67026 6.2585-0.14321 10.214 3.1459 23.608 3.7965 15.46 3.871 16.212 1.9038 19.214-2.3405 3.5721-4.5876 3.9519-7.3051 1.2342zm33.725-2.9611c-6.9623-1.7162-11.007-4.2096-15.673-9.6608-6.1175-7.1471-8.5323-15.069-8.5398-28.014-5e-3 -9.3123 0.45154-11.761 3.353-17.969 7.6694-16.41 18.002-21.522 33.936-16.79 7.3595 2.1855 15.578 8.8815 14.464 11.785-1.0147 2.6443-4.2115 2.5386-11.628-0.38491-11.462-4.5176-16.697-2.7682-24.156 8.0734-3.1496 4.5778-3.8695 6.9142-4.3094 13.985-0.48707 7.8274-0.21532 9.0856 3.4868 16.148 6.5042 12.409 12.441 14.253 30.877 9.5905 9.0656-2.2924 10.116-2.3478 11.84-0.62366 1.7242 1.7241 1.6381 2.1624-0.96907 4.9376-6.6731 7.1028-22.517 11.429-32.681 8.9234zm42.822-1.2072c-0.43068-0.69679-1.2882-7.8395-1.9058-15.872-1.5644-20.35-3.1253-36.502-4.0785-42.202-1.3181-7.8814 4.371-17.869 8.6283-15.147 0.70107 0.44818 1.5695 6.4751 1.9298 13.393 0.71887 13.801 2.4555 21.331 5.159 22.368 0.96503 0.37031 6.9763-1.0581 13.358-3.1742 10.294-3.4135 12.117-3.6935 16.16-2.4824 6.4244 1.9248 12.665 7.7567 13.593 12.703 0.62139 3.3122 0.17991 4.7701-2.3587 7.7869-1.7178 2.0415-3.1164 4.0747-3.1081 4.5184 8e-3 0.44356 3.0028 3.427 6.6546 6.6296 7.9778 6.997 8.5395 10.726 1.703 11.303-3.0966 0.26121-7.3614-1.2004-16.172-5.5423-6.5817-3.2434-15.406-7.1395-19.61-8.6581-7.4313-2.6845-7.6891-2.6989-9.284-0.51776-0.90225 1.2339-1.6404 3.9919-1.6404 6.1292 0 6.3586-1.937 10.032-5.2902 10.032-1.6246 0-3.3061-0.5701-3.7368-1.2669zm37.943-26.285c2.7753-2.3504 2.7846-2.4286 0.50271-4.1926-4.8835-3.7754-18.398-0.89593-16.69 3.556 0.62956 1.6406 3.6286 2.4794 10.198 2.8523 1.7389 0.0987 4.4341-0.89828 5.9898-2.2156zm-175.06-57.192c-4.9338-0.59508-7.1924-2.1974-7.1924-5.1023 0-3.6301 6.1591-5.1893 16.823-4.2591 15.945 1.3909 25.11-3.1403 27.028-13.362 0.98457-5.2482-0.3027-6.1398-7.8202-5.4176-9.7826 0.93997-21.85-1.7392-27.017-5.9981-11.405-9.4008-10.316-26.287 2.5027-38.819 10.021-9.7976 28.003-16.951 29.938-11.909 1.0296 2.6832-1.9787 5.8159-12.275 12.783-9.3645 6.3364-13.606 11.882-13.606 17.79 0 10.39 7.8044 14.814 20.28 11.496 10.13-2.694 10.684-3.6933 11.324-20.401 0.56293-14.703 3.1143-24.638 7.6146-29.649 1.8952-2.1102 6.8946-2.8682 7.9011-1.1979 0.29775 0.49413 0.0878 10.063-0.46658 21.263-0.55438 11.201-1.3081 28.406-1.6749 38.234-0.52902 14.173-1.1127 18.632-2.8218 21.559-6.2513 10.704-26.452 15.897-50.536 12.992zm-22.766-18.318c-6.4774-1.5402-23.592-8.0504-26.953-10.252-3.9096-2.5617-6.1871-10.865-7.0337-25.646-0.84809-14.804 0.42376-21.437 4.7093-24.557 1.8094-1.3177 6.023-4.4175 9.3634-6.8882 5.4576-4.0369 6.8145-4.4923 13.384-4.4923 6.0552 0 7.7322 0.4628 9.7656 2.6953 5.7434 6.3057 6.4928 11.601 2.794 19.749-2.3924 5.2705-2.6025 5.4077-19.506 12.76-6.4883 2.8223-6.8882 3.2375-6.8882 7.1573 0 6.5934 0.98657 7.8142 9.97 12.338 5.9407 2.9917 12.243 4.9345 21.112 6.5091 18.459 3.2769 18.034 3.1246 18.034 6.4539 0 1.6706-0.99587 3.4628-2.3171 4.1699-2.7071 1.4488-20.344 1.4504-26.433 2e-3zm-7.4332-52.127c3.694-4.2943 2.7958-5.9524-3.1577-5.8295-5.8224 0.12034-9.7742 3.1237-9.7742 7.4286 0 2.7988 0.28837 2.9282 5.0895 2.2843 3.4784-0.46654 5.9607-1.6957 7.8425-3.8834zm-40.547 49.1c-1.1616-1.3996-1.9591-8.101-2.6803-22.522-0.56466-11.291-1.6611-28.879-2.4366-39.084-1.2214-16.074-1.6909-18.608-3.5108-18.956-1.5288-0.29212-2.7781 1.1724-4.5872 5.3775-4.7471 11.033-19.882 51.333-21.479 57.192-1.8535 6.8005-10.053 16.272-14.086 16.272-3.2474 0-6.2608-4.3018-6.2706-8.9514-0.0042-1.9947-1.6809-9.826-3.7261-17.403s-4.396-16.508-5.2244-19.848c-1.9709-7.946-4.1004-11.897-5.6024-10.394-0.63874 0.63874-1.4506 12.691-1.8042 26.782-0.3685 14.688-1.1661 26.26-1.8692 27.119-1.8762 2.2908-5.2475 1.7931-8.8513-1.307-3.2273-2.776-3.2709-3.0155-4.3124-23.659-0.5788-11.47-0.74789-25.437-0.3758-31.037 2.0301-30.553 2.1721-31.047 9.8729-34.306 4.9039-2.0756 15.458-2.1629 16.21-0.13414 0.30535 0.82356 1.2297 5.2709 2.0542 9.883 2.9345 16.416 12.973 49.115 15.078 49.115 0.56292 0 1.9418-2.4258 3.0643-5.3907 1.1224-2.9649 3.1888-8.2775 4.5921-11.806s3.3489-10.207 4.3238-14.841c2.0259-9.6306 7.4695-20.627 12.684-25.623 3.3138-3.1748 4.3268-3.4384 14.259-3.7117 14.489-0.39851 14.762 0.0064 13.29 19.766-0.59222 7.9487-0.62525 16.789-0.0734 19.644 1.1938 6.1772 1.2282 51.806 0.0426 56.103-1.0112 3.6646-6.1176 4.6896-8.5799 1.7224zm180.71-3.8188c-1.6952-1.8119-3.9662-5.0464-5.0468-7.1875-1.0804-2.1413-2.371-3.8933-2.868-3.8933s-2.6177 1.8173-4.7127 4.0384c-6.7998 7.209-18.09 8.0126-25.93 1.8456-9.5471-7.5099-15.563-31.758-11.028-44.458 1.9773-5.5377 10.667-16.044 15.214-18.396 6.706-3.4679 13.37-3.5032 20.782-0.1101l6.7892 3.1082 1.6886-4.0411c1.9076-4.5657 4.8352-7.8826 6.9328-7.8553 4.4704 0.05809 4.6602 1.3418 4.9822 33.675 0.21483 21.592 0.8132 33.366 1.8901 37.191 1.2987 4.6133 1.3 5.9297 7e-3 7.4872-2.3091 2.7822-5.2233 2.3118-8.7005-1.4046zm-21.727-19.169c2.0846-3.1283 4.9058-7.94 6.2691-10.692 2.388-4.8208 8.5096-24.374 8.5073-27.174-9.8e-4 -1.353-19.533-2.0744-20.696-0.76444-0.29243 0.32942-2.4535 3.1481-4.8023 6.2638-7.0246 9.3176-7.4884 23.31-1.0993 33.163 4.2716 6.5877 7.0235 6.4025 11.82-0.79607z" fill="#1a1a1a" stroke-width="1.1979"/>
 <style type="text/css">.st0{fill:#FC0C18;}
	.st1{fill:#FC0C18;}</style>
</svg>
