<?xml version="1.0" encoding="UTF-8"?>
<svg width="480" height="320" version="1.1" viewBox="0 0 480 320" xmlns="http://www.w3.org/2000/svg">
 <defs>
  <linearGradient id="a" x1="81.598" x2="81.598" y2="84.667" gradientTransform="scale(3.7795)" gradientUnits="userSpaceOnUse">
   <stop stop-color="#fff" offset="0"/>
   <stop stop-color="#e6e6e6" offset="1"/>
  </linearGradient>
 </defs>
 <rect width="480" height="320" ry="16" fill="url(#a)" stroke-linecap="square" stroke-linejoin="round" stroke-width="2" style="paint-order:stroke fill markers"/>
 <path d="m192.49 240v20.289c-0.0287 2.2833-0.98346 3.4687-2.7754 3.4687-1.763 0-2.7453-1.1702-2.832-3.4101h-8.0351c-0.0287 6.8208 4.6539 9.6522 10.348 9.6522 6.5607 0 11.184-3.9304 11.213-9.7107v-20.289h-7.9179zm21.85 7.1112c-6.6329 0-9.8992 3.4673-10.174 7.5136h7.3417c0.18788-1.3728 1.1994-2.0234 2.7168-2.0234 1.3873 0 2.3691 0.63688 2.3691 1.793v0.0566c0 1.2861-1.4162 1.6903-5.1444 1.9648-4.5809 0.33237-8.1503 2.1828-8.1503 7.0526 0 4.4219 2.978 6.4745 7.2265 6.4745 2.8902 0 5.072-0.98316 6.4159-3.4687h0.17188v3.121h7.4569v-15.201c0-4.104-3.8865-7.2831-10.23-7.2831zm28.381 0c-3.2948 0-5.375 1.9058-6.2421 4.1601h-0.17383v-3.871h-7.9179v30.519h7.9765v-11.965h0.11523c0.92484 2.2544 3.0641 3.9296 6.1855 3.9296 4.7398 0 8.7284-3.6987 8.7284-11.387 0-8.0347-4.2788-11.387-8.6718-11.387zm22.023 0c-6.6329 0-9.8992 3.4673-10.174 7.5136h7.3417c0.18787-1.3728 1.1994-2.0234 2.7168-2.0234 1.3873 0 2.3691 0.63688 2.3691 1.793v0.0566c0 1.2861-1.4162 1.6903-5.1444 1.9648-4.581 0.33237-8.1503 2.1828-8.1503 7.0526 0 4.4219 2.978 6.4745 7.2265 6.4745 2.8902 0 5.072-0.98316 6.4159-3.4687h0.17381v3.121h7.4569v-15.201c0-4.104-3.8884-7.2831-10.232-7.2831zm28.672 0c-3.2659 0-5.8539 1.7043-6.8222 4.5077h-0.23045v-4.2187h-7.5722v22.195h7.9765v-12.484c0.0144-2.1966 1.2585-3.5273 3.2383-3.5273 2.0087 0 3.1922 1.3308 3.1777 3.5273v12.484h7.9765v-14.162c0.0144-4.8265-3.0331-8.3222-7.744-8.3222zm-53.7 6.1269c2.1966 0 3.4688 1.9649 3.4688 5.2597 0 3.2947-1.2722 5.2597-3.4688 5.2597s-3.5254-2.0227-3.5254-5.2597c0-3.2948 1.3288-5.2597 3.5254-5.2597zm-23.062 6.6464v1.8496c0 2.0231-1.721 3.1796-3.5274 3.1796-1.3584 0-2.3105-0.66541-2.3105-1.9082 0-1.1416 0.80846-2.0215 2.6582-2.3106 1.2717-0.20232 2.3415-0.46371 3.1797-0.81054zm50.403 0v1.8496c0 2.0231-1.719 3.1796-3.5254 3.1796-1.3584 0-2.3125-0.66541-2.3125-1.9082 0-1.1416 0.80847-2.0215 2.6582-2.3106 1.2717-0.20232 2.3415-0.46371 3.1797-0.81054z" fill="#1a1a1a" stroke-width="1.0173"/>
 <path d="m240 128.08s-8.2949 0.14294-10.512 0.35743c-4.2904 0.35754-8.5792 0.78722-12.727 1.7168-4.1472 0.85805-8.0815 2.0016-12.086 3.4315-2.9317 1.0726-5.8618 2.5026-8.6503 3.8612-1.2156 0.64352-2.3606 1.3591-3.5762 2.0742-1.2871 0.78654-2.5744 1.6443-3.8612 2.3594-1.6446 0.92955-3.2887 1.7166-5.0761 2.4316-2.7887 1.1441-5.7919 2.0736-8.6522 2.9316-2.9317 0.85804-5.2905 1.5721-8.9374 2.2871-3.6468 0.71504-8.5102 1.5014-12.801 2.002-3.7897 0.42905-7.5793 0.78818-11.369 1.0742-6.2924 0.42904-12.656 0.64217-19.02 0.78515-4.29 0.0715-8.4379-0.1414-12.729-0.2129-5.5773-0.14302-11.369-0.35785-16.875-0.21487-5.7916 0.14302-11.441 0.28569-17.232 1.0723-5.2198 0.71503-10.296 1.4292-15.373 2.8594-3.8612 1.0726-7.7947 2.4319-11.299 4.2909-4.5047 2.5742-9.2245 5.2906-9.2245 10.582 0 4.29 4.0766 8.8671 8.8671 11.441 4.1472 2.2166 7.3653 3.5042 11.227 4.6483 5.0769 1.4301 10.511 2.1443 15.73 2.8594 5.7916 0.78654 11.585 0.92923 17.377 1.0723 50.051 0.28604 146.8 0 146.8 0s96.748 0.28604 146.8 0c5.7916-0.14302 11.583-0.28573 17.375-1.0723 5.2198-0.71504 10.656-1.4292 15.732-2.8594 3.8612-1.0726 7.0792-2.4317 11.227-4.6483 4.7908-2.5742 8.8651-7.1512 8.8651-11.441 0-5.2912-4.7197-8.0077-9.2245-10.582-3.5037-1.7876-7.5071-3.2183-11.297-4.2909-5.0769-1.4301-10.153-2.2158-15.373-2.8594-5.7916-0.78655-11.371-1.0008-17.234-1.0723-5.5773-0.14302-11.369 0.1434-16.875 0.21487-4.2904 0.0715-8.436 0.2844-12.727 0.2129-6.2924-0.0715-12.658-0.35615-19.021-0.78515-3.7896-0.28604-7.6511-0.64516-11.369-1.0742-4.2904-0.50051-9.1519-1.2869-12.799-2.002-3.6467-0.71504-6.0076-1.4291-8.9394-2.2871-2.9317-0.85805-5.8618-1.7876-8.6503-2.9316-1.7876-0.71504-3.3622-1.5021-5.078-2.4316-1.2871-0.71504-2.5744-1.5728-3.8612-2.3594-1.2156-0.71503-2.2871-1.4306-3.5742-2.0742-2.8602-1.3586-5.7205-2.7886-8.6522-3.8612-3.933-1.4301-7.9366-2.5736-12.084-3.4315-4.2186-0.85806-8.5093-1.2878-12.729-1.7168-2.1451-0.21453-10.51-0.35743-10.51-0.35743h-2e-3zm1.6113 6.5077c22.166 0 40.187 4.2175 40.187 9.4374s-18.019 9.4392-40.187 9.4392-40.187-4.2195-40.187-9.4392c0-5.2198 18.019-9.4374 40.187-9.4374zm16.947 2.5742c-1.3586 0-2.5741 0.92776-2.9316 2.2148l-3.5762 10.859v-7.9979h-5.4335v1.7168h3.5038v5.2187h-4.7909c-0.85801 0-1.5742-0.71419-1.5742-1.5723v-6.6503c0.0714-0.85805 0.78646-1.5742 1.6445-1.5742h6.6503v-1.9297h-6.8632c-1.8591 0-3.3613 1.5022-3.3613 3.3612v7.0077c0 1.8591 1.5022 3.3593 3.3613 3.3593h6.8632v-0.0703h1.6445l3.8612-11.299c0.14287-0.50051 0.57174-0.92968 1.0723-0.92968 0.50054 0 0.93123 0.35766 1.0742 0.92968l3.2891 9.5818h-5.2206v1.7168h7.6503l-3.8612-11.727c-0.35755-1.2871-1.5719-2.2168-3.002-2.2168zm-34.822 0.2129c-2.4312 0-4.4336 2.0026-4.4336 4.4335s2.145 4.4335 4.5761 4.4335h1.4297c0.14286 0 0.28515 0.14407 0.28515 0.28709s-0.14229 0.28516-0.28515 0.28516l-2.002 0.14257h-4.0038v1.7168h6.2206c1.1441-0.0715 2.0723-1.0004 2.0723-2.1445 0-1.2156-0.92891-2.1465-2.1445-2.1465h-2.4316c-1.0011-0.35754-1.7871-1.3591-1.7871-2.4316 0-1.4301 1.359-2.6445 2.7891-2.6445h5.9335v-1.9316h-6.2187zm10.439 0.0723c-1.8591 0-3.3612 1.5022-3.3612 3.3612v6.8632c0 1.8591 1.5022 3.3612 3.3612 3.3612h6.8632v-1.9297h-6.6503c-0.85805 0-1.5723-0.71615-1.5723-1.5742v-6.578c0-0.85804 0.71419-1.5742 1.5723-1.5742h6.6503v-1.9297zm24.453 1.7168c-0.50052 0.0715-0.92928 1.2858-1.0723 1.7148l-3.4316 10.154h2.2168l1.4297-4.2187v2.002h4.5058l-2.6465-7.9374c-0.14286-0.42902-0.57289-1.7148-1.002-1.7148zm-23.738 0.64257c-0.85805 0-1.5742 0.71615-1.5742 1.5742v2.502h6.3651v-1.6445h-4.4336c0-0.28603 0.21415-0.49999 0.5-0.49999h5.4335v-1.9316h-6.2909zm11.012 0c-0.85805 0-1.5742 0.71615-1.5742 1.5742v5.7187c0 0.85805 0.71615 1.5742 1.5742 1.5742h3.789v-4.2909l-3.002 0.0723v1.9297h1.1426v0.50194h-1.1426c-0.28611 0-0.50195-0.21592-0.50195-0.50194v-4.1464c0-0.28604 0.21573-0.50194 0.50195-0.50194h5.4335v-1.9297h-6.2206zm-22.166 0.0723c-1.1441 0.0715-2.0742 1.0004-2.0742 2.1445 0 1.2156 0.92895 2.1445 2.1445 2.1445h2.4316c1.0011 0.35754 1.7871 1.3591 1.7871 2.4316 0 1.4301-1.359 2.6464-2.7891 2.6464h-5.9335v1.9297h6.2206c2.4312 0 4.4336-2.0023 4.4336-4.4335s-2.1458-4.4335-4.6483-4.4335h-1.4297c-0.14286 0-0.2871-0.14215-0.2871-0.28517 0-0.14301 0.14424-0.28709 0.2871-0.28709l2.0742-0.14256h4.0038v-1.7148h-6.2206zm15.945 4.7187-6.3651 0.0723v2.502c0 0.85804 0.71614 1.5723 1.5742 1.5723h6.2909v-1.9297h-5.4335c-0.28611 0-0.5-0.21396-0.5-0.5h4.4336v-1.7168zm18.805 0.0723 0.71678 2.002h-1.3594l0.64257-2.002zm-70.286 1.4297h2e-3c0.71389 0.0729 1.1433 0.92878 1.7148 1.3574 2.4312 1.6446 4.9332 3.2903 7.6503 4.5058 2.2882 1.0726 4.7912 1.7166 7.2225 2.4316 1.2871 0.3575 2.6447 0.57138 3.9316 0.85741 2.0737 0.42904 4.0765 0.85852 6.1503 1.1445 4.0044 0.57202 8.0076 1.0003 12.012 1.2148 4.2186 0.28603 7.6523 0.21482 12.443 0.21482 4.4333 0-4.2e-4 0.0712 14.086-0.21482 4.0044-0.28604 8.0076-0.64281 12.012-1.2148 2.0736-0.28604 4.0766-0.7155 6.1503-1.1445 1.2871-0.21453 2.6447-0.49988 3.9316-0.85741 2.4312-0.71503 4.9344-1.3591 7.2226-2.4316 2.7172-1.2156 5.2213-2.8614 7.6522-4.5058 0.57202-0.42901 0.99974-1.2859 1.7148-1.3574 0.64349-0.0715 1.1448 0.50031 1.7168 0.71483 3.2892 1.2871 6.5775 2.6454 10.01 3.6464 4.3618 1.2871 8.8673 2.2884 13.301 3.1464 4.4333 0.78655 8.8666 1.3589 13.371 1.8594 5.2198 0.50052 10.44 0.85773 15.66 1.0723 4.3618 0.21453 8.7946 0.21559 13.156 0.2871 6.0063 0 11.941-0.14378 17.947-0.0723 5.7202 0.0715 11.441 7e-4 17.09 0.42967 5.2198 0.42902 10.441 1.0004 15.518 2.1445 3.8612 0.85805 7.2921 1.7166 11.439 3.7187 3.8612 1.8591 9.0097 5.1477 9.0097 9.5096 0 4.29-5.0051 7.3644-8.7948 9.5096-2.0022 1.0726-8.08 3.0028-12.299 4.0038-4.8622 1.1441-9.8669 1.7174-14.801 2.1465-5.9349 0.57202-11.942 0.49879-17.877 0.5703-22.595 0.3575-56.56 0.35902-110.9 0.14453 0 0-113.12 0.57051-161.89-0.14453-5.9349-0.14302-11.942-0.0698-17.877-0.5703-5.0051-0.42904-9.9383-1.0024-14.801-2.1465-4.2186-0.92956-10.297-2.8598-12.299-4.0038-3.7897-2.1451-8.7948-5.2195-8.7948-9.5096 0.07143-4.3618 5.1481-7.6505 9.0097-9.5096 4.1472-2.0021 7.5068-2.7892 11.439-3.7187 5.0765-1.2156 10.298-1.7155 15.518-2.1445 5.7202-0.42904 11.369-0.35818 17.09-0.42967 6.0063-0.0715 11.941 0.14378 17.947 0.0723 4.3618-0.0715 8.7946-0.0726 13.156-0.2871 5.2198-0.21452 10.44-0.50019 15.66-1.0723 4.5047-0.42904 8.938-1.0014 13.371-1.8594 4.5047-0.85804 8.9387-1.8594 13.301-3.1464 3.3607-1.0726 6.7204-2.3594 10.01-3.6464 0.57137-0.21427 1.1434-0.78482 1.7148-0.71483zm143.51 17.305 3.1465 4.7187h8.58l-3.1465-4.7187zm26.029 0-3.1465 4.7187h8.58l3.1465-4.7187zm-272.72 0.4277v4.2909h41.831c0-2.3597-1.7173-4.2195-3.791-4.2909zm46.192 0v4.2909h27.529v-4.2909zm35.322 0c-2.1451 0-3.8612 1.9314-3.8612 4.2909h32.535v-4.2909h-28.674zm36.396 0c-2.1452 0-3.789 1.9314-3.789 4.2909h30.818c0-2.3597-1.7161-4.2909-3.8612-4.2909h-23.168zm45.048 0v4.2909h32.176c0-2.3597-1.7153-4.2909-3.7891-4.2909h-28.387zm40.829 0c-2.0021 0.21452-3.5762 2.0029-3.5762 4.2909h31.463c0-2.3597-1.7173-4.2909-3.791-4.2909h-24.096zm32.463 0v4.2909h7.7226v-4.2909zm47.979 0v4.2909h27.529v-4.2909zm-301.82 3.7187c-2.7172 0-4.9335 2.2164-4.9335 4.9335 0 2.7172 2.2164 5.0057 4.9335 5.0057 2.7172 0 4.9335-2.217 4.9335-5.0057s-2.2163-4.9335-4.9335-4.9335zm344.87 0c-2.7172 0-5.0058 2.2164-5.0058 4.9335 0 2.7172 2.217 5.0057 5.0058 5.0057s4.9335-2.217 4.9335-5.0057-2.2164-4.9335-4.9335-4.9335zm-327.28 2.002v12.729h7.6503v-12.729zm17.018 0v12.729h7.6522v-12.729zm17.02 0v12.729h7.7226v-12.729zm12.156 0v8.1523c0.0714 2.5742 2.4306 4.5761 5.2909 4.5761h22.238v-4.2909h-18.092c-0.92956 0-1.7148-0.78526-1.7148-1.7148v-1.0723h18.447v-3.9336h-16.732c-0.92956 0-1.7148-0.78721-1.7148-1.7168h-7.7226zm31.461 0v8.2948c0.14285 2.3597 2.2166 4.2188 4.7909 4.4335h22.596c2.8602-0.21453 5.1483-2.5742 5.1483-5.5058 0-3.0746-2.4311-5.5058-5.5058-5.5058h-13.301v3.9315h9.5116c0.78655 0 1.3574 0.64508 1.3574 1.4316 0 0.78655-0.64237 1.3574-1.3574 1.3574h-14.16c-0.78655 0-1.3574-0.64236-1.3574-1.3574v-7.08h-7.7225zm36.396 0v12.729h7.7226v-12.729zm23.096 0v3.7909h-14.014v5.0038h14.014v3.9335h7.7225v-12.729h-7.7225zm25.814 0v12.729h7.7206v-12.729zm24.453 0v7.08c0 0.78655-0.64236 1.3574-1.3574 1.3574h-14.301v4.2909h18.52c2.7172-0.21453 4.8612-2.2179 4.8612-4.7206v-8.0077h-7.7226zm12.801 0v12.729h7.7226v-12.729zm36.039 0v12.729h7.7206v-12.729zm14.516 0 8.5077 12.729h9.4394l8.4374-12.729h-8.58l-4.6483 7.0077-4.6483-7.0077h-8.5077zm33.463 0v8.1523c0.0714 2.5742 2.431 4.5761 5.2909 4.5761h22.238v-4.2909h-18.09c-0.92959 0-1.7168-0.78526-1.7168-1.7148v-1.0723h18.449v-3.9336h-16.732c-0.92959 0-1.7168-0.78721-1.7168-1.7168h-7.7226zm-60.278 0.0723v2.4316c0 0.71504-0.64237 1.3574-1.3574 1.3574h-12.943v5.0058h10.797l3.9336 3.9335h9.1523l-5.2909-5.3632c2.0021-0.78654 3.4316-2.7882 3.4316-5.0761v-2.2891h-7.7225z" fill="#1a1a1a" stroke-linecap="round" stroke-linejoin="round" stroke-width="7.9999" style="paint-order:stroke markers fill"/>
 <style type="text/css">.st0{fill:#FC0C18;}
	.st1{fill:#FC0C18;}</style>
</svg>
