<?xml version="1.0" encoding="UTF-8"?>
<svg width="480" height="320" version="1.1" viewBox="0 0 480 320" xmlns="http://www.w3.org/2000/svg">
 <defs>
  <linearGradient id="a" x1="81.598" x2="81.598" y2="84.667" gradientTransform="scale(3.7795)" gradientUnits="userSpaceOnUse">
   <stop stop-color="#fff" offset="0"/>
   <stop stop-color="#e6e6e6" offset="1"/>
  </linearGradient>
 </defs>
 <rect width="480" height="320" ry="16" fill="url(#a)" stroke-linecap="square" stroke-linejoin="round" stroke-width="2" style="paint-order:stroke fill markers"/>
 <path d="m408.49 55.797c-23.224 0.18864-55.517 15.021-84.495 41.238-11.54 10.035-21.074 21.073-29.101 32.111l42.146-31.608-57.698 57.195c0 0.50173-0.50298 1.0031-0.50298 1.5048l58.201-44.152-59.206 61.712 59.206-45.154-56.697 60.208 56.697-46.159-54.69 61.712c19.568 16.557 66.229 2.0062 106.87-34.119 2.4557-2.2218 4.8212-4.4772 7.124-6.7502-1.0192 0.45884-2.0755 0.73089-3.1082 0.73089h-48.669v-82.786h48.669c4.5158 0.50173 9.532 4.5169 9.532 9.5342v63.719c0 0.91808-0.21656 1.8564-0.58507 2.7695 33.065-35.254 47.278-74.26 31.191-92.579-5.6444-6.2717-14.328-9.2114-24.884-9.1256zm-215.45 1.5993c-3.0104 0-7.0231 2.5097-8.5281 4.5165-2.007 3.0104-4.0154 5.5196-3.0118 10.035v25.588c0 3.5121 2.5085 7.525 6.5223 7.0235 15.554-0.50173 30.606 8.1e-4 46.159-0.50094 0.50173-1.5052 1.0039-3.0114 1.0039-4.5165v-23.581h-20.068c-1.5052 3.5122-3.5136 6.5231-5.5204 10.035 8.0277 0 7.025-8.09e-4 11.039 0.50094-0.50173 2.5087 8e-4 5.0177-0.50094 7.5261-12.042 0.50173-14.05 0.50173-23.583 0-1.0035-8.5296 0.50298-8.5292 0.50298-15.553 1.5052-4.5158 4.0131-11.038 9.532-10.536h25.088v-10.538zm45.66 0v47.165h16.057v-16.557l4.5146 7.5261h15.554c3.0104 2.5087 4.5165 6.0208 7.0254 9.0312h17.559c-8.0277-13.547-16.557-26.591-24.585-40.138-2.007-3.5122-5.5196-7.5273-10.035-7.0254zm-99.36 0.47217c-3.5808 0.28123-7.2586 2.9151-9.0149 5.5491-2.5087 3.5122-3.5122 7.5265-2.5088 12.544v28.598h49.674v-10.035h-33.115v-9.0311h27.095c2.0069-3.0104 4.5154-6.0208 6.5223-9.0311h-33.618c2.007-2.5087 2.5093-7.0238 6.0216-8.0273 8.5296 0 17.561 0.50173 26.593 0v-10.536h-36.125c-0.50173-0.06274-1.0118-0.07098-1.5233-0.03099zm-65.711 0.03099c-3.0104 0-5.5181 2.0059-7.0235 4.5146-9.0312 14.048-18.063 28.099-26.593 42.648h17.059c7.0243-10.537 13.548-21.575 20.07-32.111 3.0104-3.0104 7.5269-2.0078 11.039-2.0078-7.0243 11.54-14.05 22.579-21.074 34.119h17.059c5.5192-9.5331 11.54-19.067 17.562-28.6 1.5052-2.5087 3.011-5.5192 6.0216-5.0177v33.618h16.055v-46.662h-24.082c-3.5122-0.50173-6.0215 3.0098-8.5304 5.5185v-6.0193zm181.63 10.035c2.007 0.50173 4.0131 1.0027 5.5185 3.0097 3.0104 4.5158 5.52 10.034 8.5304 14.55h-14.049zm108.88 29.099v50.173h20.07v-50.173zm-95.456 11.764c-23.136 0.13418-55.457 14.954-84.669 40.917-3.297 2.983-6.4063 6.0321-9.4254 9.103 1.5148-1.1027 3.5259-1.5767 5.9146-1.5767h48.669v33.115h-19.066v-17.058h-19.569v50.173h20.07v-13.548h19.066v28.717c6.5956-4.6473 13.162-9.8755 19.567-15.671 11.54-10.035 21.074-21.073 29.101-32.111l-42.146 31.608 57.698-57.195c0-0.50173 0.50094-1.0052 0.50094-1.5069l-58.201 44.152 59.206-61.712-59.206 45.154 56.697-60.208-56.697 46.159 54.69-61.712c-5.5034-4.6567-13.15-6.8542-22.203-6.8016zm-95.622 51.609c-34.483 35.792-49.603 75.987-33.197 94.673 14.937 16.597 51.148 9.8418 87.069-14.552h-45.925c-5.0173 0-9.532-5.0166-9.532-9.5319v-64.221c0-2.8017 0.56501-4.876 1.587-6.3685z" fill="#1a1a1a" stroke-width="1.0511"/>
 <style type="text/css">.st0{fill:#FC0C18;}
	.st1{fill:#FC0C18;}</style>
</svg>
