<?xml version="1.0" encoding="UTF-8"?>
<svg width="480" height="320" version="1.1" viewBox="0 0 480 320" xmlns="http://www.w3.org/2000/svg">
 <defs>
  <linearGradient id="a" x1="81.598" x2="81.598" y2="84.667" gradientTransform="matrix(3.7795 0 0 3.7795 -.056445 0)" gradientUnits="userSpaceOnUse">
   <stop stop-color="#fff" offset="0"/>
   <stop stop-color="#e6e6e6" offset="1"/>
  </linearGradient>
 </defs>
 <rect x="-.056445" width="480" height="320" ry="16" fill="url(#a)" stroke-linecap="square" stroke-linejoin="round" stroke-width="2" style="paint-order:stroke fill markers"/>
 <path d="m218.97 112.86-18.369 4.0841v3.7598l8.8067 1.3965-10.633 57.15c-0.42969 2.4708-0.75194 4.2988-0.75194 5.6954 0 5.1564 3.4371 7.9491 9.5607 7.9491 3.5451 0 9.1302-1.5037 16.865-4.2969v-4.1896c-3.3303 1.0743-6.2302 1.6113-8.7012 1.6113-2.4709 0-4.4043-2.1482-4.4043-5.4784 0-2.1486 0.53707-4.7282 1.1816-7.8436l11.172-59.837zm-165.36 1.9336-2e-3 4e-3 -13.455 77.915h14.463l8.5274-49.209 16.365 49.209h13.082l16.58-49.209 8.3713 49.202h14.301l-13.137-77.911h-14.301l-18.276 54.342-18.006-54.342zm90.093 4e-3v77.911h14.83v-32.996c7.5583 0 12.767-0.40535 15.627-1.2187 4.8726-1.4119 8.7205-3.9201 11.547-7.5216 2.8571-3.6014 4.2909-8.1207 4.2909-13.559 0-4.9085-1.0962-9.1109-3.2832-12.607-2.1562-3.5296-5.1224-6.0718-8.9004-7.6267-3.7421-1.5884-9.8683-2.3809-18.381-2.3809zm14.832 14.512h4.1836c4.594 0 7.7344 0.51205 9.4276 1.5352 2.3327 1.3761 3.4961 3.566 3.4961 6.5665 0 1.7317-0.42482 3.2157-1.2715 4.4511a6.7809 6.7808 0 0 1-3.3887 2.5957c-1.4477 0.52947-4.0256 0.7949-7.7344 0.7949h-4.7131zm101 9.5489c-9.5611 0-18.478 4.8355-23.85 13-4.2973 6.5533-6.4452 13.642-6.4452 21.377 0 12.354 5.8001 19.553 15.469 19.553 5.2641 0 11.066-2.9 17.082-8.5939v0.53711c0 5.1564 2.7926 7.8417 8.0568 7.8417 4.0823 0 9.4545-1.2889 16.222-3.7597v-3.9745c-2.5783 0.75197-4.9432 1.1816-7.0919 1.1816-2.4708 0-4.5116-2.1482-4.5116-5.8008 0-1.3966 0.32221-3.9764 0.9668-7.5216l3.2227-17.402c1.6114-8.9166 3.0097-14.396 3.6543-16.33h-6.3398l-3.9746 2.5781c-4.4047-1.7187-8.4862-2.6854-12.461-2.6854zm44.289 0-16.545 3.7598v3.5449l9.3456 0.85938c1.1817 2.256 2.1504 5.0506 2.6875 8.0587l6.4452 34.055h4.0819c-5.8012 11.065-11.173 16.865-16.008 17.295l-7.1974-6.7676c-3.8676 0.75197-6.2306 3.5447-6.2306 7.1973 0 4.2973 3.8668 8.2734 9.0232 8.2734 8.8093 0 17.726-8.4873 27.18-25.461 8.2719-14.825 12.57-30.296 20.949-41.469l6.3379-3.5449v-2.9004l-8.4862-2.793h-3.3301c-5.6678 13.207-11.148 26.492-16.438 39.855l-3.6523-23.418c-1.6114-10.313-3.5446-15.685-8.1642-16.545zm109.25 0.10742-18.478 4.4043v3.6523l8.9178 1.289-8.5958 43.616h13.215l4.1896-24.924c1.6114-9.561 5.5873-15.47 14.289-19.123l2.9004 8.166h0.21467c6.3383 0 10.42-3.976 10.42-9.1328 0-4.7267-3.3298-7.8417-7.9491-7.8417-5.0491 0-11.496 4.7278-18.371 14.289l3.0078-14.397zm-38.23 0.21482c-6.4456 0-13.322 2.5778-18.801 7.1973-7.9499 6.768-12.139 16.007-12.139 26.105 0 12.784 7.0893 20.412 19.014 20.412 6.4456 0 14.181-2.9 22.023-9.0236l0.21468-6.5548c-6.4456 5.049-12.248 7.5216-16.867 7.5216-7.1977 0-11.494-4.9428-11.494-14.074 0-0.96688 0.10737-2.0409 0.21482-3.2226 1.1817 0 2.2558 0.10741 3.3301 0.10741 17.941 0 27.824-6.5522 27.824-16.758 0-7.0904-4.941-11.711-13.32-11.711zm-113.49 4.834c3.5084 0 6.4407 2.8552 5.6935 6.5548l-5.0487 28.467c-4.0823 3.3303-7.5194 5.0509-10.85 5.0509-5.2641 0-8.166-4.1907-8.166-12.355 0-16.329 8.3804-27.717 18.371-27.717zm110.69 0.53711c3.2229 0 5.2637 2.1502 5.2637 5.4803 0 6.2309-7.4132 12.461-19.445 12.998 3.008-12.139 8.5954-18.478 14.182-18.478z" fill="#1a1a1a" stroke-width="2.5578"/>
 <style type="text/css">.st0{fill:#FC0C18;}
	.st1{fill:#FC0C18;}</style>
</svg>
