<?xml version="1.0" encoding="UTF-8"?>
<svg width="480" height="320" version="1.1" viewBox="0 0 480 320" xmlns="http://www.w3.org/2000/svg">
 <defs>
  <linearGradient id="a" x1="81.598" x2="81.598" y2="84.667" gradientTransform="matrix(3.7795 0 0 3.7795 -.056445 0)" gradientUnits="userSpaceOnUse">
   <stop stop-color="#fff" offset="0"/>
   <stop stop-color="#e6e6e6" offset="1"/>
  </linearGradient>
 </defs>
 <rect x="-.056445" width="480" height="320" ry="16" fill="url(#a)" stroke-linecap="square" stroke-linejoin="round" stroke-width="2" style="paint-order:stroke fill markers"/>
 <g transform="matrix(1.0484 0 0 1.0562 38.273 114.39)" fill="#1a1a1a">
  <path d="m72.677 79.447v-76.061h-12.644l0.208 48.91-58.443-48.288 0.206 76.267h10.985v-49.324l59.688 48.496"/>
  <path d="m80.758 80.689 9.74-16.579h-8.912v-11.606h14.715l26.736-48.496 42.692 76.681h-15.129l-8.704-16.579h-37.925l-9.121 16.579h-14.092m28.393-28.393h27.356l-13.678-25.075-13.678 25.075"/>
  <path d="m273.91 80.689h-12.436v-76.473l42.28 49.117 42.691-50.153v77.509h-13.264l-0.206-41.657-29.43 35.44-29.635-35.232v41.449"/>
  <path d="m370.49 80.689 0.208-78.34h12.642l-0.208 78.34h-12.642"/>
  <path d="m165.32 43.178c0-23.004 18.652-41.657 41.657-41.657 23.004 0 41.657 18.653 41.657 41.657 0 23.005-18.653 41.657-41.657 41.657-23.005 0-41.657-18.652-41.657-41.657m41.657 29.221c16.165 0 29.221-13.056 29.221-29.221 0-15.957-13.056-29.015-29.221-29.015-15.958 0-29.016 13.058-29.016 29.015 0 16.165 13.058 29.221 29.016 29.221" fill-opacity=".8"/>
 </g>
 <style type="text/css">.st0{fill:#FC0C18;}
	.st1{fill:#FC0C18;}</style>
</svg>
