<?xml version="1.0" encoding="UTF-8"?>
<svg width="480" height="320" version="1.1" viewBox="0 0 480 320" xmlns="http://www.w3.org/2000/svg">
 <defs>
  <linearGradient id="a" x1="81.598" x2="81.598" y2="84.667" gradientTransform="matrix(3.7795 0 0 3.7795 -.056445 0)" gradientUnits="userSpaceOnUse">
   <stop stop-color="#fff" offset="0"/>
   <stop stop-color="#e6e6e6" offset="1"/>
  </linearGradient>
 </defs>
 <rect x="-.056445" width="480" height="320" ry="16" fill="url(#a)" stroke-linecap="square" stroke-linejoin="round" stroke-width="2" style="paint-order:stroke fill markers"/>
 <path d="m189.14 59.997c-0.8516-0.03515-1.6552 1.1654-2.2676 1.6758-8.8459 8.982-17.964 17.76-26.742 26.811 0.13606 15.855 0.13606 31.64 0 47.495 10.275 10.683 20.958 20.959 31.369 31.505 1.2248 1.1568 2.3134 2.8574 4.2188 2.4492 15.311-0.1361 30.623 0.13742 45.933-0.13478 9.0501-8.4376 17.553-17.557 26.535-26.131 7.553 7.9613 15.379 15.651 23.137 23.408 9.6623-9.4582 19.257-19.12 28.852-28.715-0.13606-14.086-0.13606-28.105 0-42.188-10.003-9.9345-19.937-19.936-29.939-29.871-13.746 0-27.558-0.13644-41.37-0.06837-0.95264-0.20413-1.5656 0.74856-2.2461 1.293-7.485 7.6211-15.107 14.971-22.592 22.592-0.74849 0.7485-1.4299 1.4963-2.3144 1.9727-10.683-10.479-21.094-21.095-31.709-31.573-0.28911-0.35724-0.5794-0.50587-0.86327-0.51757v-2e-3zm0.0469 4.5331c9.9346 10.071 20.005 20.007 30.008 30.01-0.47633 0.7485-1.4971 1.4285-1.293 2.4492 0.068 7.553-0.0664 15.039-0.0664 22.592 8.7098 0 17.417-0.068 26.127 0 7.2128 7.2128 14.289 14.562 21.57 21.639-8.3696 8.5057-16.806 16.942-25.311 25.244h-43.753c-1.0888 0.1361-1.7007-0.81535-2.4492-1.4277-10.139-10.275-20.416-20.278-30.486-30.552 0.13606-14.562 3.4e-4 -29.125 0.0684-43.687-0.13607-1.0888 0.95205-1.7691 1.5644-2.5176 8.0293-7.8933 15.857-15.991 24.021-23.748zm83.626 17.148c1.3609 0.2722 2.7895 0.47554 4.1504 0.67968 0.74852 1.497 1.4974 2.9934 2.1777 4.5585-1.2929 1.2929-2.5858 2.5863-3.8104 3.9472-1.6331-0.7485-4.5575-0.20375-4.7616-2.4492-0.2041-2.4497 1.4276-4.5588 2.2441-6.7362zm-15.59 11.613c0.79019-6e-3 1.5522 0.19737 2.2539 0.77147 1.7012 1.0207 3.3334 2.0408 4.8983 3.2655 0.20408 2.994-0.47614 5.9879-0.8164 8.9139-1.7692 1.361-4.1516 1.8364-6.1249 2.7891-2.2455-1.7692-4.4901-3.5383-6.5995-5.5116 0.47629-2.926 0.81568-5.9199 1.0879-8.914 1.6842-0.2807 3.5624-1.3011 5.3007-1.3145zm-57.56 2.6074c-1.2929 1.8373-2.5177 3.7427-3.8106 5.58 1.0887 2.1095 2.1772 4.2183 3.334 6.2597 1.9734 0.068 4.0152 0.13704 6.0565 0.20508 1.0888-1.7692 2.5178-3.402 2.9941-5.4433-1.0207-2.3816-2.5868-4.492-4.0156-6.6015h-4.5585zm102.28 10.684c0.88457 4.1507 1.837 8.3023 2.9258 12.453 0.95263 2.994-0.27236 5.9879-0.88476 8.914-1.9734 0.47634-3.8782 0.88503-5.8515 1.3613-0.68044 2.994-1.4296 6.055-1.8379 9.117-3.5384 0.47631-7.077 1.2255-10.615 1.4297-1.7012-0.95265-3.2655-2.2461-4.082-3.9472-0.95264-2.7898-1.2261-5.7158-1.9746-8.5058 3.1982-1.5651 6.3291-3.0618 9.5273-4.6269 1.429-4.4229 0.7477-8.9814-0.13671-13.404 4.2868-1.0207 8.5744-2.0425 12.93-2.791zm-120.31 4.287c-1.9053 1.0888-3.3345 2.7226-3.8788 4.8319 1.8373 1.2929 3.81 3.1296 6.2597 2.8574 1.1568-0.88458 2.2452-1.9048 3.334-2.8574-0.5444-1.2929-0.95164-2.7215-1.9043-3.7421-1.1568-0.68045-2.5177-0.74965-3.8106-1.0898zm45.794 13.609c-4.2868 5.1033-3.4702 12.928-8.4374 17.691-6.056 5.6477-15.857 6.5314-23.273 3.1972 1.8373 2.7898 4.4238 5.3081 7.8261 6.0565 4.2188 0.88458 8.7105 0.6795 12.93-0.20508 4.1508-1.3609 6.8715-5.1022 9.1171-8.6405 3.4018-5.3749 2.7223-12.111 1.8379-18.1zm143.55 65.517c-8.1191 0-14.542 2.2452-19.268 6.7343-4.7038 4.4676-7.0546 10.545-7.0546 18.234 0 7.668 2.3508 13.747 7.0546 18.236 4.7253 4.4676 11.148 6.7011 19.268 6.7011 5.5415 0 9.9558-1.2037 13.242-3.6093 3.2863-2.4057 5.5627-6.089 6.83-11.051h-6.412c-0.92359 3.6084-2.4048 6.305-4.4452 8.0878-2.019 1.7828-4.6276 2.6738-7.828 2.6738-4.7253 0-8.227-1.7176-10.504-5.1542-2.2768-3.4366-3.416-8.732-3.416-15.885 0-7.1527 1.1392-12.446 3.416-15.883 2.2768-3.4582 5.7549-5.1893 10.438-5.1893 3.63 0 6.5512 1.0102 8.7636 3.0293 2.2124 1.9976 3.7384 5.0165 4.5761 9.0545h4.0918v-11.213h5.2187v40.304h-6.1542v3.9003h24.68c8.6131 0 15.208-2.0635 19.783-6.1874 4.5964-4.1454 6.8944-10.117 6.8944-17.914 0-7.7539-2.2882-13.692-6.8632-17.816s-11.18-6.1854-19.814-6.1854h-24.68v2.918c-3.1141-1.2109-6.0783-2.1329-8.8905-2.7578-3.093-0.68733-6.0689-1.0293-8.9257-1.0293zm-151.29 0.30274c-7.1176 0-13.024 2.4336-17.719 7.3007-4.6947 4.8716-7.039 10.835-7.039 17.895 0 3.9444 0.76109 7.5078 2.291 10.691 1.1998 2.469 2.8641 4.6892 4.9921 6.664 2.1291 1.972 4.5874 3.5633 7.369 4.7773 2.7846 1.2092 6.2845 1.8164 10.498 1.8164 3.2982 0 6.4755-0.33948 9.5448-1.0176 3.0684-0.67998 6.0186-1.6877 8.8632-3.0214v-9.7596c0-1.7105 0.0971-2.7852 0.29297-3.2226 0.3488-0.83309 0.84467-1.4272 1.4883-1.7871 0.64213-0.36 2.3963-0.59346 4.0312-0.71092v-1.5977h-23.166v1.5977l6e-3 0.01h1.1484c1.0721 0 2.9048 0.21974 3.6602 0.66014 0.75537 0.43747 1.2543 0.92962 1.4941 1.4727 0.24083 0.54302 0.36328 1.74 0.36328 3.5897v7.2636c0 2.1917-2.3264 3.3081-3.4473 3.5507-1.1262 0.2414-2.2202 0.36329-3.2852 0.36329-3.0722 0-5.7251-0.79617-7.9608-2.3887-2.2332-1.593-3.851-4.0831-4.8554-7.4784-1.002-3.3914-1.502-7.3347-1.502-11.838 0-3.7142 0.45905-7.3358 1.375-10.865 0.91828-3.5302 2.4796-6.2812 4.6835-8.2557 2.204-1.9725 4.9642-2.959 8.2811-2.959 3.4716 0 5.5039 0.8741 8.0585 3.5175 2.6135 2.7015 5.1204 5.7706 6.5839 10.277h2.1387v-16.545h-1.2168c-0.43861 1.3253-0.91823 2.2262-1.4414 2.7012-0.52556 0.47694-1.0949 0.71287-1.7031 0.71287-0.39466 0-1.6664-0.43131-3.8164-1.293-2.1491-0.86261-3.707-1.3858-4.6659-1.5703-1.7674-0.3671-3.1406-0.55077-5.3437-0.55077h-2e-3zm-62.753 0.24997-2e-3 2e-3c-0.4449-2e-3 -0.894 6e-3 -1.3496 0.0234-6.7487-0.27678-12.434 1.9126-17.053 6.5722-4.6269 4.6553-6.9354 10.477-6.9354 17.457 0 6.2183 1.7768 11.592 5.3339 16.123 4.4964 5.7314 10.862 8.6015 19.098 8.6015l-8e-3 -2e-3c8.2085 0 14.566-3.0052 19.066-9.0174 3.3961-4.5302 5.0976-9.7744 5.0976-15.742 0-6.9801-2.2792-12.793-6.8319-17.441-4.2709-4.3571-9.7422-6.5489-16.416-6.5761zm147.37 0.27149v2e-3c-6.2026 0.0291-11.472 2.2253-15.803 6.5937-4.6278 4.6558-6.9335 10.477-6.9335 17.457 0 6.2188 1.7744 11.594 5.33 16.125 4.498 5.7314 10.863 8.6015 19.1 8.6015 8.2085 0 14.568-3.0062 19.068-9.0194 3.3971-4.525 5.0976-9.7759 5.0976-15.742 0-6.9801-2.2801-12.795-6.8319-17.443-4.5566-4.6482-10.478-6.8283-17.768-6.5487l-8e-3 -2e-3c-0.4218-0.0174-0.83847-0.0253-1.252-0.0234zm-214.77 0.37107v1.8984h1.248c1.5218 0 2.7218 0.31839 3.5977 0.95702 0.62256 0.43461 1.05 1.0551 1.2793 1.8555 0.1166 0.47883 0.17383 1.7723 0.17383 3.8769v29.154c0 2.3329-0.12667 3.7754-0.38086 4.3222-0.32205 0.77657-0.78612 1.3274-1.3828 1.6465-0.83136 0.48121-1.9254 0.72068-3.2871 0.72068h-1.248v2.1934h40.27l2.4199-14.818h-2.1973c-1.1533 4.1255-3.0511 7.1956-5.6913 9.205-2.6403 2.0115-6.1535 3.0156-10.531 3.0156h-2.498c-1.3383 0-2.3047-0.18361-2.9062-0.54686-0.59866-0.36756-1.0096-0.83515-1.2285-1.4062-0.21834-0.57251-0.32812-2.1415-0.32812-4.7011v-13.107c2.2504 0 4.8868 0.29204 6.0702 0.87694 1.1821 0.58201 2.2198 1.7247 3.1113 3.4198 0.89443 1.6958 1.4812 3.5664 1.7598 6.2245h1.9004v-24.123h-1.9004c-0.3722 3.6229-1.2303 6.0571-2.5762 7.914-1.3431 1.8574-3.5134 2.7852-6.5038 2.7852h-1.8613v-16.18c-0.0155-2.8132 2.5039-2.4863 2.5039-2.4863h2.9414c3.561 0 5.9873 0.20489 7.2811 0.61718 2.2193 0.68617 3.9334 1.7639 5.1464 3.2284 1.214 1.4655 2.1554 3.8836 2.8262 7.2479h1.5918v-13.791h-39.602zm42.69 31.806h0.0137l-0.0117-6e-3zm-91.437-31.804v1.5645c1.3798 0.0456 1.4272 0.50605 2.1621 0.89452l3.8887 3.8944-0.0059 31.224c0 2.4694-0.48827 4.2159-1.4668 5.244-0.97948 1.029-2.7163 1.5553-5.2069 1.5781v1.8867h16.061v-1.8828h-1.0605c-1.5337 0-2.8968-0.46662-4.0878-1.4043-1.1887-0.93822-1.7832-2.7422-1.7832-5.4179v-28.156l30.645 38.02 1.9863 2e-3v-38.778c0-2.205 0.18332-2.8447 0.54882-3.7519 0.36552-0.90727 0.87663-1.5625 1.5293-1.9648 0.6536-0.40133 1.9354-0.72751 3.8418-0.98045v-1.9727h-15.203v1.9727c2.506-0.0457 4.2966 0.59528 5.3573 1.9277 0.77691 0.98767 1.166 1.9678 1.166 4.7714v20.307l-23.855-28.979h-14.516zm15.432 44.403h0.0078l-0.0078-4e-3zm183.36-44.02v1.8887h1.248c1.5218 0 2.7224 0.31892 3.5976 0.95897 0.62351 0.43461 1.0505 1.0537 1.2793 1.8535 0.11705 0.47837 0.17578 1.7719 0.17578 3.8769v29.154c0 2.3329-0.12815 3.7754-0.38281 4.3261-0.3225 0.77645-0.78459 1.3236-1.3828 1.6445-0.83136 0.4812-1.9263 0.72265-3.2852 0.72265h-1.25v2.1914h40.274l2.4199-14.824h-2.209c-1.1539 4.1265-3.0516 7.1966-5.6933 9.2068h0.0215c-2.6398 2.0115-6.1534 3.0176-10.535 3.0176h-2.498c-1.3388 0-2.3047-0.18221-2.9062-0.54882-0.59627-0.36615-1.0087-0.8366-1.2266-1.4082-0.21884-0.57157-0.33008-2.138-0.33008-4.6972v-13.109c2.2509 0 4.8872 0.29155 6.0702 0.87694 1.1821 0.58252 2.2198 1.7238 3.1113 3.4198 0.89538 1.6948 1.4793 3.5688 1.7578 6.2265h1.9004v-24.123h-1.9004c-0.37268 3.6244-1.2302 6.0571-2.5762 7.914-1.345 1.8569-3.5134 2.7852-6.5038 2.7852h-1.8613v-16.182c-0.0147-2.8126 2.5039-2.4883 2.5039-2.4883h2.9414c3.5586 0 5.9835 0.2098 7.2772 0.62304 2.2179 0.68616 3.9358 1.7614 5.1483 3.2266 1.2141 1.4665 2.1519 3.8793 2.8223 7.246h1.5957v-13.779h-39.606zm-83.665 1.2442c2.2718 2.6e-4 4.2784 0.63496 6.0214 1.9062 1.7434 1.2711 3.179 3.4478 4.3046 6.5311 1.1247 3.0862 1.6875 7.7343 1.6875 13.949 0 5.2212-0.55057 9.4571-1.6543 12.703-1.1013 3.2464-2.643 5.6104-4.6229 7.0897-1.5519 1.1555-3.4875 1.7324-5.8065 1.7324-3.4428 0-6.1181-1.34-8.0351-4.0194-2.744-3.835-4.1172-9.759-4.1172-17.779 0-6.7485 0.88813-11.924 2.666-15.527l6e-3 -4e-3c2.1813-4.388 5.3658-6.5814 9.5507-6.5819zm150.05 0.24412c2.2728 0 4.2818 0.63708 6.0253 1.9082 1.7434 1.2701 3.177 3.4478 4.3007 6.5311 1.1262 3.0866 1.6875 7.7339 1.6875 13.953 0 5.2211-0.54821 9.4576-1.6524 12.705l8e-3 -0.01c-1.1032 3.2464-2.643 5.6103-4.6229 7.0858-1.5528 1.1574-3.4899 1.7363-5.8085 1.7363-3.443 0-6.1172-1.3428-8.0331-4.0214-2.7445-3.8345-4.1171-9.759-4.1171-17.779 0-6.7485 0.8877-11.924 2.666-15.527 2.1821-4.3885 5.3637-6.5819 9.5468-6.5819zm101.39 1.6992h4.4765c5.0475 0 8.7309 1.6121 11.051 4.8339 2.3198 3.2004 3.4805 8.2887 3.4805 15.27 0 7.0236-1.1705 12.149-3.5117 15.371-2.3198 3.2218-5.9933 4.83-11.02 4.83h-4.4765v-40.304zm-219.73 14.576c-3.1118 0-5.6347 2.5104-5.6347 5.6093 0 3.0966 2.521 5.6073 5.6347 5.6073 3.1114 0 5.6366-2.509 5.6366-5.6073 0-3.097-2.523-5.6093-5.6366-5.6093z" fill="#1a1a1a" stroke-width="0" style="paint-order:stroke markers fill"/>
 <style type="text/css">.st0{fill:#FC0C18;}
	.st1{fill:#FC0C18;}</style>
</svg>
