<?xml version="1.0" encoding="UTF-8"?>
<svg width="480" height="320" version="1.1" viewBox="0 0 480 320" xmlns="http://www.w3.org/2000/svg">
 <defs>
  <linearGradient id="a" x1="81.598" x2="81.598" y2="84.667" gradientTransform="scale(3.7795)" gradientUnits="userSpaceOnUse">
   <stop stop-color="#fff" offset="0"/>
   <stop stop-color="#e6e6e6" offset="1"/>
  </linearGradient>
 </defs>
 <rect width="480" height="320" ry="16" fill="url(#a)" stroke-linecap="square" stroke-linejoin="round" stroke-width="2" style="paint-order:stroke fill markers"/>
 <path d="m257.16 97.999c-0.88902 5.9304-1.7755 11.846-2.6624 17.764 1.5226 0.31295 3.007 0.62041 4.5324 0.93332 2.1512-5.831 4.2939-11.64 6.4494-17.482-2.7933-0.40811-5.5423-0.81101-8.3191-1.2156zm15.014 4.5687c-3.0459 5.184-6.0631 10.324-9.0773 15.451 1.3575 0.83803 2.6773 1.6513 4.0101 2.4724 3.8094-4.5347 7.5916-9.0417 11.385-13.561-2.0998-1.4484-4.1888-2.8929-6.3182-4.3623zm11.621 9.3018c-4.3703 3.8649-8.7092 7.7057-13.06 11.552 1.0139 1.5161 2.0061 2.9966 3.0179 4.5059 4.8246-2.9828 9.634-5.9558 14.445-8.9314-1.4775-2.3908-2.9297-4.7437-4.4028-7.1266zm-31.39 9.4752c-2.9237-9e-3 -5.6995 0.69645-8.3263 2.0154-1.2622 0.63435-2.4982 1.3195-3.769 1.9342-2.8293 1.3666-5.6716 2.7044-8.5096 4.0513-2.5026 1.1883-5.0064 2.3716-7.5092 3.5572-0.84669 0.40104-1.6924 0.80348-2.5397 1.2045 8.499 17.311 16.989 34.604 25.473 51.893 1e-3 -5.8e-4 3e-3 -8e-4 4e-3 -1e-3l1e-3 1e-3c2.1506-0.92546 4.2573-1.8326 6.4052-2.756-7.6467-15.192-15.273-30.342-22.903-45.502 0.0423-0.0295 0.0769-0.0581 0.11576-0.0771 1.9029-0.97265 3.8056-1.9458 5.7078-2.9171 0.81963-0.41794 1.6388-0.83675 2.4584-1.2541 1.0481-0.53363 2.0958-1.0691 3.1433-1.6038 0.82167-0.41938 1.6442-0.8369 2.4653-1.2582 1.9405-0.99564 3.9488-1.7187 6.0552-2.0401 0.76773-0.11702 1.5489-0.18033 2.3441-0.18448 0.19661-1e-3 0.39417 2e-3 0.59256 8e-3 2e-3 6e-5 4e-3 -6e-5 6e-3 0 0.13443 5e-3 0.26796 0.0106 0.401 0.0193 2e-3 1.2e-4 4e-3 -1.2e-4 6e-3 0 0.40275 0.0268 0.79986 0.0743 1.1893 0.14177 1e-3 2.3e-4 3e-3 -2.3e-4 4e-3 0 1.5631 0.27129 3.0154 0.87768 4.3298 1.8791 1.5494 1.1799 2.6448 2.7126 3.4837 4.4451 0.79517 1.6437 1.3614 3.3542 1.396 5.1995 0.0458 2.5634-0.73191 4.8809-2.107 7.0333-0.92077 1.4392-1.972 2.7636-3.2053 3.9356-0.84787 0.80685-1.7552 1.5514-2.6348 2.3224-3.2233-2.2835-6.3776-4.5165-9.5444-6.7589 0.60114-2.1941 1.1946-4.3684 1.7915-6.5484h9.1298v-6.9229c-2e-3 2e-5 -4e-3 -2e-5 -6e-3 0-4.7123 0.0444-9.3774 0.0905-14.038 0.13629-1.699 4.7936-3.3876 9.561-5.0793 14.337 5.4584 4.509 10.896 9.0028 16.34 13.502 1e-3 -5.2e-4 3e-3 -8.6e-4 4e-3 -1e-3l1e-3 1e-3c2.1632-0.82465 4.2157-1.838 6.1463-3.0919 3.0798-1.9982 5.6444-4.5082 7.5296-7.669 1.7512-2.9384 2.6295-6.1402 2.6789-9.558 0.0291-2.118-0.29197-4.1881-0.91639-6.2181-0.82692-2.6896-2.1067-5.1254-4.0596-7.1652-3.0901-3.232-6.771-5.201-11.038-5.8507-0.15617-0.0238-0.31355-0.0458-0.4713-0.0661-2e-3 -2.3e-4 -4e-3 2.3e-4 -6e-3 0-0.15776-0.0204-0.31609-0.0398-0.47543-0.0564-2e-3 -1.9e-4 -4e-3 1.9e-4 -6e-3 0-0.15938-0.0166-0.32001-0.0325-0.48094-0.0454-2e-3 -1.4e-4 -4e-3 1.5e-4 -6e-3 0-0.16097-0.0132-0.32255-0.0249-0.48507-0.0344-2e-3 -1.1e-4 -4e-3 1e-4 -6e-3 0-0.16301-9e-3 -0.32598-0.0162-0.49058-0.0219-1e-3 -5e-5 -3e-3 5e-5 -4e-3 0-0.19578-7e-3 -0.39258-0.0117-0.58703-0.0125zm-102.95 23.5c-10.16 0-18.422 7.5904-18.422 18.119 0 10.388 8.118 18.261 18.373 18.261 7.0738 0 14.101-3.8415 17.14-10.434 1.0449-2.1828 1.5196-4.7429 1.5668-6.7838h-23.68v3.2254h19.123c-0.57011 2.753-2.2793 5.4077-4.7486 7.3538-2.4215 1.8981-5.6976 3.1772-9.4012 3.1772-7.6913 0-14.434-5.8813-14.434-14.798 0-8.7738 6.6947-14.655 14.387-14.655 3.1334 0 5.8874 0.90145 8.1664 2.4669 1.5191 0.99594 2.849 2.2778 3.9413 3.7954v-3e-3h4.4621c-2.7538-5.7384-9.3524-9.7228-16.475-9.7228zm-38.748 1e-3c-9.9235 0-18.328 7.4479-18.328 18.261v0.0468c0 10.008 7.9294 18.024 18.328 18.024 10.351 0 18.327-7.8723 18.327-18.166 0-10.292-8.0239-18.166-18.327-18.166zm98.649 0c-9.9232 0-18.327 7.4479-18.327 18.261v0.0468c0 10.008 7.9287 18.024 18.327 18.024 10.351 0 18.328-7.8723 18.328-18.166 0-10.292-8.0247-18.166-18.328-18.166zm80.016 0c-9.925 0-18.328 7.4479-18.328 18.261v0.0468c0 10.008 7.931 18.024 18.328 18.024 10.352 0 18.328-7.8723 18.328-18.166 0-10.292-8.0239-18.166-18.328-18.166zm41.356 3e-3c-10.539 0-18.279 8.157-18.279 18.166 0 10.149 7.9294 18.166 18.327 18.166 7.7393 0 13.864-4.6499 16.142-10.057l-4.2266 1e-3c-0.85444 1.3279-4.6038 6.5941-11.964 6.5941-8.1676 0-14.387-6.4509-14.387-14.751 0-8.1573 6.1735-14.655 14.387-14.655 6.7895 0 10.776 4.6964 11.964 6.7823h4.2251c-2.0419-4.4579-7.5009-10.245-16.189-10.245zm-290.73 0.61395v35.099h3.7992l-0.09645-29.55 20.224 29.55h3.798v-35.099h-3.798l0.04823 29.312-19.987-29.312zm31.969 0v35.099h18.639v-3.4622h-14.748v-12.523h14.653v-3.4622h-14.653v-12.19h14.748v-3.4622zm98.03 0v35.099h19.466v-3.4622h-15.572v-12.523h15.477v-3.4622h-15.477v-12.19h15.572v-3.4622zm182.38 0v35.099h3.8944v-11.438l3.5843-3.7402 15.688 15.179h4.8922l-18.254-17.599 16.779-17.501h-4.272l-18.418 19.029v-19.029zm33.092 0v35.099h19.469v-3.4622h-15.573v-12.523h15.477v-3.4622h-15.477v-12.19h15.573v-3.4622zm27.896 0v3.4622h11.323v31.637h3.9413v-31.637h11.368v-3.4622zm-302.66 2.8454c8.3565 0 14.434 6.6878 14.434 14.703 0 8.0175-6.0782 14.703-14.387 14.703-8.2148 0-14.435-6.4509-14.435-14.703v-0.0482c0-8.1097 6.1266-14.655 14.388-14.655zm98.649 0c8.3565 0 14.434 6.6878 14.434 14.703 0 8.0175-6.076 14.703-14.385 14.703-8.214 0-14.434-6.4509-14.434-14.703v-0.0482c0-8.1097 6.124-14.655 14.385-14.655zm80.016 0c8.358 0 14.435 6.6878 14.435 14.703 0 8.0175-6.079 14.703-14.388 14.703-8.2148 0-14.435-6.4509-14.435-14.703v-0.0482c0-8.1097 6.1281-14.655 14.388-14.655z" fill="#1a1a1a" stroke-width=".70518"/>
 <style type="text/css">.st0{fill:#FC0C18;}
	.st1{fill:#FC0C18;}</style>
</svg>
