<?xml version="1.0" encoding="UTF-8"?>
<svg width="480" height="320" version="1.1" viewBox="0 0 480 320" xmlns="http://www.w3.org/2000/svg">
 <defs>
  <linearGradient id="a" x1="81.598" x2="81.598" y2="84.667" gradientTransform="matrix(3.7795 0 0 3.7795 -.056445 0)" gradientUnits="userSpaceOnUse">
   <stop stop-color="#fff" offset="0"/>
   <stop stop-color="#e6e6e6" offset="1"/>
  </linearGradient>
 </defs>
 <rect x="-.056445" width="480" height="320" ry="16" fill="url(#a)" stroke-linecap="square" stroke-linejoin="round" stroke-width="2" style="paint-order:stroke fill markers"/>
 <path d="m257.32 89c-0.88898 5.9323-1.7752 11.851-2.6621 17.77 1.5226 0.31306 3.0058 0.61988 4.5313 0.9329 2.1513-5.8329 4.2936-11.644 6.4494-17.487-2.7933-0.40822-5.5412-0.8112-8.3184-1.2159zm15.014 4.5709c-3.0459 5.1855-6.0639 10.327-9.078 15.456 1.3575 0.83829 2.677 1.6514 4.0097 2.4728 3.8094-4.5362 7.5931-9.0436 11.387-13.564-2.0998-1.4488-4.1888-2.894-6.3182-4.3642zm11.621 9.3037c-4.3703 3.8668-8.7099 7.7079-13.061 11.556 1.0139 1.5166 2.0058 2.9989 3.0176 4.5082 4.8246-2.9838 9.6348-5.9584 14.445-8.9348-1.4775-2.3915-2.9292-4.7459-4.4024-7.1293zm-31.391 9.4794c-2.9237-9e-3 -5.6995 0.69679-8.3263 2.0161-1.2622 0.63454-2.4989 1.3194-3.7696 1.9341-2.8293 1.3671-5.6719 2.7044-8.5096 4.0516-2.5026 1.1887-5.0052 2.374-7.5076 3.5599-0.84669 0.40115-1.6937 0.80299-2.541 1.2042 8.499 17.317 16.991 34.615 25.475 51.908 1e-3 -5.8e-4 3e-3 -1e-3 4e-3 -2e-3v2e-3c2.1506-0.92571 4.2584-1.8342 6.4063-2.7578-7.6467-15.197-15.272-30.351-22.903-45.517 0.0423-0.0295 0.0764-0.059 0.11524-0.078 1.903-0.97296 3.8048-1.9462 5.7071-2.9178 0.81963-0.41809 1.6394-0.8355 2.459-1.253 1.0481-0.53382 2.0951-1.0694 3.1426-1.6043 0.82167-0.41957 1.6457-0.83739 2.4668-1.2588 1.9406-0.99594 3.9485-1.7199 6.0548-2.0415 0.76773-0.11705 1.5486-0.1793 2.3438-0.18346 0.19661-9.9e-4 0.39337 1e-3 0.5918 8e-3 2e-3 6e-5 4e-3 -6e-5 6e-3 0 0.13444 5e-3 0.26929 0.011 0.40233 0.0197 2e-3 1.1e-4 2e-3 -1.3e-4 4e-3 0 0.40271 0.0268 0.80005 0.0731 1.1895 0.14052 1e-3 2.3e-4 5e-3 -2.3e-4 6e-3 0 1.5631 0.2714 3.0138 0.87775 4.3279 1.8795 1.5495 1.1802 2.6455 2.7149 3.4844 4.4477 0.79517 1.6441 1.3619 3.3555 1.3965 5.2014 0.0459 2.5643-0.73228 4.8809-2.1075 7.0337-0.92077 1.4397-1.9718 2.766-3.2051 3.9382-0.84786 0.80708-1.7551 1.5514-2.6348 2.3225-3.2233-2.2843-6.378-4.5173-9.5448-6.7608 0.60113-2.1948 1.1941-4.3714 1.791-6.5518h9.131v-6.9248c-2e-3 2e-5 -4e-3 0-6e-3 0-4.7123 0.0444-9.3782 0.0908-14.039 0.1366-1.699 4.7951-3.3862 9.5633-5.0782 14.341 5.4584 4.5101 10.894 9.0054 16.338 13.506 1e-3 -5.3e-4 5e-3 5.2e-4 6e-3 0 2.1633-0.82492 4.2161-1.8372 6.1466-3.0915 3.0798-1.9988 5.644-4.5097 7.5292-7.672 1.7512-2.9393 2.6303-6.1425 2.6797-9.5614 0.0291-2.1186-0.29159-4.1896-0.916-6.22-0.82693-2.6904-2.1076-5.1262-4.0607-7.1667-3.0901-3.233-6.7703-5.2033-11.037-5.8533-0.15617-0.0238-0.31491-0.0461-0.47266-0.0664-2e-3 -2.3e-4 -4e-3 2.3e-4 -6e-3 0-0.15776-0.0204-0.31529-0.0399-0.4746-0.0566-2e-3 -1.9e-4 -4e-3 1.9e-4 -6e-3 0-0.15938-0.0166-0.31955-0.0321-0.48045-0.0449-2e-3 -1.5e-4 -4e-3 1.5e-4 -6e-3 0-0.16097-0.0132-0.32186-0.0257-0.48438-0.0352-2e-3 -1e-4 -4e-3 1.1e-4 -6e-3 0-0.16301-9e-3 -0.32757-0.0159-0.49217-0.0215-1e-3 -6e-5 -2e-3 5e-5 -4e-3 0-0.19578-7e-3 -0.39148-0.011-0.58594-0.0117zm-102.95 23.506c-10.16 0-18.422 7.5934-18.422 18.125 0 10.391 8.1177 18.266 18.373 18.266 7.0738 0 14.102-3.843 17.141-10.438 1.0449-2.1835 1.5192-4.7444 1.5664-6.7861h-23.68v3.2262h19.123c-0.5701 2.7539-2.2786 5.4096-4.7482 7.3561-2.4215 1.8987-5.6988 3.1793-9.4023 3.1793-7.6913 0-14.434-5.8836-14.434-14.804 0-8.7764 6.6947-14.659 14.387-14.659 3.1334 0 5.887 0.90107 8.166 2.467 1.5187 0.99594 2.8494 2.2767 3.9413 3.7942h4.4629c-2.7538-5.7403-9.3528-9.7273-16.475-9.7273zm-38.748 2e-3c-9.9235 0-18.328 7.4498-18.328 18.266v0.0468c0 10.011 7.9295 18.03 18.328 18.03 10.351 0 18.327-7.8739 18.327-18.17 0-10.295-8.0236-18.172-18.327-18.172zm98.649 0c-9.9232 0-18.327 7.4498-18.327 18.266v0.0468c0 10.011 7.9283 18.03 18.327 18.03 10.351 0 18.328-7.8739 18.328-18.17 0-10.295-8.0247-18.172-18.328-18.172zm80.016 0c-9.925 0-18.328 7.4498-18.328 18.266v0.0468c0 10.011 7.931 18.03 18.328 18.03 10.352 0 18.327-7.8739 18.327-18.17 0-10.295-8.022-18.172-18.327-18.172zm41.352 4e-3c-10.539 0-18.28 8.1585-18.28 18.17 0 10.152 7.9291 18.172 18.327 18.172 7.7393 0 13.864-4.6518 16.143-10.061l-4.2266 2e-3c-0.85444 1.3283-4.6023 6.5945-11.963 6.5945-8.1676 0-14.387-6.4535-14.387-14.757 0-8.16 6.1735-14.659 14.387-14.659 6.7895 0 10.775 4.6972 11.963 6.7842h4.2266c-2.0419-4.4591-7.5012-10.246-16.19-10.246zm-290.73 0.61282v35.111h3.7988l-0.0957-29.56 20.225 29.56h3.7969v-35.111h-3.7969l0.04687 29.323-19.987-29.323zm31.969 0v35.111h18.641v-3.4643h-14.748v-12.526h14.652v-3.4642h-14.652v-12.192h14.748v-3.4643zm98.03 0v35.111h19.465v-3.4643h-15.57v-12.526h15.476v-3.4642h-15.476v-12.192h15.57v-3.4643zm182.38 0v35.111h3.8944v-11.443l3.584-3.7414 15.69 15.184h4.8907l-18.254-17.604 16.78-17.507h-4.2716l-18.418 19.035v-19.035zm33.094 0v35.111h19.469v-3.4643h-15.575v-12.526h15.476v-3.4642h-15.476v-12.192h15.575v-3.4643zm27.895 0v3.4643h11.324v31.647h3.9413v-31.647h11.367v-3.4641zm-302.66 2.8476c8.3565 0 14.434 6.6894 14.434 14.708 0 8.0201-6.0782 14.708-14.387 14.708-8.2148 0-14.436-6.4528-14.436-14.708v-0.0488c0-8.112 6.1274-14.659 14.389-14.659zm98.649 0c8.3565 0 14.434 6.6894 14.434 14.708 0 8.0201-6.0752 14.708-14.385 14.708-8.214 0-14.434-6.4528-14.434-14.708v-0.0488c0-8.112 6.1232-14.659 14.385-14.659zm80.016 0c8.358 0 14.434 6.6894 14.434 14.708 0 8.0201-6.0794 14.708-14.389 14.708-8.2148 0-14.434-6.4528-14.434-14.708v-0.0488c0-8.112 6.1285-14.659 14.389-14.659zm-85.693 47.697c-8.5357 0-16.077 6.3734-16.077 16.238v0.041c0 8.2424 6.6278 15.694 16.034 15.694 9.3634 0 16.16-7.2408 16.16-15.984 0-8.7435-6.8364-15.988-16.117-15.988zm81.842 0c-8.5346 0-16.074 6.3734-16.074 16.238v0.041c0 8.2424 6.6316 15.694 16.035 15.694 9.3634 0 16.158-7.2408 16.158-15.984 0-8.7435-6.8375-15.988-16.12-15.988zm-129.49 4e-3c-9.6956 0-16.035 7.7438-16.035 15.945 0 8.575 6.7128 16.027 16.077 16.027 7.1682 0 13.134-4.5384 14.998-10.908l-6.5038 2e-3c-0.57922 1.1249-3.0664 5.4569-8.5353 5.4569-5.842 0-9.8612-4.9546-9.8612-10.576 0-5.4546 3.854-10.492 9.8204-10.492 4.8896 0.0429 7.6237 3.4971 8.5761 5.6209h6.5038c-1.2011-4.4984-6.2139-11.033-15.039-11.076zm162.13 0.5777v31.358h6.2306v-11.859l8.6642 11.859h6.9415l-9.0176-12.036c1.6359-0.3549 2.385-0.57694 3.1367-0.88804 0.39942-0.17699 1.4598-0.66508 2.4766-1.5555 0.92875-0.84298 1.3262-1.5112 1.6368-1.9966 1.1483-1.9112 1.2363-3.9976 1.2363-4.7505 0-0.8457-0.13149-3.2881-1.5469-5.4667-0.48571-0.75538-1.1492-1.5081-1.8555-2.0883-2.7417-2.3081-5.7914-2.4847-9.2402-2.5723zm-80.134 4e-3v30.809h16.241v-5.4531h-10.068v-25.356zm-34.307 4.8676c6.257 0 9.9024 5.4187 9.9024 10.58 0 5.0778-3.6443 10.49-9.8593 10.49-5.9671 0-9.9863-4.9119-9.9863-10.534v-0.041c0-5.4145 3.8116-10.496 9.9432-10.496zm81.842 0c6.2551 0 9.9024 5.4187 9.9024 10.58 0 5.0778-3.6463 10.49-9.8612 10.49-5.9645 0-9.9844-4.9119-9.9844-10.534v-0.041c0-5.4145 3.8116-10.496 9.9432-10.496zm38.827 0.32791h2.961c2.1226 0.0465 4.2437 0.2228 5.6152 2.0903 0.79608 1.1066 0.84181 2.3087 0.84181 2.7968 0 1.5107-0.62041 2.4433-0.97266 2.8885-1.4589 1.7762-3.6702 1.8639-4.3321 1.8639-0.35603 0.0447-0.66262 0.0449-1.0176 0.0449h-3.0957z" fill="#1a1a1a" stroke-width=".7053"/>
 <style type="text/css">.st0{fill:#FC0C18;}
	.st1{fill:#FC0C18;}</style>
</svg>
