<?xml version="1.0" encoding="UTF-8"?>
<svg width="480" height="320" version="1.1" viewBox="0 0 480 320" xmlns="http://www.w3.org/2000/svg">
 <defs>
  <linearGradient id="a" x1="81.598" x2="81.598" y2="84.667" gradientTransform="matrix(3.7795 0 0 3.7795 -.056445 0)" gradientUnits="userSpaceOnUse">
   <stop stop-color="#fff" offset="0"/>
   <stop stop-color="#e6e6e6" offset="1"/>
  </linearGradient>
 </defs>
 <rect x="-.056445" width="480" height="320" ry="16" fill="url(#a)" stroke-linecap="square" stroke-linejoin="round" stroke-width="2" style="paint-order:stroke fill markers"/>
 <path d="m44.997 121c-3.4782 0-4.8408 1.3491-4.8408 4.7954v68.409c0 3.4462 1.3627 4.7936 4.8408 4.7936h40.66c3.4782 0 4.8389-1.3474 4.8389-4.7936v-68.409c0-3.4462-1.3609-4.7954-4.8389-4.7954zm58.084 0c-3.4789 0-4.8408 1.3491-4.8408 4.7954v68.409c0 3.4462 1.362 4.7936 4.8408 4.7936h30.032c9.2553 0 16.76-7.4351 16.76-16.604v-44.791c0-9.1683-7.5039-16.604-16.76-16.604zm57.763 0c-1.782-5.9e-4 -3.2266 1.431-3.2266 3.1956v28.336s0.62649 2.1486 1.4198 2.7493c0.95524 0.73519 2.2204 2.0783 3.7564 3.3568 4.0275 3.3436 8.9439 7.8965 9.0217 10.262v27.516c0 1.4251 1.1685 2.5827 2.6077 2.5827h10.274c1.4393 0 2.6077-1.1576 2.6077-2.5827v-27.516c0.0773-2.3654 4.9962-6.9184 9.0236-10.262 1.5355-1.2786 2.8012-2.6223 3.7564-3.3568 0.79393-0.60072 1.4198-2.7493 1.4198-2.7493v-28.336c0-1.7641-1.4459-3.1956-3.2267-3.1956s-3.2284 1.4316-3.2284 3.1956v23.656c0 4.0788-15.488 14.067-15.488 14.067s-15.491-9.9881-15.491-14.067v-23.656c0-1.7641-1.4459-3.1956-3.2267-3.1956zm53.246 0c-3.4789 0-4.8389 1.3491-4.8389 4.7954v31.647c0 3.5101 2.2636 5.7536 5.8076 5.7536h24.525c2.4913 0 4.518 2.0091 4.518 4.4765v20.458c0 2.4679-2.0267 4.4746-4.518 4.4746h-10.326c-2.4907 0-4.518-2.0067-4.518-4.4746v-9.5905c0-2.1169-1.736-3.8351-3.8725-3.8351h-7.7446c-2.1364 0-3.8725 1.7188-3.8725 3.8351v15.665c0 3.4462 1.3602 4.7954 4.8389 4.7951h34.207c3.4794 0 4.8389-1.3491 4.8389-4.7951v-33.565s-6e-3 0.21108-0.0249 0c-0.25815-3.1398-2.4591-5.116-5.7827-5.116h-25.815c-2.4913 0-4.518-2.0073-4.518-4.4746v-19.181c0-2.4679 2.0273-4.4746 4.518-4.4746h19.362c2.4914 0 4.518 2.0073 4.518 4.4746v9.5905c0 2.1163 1.7366 3.8351 3.8725 3.8351 2.1358 0 3.8706-1.7194 3.8706-3.8351v-15.663c0-3.4462-1.3596-4.7954-4.8389-4.7954zm51.632 0c-3.4788 0-4.8389 1.3491-4.8389 4.7954v31.647c0 3.5101 2.2636 5.7536 5.8076 5.7536h24.525c2.4913 0 4.518 2.0091 4.518 4.4765v20.458c0 2.4679-2.0267 4.4746-4.518 4.4746h-10.328c-2.4914 0-4.5162-2.0067-4.5162-4.4746v-9.5905c0-2.1169-1.7366-3.8351-3.8725-3.8351h-7.7465c-2.1364 0-3.8706 1.7188-3.8706 3.8351v15.665c0 3.4462 1.3602 4.7954 4.8389 4.7951h34.207c3.4795 0 4.8408-1.3491 4.8408-4.7951v-33.565s-8e-3 0.21108-0.0268 0c-0.25875-3.1398-2.4585-5.116-5.7827-5.116h-25.815c-2.4907 0-4.518-2.0073-4.518-4.4746v-19.181c0-2.4679 2.0273-4.4746 4.518-4.4746h19.362c2.4913 0 4.518 2.0073 4.518 4.4746v9.5905c0 2.1163 1.7366 3.8351 3.8725 3.8351 2.1358 0 3.8725-1.7194 3.8725-3.8351v-15.663c0-3.4462-1.3615-4.7954-4.8408-4.7954zm51.632 0c-3.4789-1e-3 -4.8389 1.3491-4.8389 4.7954v68.409c0 3.4462 1.3602 4.7936 4.8389 4.7936h34.853c0.89073 0 1.6124-0.7161 1.6124-1.5978v-1.5978c0-1.7641-2.7366-3.1974-4.518-3.1974h-14.779c-2.8846 0-5.2263-2.3204-5.2263-5.1779v-19.052c0-2.8575 2.3415-5.1798 5.2263-5.1798h17.685c0.89072 0 1.6124-0.71667 1.6124-1.5978v-3.1957c0-0.88236-0.72234-1.5978-1.6124-1.5978h-26.416c-3.214 0-5.5328-2.297-5.5328-5.4807v-17.172c0-3.1838 2.319-5.4792 5.5328-5.4792h26.416c0.89072 0 1.6124-0.7161 1.6124-1.5978v-4.4746c0-0.88172-0.72234-1.5996-1.6124-1.5996zm47.437 0c-1.7808 0-3.2267 1.431-3.2267 3.1956v28.336s0.6271 2.1486 1.4216 2.7493c0.95406 0.73519 2.2185 2.0783 3.7546 3.3568 4.0267 3.3436 8.9462 7.8965 9.0236 10.262v27.516c0 1.4251 1.1667 2.5827 2.6059 2.5827h10.276c1.4386 0 2.606-1.1576 2.606-2.5827v-27.516c0.0786-2.3654 4.9973-6.9184 9.0236-10.262 1.5354-1.2786 2.8018-2.6223 3.7564-3.3568 0.79328-0.60072 1.4198-2.7493 1.4198-2.7493v-28.336c0-1.7641-1.4458-3.1956-3.2267-3.1956-1.7814 0-3.2267 1.4316-3.2267 3.1956v23.656c0 4.0788-15.489 14.067-15.489 14.067s-15.491-9.9881-15.491-14.067v-23.656c0-1.7641-1.4459-3.1956-3.2267-3.1956zm61.368 0c-7.4854 0-12.761 4.2701-13.348 11.059-0.0627 0.72763 0.53775 1.3213 1.2683 1.3213h4.9636c0.73058 0 1.3045-0.59743 1.4228-1.3175 0.47573-2.895 2.6109-4.6186 5.6379-4.6186 3.3321 0 5.8129 2.1028 5.8129 5.4844 0 3.0621-1.8526 5.1666-5.2959 8.5296l-12.53 11.774a3.0583 3.0583 0 0 0-0.96401 2.2287v3.216a1.3228 1.3228 0 0 0 1.3228 1.3228h24.381a1.3228 1.3228 0 0 0 1.3228-1.3228v-4.0044a1.3228 1.3228 0 0 0-1.3228-1.3228h-14.597v-0.26396l5.5347-5.5037c7.7934-7.214 9.885-10.82 9.885-15.197 0-6.669-5.3688-11.385-13.495-11.385zm-372.45 6.393h23.234c3.5434 0 5.8095 2.2436 5.8095 5.7536v19.865c-6.9959 0.50539-9.0361 5.0131-9.0361 7.6278v27.489c0 2.4679-2.0267 4.4765-4.518 4.4765h-15.491c-3.5428 0-5.8076-2.2429-5.8076-5.7536v-53.703c0-3.5101 2.2661-5.7536 5.8095-5.7536zm65.832 0h13.38c5.0857 0 9.2092 4.0853 9.2092 9.123v46.964c0 5.0377-4.1235 9.123-9.2092 9.123h-13.38c-2.4914 0-4.518-2.0067-4.518-4.4746v-56.262c0-2.4679 2.0273-4.4746 4.518-4.4746z" fill="#1a1a1a" stroke-width=".60597"/>
 <style type="text/css">.st0{fill:#FC0C18;}
	.st1{fill:#FC0C18;}</style>
</svg>
