<?xml version="1.0" encoding="UTF-8"?>
<svg width="480" height="320" version="1.1" viewBox="0 0 480 320" xmlns="http://www.w3.org/2000/svg">
 <defs>
  <linearGradient id="a" x1="81.598" x2="81.598" y2="84.667" gradientTransform="matrix(3.7795 0 0 3.7795 -.056445 0)" gradientUnits="userSpaceOnUse">
   <stop stop-color="#fff" offset="0"/>
   <stop stop-color="#e6e6e6" offset="1"/>
  </linearGradient>
 </defs>
 <rect x="-.056445" width="480" height="320" ry="16" fill="url(#a)" stroke-linecap="square" stroke-linejoin="round" stroke-width="2" style="paint-order:stroke fill markers"/>
 <path d="m335.08 49.999c-0.33978 9.79e-4 -0.70402 0.05186-1.0238 0.01058h-1.472c-1.9977 1.3866-0.89768 5.7059-4.9228 5.1749-0.33543 1.8972 0.79431 4.56-2.8805 4.5808-1.449 0.01096-0.97712 1.7034-0.99197 2.6975-0.0776 5.9089-0.0919 11.822-0.12733 17.731l-0.0849 0.0079c0.28112-0.01096 0.56368-0.02117 0.84612-0.03175 2.8043-0.05703 5.6171-0.28101 8.4079-0.11671 2.64 0.15345 3.493-0.90455 3.2757-3.3897-0.14815-1.6921-0.17574-3.4219 0.0189-5.1057 0.16857-1.4449-1.1152-3.7334 1.7638-3.9492 2.9523-0.22409 1.7889 2.2246 2.2492 3.6152 3.5634-0.45766 4.7796 1.1722 4.2626 4.5755-0.21203 1.4089-0.0854 2.8659-0.10885 4.3049 8.1562-0.3095 8.1396-0.30826 8.1642-8.6415 0.0189-6.6814 0.0903-13.365 0.13796-20.047-7.7938 0.1073-7.7945 0.10927-8.3947 8.1214-0.17651 1.5712 0.98026 3.871-2.1405 3.8249-3.055-0.04641-1.7922-2.3367-2.0583-3.8354-3.1756 0.42569-4.4549-0.8948-3.9466-4.0977 0.2298-1.4287 0.14967-2.9074 0.20939-4.3631-0.11792-0.93195-0.61678-1.0679-1.183-1.0662zm4.9202 9.5274c8e-3 -9.6e-4 0.0151-0.0017 0.0227-0.0027l-0.0423-0.10345c8e-3 0.03515 0.0151 0.06981 0.0227 0.10609zm4.2917 20.577h-3e-3l3e-3 0.04774c3e-4 -0.01587-2.7e-4 -0.03175 0-0.04774zm-191.09-28.922c-0.50381 0.09506-1.008 0.1861-1.5145 0.28116v0.0027c0.71161 3.7047-1.9798 3.1049-3.9708 3.8275 0.038 1.8374 0.18512 3.7931-2.2254 4.3525-1.1177 0.25939-1.228 0.99923-1.2307 1.8779-0.011 4.0089-0.0106 8.0209 0 12.031 1e-3 0.8474-0.02 1.9548 1.1113 1.9548 3.7194 0.0027 2.6003 2.5652 2.594 4.5649 5.98-0.02457 11.957-0.07888 17.935-0.05836 1.6432 0.0042 2.9591-0.12181 2.7718-2.281-0.0761-0.87186 0.0748-1.9796 1.1856-1.8858 3.6503 0.30826 2.9877-2.2078 3.0051-4.3154 0.0475-5.4705 0.0907-10.94 0.13527-16.413-2.557 0.44908-4.7743 0.41219-4.7716-3.1404 0-0.25531-0.72696-0.51382-1.114-0.77185-4.6375-0.0098-9.2742-0.02003-13.912-0.02646zm19.798 3.9386c0.0204-0.0036 0.0405-0.0068 0.061-0.01058l-0.061-0.01323c-7e-5 0.0079 7e-5 0.01587 0 0.02381zm-25.033 24.953c-6e-3 3e-5 -0.0125-1.2e-5 -0.0185 0l0.0185 0.05571c-1.4e-4 -0.01814-6e-5 -0.03742 0-0.05571zm79.419-28.887c-4.6269 0.0072-9.2519 0.01436-13.877 0.02116-0.73875 0.3436-5.0014 3.511-5.0502 5.0131-0.11002 3.4045-2.0611 3.5536-4.5407 3.3499 8e-3 6.8443 0.0212 13.693 0.0318 20.543 2.5653-0.03402 5.2097-0.01663 7.6868-0.0398 4.0184-0.03802 5.2796-1.1308 4.6522-4.8272-0.52827-3.1207 0.88887-4.196 3.8752-3.7452 2.2014 0.33271 4.6314 0.96903 4.3869-2.7479-0.0557-0.84604 0.78644-1.2026 1.5782-1.1538 1.8089 0.1127 2.3338-0.83871 2.2943-2.4561-0.0299-1.2059 0.74135-1.8241 1.8726-1.7453 2.4512 0.17246 2.3895-1.4142 2.3474-3.09-0.0436-1.7016 0.19218-3.0985-0.0291-5.1137-4.6756 0.40199-4.4077-1.4791-5.2278-4.0078zm44.092 0.07427c-0.13977 1.392-0.0677 2.0428-0.18036 2.9866-1.1532 0.90708-2.3803 0.47191-3.411 0.89121-0.0151 1.4677-0.0623 2.6695-0.49069 3.4614-0.57563 1.0632-1.976 1.302-3.9814 0.90179 0.0386 6.9301 0.27394 13.561 0.31034 20.495-0.0421 0.27039 3.6718 0.06444 5.4425 0.0398 6.483-0.08961 12.976-0.23323 19.45 0.04244 3.6169 0.15443 4.6208-1.1852 3.8857-4.4243-4.021-0.02268-8.0614 0.36204-12.058-0.07691-1.464-0.16161-3.5787 0.54705-4.1749-0.78244-0.85035-1.8958-0.24616-4.3207 0.0132-6.4637 0.11135-0.93297 1.3824-0.7477 2.2094-0.75594 1.9433-0.02268 3.9141-0.20455 5.8246 0.03439 3.0963 0.38838 4.6163-0.62676 4.2251-3.8751 0-0.0026 0.14854-0.02646 0.14854-0.02646-2.7676-0.19555-9.0176-0.39666-9.3762-0.33418-3.8948 0.67358-3.2037-2.0541-3.334-4.3234-0.1426-2.5069 0.10129-4.2259 3.4189-3.9175 3.2742 0.30281 6.596 0.08957 9.8986 0.05571 1.3947-0.01361 3.0883 0.42897 3.0529-1.9734-0.0367-2.3887-1.7423-1.8782-3.1139-1.9203-5.8586-0.18323-11.91 0.61874-17.76-0.03439zm21.026 24.394c0.0219 1.25e-4 0.0442-1.47e-4 0.0663 0l-0.0716-0.02381c2e-3 0.0079 3e-3 0.01587 5e-3 0.02381zm-29.089-16.153c-7e-5 -0.01247 7e-5 -0.02457 0-0.03704l-0.0159 0.03439c5e-3 0.0011 0.0106 0.0016 0.0159 0.0026zm4.4719-4.3631c7e-5 -0.0072-8e-5 -0.01398 0-0.02117l-0.061 0.04509c0.0204-0.0091 0.0406-0.0155 0.061-0.02381zm-47.713-0.39787c0.85977-0.02608 1.8598 0.14264 2.9998 0.50661 1.9067 0.60839 1.3775 2.1801 1.2254 3.3181-0.21048 1.5794 1.2967 4.0312-1.3474 4.5622-1.8646 0.37345-2.9204 0.79544-2.8592 2.8433 0.0448 1.5359-1.0741 1.6382-2.2652 1.6259-1.3078-0.01625-1.6379-0.78973-1.6339-1.8938 7e-3 -1.4558 3e-3 -2.91 3e-3 -4.3657h-0.0132v-1.0875c1e-3 -3.5953 1.3117-5.4304 3.891-5.509zm-59.853 0.30501c0.11611 4.5e-4 0.23354 0.0021 0.35543 0.0053 3.52 0.09369 4.6492 1.1258 3.9281 4.4111 0.0896 4.696 0.13954 9.3921 0.29708 14.084 0.0557 1.6419-3.2366 1.7967-3.8884 2.0344-4.7989 0.36397-4.8004 0.36219-4.806-4.4534-1e-3 -3.7726 0.23108-7.5628-0.0663-11.312-0.27496-3.4521 0.58061-4.783 4.1802-4.769zm118.8 29.006c-1.2688 0.0098-2.5844 0.86154-3.8937 1.5888-3.1112 2.9754-10.631 9.9273-11.421 10.18-4.3593 1.3933-4.4874 1.8176-3.4242 6.1428 0.53643 2.1864-13.705 32.358-15.326 39.798-0.30013 1.3784-7.0167 7.8497-8.1003 8.0235-2.549 3.5417-2.1611 7.7359-2.6391 11.74-0.1073 0.90308-0.0456 2.0432 0.88059 2.1192 4.9039 0.40199 2.1542 4.3113 1.74 6.6894-1.6188-2.496-2.754-4.2247-5.1511-3.7345l0.0291-0.0344c-2.0696 1.7573-3.2764 2.6327-4.8884 3.3022-2.0397 0.84877-7.5303 2.3072-8.0315 2.4932-7.3674 2.7432-28.901 5.4236-29.195 2.3898-0.15481-1.6052 1.2557-18.232 2.7903-23.444 1.7532-5.9456 7.392-7.3704 12.782-8.18 5.6753-0.85012 11.421-1.2158 17.142-1.74 0.82023-0.0747 8.2481 0.69834 8.7398-4.0872 0.20912-2.0221-0.25176-3.8604-0.99731-5.6814-0.29605-0.86234-3.1323-2.073-4.2705-1.7824-2.2815 0.12359-10.434 0.54712-11.315 0.68696-5.5964 0.89628-11.085 1.9973-15.249 6.3526-0.74555 0.77816-1.751 1.6857-2.8646 0.71878-1.3172-1.1421-0.79238-2.7006-0.42436-4.0924 1.6785-6.373 3.4357-12.725 5.0978-19.1 0.45903-1.76 0.6443-3.5882 1.0503-5.3631 1.3743-6.0363 5.8484-8.1074 11.395-8.9888 6.2007-0.98456 12.328-2.1931 18.158 1.5251 2.0886 1.3295 3.9144 0.41828 4.6628-1.8116 0.87454-2.606 1.4869-7.9922 1.419-8.1377-3.0012-6.5631-10.074-4.9901-14.416-4.7187-1.5902 0.1005-14.611 3.138-19.058 5.9017-3.5023 2.1756-8.0474 5.7003-11.156 9.8694-3.4127 4.574-5.108 9.5058-6.1482 14.893-0.57989 2.9904-1.3784 5.9516-2.037 8.9094-1.9053 8.5542-1.6214 15.107-2.8884 22.614-1.6378 9.7005-2.2729 19.549-2.5092 29.404-0.0516 2.128 5.6848 8.7103 8.1483 9.5592 6.2347 2.1457 36.176-6.4558 36.176-6.4558 3.5064-0.65862 7.279-3.3632 10.915-6.8696-0.20095 3.8404-3.2458 14.529-3.5595 16.935-0.18743 1.4504-0.12359 3.1443 1.6975 3.5993 1.8374 0.46038 3.7125 0.33426 4.8246-1.5914 1.2249-2.1117 9.1669-27.542 10.068-30.651 1.1706-4.0399 30.462-13.127 32.569-11.222 1.559 1.4069 1.5205 4.1352 1.2095 6.2755-1.2086 8.3274-1.2383 27.943-1.3103 29.394-0.0584 1.2073-0.17016 2.6246 1.2626 3.1325 1.4354 0.50653 2.4312-0.51231 3.5489-1.3448 1.8483-1.3757 5.7207-40.875 7.615-42.308 1.8673-1.415 2.2854-3.2988-0.16445-5.029-2.7799-1.9637-2.2108-32.842-3.342-38.045-0.3558-1.6459-2.0802-1.9072-3.2386-2.7505-1.1788-0.85825-7.745-4.4814-5.8828-8.7741 0.24851-0.49024 1.8127-5.6617 1.8302-6.339-0.90485-1.4669-1.8645-1.9677-2.8513-1.9601zm132.47 0.1883c-0.98087-0.01852-2.1025 0.13523-3.4004 0.47743-4.0226 1.0579-7.7348 2.9527-11.453 4.7954-2.6142 1.301-16.86 8.2934-19.808 10.076-10.942 6.6202-21.464 13.833-28.638 24.601-6.6731 10.014-11.373 20.824-8.4665 33.444 0.69393 3.0161 0.93721 6.6436 3.3871 8.3629 6.1126 4.2871 47.819 53.125 41.798 61.273-3e-3 0-2.0715 3.4746-2.0715 3.4746-1.6337 1.7356-1.7715 3.3843-3.0874 5.2014-2.807 2.97-5.3847 4.5517-8.4798 6.8644-0.93566 0.69804-2.3282 1.7212-3.2041 0.42701-1.043-1.5468 0.11339-2.2207 0.70817-3.0423 1.8469-2.5599 6.1262-3.3623 8.4291-5.9467 0.22942-0.25939 0.29178-1.1866 8e-3 -1.3739-2.7676-1.7097-5.0974-0.75326-8.058 0.32095-6.4101 2.3276-13.47 4.5082-17.54 7.9944-3.395 2.9075-21.081 14.969-19.283 18.681 0.77 1.5875 18.088 7.1958 24.654 4.6575 4.4001-1.7016 52.789-23.732 57.494-28.945 1.7818-1.9759 3.5803-1.751 2.1856-4.3366-0.98188-1.8211-4.3189-8.2911-5.4134-7.005-1.7342 2.0411-52.887-74.683-46.734-89.11 0.91125-2.1348 14.875-20.111 21.137-22.63 0.4848-0.19419 0.98419-0.10809 1.2042 0.42969 0.35867 0.87458 0.19464 1.6857-0.53314 2.3023-1.574 1.3349-3.2089 2.5966-4.7584 3.9572-4.2357 3.7223-4.5381 5.1163-2.2757 9.9809 4.5698 3.6653 41.737-30.967 39.965-36.049-1.9067-5.4674-3.5184-8.8029-7.7688-8.883zm-299.84 3.3685c-3.2552 0.01625-5.6338 0.20285-6.2332 0.5517-3.1615-0.06111-24.374 6.398-30.325 8.7583-2.5653 1.0171-10.068 9.0134-10.649 12.387-0.63284 3.6517-0.08081 4.7384 3.6497 4.684 4.4625-0.0625 8.6283-1.4575 12.806-2.8142 4.0755-1.3254 8.1453-2.6768 12.509-2.6471 1.244 9e-3 2.5033 0.0374 3.1484 1.3846 0.64233 1.3458-0.09547 2.4324-0.88857 3.3314-2.4214 2.75-4.8582 5.5014-7.4532 8.0897-3.4371 3.4304-4.4511 8.0995-6.0661 12.326-0.82159 2.1457-2.2497 33.135-3.1908 37.534-0.19827 0.93161-2.0493 1.535-3.1669 2.2466-2.1511 1.3729-4.2769 2.7897-6.4902 4.0581-5.4565 3.1248-3.3988 9.1525 1.2307 11 1.4572 0.58394 2.8736 1.287 4.2437 2.053 0.66951 0.37209 1.8867 3.147 2.4747 3.9946 2.7092 3.9084-0.07045 33.834-0.79835 45.358-0.08693 1.3635-13.174 13.713-13.853 14.315-2.8912 5.4648-2.6212 5.2645 3.2333 8.6865 0.77681 0.45358 9.4394-0.83338 10.984 3.3765 0.7347 2.0004 2.2385 3.5197 4.5623 3.6894 2.4431 0.17654 4.6431-0.49202 6.1138-2.5861 0.61924-0.8827 1.1544-1.9144 1.411-2.9574 1.0362-4.1922 3.8453-5.2448 7.7265-4.5808 9.1869-0.99949 38.355-16.238 46.564-20.073 3.6205-1.6894 19.373-22.067 11.941-36.762-0.54728-3.1805-41.941-19.235-48.144-20.471-1.5454-0.30962-3.2749-1.8418-2.4587-4.1748 7e-3 -0.3721 0.0155-0.74585 0.0212-1.1193 0.17518-1.3512 0.95939-2.3254 2.0105-3.0927 6.4573-4.7123 35.663-22.369 38.763-24.434 6.6066-4.3986 12.901-8.9344 19.002-13.753 7.4011-5.8462 6.4713-13.813 9.6574-22.67 1.8524-5.1469-30.694-21.157-37.733-23.187-6.0352-1.7412-17.439-2.5366-24.601-2.5012zm224.64 0.23342c-13.415 0.08077-39.065 2.6577-39.764 9.2912-0.19692 1.8673-1.4575 8.4559 0.74797 7.7132 2.3806-0.80258 4.8866-0.75466 7.2862-1.8275 3.3081-1.4775 6.997-2.1383 10.554-3.021 2.4322-0.60567 3.9371 0.56341 3.8328 3.0051-0.14396 3.3068-0.46723 6.6342-1.0716 9.888-0.68171 3.6666-2.8246 28.53-3.7372 35.056-0.98048 7.0046-0.65397 14.026-0.81694 21.041-0.0559 2.3575-0.65004 4.727-0.0185 7.079-0.47668 3.486 1.0201 6.8371 0.67105 10.374-0.2485 2.496 7.1036 0.64887 8.2197-1.0636-0.7985-6.5578-0.49777-13.129 0.1432-19.657 0.5432-5.5419 0.68255-13.198 1.6631-18.689 2.0479-11.475 1.3288-21.211 3.5356-32.656 0.96964-5.037-1.1334-15.271 0.65779-15.646 3.209-0.67222 16.387 1.7579 16.662-0.59414 0.37077-3.1723 1.4608-7.0148-0.60472-9.6015-0.37569-0.47055-3.4879-0.7192-7.9597-0.69226zm-214.16 18.983c10.478 0.09 26.2 4.2096 29.099 9.3471 3.1099 5.512-6.2544 18.669-8.4 20.986-3.0216 3.2633-34.656 25.778-37.822 22.588-2.1483-2.166-1.8153-2.6995-2.1643-4.594-0.7863-4.2735 3.5399-29.849 6.4135-38.252 0.66406-1.9406 1.3831-3.8929 2.1802-5.7982 0.52419-1.2562 1.4483-2.213 2.6312-2.9097 1.6585-0.97708 4.5679-1.396 8.0606-1.366zm149.54 5.294c0.8798 0.0533 1.7895 0.48306 2.6471 1.2678 0.39927 0.36529 4.7992 6.6021 5.0396 9.538 0.51198 6.2918 1.6983 12.429 1.1008 18.752-0.21728 2.3005-16.99 4.6772-23.845 5.249-0.72654 0.0611-1.5854 0.0234-1.785-0.86203-0.22409-0.99949 10.194-24.063 13.103-30.956 0.89461-2.1194 2.2735-3.078 3.7398-2.9892zm-168.97 85.723c0.19155 0.0125 0.37656 0.064 0.55435 0.15916 5.3046 2.8369 11.263 3.891 16.869 5.9308 7.0061 2.5517 13.816 5.4981 20.097 9.5327 2.0886 1.3404 1.5971 3.5883 0.95751 6.6576-0.6206 2.9741-12.945 10.428-13.62 10.724-5.8518 2.5721-21.655 8.9264-23.779 9.3309-3.0813 0.58666-6.1066 1.5017-9.1215 2.3871-2.0438 0.60159-2.9904-0.22915-2.5436-2.1086 1.2453-5.2297 2.2743-20.835 2.3367-23.314 0.2132-1.6785 1.2857-9.6536 1.3129-9.9836-0.16422-0.92814 4.0626-9.5013 6.9358-9.315zm71.172 11.991c-2.8668 0.0246-5.8008 0.71176-8.3868 2.1378-3.9859 1.6025-6.4286 12.26-6.4585 14.508-0.0543 4.1745-0.61565 8.1917 2.1697 11.705 0.3911 0.49296 2.652 3.3051 2.9495 3.1828 0.62604 1.0022 6.124 3.0715 7.2144 3.2412 5.7932 0.17109 11.003-0.71505 14.829-5.4588 3.9148-7.8346 4.3691-15.673 0.0424-23.524-2.3515-3.7687-7.2499-5.8367-12.36-5.7929zm131.18 0.57559c-0.19517 1e-3 -0.39662 6e-3 -0.60472 0.0106-4.2478 0.0883-14.33 3.5959-14.599 4.6469-4.3226 6.0948-4.3971 12.819-2.9548 19.768 1.5169 4.673 4.9172 7.0469 9.058 9.1664 4.2357-0.49705 8.7326 0.52796 12.941-0.44032l-0.0264 0.0132c1.0851-0.0462 2.0372-0.0283 3.6152-1.5967l0.0132 0.0955c0.97644-4.5672 0.28864-9.1903 0.47743-13.784 0.0638-1.4938-0.78694-1.8222-2.0662-1.8089-3.0501 0.0314-6.102 0.0363-9.1506 0-1.2942-0.0136-2.0428 0.34745-2.0874 1.8195-0.0448 1.5047 0.48752 2.1089 2.037 2.3235 1.696 0.2355 3.6658-0.38154 5.037 1.228 0.85765 2.299 2.5977 4.8317-1.5464 5.8114-3.721 0.99949-6.8062 0.0689-9.3498-2.8699-3.5458-4.0944-3.1146-8.5931-1.3315-13.142 1.483-3.7794 4.7032-4.8295 8.4718-4.732 2.4363 0.0652 4.8684 0.12189 7.302 0.183 0.74199-5.3858 0.81505-6.7362-5.2358-6.692zm-61.723 0.14324c-3.9084 4e-3 -7.818 6e-3 -11.726 0.0106-0.60026 0.0638-1.1994 0.12321-1.7983 0.18565-1.2534 1.0199-0.87084 2.4389-0.88059 3.7372-0.0598 9.767-0.0986 19.535-0.14324 29.303 2.2652 0.79037 4.523 0.94575 6.7635-0.0796 0.0314-3.467 0.0132-6.9411 0.11936-10.405 0.0246-0.85689-0.66523-2.4207 1.35-2.1192 1.6052 0.19555 2.5172 0.17457 3.3048 1.4402 2.2652 3.6449 4.5668 7.2684 6.8538 10.901 4.8605 0.0257 9.7198 0.0523 14.578 0.0796 0.0489-1.851 1.8779-5.6814 1.8779-5.6814 0.0869-1.4543 1.5232-1.4862 2.4561-1.4959 2.295-0.02 4.5963 0.11649 6.8776-0.0451 2.1728-0.15072 3.1269 0.78901 3.2518 2.8301 0.62468 1.3499 1.0377 2.86 1.9176 4.0157 1.775 2.3317 4.529 1.2807 6.5065 0.78773 1.9107-0.47803 0.35029-2.4467-0.053-3.7531-3.5865-7.1894-6.4618-14.654-8.7024-22.368-0.77677-1.8496-1.5546-3.7018-2.3314-5.5514-1.5835-2.864-6.4944-6e-3 -7.2329 0.58617-1.7491 4.3362-3.4933 8.6762-5.2411 13.012-0.94791 5.0547-3.1785 9.6827-5.2331 14.307-1.0294 2.3181-1.8308-0.0678-2.4826-0.96812-1.5984-1.6323-4.9724-6.8636-5.4641-7.2914-3.2782-2.8505 4.0437-8.143 4.427-10.732 0.57717-3.888-0.80043-6.8984-3.9946-9.132-1.4164-1.32-3.2425-1.3392-4.9996-1.5755zm95.679 0.11403c-6.8066 0.0155-13.609 0.0314-20.413 0.0477-0.39655 10.955-0.29473 21.912-0.0557 32.868 7.0685-0.0679 14.135-0.13501 21.203-0.20425 0-1.7681-1e-3 -3.5406-3e-3 -5.3076-3.9534-0.94654-7.9782-0.46151-11.949-0.34745-3.2918 0.0951-2.7588-1.91-2.6869-3.7664 0.072-1.832-0.97535-4.272 2.671-4.1431 3.4901 0.12219 7.0322 0.50782 10.506-0.33687 0-1.5807-4e-3 -3.1644-4e-3 -4.7452-3.3869-1.2942-6.912-0.28629-10.36-0.63393-1.1557-0.11679-2.9206 0.61791-2.7373-1.6975-5e-3 -1.4517-9e-3 -2.9048-0.0132-4.3578-0.0896-1.5984 1.1305-1.2743 2.0105-1.2917 2.42-0.0472 4.8435-0.0147 7.265-0.0159 5.5922-3e-3 5.7747-0.24816 4.5676-6.0688zm-123.59 0.0796c-7.036 0.0557-14.07 0.11009-21.102 0.16709-0.0117 10.954-0.0197 21.911-0.0318 32.868 2.1362 1.009 4.3714 0.42047 6.5726 0.41643 0.0734-3.4086 0.37803-6.8303 0.14853-10.211-0.20507-3.0297 0.97308-3.8249 3.7611-3.5886 2.4268 0.20643 4.8922-0.0847 7.3232 0.0769 2.2095 0.14532 2.3412-1.081 2.2652-2.716-0.0747-1.5536 0.34991-3.2651-2.2439-3.151-3.0474 0.13311-6.1073-0.0215-9.1586 0.0424-1.5549 0.034-2.0388-0.53711-2.1325-2.1219-0.34496-5.7921-0.4184-5.7876 5.4932-5.7876h3.2969c6.0325 0 6.0329-1e-3 5.8088-5.9943zm-41.329 5.3129c3.4664 6.9e-4 7.056 2.412 7.7 8.8614 0.129 1.2942 0.34745 8.4876-2.1988 10.687l-0.73206 0.72676c-3.6531 2.8844-8.2534 2.4356-10.718-1.045-2.5721-3.6286-2.5782-12.278-0.25198-16.012 1.206-1.9353 3.6717-3.2178 6.2014-3.2174zm64.082 0.15382c0.22621-4e-3 0.47157 4e-3 0.74003 0.0238 4.2263 0.32323 6.2763 1.4414 6.3659 4.3895 0.10322 3.3951-2.3458 5.06-6.8829 5.212-4.317 0.14664-2.072-2.456-2.785-4.6681 0.32848-2.2318-0.8307-4.8982 2.5622-4.9572zm31.77 5.4984c0.0469-2e-3 0.0926 1e-3 0.1406 0.0106 1.4327 0.27704 2.7334 6.2215 2.6736 7.8459-0.091 2.4797-7.0106 2.2404-5.6973-1.2334 0.47887-1.3892 1.4279-6.5707 2.8831-6.6228z" fill="#1a1a1a" stroke-width="1.358"/>
 <style type="text/css">.st0{fill:#FC0C18;}
	.st1{fill:#FC0C18;}</style>
</svg>
