<?xml version="1.0" encoding="UTF-8"?>
<svg width="480" height="320" version="1.1" viewBox="0 0 480 320" xmlns="http://www.w3.org/2000/svg">
 <defs>
  <linearGradient id="a" x1="81.598" x2="81.598" y2="84.667" gradientTransform="scale(3.7795)" gradientUnits="userSpaceOnUse">
   <stop stop-color="#fff" offset="0"/>
   <stop stop-color="#e6e6e6" offset="1"/>
  </linearGradient>
 </defs>
 <rect width="480" height="320" ry="16" fill="url(#a)" stroke-linecap="square" stroke-linejoin="round" stroke-width="2" style="paint-order:stroke fill markers"/>
 <path d="m276.43 63.032c-1.046-0.01776-2.1274 0.05847-3.2383 0.23437l-23.219 3.6933c-11.842 1.8844-24.518 14.788-26.844 27.33l-6.4589 34.81c-2.324 12.542 6.185 22.078 18.035 20.193l7.7597-1.2285 23.709-18.254-3.0996-12.309-1.75 0.21094-0.56249 3.0351c-0.38867 2.1055-2.0779 3.8173-4.0586 4.1366l-12.004 1.9062c-1.9827 0.31797-3.116-0.95312-2.7246-3.0566l6.0487-32.601c0.38933-2.0955 2.0773-3.8115 4.0566-4.1288l12.006-1.9062c1.9813-0.31597 3.1133 0.95333 2.7226 3.0488l-0.77342 4.1503 24.268-3.8612 0.92187-4.9687c2.1079-11.366-4.6836-20.264-14.795-20.436zm-71.636 11.389c-0.99756-0.02154-2.0273 0.04721-3.082 0.21483l-46.183 7.3397-9.8397 53.048-42.526 6.7636c-3.5987 0.57313-7.1006 4.1285-7.8046 7.9394l-15.893 85.649c-0.70399 3.8128 1.6416 6.4414 5.2401 5.8729l81.145-12.9 6.5643-35.362 3.3047-0.52929c3.6347-0.57045 3.0999-1.226 2.3945 2.5488l-6.0019 32.345 29.225-4.6464 0.17578-0.96679c0.74599 0.0561 1.7471 0.34507 2.6211 0.21483l22.562-3.5448c-0.83865 4.5095-6.7826 5.6398-15.857 7.08l-10.326 1.6445-5.537 29.836 13.568-2.1562c33.403-3.3032 46.108-20.602 50.188-41.222l40.702-6.4726 6.5585-35.362 3.3106-0.52929c3.6266-0.57647 3.0899-1.2338 2.3945 2.543l-6.0019 32.356 29.221-4.6483 0.39843-2.1426c2.2053 0.97458 4.7849 1.3182 7.5116 0.88865l50.534-8.0331 4.7128-25.414-3.2754-2.3379c2.8367-3.3694 5.05-7.4896 5.6913-10.949l0.79491-4.0077c2.522-14.991-11.272-18.971-17.568-17.969l-29 4.6093c-5.1373 0.81761-10.79 4.4034-14.906 9.1542-3.8052-3.7767-9.6789-5.2435-13.096-4.6991l-32.285 5.1308 3.6152 8.0038 29.115-4.6229c4.2-0.67132 7.0053 1.0085 7.7753 4.3417-0.31132 0.88173-7.7753 40.702-7.7753 40.702l-10.439 1.6621 5.5975-30.148c0.694-3.7754-0.44496-4.9963-4.0702-4.4179l-20.008 3.1835-6.5644 35.36-11.477 1.8301 7.5116-40.487-9.4472-11.166-34.01 12.318 16.119-2.5625 0.25977-0.037-10.25 55.253c-2.6047 14.034-17.551 27.457-30.811 29.566l-13.566 2.1543 2.0566-11.059 10.32-1.6348c9.0726-1.4469 19.287-10.546 21.049-20.061l1.1133-5.9862-26.873 4.2714c-5.7626 0.91848-8.8904-2.59-7.7577-8.6892l4.8202-25.973c0.85199-4.6164 3.7268-8.4487 7.5722-10.441l0.0625-0.69335 13.484-10.396-7.8769 1.3281c-4.1919 0.6633-11.962 3.8111-16.9 10.121-3.7333-4.4641-10.262-6.2113-13.939-5.6269l-28.967 4.6093 4.7206-25.424 21.133-3.3593c11.248-1.7842 23.697-14.464 25.91-26.369l3.1758-17.133c2.004-10.796-4.6751-19.501-14.318-19.707zm-12.83 22.195c1.4661 0.03402 2.1755 1.0936 1.8418 2.8652l-2.6621 14.373c-0.38134 2.0314-1.8307 3.5052-3.748 3.8105l-14.611 2.3223 3.8964-20.998 14.609-2.3242c0.23958-0.03791 0.46437-0.05371 0.67382-0.04883zm60.054 2.2441c-0.93962 0.05631-1.7305 0.81516-1.7774 1.7871-0.0507 1.0407 0.74844 1.9226 1.7871 1.9707 21.415 1.0267 42.307 3.2005 62.103 6.4569 0.10401 0.0162 0.20657 0.0234 0.30858 0.0234 0.904 0 1.6989-0.65165 1.8516-1.5762 0.16999-1.026-0.52615-1.9951-1.5488-2.1621-19.936-3.2804-40.974-5.4672-62.534-6.4999-0.0638-0.0026-0.12681-0.0038-0.18945 0zm86.909 2.9219-58.253 23.301-16.373-17.074 5.2187 23.658-49.599 37.88 58.259-23.307 16.367 17.074-5.2206-23.646 49.601-37.886zm-192.88 2.2012c-0.12483-6e-3 -0.25252 1e-3 -0.38086 0.0216-30.753 4.8415-56.749 12.499-75.179 22.148-19.427 10.174-29.962 22.385-30.465 35.317-0.61933 15.712 13.216 30.902 40.011 43.933 0.26405 0.12998 0.54428 0.19306 0.8203 0.19336 0.69462-7.3e-4 1.3651-0.3925 1.6895-1.0606 0.45332-0.94051 0.06286-2.0633-0.86913-2.5176-24.989-12.152-38.448-26.5-37.898-40.397 0.91332-23.442 40.178-44.093 102.47-53.895 1.0247-0.16233 1.7252-1.1256 1.5625-2.1523-0.14-0.89836-0.89176-1.5487-1.7656-1.5898zm188.03 5.2343c-0.87421-5e-3 -1.6637 0.60316-1.8516 1.4922-0.212 1.0167 0.43649 2.0173 1.4512 2.2324 31.071 6.603 57.096 15.792 75.253 26.574 18.236 10.824 27.677 22.772 27.311 34.55-1.0467 33.654-80.387 59.839-180.93 59.837-0.51932 0-1.0472 5e-5 -1.5625-2e-3h-8e-3c-1.0367 0-1.8728 0.83888-1.877 1.877-2e-3 1.0407 0.83241 1.8847 1.8711 1.8867 0.52536 3e-3 1.047 2e-3 1.5703 2e-3h4e-3c49.217-4.9e-4 95.016-6.2226 129.12-17.553 35.272-11.721 55.004-28.035 55.56-45.933 0.41269-13.229-9.6676-26.337-29.15-37.903-18.505-10.989-44.919-20.332-76.386-27.02-0.12683-0.0265-0.25402-0.0403-0.37889-0.041zm-48.478 4.6347-9.6561 1.5391 7.4355 6.996c0.63333-1.7074 1.0718-2.3579 1.3965-4.1093l0.82421-4.4257zm99.69 26.057c4.0688-0.02 6.775 4.7189 5.9101 9.3611l-1.3164 6.912c-0.92401 4.9544-5.9747 10.218-10.494 10.939l-27.867 4.4335-0.40235 2.5059c-0.52932 2.849 1.3581 5.0743 3.9668 4.6581l31.148-4.9687-2.0996 11.326-35.139 5.5819c-6.2053 0.98459-11.376-3.7038-10.121-10.5l3.9844-21.469c1.2633-6.7907 8.5465-13.461 14.75-14.449l26.848-4.2636c0.28271-0.0451 0.56077-0.067 0.83203-0.0684zm-241.45 5.0585-2.0488 11.053-28.178 4.4843-4.3026 23.205 22.957-3.6483-2.0488 11.049-22.959 3.6464-4.3105 23.215 36.531-5.8105-2.2539 12.154-48.005 7.6288 14.961-80.671 39.658-6.3046zm233.15 6.121c-0.19352-0.0129-0.39904-3e-3 -0.61328 0.0314l-5.5761 0.88085-8.8944 1.418-2.2539 0.3535c-2.6087 0.41816-5.4706 3.399-5.9979 6.2499l-0.24609 1.3379 21.711-3.453c1.714-0.27523 3.3818-2.0103 3.7324-3.8866 0.29995-1.6418-0.5067-2.8414-1.8613-2.9316zm-96.524 5.4159-8.6151 46.413-11.477 1.8223 8.6054-46.407 0.26366-0.0469 11.223-1.7812zm-131.97 7.0311-7.3749 39.78-27.133 4.3124 1.0215-5.5175 21.914-3.4921 5.3339-28.734-21.916 3.4882 1.0215-5.5233 27.133-4.3143zm47.118 6.6366c4.4429 0.13882 6.7117 3.4863 5.7206 8.828l-6.7128 36.196-11.482 1.8184 5.5917-30.138c0.70599-3.7787-0.43497-5.0041-4.0702-4.4276l-20.006 3.1836-6.5585 35.36-11.482 1.8281 8.6093-46.409 0.26758-0.0449 38.09-6.0546c0.72024-0.11471 1.3985-0.16044 2.0332-0.14063zm51.493 2.3613-21.049 3.3417c-3.6347 0.57647-5.3123 2.2426-6.0097 6.0253l-2.5723 13.861c-0.704 3.7847 0.43757 5.0022 4.0722 4.4257l21.047-3.3438 4.5116-24.311zm-11.033 10.338-1.0293 5.5194-3.3046 0.52929c-3.5487 0.56511-5.1125 1.5147-4.5292-1.9648 0.71199-3.5075 2.0099-2.998 5.5585-3.5643l3.3047-0.51952z" fill="#1a1a1a" stroke-width=".66732"/>
 <style type="text/css">.st0{fill:#FC0C18;}
	.st1{fill:#FC0C18;}</style>
</svg>
