<?xml version="1.0" encoding="UTF-8"?>
<svg width="480" height="320" version="1.1" viewBox="0 0 480 320" xmlns="http://www.w3.org/2000/svg">
 <defs>
  <linearGradient id="a" x1="81.598" x2="81.598" y2="84.667" gradientTransform="scale(3.7795)" gradientUnits="userSpaceOnUse">
   <stop stop-color="#fff" offset="0"/>
   <stop stop-color="#e6e6e6" offset="1"/>
  </linearGradient>
 </defs>
 <rect width="480" height="320" ry="16" fill="url(#a)" stroke-linecap="square" stroke-linejoin="round" stroke-width="2" style="paint-order:stroke fill markers"/>
 <path d="m194.27 93.112c-32.536 0-58.912 24.926-58.912 55.668 0 30.745 26.376 55.668 58.912 55.668 24.946 0 46.254-14.657 54.845-35.351h-11.625c-7.9079 14.992-24.285 25.296-43.215 25.296-26.659 0-48.268-20.421-48.268-45.611s21.612-45.611 48.268-45.611c17.242 0 32.361 8.5485 40.898 21.398h12.138c-9.5308-18.611-29.69-31.457-53.038-31.457zm-133.73 2.4925v22.963l-0.07465 0.31457 0.07465-5e-3v83.905h11.703v-30.196h13.284c6.435-1e-3 12.839-0.37153 18.885-2.5458 16.167-5.2645 26.878-21.408 26.344-37.345-0.47063-7.8126-3.2704-15.541-8.2692-21.804-7.4411-9.9401-20.401-15.575-33.184-15.275zm206.62 0v107.21h21.548v-45.57h33.576v-20.825h-33.576v-19.567h35.197v-20.492l30.705 50.748-33.707 55.706h25.936l20.74-34.274 20.74 34.274h25.936l-33.709-55.706 31.163-51.503h-25.936l-18.194 30.073-18.197-30.073h-70.598zm-185.15 9.8608c3.2929 1e-3 6.5836 0.0423 9.8714 0.18659 9.7943 0.613 19.309 5.7796 24.104 13.977 6.0038 9.6997 5.3182 22.825-2.0847 31.683-5.1644 6.5748-13.572 10.781-22.26 10.914-6.4619 0.0842-12.794 0.0403-19.399 0.0403l-0.11463-56.761c3.2945-6e-3 6.5892-0.0413 9.8823-0.0403zm158.72 30.955c1.1702 3.933 1.8074 8.0753 1.8074 12.361 0 2.8943-0.29673 5.7214-0.84238 8.4665h16.251v-20.828zm-180.73 76.04c0.01285 4.7958 0.01285 9.6038 0 14.411 120 0.0238 240 0.0102 360 0.0102v-14.422c-120-0.0117-240 0.0117-360 0z" fill="#1a1a1a" stroke-width="1.2365"/>
 <style type="text/css">.st0{fill:#FC0C18;}
	.st1{fill:#FC0C18;}</style>
</svg>
