<?xml version="1.0" encoding="UTF-8"?>
<svg width="480" height="320" version="1.1" viewBox="0 0 480 320" xmlns="http://www.w3.org/2000/svg">
 <defs>
  <linearGradient id="a" x1="81.598" x2="81.598" y2="84.667" gradientTransform="matrix(3.7795 0 0 3.7795 -.00025177 0)" gradientUnits="userSpaceOnUse">
   <stop stop-color="#fff" offset="0"/>
   <stop stop-color="#e6e6e6" offset="1"/>
  </linearGradient>
 </defs>
 <rect x="-.00025177" y="9.1553e-8" width="480" height="320" ry="16" fill="url(#a)" stroke-linecap="square" stroke-linejoin="round" stroke-width="2" style="paint-order:stroke fill markers"/>
 <path d="m39.999 180v60.053h10.518v-53.609h6.4562c4.656 0 6.7578 0.12525 7.5489 0.45611 1.5614 0.65231 3.1686 2.6395 3.8271 4.7184 0.34545 1.0927 0.63039 3.4577 0.73164 6.0858 0.20874 5.379-0.41537 8.7212-2.0571 10.889-1.7127 2.2627-2.7606 2.6197-7.6021 2.6197h-4.156v6.5189l13.062-0.25254 2.3107-1.0927c4.2217-1.9914 7.2869-6.065 8.524-11.314 0.69094-2.9307 0.68047-9.4828-0.02192-12.628-0.67423-3.0225-2.078-6.0669-3.6571-7.9101-0.66066-0.77023-1.9381-1.8755-2.8305-2.4495-3.0612-1.9642-4.2395-2.0884-19.158-2.0884zm46.481 0v60.053h10.517v-60.053h-5.2592zm131.89 0c-4.7112 1e-3 -9.558 0.16698-10.771 0.36113-2.7376 0.43627-5.9301 1.8839-7.7401 3.5193-1.8244 1.648-3.3774 4.1216-4.2195 6.7215-0.52392 1.6156-0.68886 3.0883-0.70972 6.1924-0.0302 4.2822 0.3298 6.1066 1.8024 8.9903 0.95603 1.8766 3.5079 4.5849 5.2592 5.5975 2.0341 1.1794 4.6352 1.8035 9.1083 2.1625 3.4024 0.27553 4.1956 0.44462 5.3019 1.1783 0.87043 0.57509 1.6323 1.5165 2.2794 2.8294 0.90698 1.8484 0.95811 2.2356 0.95396 6.2131-4e-3 3.967-0.0595 4.3585-0.93513 6.023-0.59074 1.1314-1.4455 2.1208-2.34 2.7157l-1.4132 0.9341-8.9371 0.10749-8.9269 0.096v6.4135h10.155c6.1788 0 10.867-0.15239 11.96-0.38302 4.1582-0.87461 7.618-3.5694 9.2973-7.2412 1.4142-3.0924 1.9141-6.2706 1.7283-11.038-0.19623-5.0264-0.93932-7.765-2.9474-10.771-2.4955-3.7312-5.2853-5.0109-12.373-5.6598-2.6217-0.24003-5.3083-0.66274-5.969-0.94348-1.4591-0.61787-2.8232-2.173-3.4244-3.9012-0.59282-1.7043-0.58552-6.6387 0.0219-8.7242 0.5949-2.0592 2.4057-3.9556 4.3158-4.5275 0.92157-0.2776 4.0203-0.41329 9.2345-0.41329h7.8558v-6.4501h-8.5678zm120.87 0v8.8221h10.518v-8.8221h-5.2592zm-101.14 6.7861 0.10854 21.628c0.0939 21.289 0.10961 21.661 0.83808 23.591 0.40807 1.0781 1.2806 2.6927 1.9381 3.5934 1.3495 1.8369 3.1029 3.1248 5.3227 3.9012 1.0677 0.3747 2.8827 0.51976 6.3288 0.53227l4.8355 0.0208v-6.4456h-3.1593c-3.0069 0-3.2041-0.0407-4.0611-0.93411-0.53019-0.55211-1.05-1.6313-1.2597-2.6301-0.23067-1.0781-0.32667-6.686-0.26718-15.437l0.096-13.74 11.366-0.192v-6.4248h-11.535v-7.4634h-5.2694zm72.635 0v21.363c0 20.662 0.0242 21.437 0.70136 23.495 0.8047 2.4506 2.4401 4.876 4.2195 6.2339 0.67839 0.51976 2.0237 1.2169 2.9881 1.5467 1.3453 0.46443 2.8493 0.60744 6.4248 0.61576l4.6643 0.0106v-6.446h-3.011c-2.5153 0-3.1519-0.10855-3.8899-0.69093-0.48741-0.38094-1.0395-1.2576-1.2316-1.9486-0.21396-0.77234-0.35066-6.8715-0.35066-15.766v-14.504h11.558l-0.0981-3.1384-0.096-3.1394-5.6829-0.0939-5.6787-0.0971v-7.4415h-5.2592zm-9.2772 7.378-11.228 0.18161c-12.073 0.18576-13.324 0.33399-16.868 2.1312-3.9651 2.0091-6.7287 5.9104-7.982 11.259-0.52392 2.2314-0.61576 4.1529-0.61576 12.638 0 9.6332 0.0283 10.083 0.77443 11.927 1.504 3.7166 3.7427 6.0117 6.9657 7.1244 1.4205 0.49156 2.9025 0.60533 7.7828 0.61368l6.0231 0.0125v-6.4478h-4.2195c-3.9953 0-4.2667-0.0491-5.2165-0.8485-0.62831-0.52811-1.1397-1.409-1.3777-2.3546-0.47278-1.8713-0.49576-16.633-0.0325-20.207 0.65858-5.0774 1.8024-7.4581 4.1892-8.7367 0.82136-0.43834 2.2397-0.59489 6.2362-0.69928l5.1734-0.13776v39.432h10.856v-12.672c0-6.9656-0.10855-17.29-0.23482-22.942zm-159.34 0.0113-11.28 0.1691c-12.259 0.1889-14.02 0.41329-17.367 2.2053-9.8903 5.9973-12.1 32.506-4.803 40.195 1.2232 1.2441 3.2532 2.4715 4.95 2.9891 0.46655 0.14404 3.6331 0.27031 7.0398 0.28388l6.1912 0.0325v-6.4426h-4.3355c-4.8907 0-5.5347-0.23066-6.4562-2.3316-0.41227-0.93619-0.57298-2.7783-0.67839-7.7401-0.15239-7.0511 0.33816-14.702 1.1022-17.242 0.68572-2.2804 1.9632-4.0316 3.4661-4.7697 1.098-0.53854 2.1072-0.6398 6.3927-0.64709l5.088-0.0113 0.0856 19.593 0.0856 19.591h10.518v-22.94zm11.324 0.0741c-3.0559 0-5.5514 0.0386-5.5453 0.0856 4e-3 0.047 3.4922 10.287 7.7503 22.764l7.7401 22.688-4.3586 11.241c-2.3953 6.1859-4.3574 11.291-4.3574 11.344 0 0.0522 2.0801 0.0522 4.6224 0l4.6235-0.096 13.517-33.928c7.4385-18.66 13.529-33.964 13.529-34.012 2e-3 -0.047-2.1938-0.0856-4.8888-0.0856-3.5527 0-4.9742 0.11792-5.1632 0.42584-0.14298 0.23274-2.7418 6.8288-5.7664 14.663-3.0236 7.8319-5.6326 14.286-5.808 14.344-0.17745 0.0595-2.58-6.5397-5.331-14.663l-5.0056-14.77zm185.79 0v45.8h10.518v-45.8h-5.2592zm63.613 0.16906-0.0983 22.816h0.0113l-0.096 22.816h10.867v-39.428l5.1734 0.13883c5.492 0.14297 6.4093 0.37156 7.9518 2.0237 1.2086 1.2942 2.0728 3.6518 2.4579 6.7204 0.19918 1.6062 0.36321 8.979 0.36321 16.71v13.838h10.514l-0.0113-13.486c-2e-3 -14.304-0.25247-17.698-1.6313-21.576-1.8755-5.2739-5.3269-8.4007-10.94-9.9235-1.8567-0.50411-3.8408-0.59176-13.371-0.61576zm-26.591 0.096c-2.9662 0-5.9218 0.37259-8.0459 1.1032-2.8274 0.97273-4.6027 2.1114-6.3844 4.0924-1.9329 2.15-3.3325 5.0608-4.1541 8.6199-0.50097 2.1813-0.62203 4.0131-0.59074 9.3286 0.0261 5.5933 0.13882 7.0231 0.74207 9.2356 1.0218 3.7531 2.3587 6.28 4.3888 8.3338 1.9997 2.0227 4.9553 3.5715 8.2828 4.3272 1.4966 0.33815 3.5715 0.44564 6.7434 0.36007 5.4667-0.14611 8.0678-0.84956 11.258-3.0309 2.675-1.8285 4.6964-4.7142 5.8424-8.3452 1.6386-5.184 1.9266-13.731 0.66901-20.038-0.6116-3.0643-2.0978-6.3862-3.7552-8.4079-1.5572-1.9006-4.108-3.5673-6.8372-4.4742-2.2074-0.73164-5.1934-1.1042-8.1596-1.1042zm0.12839 6.3186c1.5394 0 3.082 0.29745 4.2928 0.91113 1.5801 0.80156 2.5727 2.1959 3.4348 4.8344 0.56463 1.7252 0.70553 3.296 0.83807 9.0017 0.17311 7.4528-0.16894 10.965-1.3255 13.613-0.81513 1.8713-2.1343 3.3252-3.584 3.9439-0.61995 0.2651-2.2502 0.46549-3.7625 0.46549-2.1448 0-2.9682-0.15239-4.1666-0.78278-0.9414-0.49889-1.8505-1.3516-2.4381-2.3013-1.5332-2.4735-2.0383-5.7184-2.0592-13.028-0.0166-6.9592 0.34235-9.7564 1.625-12.587 0.43419-0.96019 1.3109-2.1322 1.9611-2.6301 1.2357-0.94246 3.2041-1.4403 5.184-1.4403z" fill="#1a1a1a" stroke-width="3.7795"/>
 <g transform="matrix(.97319 0 0 .97319 107.34 -254.47)" fill="#1a1a1a">
  <path d="m142.21 336.37-0.099 89.525-23.986-7.801v-105.23l30.618 8.096c19.599 5.267 31.592 15.507 31.398 33.45-0.195 20.873-9.849 29.257-28.667 23.796v-41.154c-2e-3 -4.976-9.264-5.267-9.264-0.682z"/>
  <path d="m107.1 400.74-11.311 3.805c-7.314 2.537-13.554-3.412-6.826-5.854l5.46-1.947-20.575-6.537c-6.338 2.148-12.288 6.73-11.896 13.168 0.39 6.533 15.309 8.096 26.815 9.947 10.726 1.754 20.477 0.779 29.351-2.342v-6.73zm35.2 25.162 20.965-7.313-21.16-6.729v13.558z" fill-opacity=".75"/>
  <path d="m198.08 406.3 0.389-0.099c9.167-3.218 13.067-7.707 12.092-11.898-1.56-7.021-12.773-10.826-30.033-12.094-12.384-0.877-24.572 1.854-36.468 5.947l-1.95 0.686 21.355 6.633 12.48-4.197c13.067-2.436 18.333 1.854 5.755 5.854l-6.242 2.146zm-79.958-31.013-9.459 3.217 9.459 2.926z" fill-opacity=".3"/>
  <path d="m163.27 418.58 34.812-12.286-22.624-7.022-33.348 11.41v1.17zm-45.146-21.552-11.019 3.705 11.019 3.512zm23.985 5.755v-13.945l21.355 6.631zm-47.682-6.046 23.696-8.485v-6.826l-9.459-2.927-34.324 11.605c-0.097 0-0.292 0.096-0.487 0.096z" fill-opacity=".5"/>
 </g>
 <style type="text/css">.st0{fill:#FC0C18;}
	.st1{fill:#FC0C18;}</style>
</svg>
