<?xml version="1.0" encoding="UTF-8"?>
<svg width="480" height="320" version="1.1" viewBox="0 0 480 320" xmlns="http://www.w3.org/2000/svg">
 <defs>
  <linearGradient id="a" x1="81.598" x2="81.598" y2="84.667" gradientTransform="matrix(3.7795 0 0 3.7795 -.00025177 0)" gradientUnits="userSpaceOnUse">
   <stop stop-color="#fff" offset="0"/>
   <stop stop-color="#e6e6e6" offset="1"/>
  </linearGradient>
 </defs>
 <rect x="-.00025177" y="9.1553e-8" width="480" height="320" ry="16" fill="url(#a)" stroke-linecap="square" stroke-linejoin="round" stroke-width="2" style="paint-order:stroke fill markers"/>
 <path d="m319.05 178c-3.0017-3.9e-4 -5.4353 2.4472-5.4357 5.4667-8.2e-4 3.0203 2.4331 5.469 5.4357 5.4686 3.0024 3.4e-4 5.4361-2.4484 5.4353-5.4686-2.8e-4 -3.0195-2.4338-5.4671-5.4353-5.4667zm-182.31 0.0801v14.232h-4.1522v8.361h4.1522v20.74c-1e-5 2.3578 1.9004 4.2693 4.244 4.2693h12.145v-8.4472l-6.3984-6e-3v-16.557h6.957v-8.4434h-6.9532v-14.15h-9.9938zm61.86 0v47.603h9.6756v-47.603zm14.865 0v47.603h9.6756v-47.603zm-164.46 0.0918c-4.9773 0-9.0115 4.1431-9.0115 9.2538v9.5527c0 5.1107 4.0343 9.2538 9.0115 9.2538h14.643l11.305 2e-3c2.3985 0 4.3419 1.9544 4.3419 4.3672v2.5195c0 2.4128-1.9433 4.3672-4.3419 4.3672h-34.933v8.0409h40.191c4.9776 0 9.0115-4.0588 9.0115-9.0663v-9.3611c0-5.0075-4.0339-9.0663-9.0115-9.0663l-16.32-2e-3h-9.6268c-2.3984-2e-4 -4.3419-2.1644-4.3419-4.6269v-2.5703c0-2.4625 1.9434-4.4591 4.3419-4.4591h31.09v-8.2049h-36.348zm214.57 14.221 14.707 29.266c1.7219 3.0002 4.0611 4.3419 7.9121 4.3419h2.7168c3.851 0 6.192-1.3415 7.914-4.3419l14.705-29.266h-10.869l-13.107 25.486-13.107-25.486h-10.871zm50.589 0v33.29h9.6756v-33.29zm50.778 0 14.705 29.266c1.7219 3.0002 4.063 4.3419 7.914 4.3419h2.7168c3.851 0 6.2695-1.8242 7.5916-4.744l4.5955-14.559 4.5955 14.559c1.3223 2.9198 3.7428 4.744 7.5938 4.744h2.7168c3.851 0 6.1901-1.3415 7.9121-4.3419l14.707-29.266h-10.869l-13.107 25.486-9.0331-25.486h-9.0312l-9.0312 25.486-13.107-25.486h-10.869zm-180.56 0.11327-19.07 2e-3c-4.9765 9e-5 -9.0115 4.0588-9.0115 9.0663v14.883c0 5.0075 4.0339 9.0663 9.0115 9.0663h28.16v-8.0606h-23.369c-1.7914 0-3.4179-1.454-3.4179-3.2401l23.865-6.2831c1.6775-0.45218 2.8457-1.9814 2.8457-3.7284v-2.6367c0-5.0075-4.0358-9.0682-9.0134-9.0682zm172.32 0-19.072 2e-3c-4.9765 9e-5 -9.0115 4.0588-9.0115 9.0663v14.883c0 5.0075 4.0358 9.0663 9.0134 9.0663h28.16v-8.0606h-23.369c-1.7914 0-3.4199-1.454-3.4199-3.2401l23.867-6.2831c1.6775-0.45218 2.8438-1.9814 2.8438-3.7284v-2.6367c0-5.0075-4.0339-9.0682-9.0115-9.0682zm-261.91 0.0566v8.0606h20.994c1.7914 0 3.4199 1.4541 3.4199 3.2401l-23.867 6.2831c-1.6775 0.45218-2.8438 1.9814-2.8438 3.7284v2.6367c0 5.0075 4.0339 9.0682 9.0115 9.0682l19.072-2e-3c4.9765-6e-5 9.0115-4.0588 9.0115-9.0663v-14.881c0-5.0075-4.0358-9.0682-9.0134-9.0682h-25.785zm134.11 0v8.0606h20.994c1.7914 0 3.4199 1.4541 3.4199 3.2401l-23.867 6.2831c-1.6775 0.45218-2.8438 1.9815-2.8438 3.7284v2.6367c0 5.0075 4.0358 9.0682 9.0134 9.0682l19.07-2e-3c4.9765-6e-5 9.0115-4.0588 9.0115-9.0663v-14.881c0-5.0075-4.0358-9.0682-9.0134-9.0682h-25.785zm-58.998 7.6698h10.414c1.6132 0 2.8179 1.1273 3.1211 2.2656l-16.918 4.3007v-3.162c0-1.88 1.514-3.4042 3.3828-3.4042zm172.32 0h10.414c1.6132 0 2.8159 1.1273 3.1191 2.2656l-16.918 4.3007v-3.162c0-1.88 1.516-3.4042 3.3848-3.4042zm-222.86 11.055v3.162c0 1.88-1.516 3.4042-3.3848 3.4042h-10.414c-1.6132 0-2.8159-1.1273-3.119-2.2656l16.918-4.3007zm134.11 0v3.162c0 1.88-1.516 3.4042-3.3848 3.4042h-10.414c-1.6132 0-2.8159-1.1273-3.1191-2.2656l16.918-4.3007zm-6.5333 22.713v17.188c0 3.9897 3.3405 6.8126 7.5175 6.8126h22.271v-6.0918h-22.393c-1.8258 0-3.1698-1.0671-3.1698-3.127v-2.2676h25.572v-4.2947h-8.8826v-1.8398h-16.689v-6.3768l-4.2266-2e-3zm-65.061 0.041v5.7694h26.006v-5.7694zm33.156 0v5.7694h26.41v-5.7694zm-67.567 0.0547v2.5859h-3.2168v5.4588h3.2168v6.7793h4.9999v-6.7793h15.975v3.0448c0 3.8925-3.0667 6.7226-9.1952 6.7226h-11.664v6.0918h10.572c9.9564 0 14.826-6.2804 14.826-13.273v-2.5859h3.2753v-5.4588h-3.2753v-2.5859h-4.5392v2.5859h-15.975v-2.5859h-4.9999zm122.1 2e-3v6.3594h2.8848v-6.3594zm4.3064 0v6.3594h2.8848v-6.3594zm8.6464 6.8923v5.5173h13.203v5.9766h-15.775v5.5154h25.258v-5.5154h-5.7596v-11.494zm-102.67 1.0957v5.4452h17.473v1.25c0 2.0598-1.3441 3.1269-3.1699 3.1269h-14.307v6.0918h14.184c4.1771 0 7.5175-2.8225 7.5175-6.8126v-3.6561h8.2088v-5.4452h-29.906zm33.074 0v5.4452h26.006v1.25c0 2.0598-1.3441 3.1269-3.1698 3.1269h-20.238v6.0918h20.117c4.1771 0 7.5156-2.8225 7.5156-6.8126v-9.1014h-30.23zm93.487 0.62887v5.9766h29.305v-5.9766z" fill="#1a1a1a" stroke-linecap="round" stroke-linejoin="round" stroke-width="7.9997" style="paint-order:stroke markers fill"/>
 <style type="text/css">.st0{fill:#FC0C18;}
	.st1{fill:#FC0C18;}</style>
 <style type="text/css">.st0{fill:#FC0C18;}
	.st1{fill:#FC0C18;}</style>
 <path d="m221.77 53.998c28.654 11.334 45.294 34.755 54.297 60.495v-7.5208c-10.634-25.813-25.694-43.657-38.419-52.974h-15.874zm27.643 0.04055c10.563 10.385 18.76 27.713 26.652 45.524v-8.5421c-5.0948-13.696-11.565-24.952-18.977-36.983h-7.6758zm13.036 0c5.2414 6.8897 9.7262 17.149 13.616 28.765v-28.765zm-38.702 13.601c-6.494 0.05926-12.093 2.4144-15.302 7.4819-9.2107 14.544-3.8423 39.689 11.862 58.371 19.629 23.355 42.146 26.016 50.823 11.748 11.256-18.504-0.39673-43.812-14.376-60.703-8.874-10.721-22.183-16.998-33.006-16.899zm2.2341 19.57c3.3991 0.02079 7.3062 1.821 10.544 5.1307 5.4527 5.574 7.7337 13.643 4.1136 17.921-1.0793 1.2751-2.4957 2.061-4.0985 2.3903-0.24238-5.2308-5.6765-9.3732-12.3-9.3762-1.1104 9e-5 -2.2156 0.11887-3.2858 0.35305-2.9714-4.9542-3.6542-10.571-0.85636-13.876 1.4709-1.7377 3.5577-2.5565 5.8832-2.5421zm25.572 5.8548c3.5463 0.0057 7.7016 1.9714 11.114 5.6069 5.461 5.8171 6.6644 14.109 3.2257 17.628-1.4061 1.4389-3.5157 2.0719-5.8923 1.9201-0.90909-5.3488-5.8413-9.287-11.635-9.2908-0.58314 4e-3 -1.1652 0.048-1.7413 0.13221-3.0203-5.1776-3.2336-10.958-0.50631-13.827 1.3982-1.4706 3.3064-2.1724 5.4342-2.1694zm-20.859 20.197c6.3602 0 11.516 4.0943 11.516 9.1453s-5.156 9.1453-11.516 9.1453c-6.3609 6.7e-4 -11.518-4.094-11.518-9.1453s5.1568-9.146 11.518-9.1453zm24.842 5.1968c6.3594 6.7e-4 11.515 4.0951 11.515 9.1453 1e-3 5.0509-5.1541 9.146-11.515 9.1468-6.3609 0-11.517-4.0955-11.516-9.1468 0-5.0509 5.156-9.1453 11.516-9.1453zm-45.963 7.4547c6.1323 16.77 7.3183 24.101-3.8385 27.958h35.344c-10.267-3.7871-25.774-18.85-31.505-27.958z" fill="#1a1a1a" stroke-linecap="round" stroke-linejoin="round" stroke-width="6.1538" style="paint-order:stroke markers fill"/>
</svg>
