<?xml version="1.0" encoding="UTF-8"?>
<svg width="480" height="320" version="1.1" viewBox="0 0 480 320" xmlns="http://www.w3.org/2000/svg">
 <defs>
  <linearGradient id="a" x1="81.598" x2="81.598" y2="84.667" gradientTransform="matrix(3.7795 0 0 3.7795 -.00025177 0)" gradientUnits="userSpaceOnUse">
   <stop stop-color="#fff" offset="0"/>
   <stop stop-color="#e6e6e6" offset="1"/>
  </linearGradient>
 </defs>
 <rect x="-.00025177" y="9.1553e-8" width="480" height="320" ry="16" fill="url(#a)" stroke-linecap="square" stroke-linejoin="round" stroke-width="2" style="paint-order:stroke fill markers"/>
 <path d="m345.55 100.48c-0.11679-5.6e-4 -0.23887 0.0125-0.367 0.0385l-7.4899 1.5122v4.7909l-0.19237 0.16868-1.3228 1.1748v3.1427l-0.15383 0.16573-1.3613 1.4559v9.2538l-0.2041 0.16868-2.1366 1.7962-0.15988 0.13316h-5.5812l-5.3443 38.887c-0.14097 1.0363-0.676 1.1385-1.1896 0.22492l-6.7472-12.029-13.974 11.686 12.639 21.342 11.328-4.1903v-5.3355l0.22489-0.17163 3.2374-2.4828 0.15382-0.11837h0.1954l4.0365 0.0325 4.3177-3.4002 2.0834-12.319h-5.5842l3e-3 -0.57411 0.034-12.044v-0.2397l0.17159-0.16868 1.5004-1.4678v-3.6103h6.9336l6.1285-36.283c0.15118-0.90281-0.36397-1.5348-1.1808-1.5388zm-8.9991 1.7785-5.2823 1.0683c-1.0227 0.20908-1.9794 1.2275-2.1218 2.2638l-2.4118 17.545h5.0101l1.7756-1.4885v-9.1706l0.1508-0.16573 1.3613-1.4559v-3.2049l0.19541-0.17457 1.3228-1.1719zm14.613 0.49122c-0.96575 1e-3 -1.8347 0.73296-1.9768 1.7045l-3.6754 24.701h7.1853l2.2461-7.0756 0.12737-0.39949h17.797l-4.1401-15.376c-0.27137-1.0121-1.3428-1.927-2.3852-2.033l-14.986-1.5092c-0.065-6e-3 -0.12812-0.0121-0.19238-0.0117zm73.504 7.5579c-1.0409-0.0924-2.3053 0.58802-2.8083 1.5092l-6.9248 12.68h9.6204l4.5899-13.799zm5.6462 0.49421-4.806 14.447-0.13304 0.39061h-11.065l-26.142 47.852c-0.50453 0.91669-1.1374 0.84042-1.4086-0.16868l-4.9568-18.421h-7.8538v21.434h-3.6132l5.8061 19.975c0.29253 1.0061 1.3798 1.9224 2.4207 2.033l8.061 0.85817c1.0394 0.11059 2.3198-0.53945 2.8379-1.45l27.956-48.586c0.5212-0.90603 0.875-0.79687 0.78716 0.24858l-1.672 19.439h7.1879l0.0503-17.726v-0.077l0.0189-0.077 3.3913-12.275 0.11263-0.42021h0.43502l10.055 0.0414 2.2076-24.763c0.0926-1.0439-0.68436-1.9702-1.7252-2.0626zm-141.21 0.3699c-0.133 3e-3 -0.26317 0.0178-0.39062 0.0444l-16.021 3.3173c-1.0272 0.21059-1.4285 1.1226-0.89666 2.0241l6.5991 11.142h5.5487v-7.6082h5.9482l1.0062-1.376 0.17458-0.2338h3.7909l-3.3587-5.9924c-0.44943-0.79812-1.4688-1.3366-2.4-1.3169zm2.5479 8.4487-1.0062 1.379-0.17163 0.2338h-5.3828v7.6082h-6.0193l13.006 21.958c-0.33728-0.2033-0.68005-0.4018-1.0417-0.58299-2.2757-1.1364-5.2294-1.7045-8.869-1.7045-2.7273 0-5.0721 0.59641-7.0371 1.7904-0.50155 0.30757-0.99205 0.62959-1.4678 0.97655-0.44546 0.32878-0.87538 0.67766-1.2784 1.0564-0.3318 0.31061-0.75995 1.0615-1.2902 0.90849-0.37421-0.11063-0.70504-0.52993-0.92625-0.83452-0.53938-0.7409-1.2386-1.3713-1.9886-1.891-1.4227-0.99544-3.2135-1.4974-5.3711-1.4974-1.0849 0-2.105 0.17401-3.0717 0.51492-0.96665 0.34091-1.8331 0.78493-2.5982 1.3228-0.7697 0.54243-1.3973 1.1091-1.8791 1.7045-0.0773 0.0969-0.15341 0.19034-0.23675 0.27817-0.12272 0.12726-0.31362 0.30006-0.50604 0.25153-0.21664-0.0498-0.34658-0.37436-0.3936-0.56523-0.0879-0.33637-0.0969-0.69323-0.13021-1.0387-0.0452-0.44697-0.0891-0.8951-0.13908-1.3406-0.0939-0.89997-0.90811-1.6192-1.8081-1.598l-12.26 0.30482c0.16819 3.4682 0.29688 6.7922 0.38177 9.9787 0.0849 3.1833 0.14132 6.4086 0.17163 9.6767 0.0276 3.2712 0.0276 6.7283 0 10.366-0.0287 3.6394-0.0414 10.378-0.0414 10.378-3e-3 0.90455 0.73633 1.6339 1.6424 1.6187l11.899-0.20122c0.90149-0.0166 1.6552-0.76592 1.6749-1.672l0.47645-23.428c0-0.79846 0.20081-1.6067 0.59777-2.4325 0.39549-0.82575 1.3355-1.237 2.8143-1.237 0.68183 0 1.2232 0.25277 1.6217 0.76645 0.39394 0.51363 0.72347 1.1948 0.9795 2.0478 0.25606 0.85304 0.42414 1.8354 0.51197 2.9415 0.0864 1.1091 0.12726 2.2596 0.12726 3.4535v7.2502c0 1.8727-0.014 3.5111-0.0414 4.9035-0.0287 1.3969-0.0742 2.7012-0.13021 3.9239-0.0561 1.2242-0.10654 2.5775-0.10654 2.5775-0.0348 0.90455 0.67419 1.6611 1.5803 1.6838h0.0238c0.45301 9e-3 0.8993 0.0189 1.3553 0.0295 0.97273 0.0181 1.948 0.0409 2.9238 0.0621 1.1909 0.0242 2.3838 0.0495 3.5778 0.0769 1.1243 0.0242 2.2509 0.0467 3.3736 0.074 0.69089 0.0147 1.4963 0.16932 2.1751 0.0117 0.57271-0.13183 0.44575-0.58703 0.42909-1.0446-0.0166-0.69543-0.14385-1.3702-0.19533-2.0626-0.0818-1.25-0.14132-2.5306-0.17163-3.8381-0.0276-1.3045-0.0524-2.5584-0.0828-3.7523-0.0287-1.194-0.0444-2.1592-0.0444-2.9 0-5.4576 0.22761-9.5225 0.68062-12.198 0.45604-2.6712 1.6488-4.0067 3.5837-4.0067 1.194 0 2.1198 0.49905 2.7758 1.4915 0.65152 0.99393 0.97954 2.6575 0.97954 4.9893 0 2.2166-0.26691 5.0479-0.81086 8.4873-0.54092 3.4439-2.2372 10.89-2.2372 10.89-0.20153 0.8818 0.36808 1.6974 1.2666 1.8111 0.38635 0.0452 0.76494 0.0951 1.1452 0.14204 1.9242 0.24241 3.8449 0.48116 5.7676 0.72203 1.2197 0.15152 2.4394 0.28075 3.6606 0.4232 0.7409 0.0849 1.4741 0.25099 2.2135 0.33735 0.45608 0.0487 1.0375 0.28029 1.4056-0.12725 0.3515-0.39243 0.3295-1.1103 0.41137-1.5921 0.12427-0.73183 0.19982-1.4653 0.26041-2.2017 0.0894-1.1273 0.23599-2.2346 0.3936-3.3558 0.13632-0.94091 0.25897-1.8822 0.38173-2.8261 0.42576-3.2969 0.63919-6.511 0.63919-9.6381-3e-3 -3.356-0.24608-6.4399-0.73096-9.2538-0.0223-0.12964-0.05-0.25383-0.074-0.38173l13.716-11.467-17.232-30.732zm64.248 3.2078-2.2461 7.0726-0.12435 0.39655h-8.1883l-5.9157 39.836 4.8798 0.0295h0.14211l0.12737 0.071 2.6308 1.4352h7.8274l4.2467-30.599c0.14551-1.0379 0.50063-1.0637 0.79604-0.0592l9.9224 34.182h2.8083v-21.431h8.6854l-8.3214-30.933zm-294.24 9.0848c-2.5697 0-4.9935 0.35769-7.2737 1.0683-2.2848 0.71516-4.2992 1.7739-6.037 3.1694-1.7424 1.4-3.1246 3.1241-4.1518 5.1817-1.0257 2.0546-1.5418 4.4485-1.5418 7.1909 0 2.7954 0.58515 5.2634 1.7548 7.4041 1.1712 2.1409 2.6254 4.0407 4.368 5.6935 1.7409 1.656 3.622 3.0977 5.6462 4.3234 2.0258 1.2288 3.9099 2.3724 5.6523 3.4239 1.7394 1.0561 3.1952 2.071 4.365 3.0392 1.1682 0.97122 1.7578 1.9972 1.7578 3.0836 0 1.256-0.33233 2.1095-0.98842 2.5686-0.65454 0.45305-1.613 0.68655-2.8675 0.68655-1.2561 0-2.607-0.23354-4.063-0.68655-1.4561-0.4591-2.8866-1.0412-4.2822-1.7548-1.3985-0.71364-2.6958-1.5418-3.8974-2.4858-1.197-0.94091-1.8969-1.7223-1.8969-1.7223-0.60151-0.67426-1.5597-0.6455-2.1218 0.0651l-6.0813 7.694c2.853 3.9394 6.0643 6.8806 9.6295 8.8187 3.5697 1.9409 7.9763 2.9089 13.228 2.9089 2.6227 0 5.2346-0.35467 7.8331-1.0683 2.5954-0.71516 4.9251-1.7991 6.9781-3.2552 2.0561-1.456 3.7237-3.3104 5.0071-5.5634 1.2833-2.2545 1.9265-4.9243 1.9265-8.0076 0-3.1954-0.58666-5.9486-1.7548-8.2624-1.1712-2.309-2.6411-4.2905-4.4092-5.9482-1.7697-1.6545-3.6664-3.0694-5.6908-4.2406-2.0273-1.1682-3.9254-2.221-5.6935-3.1634-1.7712-0.94242-3.2411-1.8569-4.4092-2.7432-1.1712-0.88486-1.7548-1.8402-1.7548-2.8675 0-0.79846 0.2386-1.4543 0.72797-1.9679 0.48333-0.51515 1.241-0.77234 2.2668-0.77234 0.85758 0 1.8553 0.15836 2.9977 0.47349 1.1394 0.31363 2.3677 0.78278 3.6813 1.4116 1.3121 0.62879 2.655 1.3834 4.0218 2.2668 1.3697 0.88637 2.6071 1.959 2.6071 1.959 0.68636 0.59694 1.6501 0.46178 2.1425-0.30183l4.927-7.6051c-3.2546-3.3091-6.6917-5.8065-10.316-7.4899-3.6257-1.6818-7.7216-2.5243-12.287-2.5243zm366.5 7.5137-3.2493 11.778-0.0503 18.22v0.57112h-8.4219l-2.5686 29.903c-0.0896 1.0454 0.69033 1.989 1.7282 2.0981l6.3477 0.6599 0.73685-10.473 0.034-0.46462 0.45868-0.0592 3.7848-0.50306 0.94401-1.9147 0.15383-0.3196h5.232l4.3945-49.459zm-93.347 0.0178v2.9445l-0.17159 0.16868-1.5004 1.4708-0.034 11.233h4.6314l2.6722-15.817zm-163.12 7.268-14.009 0.30482c0.17121 2.7394 0.33101 5.1038 0.4735 7.0994 0.14093 1.9969 0.257 3.9095 0.3403 5.732 0.0864 1.8257 0.14431 3.707 0.17462 5.6432 0.0242 1.9409 0.0414 4.2251 0.0414 6.8477 0 1.9969-0.65578 3.5755-1.9679 4.7437-1.3106 1.1712-2.8765 1.7549-4.7021 1.7549-1.9379 0-3.3952-0.58669-4.365-1.7549-0.97119-1.1682-1.453-2.5787-1.453-4.2319 0-2.9606 0.13523-5.735 0.42614-8.6381 0.28486-2.85 0.57029-5.4731 0.85818-7.8716 0.34243-2.7379 0.92625-6.2411 0.92625-6.2411 0.14699-0.89545-0.46998-1.6219-1.376-1.6098l-14.607 0.15092c-0.40154 2.8515-0.74203 5.7037-1.0269 8.5553-0.28482 2.453-0.52656 5.0494-0.72503 7.7858-0.20152 2.7379-0.29888 5.19-0.29888 7.3568 0 3.0803 0.37179 5.8548 1.1127 8.3244 0.73939 2.4682 1.8815 4.5672 3.4209 6.2944 1.5379 1.7257 3.5195 3.0572 5.9422 3.9919 2.4242 0.9318 5.3204 1.4027 8.6854 1.4027 0.96816 0 1.963-0.13009 2.9918-0.38767 1.0242-0.2561 2.0094-0.61224 2.9534-1.0683 0.93789-0.45754 1.8056-0.98176 2.6071-1.5802 0.35754-0.26815 0.98665-1.1228 1.5033-0.94401 0.66969 0.23634 0.29299 1.7431 0.29299 2.2431 0 0.90606 0.73927 1.6325 1.6453 1.6128l13.409-0.30183c-0.11361-4.1938-0.24079-8.1188-0.38468-11.784-0.14699-3.6636-0.2897-7.265-0.42909-10.801-0.14396-3.5378-0.28513-7.1402-0.42909-10.819-0.14094-3.6772-0.33438-10.198-0.33438-10.198-0.0276-0.90603-0.79113-1.6325-1.6956-1.6128zm-63.523 0.18051c-3.4121 0-6.452 0.52577-9.1264 1.5773-2.6727 1.053-4.9157 2.5581-6.7351 4.5218-1.8197 1.9621-3.1992 4.3226-4.1371 7.0786-0.9394 2.7606-1.4086 5.8431-1.4086 9.2538 0 2.9591 0.42539 5.7728 1.2784 8.4457 0.85304 2.6742 2.176 5.0188 3.9685 7.0371 1.7879 2.0182 4.0479 3.6267 6.7797 4.8208 2.7288 1.1924 5.9996 1.7874 9.8071 1.7874 2.1606 0 4.2652-0.32953 6.3122-0.97953 2.047-0.65303 3.9224-1.6495 5.6285-2.9859s3.1971-3.0251 4.4772-5.0751c1.2788-2.047 2.3792-5.6757 2.3792-5.6757 0.26362-0.86664-0.23422-1.7756-1.1009-2.0271l-10.02-2.8764c-0.17122 0.9106-0.53859 1.7345-1.1068 2.4739-0.56965 0.73938-1.21 1.3782-1.9206 1.9176-0.71214 0.5424-1.4356 0.9722-2.175 1.2843-0.73939 0.31211-1.422 0.46756-2.0478 0.46756-2.2167 0-4.0214-0.85523-5.4127-2.5598-1.3954-1.7091-2.0922-3.9504-2.0922-6.7411 0-1.4758 0.21192-2.7548 0.63919-3.8381 0.42728-1.0742 0.96563-1.9689 1.6217-2.6841 0.65152-0.70908 1.3908-1.2504 2.2165-1.6217 0.82273-0.36669 1.634-0.55339 2.4325-0.55339 2.3879 0 4.1616 0.6009 5.3295 1.7933 1.1636 1.1955 1.6927 2.4118 1.6927 2.4118 0.35913 0.83029 1.3704 1.3323 2.2461 1.1156l10.349-2.5894c-1.0803-4.7164-3.2726-8.5288-6.5696-11.428-3.297-2.9-7.7337-4.3502-13.305-4.3502zm111.74 1.6187c-2.7303 0-5.0763 0.59641-7.0401 1.7904-0.52123 0.31815-1.0317 0.65876-1.5211 1.0239-0.44243 0.33033-0.87103 0.67918-1.2695 1.0564-0.297 0.28033-0.55506 0.70987-0.98839 0.78716-0.10907 0.0185-0.22367 0.0476-0.34031 0.0355-0.39394-0.0359-0.50426-0.30229-0.70726-0.59777-0.56818-0.82575-1.3036-1.5195-2.1218-2.0922-1.4242-0.99242-3.2134-1.4915-5.3741-1.4915-1.0803 0-2.1021 0.17106-3.0688 0.51194-0.96967 0.33944-1.8345 0.78493-2.6012 1.3228-0.65001 0.45607-1.2092 1.005-1.8288 1.4944-0.30455 0.2409-0.42346 0.5732-0.85228 0.54746-0.43786-0.0287-0.37958-0.59368-0.40838-0.8937-0.0395-0.35909-0.0762-0.71664-0.10949-1.0742-0.0276-0.2621-0.0586-0.52361-0.0858-0.78421-0.0924-0.89997-0.90501-1.6192-1.8111-1.598l-12.26 0.30482c0.17121 3.4682 0.3013 6.7922 0.38767 9.9787 0.0849 3.1833 0.13991 6.4086 0.16868 9.6767 0.0276 3.2712 0.0276 6.7241 0 10.363-0.0287 3.6379-0.0385 10.381-0.0385 10.381-2e-3 0.90455 0.73345 1.6338 1.6365 1.6217l11.899-0.20421c0.90149-0.0147 1.6538-0.77045 1.672-1.672l0.48235-23.431c0-0.79846 0.19786-1.6053 0.59482-2.4295 0.39549-0.82575 1.3355-1.237 2.8143-1.237 0.68334 0 1.2232 0.25126 1.6217 0.76645 0.39391 0.51212 0.72344 1.1948 0.97951 2.0478 0.25757 0.85152 0.42561 1.8339 0.51193 2.9415 0.0833 1.1076 0.12726 2.2566 0.12726 3.4505v7.2502c0 1.8757-0.014 3.5111-0.0414 4.9035-0.0287 1.3984-0.0712 2.7043-0.12726 3.9239-0.0576 1.2243-0.10949 2.5805-0.10949 2.5805-0.0321 0.903 0.67427 1.6596 1.5773 1.6838l13.968 0.29888c-0.11516-0.85152-0.21112-1.9031-0.29594-3.1546-0.0849-1.25-0.14437-2.5291-0.17163-3.8381-0.0276-1.3045-0.0571-2.5584-0.0858-3.7523-0.0302-1.1939-0.0414-2.1607-0.0414-2.9001 0-5.4561 0.22601-9.5195 0.6836-12.195 0.45453-2.6727 1.6444-4.0097 3.5778-4.0097 1.194 0 2.1198 0.49746 2.7758 1.4944 0.65151 0.99394 0.97954 2.656 0.97954 4.9863 0 2.2197-0.26994 5.0506-0.81086 8.4903-0.53938 3.4409-2.2372 10.89-2.2372 10.89-0.20005 0.88029 0.36805 1.6929 1.2666 1.8111l14.062 1.7548c0.62271-3.5242 1.15-6.9346 1.5773-10.236 0.42576-3.2939 0.64218-6.5079 0.64218-9.6381 0-3.353-0.24318-6.4399-0.72503-9.2564-0.48635-2.8091-1.3854-5.2259-2.6929-7.2442-1.3076-2.0167-3.0984-3.5954-5.3711-4.735-2.2757-1.1363-5.2297-1.7045-8.869-1.7045zm115.28 21.887-3.4919 2.7521-0.15685 0.12431-0.20107-3e-3 -4.0396-0.0325-2.8557 2.1928v5.5665l-0.37001 0.1361-11.503 4.2554 5.732 9.6914c0.53484 0.90002 1.8167 1.4767 2.8409 1.2843l8.1143-1.5388c1.0272-0.19242 2.0112-1.198 2.1839-2.2313zm4.0721 0.87299-1.1304 7.5874 15.654 1.8673 1.1008-7.9162h-7.9604l-0.13001-0.071-2.6308-1.4352zm-1.2962 8.7178-1.82 12.227c-0.15458 1.0378 0.57336 1.9569 1.6158 2.0478l12.086 1.0594c1.0424 0.0894 2.0119-0.683 2.1544-1.7193l1.6276-11.745zm90.814 10.079-0.92327 1.8702-0.13606 0.27224-0.29896 0.0414-3.628 0.47644-0.7073 10.047 7.0016 0.72208v3e-3c1.0394 0.10908 1.9687-0.65771 2.0626-1.6986l1.0446-11.733z" fill="#1a1a1a" stroke-width="1.5151"/>
 <style type="text/css">.st0{fill:#FC0C18;}
	.st1{fill:#FC0C18;}</style>
</svg>
