<?xml version="1.0" encoding="UTF-8"?>
<svg width="480" height="320" version="1.1" viewBox="0 0 480 320" xml:space="preserve" xmlns="http://www.w3.org/2000/svg"><defs><linearGradient id="a" x2="0" y1="200" y2="300" gradientUnits="userSpaceOnUse"><stop stop-color="#fff" offset="0"/><stop stop-color="#e6e6e6" offset="1"/></linearGradient></defs><rect width="480" height="320" ry="16" fill="url(#a)"/><path d="m100.24 112.99c-36.718 0-46.365 13.641-50.949 13.641-0.95858 0-1.7616-0.36513-2.3867-0.74023l-2.1992 0.95898 16.756 16.932 1.8945-1.209c-0.31258-0.61474-0.625-1.3657-0.625-2.1992 0-4.0323 14.734-13.023 36.094-13.023 16.619 0 24.215 5.5734 24.215 11.189 0 5.2097-5.8668 10.701-27.539 10.701-8.8669 0-11.41-0.96951-12.035-3.043h-2.1445v20.006h2.1973c0.50013-2.1985 3.0106-3.5332 14.889-3.5332 22.943-1e-5 31.166 7.2847 31.166 13.984 0 7.6582-10.911 13.023-30.854 13.023-26.298 0-43.844-9.8666-43.844-14.607 0-0.62517 0.15625-1.0839 0.15625-1.459l-2.3867-1.084-12.648 20.932 2.5312 0.74023c0.969-0.58349 1.8968-1.084 3.168-1.084 5.366 0 14.389 10.951 55.691 10.951 30.695 0 50.639-11.221 50.639-26.912 0-11.534-9.1788-18.485-22.484-22.143v-0.25c10.117-2.3235 15.973-8.7732 15.973-17.057 0-14.014-19.475-24.715-45.273-24.715zm109.96 0c-33.707 0-45.575 17.275-50.014 17.275-0.93774 0-1.5839-0.2499-1.8965-0.625l-2.1992 1.334 18.693 17.297 2.043-1.459c-0.64599-0.61475-1.2715-1.3656-1.2715-2.4492 0-5.366 15.504-17.057 33.707-17.025 10.763 0 22.641 4.1581 22.641 12.066 0 20.933-79.447 18.974-79.447 63.412h101.59c3.4697 0 4.7422 0.95919 4.7422 2.668h2.1973v-20.434h-2.1973c0 1.9588-1.2725 2.918-4.7422 2.918h-76.279c16.16-20.464 76.592-17.057 76.592-49.43 0-16.9-24.526-25.549-44.156-25.549zm60.66 1.1777v1.7402c3.9385 0 5.3676 1.8344 6.3262 2.793l37.332 38.197-39.562 39.072c-3.0112 3.0424-4.0947 4.8652-8.0644 5.1152v1.709h33.695v-1.709c-2.0422 0-3.3125-0.62344-3.3125-1.582 0-1.1149 0.62544-1.4907 1.4277-2.3242l27.996-27.768 23.1 23.506c3.0112 3.0425 5.7109 5.4906 5.7109 6.5742 0 1.2086-0.6257 1.584-3.0117 1.584v1.709h37.02v-1.709c-4.2719-0.12502-5.3872-1.8331-8.5547-5.1152l-39.875-40.771 34.52-34.197c3.0112-2.9174 5.0852-4.9902 10.295-5.1152v-1.709h-35.135v1.6992c1.4274 0 2.6992 0.62541 2.6992 1.584 0 0.71894-0.92611 1.7073-2.1973 3.041l-22.486 22.277-21.516-22.141c-1.5838-1.5838-2.3867-2.5428-2.3867-3.043 0-1.2086 1.2722-1.709 3.3144-1.709v-1.709h-37.334zm141.71 2.209v11.992c0 4.8867 3.9271 8.8262 8.8242 8.8262 4.8867 0 8.8262-3.9291 8.8262-8.8262v-3.0723c0-0.29174 0.18677-0.48047 0.47851-0.48047 0.19797 0 0.38477 0.18876 0.38477 0.38672v11.992h3.8359v-11.992c0-2.3027-1.918-4.2207-4.2207-4.2207-2.3027 0-4.2188 1.918-4.2188 4.2207v3.0625c0 2.782-2.304 5.084-5.0859 5.084s-5.084-2.302-5.084-5.084v-11.889h-3.7402zm4.6055 0v11.992c0 2.3027 1.9161 4.2207 4.2187 4.2207s4.2207-1.918 4.2207-4.2207v-3.0723c0-2.782 2.302-5.0859 5.084-5.0859 2.782 0 5.084 2.304 5.084 5.0859v11.889h3.7422v-11.982c0-4.8867-3.9291-8.8262-8.8262-8.8262-4.8971 0-8.8242 3.9291-8.8242 8.8262v3.0625c0 0.29174-0.18873 0.47851-0.48047 0.47851s-0.47851-0.1868-0.47851-0.38476v-11.982h-3.7402zm2.875 22.631c-4.1261 0-7.4805 3.3563-7.4805 7.4824v12.846h3.7402v-12.846c0-2.1151 1.7293-3.7422 3.7402-3.7422h11.992c2.1151 0 3.7402 1.7312 3.7402 3.7422v12.846h3.7422v-12.846c0-4.1261-3.3563-7.4824-7.4824-7.4824h-11.992zm-0.09376 4.6055c-1.6358 0-2.875 1.2515-2.875 2.877v12.846h3.7402v-11.117c0.0938-0.47929 0.47969-0.86523 0.95898-0.86523v9.3047h3.7402v-13.045h-5.5645zm6.5234 0v13.045h3.7402v-9.3047c0.47929 0 0.86328 0.38594 0.86328 0.86523v11.035h3.8359v-12.764c0-1.6358-1.2515-2.877-2.877-2.877h-5.5625zm-6.4394 17.16c-4.1261 0-7.4824 3.3564-7.4824 7.4824v15.441l22.537 7.7734c0.86481 0.29174 1.4394 1.0512 1.4394 2.0098s-0.57464 1.7304-1.4394 2.0117l-18.795 6.334v-9.9707h-3.7422v15.15l23.037-7.7637c2.4902-0.77104 4.4082-3.0631 4.4082-5.8555 0-2.782-1.8242-5.0851-4.3144-5.752l-20.525-7.002h15.057v-10.543h-3.7402v6.9082h-10.17v-8.6387c0-2.1151 1.7293-3.7402 3.7402-3.7402h11.982c2.1151 0 3.7402 1.7293 3.7402 3.7402v12.367h3.7402v-12.471c0-4.1261-3.3544-7.4824-7.4805-7.4824h-11.992zm0.00977 4.6055c-1.6358 0-2.875 1.2515-2.875 2.877v7.7715h8.4394v-5.9375h-3.7402v2.209h-0.86523v-2.209c0-0.47929 0.38594-0.86524 0.86523-0.86524h8.4395c0.47929 0 0.86328 0.38595 0.86328 0.86524v10.648h3.7422v-12.482c0-1.6358-1.2515-2.877-2.877-2.877h-11.992zm-7.4805 19.277v4.4062l7.959 2.6895h-3.3535v0.10351 8.7305l17.65-5.9492c0.47929-0.18755 0.86328-0.57276 0.86328-1.1562 0-0.47929-0.38401-0.95828-0.76953-1.1562l-22.35-7.668zm8.8359 7.3867 3.834 1.3438-3.834 1.25v-2.5938z" fill="#000"/></svg>
