<?xml version="1.0" encoding="UTF-8"?>
<svg width="480" height="320" version="1.1" viewBox="0 0 480 320" xmlns="http://www.w3.org/2000/svg">
 <defs>
  <linearGradient id="a" x1="81.598" x2="81.598" y2="84.667" gradientTransform="matrix(3.7795 0 0 3.7795 -.00025177 0)" gradientUnits="userSpaceOnUse">
   <stop stop-color="#fff" offset="0"/>
   <stop stop-color="#e6e6e6" offset="1"/>
  </linearGradient>
 </defs>
 <rect x="-.00025177" y="9.1553e-8" width="480" height="320" ry="16" fill="url(#a)" stroke-linecap="square" stroke-linejoin="round" stroke-width="2" style="paint-order:stroke fill markers"/>
 <path d="m39.999 129.8v60.397h399.99v-60.397zm2.3649 2.2788h395.26v55.839h-395.26zm3.5573 3.5559v48.725h388.16v-48.725zm111.84 2.0541h0.98328v9.5954h-0.98328c0-1.0401-0.7022-1.5032-2.3875-1.5032h-33.78v10.289h22.052c1.6853 0 2.3875-0.46303 2.3875-1.5032h0.98328v9.7084h-0.98328c0-0.46219-0.14056-0.8076-0.56228-1.0398-0.35082-0.2307-0.98261-0.34753-1.8253-0.34753h-22.052v11.33h34.412c1.6854 0 2.3875-0.46364 2.3875-1.3873h0.98328v9.4783h-0.98328c0-0.80866-0.7022-1.2715-2.3875-1.2715h-46.212v-0.8095c1.545 0 1.8267-0.46326 1.8267-1.7348v-36.99c0-1.2716-0.28237-1.7334-1.8267-1.7334v-0.8095h45.581c1.6854 0 2.3875-0.4628 2.3875-1.2715zm37.285 0.69226c5.7592 0 11.238 1.098 15.241 2.1389 3.7222 1.3295 6.4604 2.3706 6.9521 2.3706 0.63221 0 1.2649-0.28925 1.5455-0.63572l0.98184 0.34613-6.8107 9.4794-0.98329-0.52131c0.0702-0.2307 0.13985-0.57751 0.13985-0.98184 1e-5 -1.7924-7.5844-5.3756-16.925-5.3756-11.798 0-21.349 4.7985-21.349 14.567 0 10.23 9.5509 15.025 20.366 15.025 8.849 0 14.046-2.4849 16.153-3.7551v-4.7962h-12.079c-1.4047 0-2.2477 0.57796-2.2477 1.3859h-0.98328v-10.172h0.98328c0 0.80866 0.84299 1.3873 2.2477 1.3873h23.385v0.80949c-0.70235 0.11573-1.335 0.57766-1.335 1.8493v11.385c0 0.92515 0.35157 1.2717 1.2644 1.4452v0.8095c-4.4247 2.0803-15.239 6.4747-27.389 6.4747-16.153 0-30.339-6.5915-30.339-21.618 0-15.028 16.573-21.618 31.181-21.618zm-115.94 1e-3c12.22 0 20.788 4.3922 21.631 4.3922 0.91283 0 1.0532-0.23044 1.2644-0.40403l1.1231 0.28819-5.4066 8.6698-1.1231-0.51991c0.07015-0.23146 0.13984-0.52017 0.13984-0.80949 0-0.75152-6.6021-4.7977-18.049-4.7977-10.955 0-15.66 2.774-15.66 6.3575 0 9.4783 41.363-4.391 41.363 16.532 0 7.6297-8.9896 13.526-26.968 13.526-17.135 0-22.051-4.5093-23.666-4.5093-0.42172 0-0.63247 0.28759-0.98328 0.46337l-0.91264-0.17374 5.8292-9.8271 1.1231 0.46336c0 0.23218-0.14128 0.46386-0.14128 0.92534 0 3.4112 9.0599 5.836 18.049 5.836 12.782 0 17.137-3.0038 17.137-6.1852 0-11.327-40.804 2.7172-40.804-16.47 0-9.7107 12.429-13.757 26.054-13.757zm167.2 0.57781h15.31v0.8095c-1.0539 0.11572-1.4763 0.46234-1.4763 0.86743 0 0.4622 0.2821 0.92451 0.63292 1.5032l20.366 35.892c0.98154 1.7924 1.2645 2.1968 2.7379 2.1968v0.80949h-13.975v-0.80953c0.91427 0 1.2644-0.28921 1.2644-0.57781 0-0.63579-0.63141-1.4451-5.3374-9.7111h-24.089c-4.0732 7.5133-5.1269 8.6702-5.1269 9.4216 0 0.52006 0.42172 0.80957 1.0539 0.866v0.80949h-12.499v1e-3h-1e-3v-1e-3h1e-3v-0.8081c1.2644-0.0579 1.6857-0.34658 2.6687-2.1968l19.172-35.488c0.3501-0.57793 0.77136-1.2141 0.77136-1.7334 0-0.63579-0.5599-0.92477-1.4749-1.0398zm49.75 0h135.16v42.077h-135.16zm101.71 3.5248c-9.5214-0.13648-20.904 0.59369-33.105 2.2703 0.753-0.0333 4.5857-0.22923 5.74-0.30376 17.311-1.1132 31.332 2.4032 31.826 8.9964 0.30538 4.0584-4.2198 7.869-11.514 10.907-8.3921 3.4937-19.417 5.2822-19.417 5.2822l-4.6295-15.279v18.777s8.979-1.3865 16.163-3.019c25.302-5.54 43.162-13.712 42.206-20.085-0.70299-4.6821-11.402-7.3179-27.272-7.5454zm-39.795 3.2733c-32.42 5.2622-57.305 15.248-56.179 22.739 1.1219 7.4929 27.842 9.7458 60.386 5.2766-0.75443 0.034-4.2183 0.20039-5.1946 0.26986-17.575 1.2224-31.39-2.3548-32.38-8.9639-0.96635-6.4558 10.62-13.737 27.157-17.778 0.88173-0.21555 4.0672-0.99315 4.0672-0.99315s1.4154-0.36219 2.1474-0.55097zm-104.64 2.4483-8.2874 15.145h16.716z" fill="#1a1a1a" stroke-width=".72332"/>
 <style type="text/css">.st0{fill:#FC0C18;}
	.st1{fill:#FC0C18;}</style>
</svg>
