<?xml version="1.0" encoding="UTF-8"?>
<svg width="480" height="320" version="1.1" viewBox="0 0 480 320" xmlns="http://www.w3.org/2000/svg"><defs><linearGradient id="a" x2="0" y1="200" y2="300" gradientUnits="userSpaceOnUse"><stop stop-color="#fff" offset="0"/><stop stop-color="#e6e6e6" offset="1"/></linearGradient></defs><rect width="480" height="320" ry="16" fill="url(#a)"/><path d="m218.6 57.96-12.17 69.17h8.295l12.16-69.17h-8.283zm8.283 0-4.853 27.65 4.484 41.47 4.824-27.35zm4.455 41.77-4.82 27.39h8.295l12.17-69.12h-8.295zm-36.27-41.73c-1.29 0-2.457 0.1225-3.502 0.4297-1.044 0.2458-1.967 0.6773-2.766 1.107-0.8602 0.4916-1.536 0.9832-2.15 1.598-0.6144 0.553-1.105 1.167-1.535 1.781-0.9831 1.413-1.72 3.073-2.15 4.916l-1.414 8.109c-0.2457 1.413-0.3064 2.704-0.1836 3.871 0.1229 1.168 0.307 2.212 0.5527 3.072 0.2457 0.9831 0.6148 1.905 1.045 2.766l7.127 13.89c0.6759 1.168 1.29 2.334 1.781 3.502 0.3686 0.9831 0.7376 2.09 1.045 3.318 0.2457 1.229 0.3075 2.396 0.123 3.502l-1.291 7.434c-0.0616 0.3686-0.2452 0.7377-0.4297 1.045-0.1843 0.3072-0.429 0.4925-0.7363 0.7383-0.3072 0.1844-0.7389 0.3066-1.23 0.3066h-5.16c-0.4916 0-0.8598-0.0609-1.106-0.3066-0.2459-0.2458-0.3694-0.4925-0.4922-0.7383-0.0612-0.3072-0.1221-0.6763-0.0605-1.045l2.641-15.05h-8.295l-2.641 15.05c-0.1844 1.843-0.0619 3.503 0.4297 4.916 0.2457 0.6144 0.4918 1.167 0.9219 1.781 0.4301 0.6144 0.9218 1.168 1.598 1.598 0.6759 0.4301 1.475 0.8002 2.396 1.107 0.9216 0.3072 2.026 0.4297 3.316 0.4297h5.162c1.29 0 2.457-0.1225 3.502-0.4297 1.045-0.2458 1.967-0.6159 2.766-1.107 0.8602-0.4916 1.536-0.9832 2.15-1.598 0.6144-0.553 1.105-1.167 1.535-1.781 0.9831-1.413 1.72-3.073 2.15-4.916l1.414-8.109c0.246-1.413 0.3064-2.704 0.1836-3.871-0.1229-1.167-0.3071-2.212-0.5527-3.072-0.2458-0.9831-0.6148-1.905-1.045-2.766l-7.25-13.89c-0.6759-1.167-1.29-2.334-1.781-3.502-0.3686-0.9831-0.7376-2.09-1.045-3.318-0.2457-1.229-0.3075-2.396-0.123-3.502l1.414-7.434c0.0616-0.3686 0.2452-0.7377 0.4297-1.045 0.1843-0.3072 0.429-0.4925 0.7363-0.7383 0.3072-0.1844 0.7389-0.3066 1.23-0.3066h5.16c0.4915 0 0.8598 0.06085 1.106 0.3066 0.2459 0.2458 0.3694 0.4925 0.4922 0.7383 0.0616 0.3072 0.1241 0.6763 0.0625 1.045l-2.643 15.05h8.295l2.643-15.05c0.1843-1.843 0.0598-3.503-0.4316-4.916-0.2458-0.6144-0.5534-1.167-0.9219-1.781-0.4301-0.6144-0.9198-1.106-1.596-1.598-0.6759-0.4301-1.475-0.8002-2.396-1.107-0.9216-0.3072-2.028-0.4297-3.318-0.4297h-5.162zm96.86 0c-1.29 0-2.457 0.1225-3.502 0.4297-1.044 0.2458-1.967 0.6773-2.766 1.107-0.8602 0.4916-1.536 0.9832-2.15 1.598-0.6144 0.553-1.105 1.167-1.535 1.781-0.9831 1.413-1.72 3.073-2.15 4.916l-1.414 8.109c-0.2457 1.413-0.3065 2.704-0.1836 3.871 0.1229 1.168 0.3071 2.212 0.5527 3.072 0.2457 0.9831 0.6148 1.905 1.045 2.766l7.127 13.89c0.6759 1.168 1.29 2.334 1.781 3.502 0.3686 0.9831 0.7376 2.09 1.045 3.318 0.2457 1.229 0.3075 2.396 0.123 3.502l-1.291 7.434c-0.0616 0.3686-0.2452 0.7377-0.4297 1.045-0.1843 0.3072-0.429 0.4925-0.7363 0.7383-0.3072 0.1844-0.7389 0.3066-1.23 0.3066h-5.16c-0.4916 0-0.8617-0.0609-1.107-0.3066-0.2459-0.2458-0.3674-0.4925-0.4902-0.7383-0.0612-0.3072-0.1241-0.6763-0.0625-1.045l2.643-15.05h-8.295l-2.643 15.05c-0.1844 1.843-0.0599 3.503 0.4316 4.916 0.2457 0.6144 0.4918 1.167 0.9219 1.781 0.4301 0.6144 0.9198 1.168 1.596 1.598 0.6759 0.4301 1.475 0.8002 2.396 1.107 0.9216 0.3072 2.028 0.4297 3.318 0.4297h5.162c1.29 0 2.457-0.1225 3.502-0.4297 1.045-0.2458 1.967-0.6159 2.766-1.107 0.8602-0.4916 1.536-0.9832 2.15-1.598 0.6144-0.553 1.105-1.167 1.535-1.781 0.9831-1.413 1.72-3.073 2.15-4.916l1.414-8.109c0.246-1.413 0.3064-2.704 0.1836-3.871-0.1229-1.167-0.307-2.212-0.5527-3.072-0.2458-0.9831-0.6148-1.905-1.045-2.766l-7.25-13.89c-0.6759-1.167-1.29-2.334-1.781-3.502-0.3687-0.9831-0.7376-2.09-1.045-3.318-0.2457-1.229-0.3075-2.396-0.123-3.502l1.412-7.434c0.0616-0.3686 0.2472-0.7377 0.4316-1.045 0.1843-0.3072 0.429-0.4925 0.7363-0.7383 0.3072-0.1844 0.737-0.3066 1.228-0.3066h5.162c0.4915 0 0.8598 0.06085 1.106 0.3066 0.2459 0.2458 0.3694 0.4925 0.4922 0.7383 0.0616 0.3072 0.1222 0.6763 0.0605 1.045l-2.641 15.05h8.295l2.641-15.05c0.1843-1.843 0.0618-3.503-0.4297-4.916-0.2458-0.6144-0.5534-1.167-0.9219-1.781-0.4301-0.6144-0.9218-1.106-1.598-1.598-0.6759-0.4301-1.475-0.8002-2.396-1.107-0.9216-0.3072-2.026-0.4297-3.316-0.4297h-5.162zm-36.96 0.06251-12.17 69.12h18.68l1.352-7.803h-10.38l3.932-22.3h10.38l1.352-7.803h-10.38l4.178-23.41h10.38l1.352-7.803-18.68-2e-3zm144.7 83.94-7.742 2e-3 -20.64 20.64v7.742h15.48v45.16h12.9v-73.55zm-243.9 2e-3 -73.54 73.55h16.77l51.61-51.61v51.61h9.033l51.61-51.61v51.61h12.9v-73.55h-9.031l-50.32 50.32v-50.32h-9.035zm90.32 0c-8.064 0-14.19 10-14.19 18.06v7.742c0 8.064 6.128 18.06 14.19 18.06h27.1c6.452 0 7.744 4.516 7.744 7.742s-1.293 7.74-7.744 7.74h-41.29v14.2h47.74c8.064 0 14.19-10 14.19-18.07v-7.74c0-8.064-6.127-18.06-14.19-18.06h-27.1c-6.452 0-7.742-4.516-7.742-7.742s1.291-7.742 7.742-7.742h41.29v-14.19zm54.19 0v55.48c0 9.677 4.194 18.07 15.48 18.07h33.55c11.29 0 15.48-8.389 15.48-18.07v-55.48h-14.2v50c0 8.064-4.837 10.64-9.676 10.64h-16.78c-4.838 0-9.676-2.58-9.676-10.64v-50h-14.2zm-220.6 80v9.029h320.6v-9.029zm0.9668 15.16v24.52h7.098v-14.84l4.193 14.84h2.904l4.193-14.84v14.84h7.096v-24.52h-9.678l-3.07 12.58-3.059-12.58h-9.678zm27.74 0v24.52h14.52v-5.484h-6.775v-4.195h5.806v-5.482h-5.806v-3.871h6.775v-5.484h-14.52zm16.45 0v24.52h11.29c6.452 0 6.453-5.806 6.453-5.806v-12.9s-2e-3 -5.806-8.389-5.806h-9.353zm20 0v24.52h7.74v-24.52zm14.19 0-4.838 24.52h7.742l0.6445-4.516h3.549l0.6465 4.516h7.74l-4.838-24.52h-10.65zm24.2 0v24.52h14.52v-5.484h-6.773v-4.195h5.806v-5.482h-5.806v-3.871h6.773v-5.484h-14.52zm16.13 0v24.52h7.096v-13.23l4.84 13.23h7.096v-24.52h-7.096v12.26l-4.195-12.26zm21.29 0v24.52h7.742v-9.68h3.227v9.68h7.742v-24.52h-7.742v9.355h-3.227v-9.355zm25.16 0-4.838 24.52h7.742l0.6445-4.516h3.549l0.6465 4.516h7.74l-4.838-24.52h-10.65zm16.78 0v24.52h7.098v-13.23l4.838 13.23h7.096v-24.52h-7.096v12.26l-4.193-12.26h-7.742zm26.78 0c-3.226 0-5.806 2.903-5.806 6.129v12.58c0 3.226 2.581 6.129 5.806 6.129h6.129c3.226 0 5.806-2.903 5.806-6.129v-3.549h-7.098c0 3.226 5.2e-4 4.193-1.441 4.193-1.461 0-1.461-0.9676-1.461-4.193v-5.806c0-3.226-4.4e-4 -4.193 1.451-4.193 1.452 0 1.451 0.9675 1.451 4.193h7.098c-0.0548-0.6838 0-3.226 0-3.226 0-3.226-2.581-6.129-5.806-6.129h-6.129zm13.87 0v24.52h14.52v-5.484h-6.773v-4.195h5.806v-5.482h-5.806v-3.871h6.773v-5.484h-14.52zm16.13 0v24.52h7.096v-14.52l4.193 14.52h2.902l4.195-14.84v14.84h7.096v-24.52h-9.353l-3.379 12.58-3.396-12.58h-9.353zm27.74 0v24.52h14.52v-5.484h-6.775v-4.195h5.806v-5.482h-5.806v-3.871h6.775v-5.484h-14.52zm16.13 0v24.52h7.098v-13.23l4.838 13.23h7.098v-24.52h-7.098v12.26l-4.193-12.26zm20.64 0v5.486h4.195v19.03h7.742v-19.03h4.193v-5.486h-16.13zm-219.5 5.162 1.139 9.353h-2.256zm86.79 0 1.125 9.353h-2.258zm-118.9 0.3242c2.581 0 3.239 0.6369 3.227 3.869v5.806c0 3.226-0.6459 3.871-3.227 3.871v-13.55z" fill="#3a3a3b"/></svg>