<?xml version="1.0" encoding="UTF-8"?>
<svg width="480" height="320" version="1.1" viewBox="0 0 480 320" xmlns="http://www.w3.org/2000/svg">
 <defs>
  <linearGradient id="a" x1="81.598" x2="81.598" y2="84.667" gradientTransform="matrix(3.7795 0 0 3.7795 -.00025177 0)" gradientUnits="userSpaceOnUse">
   <stop stop-color="#fff" offset="0"/>
   <stop stop-color="#e6e6e6" offset="1"/>
  </linearGradient>
 </defs>
 <rect x="-.00025177" y="9.1553e-8" width="480" height="320" ry="16" fill="url(#a)" stroke-linecap="square" stroke-linejoin="round" stroke-width="2" style="paint-order:stroke fill markers"/>
 <path d="m218.61 57.956-12.174 69.167h8.2948l12.162-69.167h-8.2831zm8.2831 0-4.8534 27.648 4.4843 41.472 4.8241-27.346zm4.455 41.774-4.8202 27.391h8.2948l12.166-69.122h-8.2948zm-36.273-41.731c-1.2903 0-2.4574 0.12246-3.502 0.42968-1.0445 0.24578-1.9668 0.67734-2.7656 1.1074-0.86017 0.49155-1.536 0.98321-2.1504 1.5977-0.61443 0.55297-1.105 1.1668-1.5352 1.7812-0.98307 1.4132-1.7203 3.0726-2.1504 4.9159l-1.4141 8.1093c-0.24567 1.4132-0.30643 2.7038-0.1836 3.871 0.12291 1.1675 0.30703 2.2121 0.55273 3.0722 0.24574 0.98307 0.61481 1.9054 1.0449 2.7656l7.1269 13.887c0.67588 1.1675 1.2897 2.3345 1.7812 3.5019 0.36865 0.98307 0.73763 2.0895 1.0449 3.3183 0.24566 1.2289 0.30748 2.396 0.12304 3.5019l-1.291 7.4335c-0.0616 0.36865-0.24525 0.73767-0.42969 1.0449-0.18432 0.30724-0.42904 0.49249-0.73632 0.73827-0.30723 0.18437-0.73893 0.30663-1.2305 0.30663h-5.1601c-0.49156 0-0.85978-0.0609-1.1055-0.30663-0.2459-0.24578-0.36939-0.49249-0.49219-0.73827-0.0612-0.30719-0.12214-0.67626-0.0605-1.0449l2.6406-15.053h-8.2948l-2.6406 15.053c-0.18436 1.8433-0.0619 3.5027 0.42968 4.9159 0.24574 0.61443 0.49176 1.1668 0.92186 1.7812 0.43011 0.61443 0.9218 1.1676 1.5977 1.5977 0.67588 0.43011 1.4748 0.80021 2.3965 1.1074 0.92163 0.30723 2.0261 0.42968 3.3164 0.42968h5.162c1.2903 0 2.4574-0.12246 3.502-0.42968 1.0446-0.24579 1.9669-0.61589 2.7656-1.1074 0.8602-0.49155 1.536-0.9832 2.1504-1.5977 0.61442-0.55297 1.105-1.1668 1.5352-1.7812 0.98308-1.4132 1.7203-3.0726 2.1504-4.9159l1.414-8.1093c0.24603-1.4132 0.30642-2.7038 0.18358-3.871-0.12287-1.1674-0.30709-2.212-0.55272-3.0722-0.24578-0.98311-0.61481-1.9054-1.0449-2.7656l-7.2499-13.887c-0.6759-1.1674-1.2897-2.3345-1.7813-3.5019-0.36865-0.98307-0.73763-2.0895-1.0449-3.3183-0.24567-1.2289-0.30748-2.396-0.12304-3.5019l1.4141-7.4335c0.0616-0.36865 0.24525-0.73767 0.42969-1.0449 0.18432-0.3072 0.42904-0.49249 0.73631-0.73827 0.30724-0.18436 0.73894-0.30663 1.2305-0.30663h5.1601c0.49151 0 0.85979 0.06085 1.1055 0.30663 0.24589 0.24578 0.36935 0.49249 0.49219 0.73827 0.0616 0.30724 0.1241 0.67626 0.0625 1.0449l-2.6426 15.053h8.2948l2.6426-15.053c0.18432-1.8433 0.0598-3.5027-0.43163-4.9159-0.24578-0.61443-0.5534-1.1668-0.92187-1.7812-0.4301-0.61443-0.9198-1.1061-1.5957-1.5977-0.67588-0.4301-1.4748-0.80016-2.3965-1.1074-0.92162-0.30724-2.028-0.42968-3.3184-0.42968h-5.162zm96.856 0c-1.2903 0-2.4574 0.12246-3.502 0.42968-1.0445 0.24578-1.9668 0.67734-2.7656 1.1074-0.86017 0.49155-1.536 0.98321-2.1504 1.5977-0.61443 0.55297-1.105 1.1668-1.5352 1.7812-0.98308 1.4132-1.7203 3.0726-2.1504 4.9159l-1.4141 8.1093c-0.24567 1.4132-0.30647 2.7038-0.18359 3.871 0.12291 1.1675 0.30706 2.2121 0.55272 3.0722 0.24574 0.98307 0.6148 1.9054 1.0449 2.7656l7.1269 13.887c0.6759 1.1675 1.2897 2.3345 1.7813 3.5019 0.36864 0.98307 0.73763 2.0895 1.0449 3.3183 0.24567 1.2289 0.30748 2.396 0.12304 3.5019l-1.291 7.4335c-0.0616 0.36865-0.24525 0.73767-0.42969 1.0449-0.18432 0.30724-0.42904 0.49249-0.73632 0.73827-0.30722 0.18437-0.73893 0.30663-1.2305 0.30663h-5.1601c-0.49156 0-0.86175-0.0609-1.1074-0.30663-0.2459-0.24578-0.3674-0.49249-0.49024-0.73827-0.0612-0.30719-0.12406-0.67626-0.0625-1.0449l2.6426-15.053h-8.2948l-2.6426 15.053c-0.18437 1.8433-0.0599 3.5027 0.43163 4.9159 0.24574 0.61443 0.49177 1.1668 0.92186 1.7812 0.43012 0.61443 0.91985 1.1676 1.5957 1.5977 0.67588 0.43011 1.4748 0.80021 2.3965 1.1074 0.92163 0.30723 2.028 0.42968 3.3184 0.42968h5.162c1.2903 0 2.4574-0.12246 3.502-0.42968 1.0446-0.24579 1.9669-0.61589 2.7656-1.1074 0.86021-0.49155 1.536-0.9832 2.1504-1.5977 0.61443-0.55297 1.105-1.1668 1.5352-1.7812 0.98308-1.4132 1.7203-3.0726 2.1504-4.9159l1.4141-8.1093c0.24605-1.4132 0.30643-2.7038 0.18359-3.871-0.12287-1.1674-0.30705-2.212-0.55272-3.0722-0.24578-0.98311-0.6148-1.9054-1.0449-2.7656l-7.2499-13.887c-0.67588-1.1674-1.2897-2.3345-1.7812-3.5019-0.36866-0.98307-0.73763-2.0895-1.0449-3.3183-0.24566-1.2289-0.30748-2.396-0.12304-3.5019l1.4121-7.4335c0.0616-0.36865 0.2472-0.73767 0.43164-1.0449 0.18432-0.3072 0.42904-0.49249 0.73632-0.73827 0.30722-0.18436 0.73701-0.30663 1.2285-0.30663h5.162c0.49152 0 0.85979 0.06085 1.1055 0.30663 0.2459 0.24578 0.36935 0.49249 0.49219 0.73827 0.0616 0.30724 0.12215 0.67626 0.0605 1.0449l-2.6406 15.053h8.2948l2.6406-15.053c0.18432-1.8433 0.0618-3.5027-0.42968-4.9159-0.24578-0.61443-0.55336-1.1668-0.92187-1.7812-0.43009-0.61443-0.92175-1.1061-1.5976-1.5977-0.67588-0.4301-1.4748-0.80016-2.3965-1.1074-0.92162-0.30724-2.0261-0.42968-3.3164-0.42968h-5.162zm-36.955 0.0625-12.166 69.122h18.678l1.3516-7.8026h-10.383l3.9316-22.303h10.385l1.3516-7.8026h-10.385l4.1776-23.41h10.385l1.3516-7.8026-18.678-2e-3zm144.7 83.935-7.7421 2e-3 -20.645 20.645v7.7421h15.484v45.159h12.902v-73.548zm-243.87 2e-3 -73.544 73.548h16.773l51.612-51.612v51.612h9.0331l51.61-51.612v51.612h12.904v-73.548h-9.0311l-50.323 50.319v-50.319h-9.0351zm90.323 0c-8.0643 0-14.193 9.9995-14.193 18.064v7.7421c0 8.0643 6.1285 18.064 14.193 18.064h27.096c6.4515 0 7.744 4.5163 7.744 7.7421s-1.2927 7.7401-7.744 7.7401h-41.29v14.195h47.743c8.0642 0 14.191-10.002 14.191-18.066v-7.7401c0-8.0643-6.1266-18.064-14.191-18.064h-27.098c-6.4515 0-7.7421-4.5163-7.7421-7.7421s1.2906-7.7421 7.7421-7.7421h41.29v-14.193zm54.192 0v55.481c0 9.6772 4.1942 18.066 15.484 18.066h33.549c11.29 0 15.484-8.3889 15.484-18.066v-55.481h-14.195v49.999c0 8.0643-4.8368 10.645-9.6757 10.645h-16.775c-4.8384 0-9.6757-2.5799-9.6757-10.645v-49.999h-14.195zm-220.65 80.001v9.0292h320.64v-9.0292zm0.96679 15.158v24.518h7.0976v-14.84l4.1933 14.84h2.9043l4.1933-14.84v14.84h7.0956v-24.518h-9.6776l-3.0703 12.582-3.0586-12.582h-9.6776zm27.742 0v24.518h14.518v-5.4843h-6.7753v-4.1952h5.8065v-5.4823h-5.8065v-3.871h6.7753v-5.4843h-14.518zm16.453 0v24.518h11.289c6.4515 0 6.453-5.8065 6.453-5.8065v-12.904s-2e-3 -5.8065-8.3886-5.8065h-9.3534zm20 0v24.518h7.7401v-24.518zm14.191 0-4.8378 24.518h7.7421l0.64453-4.5155h3.5488l0.64647 4.5155h7.7401l-4.8378-24.518h-10.646zm24.195 0v24.518h14.516v-5.4843h-6.7733v-4.1952h5.8065v-5.4823h-5.8065v-3.871h6.7733v-5.4843h-14.516zm16.129 0v24.518h7.0956v-13.227l4.8397 13.227h7.0956v-24.518h-7.0956v12.258l-4.1952-12.258zm21.289 0v24.518h7.7421v-9.6795h3.2266v9.6795h7.7421v-24.518h-7.7421v9.3553h-3.2266v-9.3553zm25.16 0-4.8378 24.518h7.7421l0.64453-4.5155h3.5488l0.64648 4.5155h7.7401l-4.8378-24.518h-10.646zm16.775 0v24.518h7.0975v-13.227l4.8378 13.227h7.0956v-24.518h-7.0956v12.258l-4.1934-12.258h-7.7421zm26.775 0c-3.2258 0-5.8065 2.9028-5.8065 6.1288v12.582c0 3.2258 2.5808 6.1288 5.8065 6.1288h6.1288c3.2258 0 5.8065-2.9028 5.8065-6.1288v-3.5487h-7.0976c0 3.2257 5.2e-4 4.1933-1.4414 4.1933-1.4613 0-1.4609-0.96756-1.4609-4.1933v-5.8065c0-3.2257-4.4e-4 -4.1933 1.4512-4.1933 1.4516 0 1.4512 0.96753 1.4512 4.1933h7.0976c-0.0548-0.68385 0-3.2265 0-3.2265 0-3.2258-2.5807-6.1288-5.8065-6.1288h-6.1288zm13.869 0v24.518h14.518v-5.4843h-6.7733v-4.1952h5.8065v-5.4823h-5.8065v-3.871h6.7733v-5.4843h-14.518zm16.131 0v24.518h7.0956v-14.518l4.1934 14.518h2.9024l4.1952-14.84v14.84h7.0956v-24.518h-9.3534l-3.3789 12.582-3.3965-12.582h-9.3534zm27.742 0v24.518h14.516v-5.4843h-6.7753v-4.1952h5.8065v-5.4823h-5.8065v-3.871h6.7753v-5.4843h-14.516zm16.127 0v24.518h7.0976v-13.227l4.8378 13.227h7.0975v-24.518h-7.0975v12.258l-4.1934-12.258zm20.645 0v5.4862h4.1952v19.031h7.7421v-19.031h4.1934v-5.4862h-16.131zm-219.53 5.162 1.1387 9.3534h-2.2559zm86.788 0 1.125 9.3534h-2.2578zm-118.87 0.32421c2.5806 0 3.2394 0.6369 3.2266 3.869v5.8065c0 3.2258-0.6459 3.871-3.2266 3.871v-13.547z" fill="#1a1a1a" stroke-linecap="round" stroke-linejoin="round" stroke-width="7.9999" style="paint-order:stroke markers fill"/>
 <style type="text/css">.st0{fill:#FC0C18;}
	.st1{fill:#FC0C18;}</style>
 <style type="text/css">.st0{fill:#FC0C18;}
	.st1{fill:#FC0C18;}</style>
</svg>
