<?xml version="1.0" encoding="UTF-8"?>
<svg width="480" height="320" version="1.1" viewBox="0 0 480 320" xmlns="http://www.w3.org/2000/svg">
 <defs>
  <linearGradient id="a" x1="81.598" x2="81.598" y2="84.667" gradientTransform="matrix(3.7795 0 0 3.7795 -.00025177 0)" gradientUnits="userSpaceOnUse">
   <stop stop-color="#fff" offset="0"/>
   <stop stop-color="#e6e6e6" offset="1"/>
  </linearGradient>
 </defs>
 <rect x="-.00025177" y="9.1553e-8" width="480" height="320" ry="16" fill="url(#a)" stroke-linecap="square" stroke-linejoin="round" stroke-width="2" style="paint-order:stroke fill markers"/>
 <path d="m61.013 109.31c-1.2903 0-2.4574 0.1225-3.502 0.42968-1.0445 0.24579-1.9649 0.67732-2.7637 1.1074-0.8602 0.49154-1.536 0.9832-2.1504 1.5977-0.61443 0.55298-1.107 1.1668-1.5371 1.7812-0.98309 1.4132-1.7203 3.0726-2.1504 4.9159l-1.4141 8.1093c-0.24578 1.4132-0.30647 2.7036-0.18359 3.871 0.12289 1.1674 0.30695 2.2121 0.55272 3.0722 0.24578 0.98307 0.61481 1.9054 1.0449 2.7656l7.1269 13.887c0.67587 1.1674 1.2917 2.3345 1.7832 3.502 0.36866 0.98308 0.73576 2.0895 1.043 3.3183 0.24574 1.2289 0.30737 2.396 0.12305 3.5019l-1.2891 7.4335c-0.06145 0.36866-0.24731 0.73767-0.43164 1.0449-0.13825 0.2304-0.31021 0.39256-0.51757 0.56249-0.06912 0.0567-0.14195 0.11433-0.21875 0.17578-0.26882 0.16131-0.63104 0.27473-1.0469 0.30078-0.0594 4e-3 -0.1202 6e-3 -0.18164 6e-3h-5.162c-0.49154 0-0.85968-0.0609-1.1055-0.30663-0.24577-0.24578-0.36932-0.49249-0.49218-0.73827-0.06145-0.30723-0.122-0.67626-0.06055-1.0449l2.6426-15.053h-8.2948l-2.6426 15.053c-0.18433 1.8433-0.06186 3.5027 0.42968 4.9159 0.24578 0.61444 0.49176 1.1668 0.92187 1.7813 0.43009 0.61442 0.92177 1.1676 1.5977 1.5976 0.67587 0.4301 1.4748 0.80021 2.3965 1.1074 0.92164 0.30724 2.028 0.42969 3.3184 0.42969h5.1601c1.2903 0 2.4574-0.12246 3.502-0.42969 0.13057-0.0306 0.25999-0.065 0.38672-0.0996 0.88708-0.24193 1.68-0.57769 2.3789-1.0078 0.21505-0.12287 0.41934-0.24431 0.61327-0.36915 0.58178-0.3744 1.0763-0.76768 1.5371-1.2285 0.0768-0.0691 0.15153-0.13807 0.22461-0.20897 0.51158-0.49646 0.93615-1.0346 1.3125-1.5723 0.61443-0.88324 1.1316-1.8616 1.5391-2.9219 0.24445-0.63615 0.45003-1.3029 0.61132-1.9941l1.4121-8.1093c0.24578-1.4132 0.30842-2.7036 0.18555-3.871-0.12289-1.1674-0.30891-2.2121-0.55468-3.0722-0.24577-0.9831-0.61285-1.9054-1.043-2.7656l-7.2519-13.887c-0.67587-1.1674-1.2897-2.3345-1.7812-3.502-0.36866-0.98308-0.73771-2.0895-1.0449-3.3183-0.24574-1.2289-0.30737-2.396-0.12305-3.5019l1.4141-7.4335c0.0077-0.0461 0.01801-0.0927 0.0293-0.13867 0.07897-0.32175 0.2391-0.63744 0.40038-0.90624 0.18433-0.3072 0.43104-0.49249 0.73827-0.73826 0.30722-0.18437 0.73696-0.30664 1.2285-0.30664h5.1601c0.49154 0 0.86163 0.0609 1.1074 0.30664 0.24577 0.24578 0.36736 0.49249 0.49022 0.73826 0.06146 0.3072 0.12396 0.67626 0.0625 1.0449l-2.6426 15.053h8.2948l2.6426-15.053c0.18433-1.8433 0.06186-3.5028-0.42968-4.9159-0.24577-0.61443-0.55321-1.1668-0.92187-1.7812-0.4301-0.61443-0.92177-1.1061-1.5977-1.5977-0.67587-0.43009-1.4748-0.80017-2.3965-1.1074-0.92169-0.3072-2.028-0.42968-3.3184-0.42968h-5.162zm21.076 0-10.568 59.292c-0.18433 1.8433-0.06186 3.5028 0.42968 4.9159 0.21505 0.53764 0.43098 1.0288 0.76952 1.5547 0.04836 0.0751 0.09858 0.14974 0.15234 0.22654 0.37634 0.53763 0.80075 1.0292 1.3535 1.4316 0.07896 0.0575 0.15966 0.11225 0.24414 0.16599 0.5069 0.32259 1.0834 0.61178 1.7285 0.86523 0.21505 0.0845 0.43754 0.16539 0.66796 0.24219 0.92164 0.30724 2.028 0.42969 3.3184 0.42969h5.1601c1.2903 0 2.4574-0.12246 3.502-0.42969 0.13057-0.0306 0.25999-0.065 0.38672-0.0996 0.88708-0.24192 1.68-0.57768 2.3789-1.0078 0.21505-0.12287 0.41934-0.24431 0.61327-0.36914 0.58179-0.3744 1.0763-0.76768 1.5371-1.2285 0.61443-0.553 1.107-1.1668 1.5371-1.7813 0.98309-1.4132 1.7203-3.0726 2.1504-4.9159l10.445-59.292h-8.2948l-10.445 59.292c-0.06145 0.36866-0.24536 0.73767-0.42968 1.0449-0.18433 0.3072-0.43103 0.4925-0.73827 0.73827-0.30722 0.18437-0.73696 0.30663-1.2285 0.30663h-5.162c-0.49154 0-0.85968-0.0609-1.1055-0.30663-0.24577-0.24578-0.36932-0.49249-0.49218-0.73827-0.06145-0.30719-0.122-0.67625-0.06055-1.0449l10.445-59.292h-8.2948zm31.459 0-12.166 69.124h8.2948l5.2987-30.106h7.2362c0.16128 0 0.32106-2e-3 0.47851-6e-3 1.1021-0.0276 2.1095-0.155 3.0234-0.42382 1.0445-0.24579 1.9669-0.61586 2.7656-1.1074 0.8602-0.49154 1.536-0.9832 2.1504-1.5977 0.61442-0.55298 1.105-1.1668 1.5352-1.7812 0.98308-1.4132 1.7203-3.0726 2.1504-4.9159l3.4414-19.354c0.18433-1.8433 0.0619-3.5027-0.42969-4.9159-0.24576-0.61443-0.55321-1.1668-0.92185-1.7812-0.4301-0.61443-0.92177-1.1061-1.5977-1.5977-0.67587-0.43009-1.4748-0.80018-2.3965-1.1074-0.92169-0.30719-2.028-0.42968-3.3184-0.42968h-15.545zm55.667 0-12.105 69.061h8.2948l5.2851-30.044h7.2499c0.49154 0 0.85966 0.0609 1.1055 0.30663 0.24576 0.24578 0.3693 0.49249 0.49217 0.73827 0.0615 0.3072 0.12396 0.67431 0.0625 1.043l-4.9159 28.02h8.2948l4.914-28.02c0.023-0.16127 0.0414-0.31895 0.0547-0.4746 0.0932-1.0895-0.0543-2.0441-0.48438-2.9042-0.49153-0.98307-1.1671-1.8427-2.0273-2.5801 1.106-0.7373 2.089-1.597 2.9492-2.5801 0.8602-0.98308 1.3519-2.0906 1.5977-3.3808l3.4414-19.354c0.18433-1.8433 0.0619-3.5027-0.42969-4.9159-0.24576-0.61443-0.55321-1.1668-0.92185-1.7812-0.43011-0.61443-0.92177-1.1061-1.5977-1.5977-0.67588-0.4301-1.4748-0.80018-2.3965-1.1074-0.92169-0.3072-2.028-0.42968-3.3184-0.42968h-15.545zm48.663 0-12.166 69.124h8.2948l12.166-69.124zm8.2948 0-4.8554 27.65 4.4237 41.474 4.8554-27.65zm11.797 0-12.166 69.124h8.2948l12.166-69.124zm13.824 0-12.166 69.124h8.2948l12.166-69.124zm13.824 0-12.166 69.124h8.2948l12.166-69.124zm8.2948 0-4.8534 27.65 4.4237 41.474 4.8534-27.65zm-0.42968 69.124h8.2948l12.166-69.124h-8.2948zm25.99-69.124-1.3516 7.8046h5.5292l-10.812 61.319h9.3378l10.814-61.319h5.5311l1.3516-7.8046h-20.4zm25.93 0-12.166 69.185h18.68l1.3516-7.8026h-10.385l3.9336-22.305h10.383l1.3516-7.8026h-10.383l4.1776-23.471h10.383l1.3535-7.8046h-18.68zm24.209 0-12.166 69.124h8.2948l12.166-69.124zm8.2948 0-4.8534 27.65 4.4237 41.474 4.8534-27.65zm-0.42969 69.124h8.2948l12.164-69.124h-8.2948zm25.99-69.124-12.166 69.124h16.221c0.16129 0 0.32107-2e-3 0.47852-6e-3 1.1021-0.0276 2.1095-0.155 3.0234-0.42382 1.0445-0.24578 1.9669-0.61586 2.7656-1.1074 0.86021-0.49154 1.536-0.98321 2.1504-1.5976 0.61442-0.553 1.105-1.1668 1.5352-1.7813 0.98306-1.4132 1.7222-3.0726 2.1523-4.9159l8.7851-49.46c0.18432-1.8433 0.0618-3.5027-0.42969-4.9159-0.24577-0.61443-0.55336-1.1668-0.92186-1.7812-0.43011-0.61443-0.92175-1.1061-1.5976-1.5977-0.67588-0.43009-1.4748-0.80018-2.3965-1.1074-0.92166-0.30723-2.028-0.42968-3.3184-0.42968h-16.281zm42.517 0c-0.16129 0-0.31911 2e-3 -0.47656 6e-3 -1.1022 0.0276-2.1114 0.15504-3.0254 0.42383-0.7834 0.18432-1.4974 0.47316-2.1426 0.78709-0.21506 0.10466-0.42139 0.21279-0.62108 0.32032-0.86017 0.49154-1.536 0.9832-2.1504 1.5977-0.46082 0.41474-0.85266 0.86431-1.2012 1.3223-0.11616 0.15266-0.22841 0.30539-0.33593 0.45899-0.98307 1.4132-1.7203 3.0726-2.1504 4.9159l-8.7245 49.46c-0.18437 1.8433-0.0618 3.5028 0.42968 4.9159 0.21505 0.53764 0.43097 1.0288 0.76953 1.5547 0.0484 0.0751 0.0986 0.14974 0.15233 0.22658 0.37634 0.53762 0.7988 1.0292 1.3516 1.4316 0.079 0.0575 0.16159 0.11225 0.24609 0.16599 0.50691 0.32258 1.0834 0.61177 1.7285 0.86523 0.21505 0.0845 0.43756 0.16539 0.66796 0.24219 0.92166 0.30724 2.0281 0.42968 3.3184 0.42968h5.1601c1.2903 0 2.4574-0.12246 3.502-0.42968 0.13057-0.0306 0.25999-0.065 0.38672-0.0996 0.88708-0.24193 1.68-0.57769 2.3789-1.0078 0.21505-0.12287 0.41934-0.2443 0.61327-0.36914 0.58179-0.3744 1.0763-0.76768 1.5371-1.2285 0.61443-0.553 1.107-1.1668 1.5371-1.7813 0.98312-1.4132 1.7203-3.0726 2.1504-4.9159l8.7245-49.46c0.18433-1.8433 0.0619-3.5027-0.42967-4.9159-0.24575-0.61443-0.55337-1.1668-0.92187-1.7812-0.4301-0.61443-0.92179-1.1061-1.5977-1.5977-0.67588-0.4301-1.4748-0.80018-2.3965-1.1074-0.92162-0.30723-2.0281-0.42968-3.3184-0.42968h-5.162zm-280.98 0.0625-12.166 69.122h18.68l1.3516-7.8026h-10.385l3.9336-22.305h10.383l1.3516-7.8026h-10.383l4.1776-23.41h10.385l1.3516-7.8026h-18.68zm-24.516 7.619h7.2499c0.49154 0 0.85966 0.0608 1.1055 0.30663 0.24576 0.24579 0.36931 0.49055 0.49218 0.73633 0.0614 0.30719 0.122 0.67625 0.0605 1.0449l-3.4394 19.355c-0.0615 0.36865-0.24536 0.73767-0.42969 1.0449-0.18432 0.3072-0.43103 0.49054-0.73827 0.73632-0.30721 0.18432-0.73696 0.30859-1.2285 0.30859h-7.2147l4.1426-23.533zm55.604 0.0605h7.3124c0.49154 0 0.85967 0.0609 1.1055 0.30663 0.24578 0.24575 0.36932 0.49249 0.49218 0.73827 0.0615 0.3072 0.122 0.67626 0.0606 1.0449l-3.4394 19.354c-0.0614 0.36866-0.24732 0.73767-0.43164 1.0449-0.18433 0.30724-0.42909 0.4925-0.73632 0.73827-0.30721 0.18437-0.73696 0.30664-1.2285 0.30664h-7.2499l4.1152-23.533zm214.32 0h7.9257c0.49156 0 0.85979 0.0609 1.1055 0.30663 0.24586 0.24575 0.36936 0.49249 0.49219 0.73827 0.0616 0.3072 0.12214 0.67626 0.0605 1.0449l-8.7245 49.399c-0.0616 0.36866-0.24525 0.73768-0.42969 1.0449-0.18433 0.3072-0.431 0.49054-0.73827 0.73631-0.3072 0.18433-0.73694 0.30664-1.2285 0.30664h-7.9257l9.4628-53.577zm34.162 0.0625h5.162c0.49152 0 0.85979 0.0609 1.1055 0.30664 0.24589 0.24578 0.36934 0.49054 0.49218 0.73631 0.0612 0.3072 0.12215 0.67626 0.0605 1.0449l-8.7245 49.399c-0.0616 0.36865-0.24525 0.73767-0.42968 1.0449-0.18433 0.30724-0.43101 0.49249-0.73828 0.73827-0.30723 0.18437-0.73698 0.30663-1.2285 0.30663h-5.162c-0.49156 0-0.85979-0.0608-1.1055-0.30663-0.24585-0.24578-0.36934-0.49249-0.49218-0.73827-0.0616-0.3072-0.12215-0.67626-0.0605-1.0449l8.7245-49.399c0.0616-0.36866 0.24522-0.73771 0.42968-1.0449 0.18436-0.3072 0.431-0.49054 0.73827-0.73631 0.3072-0.18433 0.73694-0.30664 1.2285-0.30664zm-384.58 65.927v27.65h399.99v-27.65zm286.08 3.0722c1.9048 0 3.2559 0.4915 4.0546 1.4746 0.67587 0.92163 0.85993 2.2739 0.55272 4.1171 0 0.0615-0.0597 0.30803-0.12109 0.61523h-2.8281c0.0615-0.30724 0.0616-0.49323 0.12304-0.55468 0.12287-0.67587 0.12305-1.1674 0.12305-1.4746-0.18432-1.2289-0.92077-1.8418-2.334-1.8418-0.92164 0-1.6599 0.30641-2.2129 0.85936-0.49154 0.49154-0.79897 1.1055-0.92186 1.9043-0.12287 0.73731-0.0602 1.2916 0.18554 1.7832 0.30721 0.67587 0.86049 1.2272 1.7207 1.7188l1.6582 0.98436c1.4746 0.92164 2.4586 1.842 2.8887 2.7637 0.36866 0.79875 0.42937 1.8444 0.1836 3.1347-0.30724 1.8433-1.1667 3.257-2.457 4.2401-1.1674 0.86019-2.5814 1.2285-4.3632 1.2285-2.0276 0-3.502-0.49151-4.3007-1.4746-0.79875-0.92164-0.98299-2.3971-0.67577-4.3632 0.0615-0.18432 0.12319-0.55352 0.24609-1.168h2.8262c-0.0615 0.36866-0.12409 0.67593-0.18555 0.79882-0.18433 1.106-0.18433 1.9676 0 2.582 0.3072 0.92164 1.1062 1.3516 2.3965 1.3516 1.1674 0 2.0282-0.36903 2.6426-1.0449 0.49154-0.55298 0.85953-1.2296 0.9824-2.0898 0.18434-0.98309 2.6e-4 -1.7812-0.55272-2.457-0.43009-0.49154-1.1666-1.1054-2.334-1.7812-1.1674-0.67587-2.0887-1.3524-2.7031-1.9668-0.98308-0.98307-1.353-2.3344-0.98435-4.1776 0.30722-1.7204 1.0455-3.0118 2.2129-3.9335 1.106-0.8602 2.5188-1.2285 4.1776-1.2285zm39.446 0c1.9048 0 3.2559 0.4915 4.0546 1.4746 0.67587 0.92163 0.92139 2.2739 0.55273 4.1171 0 0.0615-0.0616 0.30803-0.12305 0.61523h-2.8262c0.0614-0.30724 0.0616-0.49323 0.12305-0.55468 0.12287-0.67587 0.12304-1.1674 0.12304-1.4746-0.18432-1.2289-0.92077-1.8418-2.334-1.8418-0.92164 0-1.6599 0.30641-2.2129 0.85936-0.49154 0.49154-0.79898 1.1055-0.92187 1.9043-0.12286 0.73731-0.0622 1.2916 0.1836 1.7832 0.30723 0.67587 0.86048 1.2272 1.7207 1.7188l1.6602 0.98436c1.4746 0.92164 2.4566 1.842 2.8867 2.7637 0.36865 0.79875 0.43132 1.8444 0.18554 3.1347-0.30722 1.8433-1.1687 3.257-2.459 4.2401-1.1674 0.86019-2.5795 1.2285-4.3612 1.2285-2.0276 0-3.502-0.49151-4.3008-1.4746-0.79876-0.92164-0.98299-2.3971-0.67577-4.3632 0.0614-0.18432 0.12123-0.55352 0.24414-1.168h2.8262c-0.0614 0.36866-0.12214 0.67593-0.18359 0.79882-0.18432 1.106-0.18432 1.9676 0 2.582 0.3072 0.92164 1.1062 1.3516 2.3965 1.3516 1.1674 0 2.0281-0.36903 2.6426-1.0449 0.49154-0.55298 0.85952-1.2296 0.98241-2.0898 0.18433-0.98309 2.6e-4 -1.7812-0.55273-2.457-0.4301-0.49154-1.1666-1.1054-2.334-1.7812-1.1674-0.67579-2.0906-1.3524-2.7051-1.9668-0.98308-0.98307-1.3511-2.3344-0.98241-4.1776 0.30724-1.7204 1.0435-3.0118 2.2109-3.9335 1.106-0.8602 2.5207-1.2285 4.1796-1.2285zm-238.09 0.24608h5.0995c1.3518 0 2.3953 0.12231 3.0098 0.30664 1.7204 0.7373 2.3978 2.397 1.9062 5.039-0.30722 1.659-0.92224 2.8877-1.9668 3.6249-0.55301 0.43012-1.3528 0.73664-2.3359 0.98242 0.61442 0.18432 1.1068 0.30788 1.4141 0.49217 0.67587 0.36865 0.98241 1.1666 0.98241 2.334 0 0.79875-0.1214 2.1508-0.36719 3.994-0.12287 1.2289-0.18537 2.1521-0.0625 2.7051 0.0615 0.30724 0.1241 0.55214 0.18555 0.85936h-3.1348c-0.0615-0.36866-0.12305-0.73785-0.12305-1.168 0-0.24578 0.12318-1.167 0.24609-2.703 0.18433-2.0276 0.2461-3.3786 0.2461-3.9315-0.0615-0.49154-0.30714-0.86057-0.67578-1.0449-0.30724-0.18433-0.67626-0.30773-1.0449-0.36914-0.3072-0.0615-0.73695-0.0606-1.2285-0.0606h-1.3516l-1.5977 9.2146h-2.7656l3.5645-20.275zm-78.524 0.0606h8.9706l-0.42968 2.459h-6.1444l-1.168 6.3905h5.7753l-0.42968 2.334h-5.7753l-1.168 6.7577h6.5136l-0.42968 2.3359h-9.2792l3.5645-20.277zm60.091 0h8.9706l-0.42969 2.459h-6.1444l-1.1055 6.3905h5.7753l-0.42968 2.334h-5.7772l-1.166 6.7577h6.5116l-0.42968 2.3359h-9.3397l3.5644-20.277zm138.92 0h8.9706l-0.36914 2.459h-6.1444l-1.1055 6.3905h5.7753l-0.42967 2.334h-5.7753l-1.168 6.7577h6.4511l-0.42968 2.3359h-9.3397l3.5644-20.277zm152.56 0h8.9706l-0.42969 2.459h-6.1444l-1.1055 6.3905h5.7753l-0.42968 2.334h-5.7772l-1.166 6.7577h6.5116l-0.42968 2.3359h-9.3397l3.5644-20.277zm-333.33 0.0625h4.3632l1.9043 12.043c0.36864 2.8264 0.61538 4.7915 0.73827 5.9589 0.06145-0.4301 0.12214-1.0441 0.18359-1.9043 0.18433-1.2289 0.24519-1.9036 0.30664-2.0879l2.459-14.01h2.5195l-3.5645 20.275h-4.1171l-2.2109-14.07c0-0.24578-0.12318-0.98311-0.24609-2.2734-0.06145-0.73731-0.12409-1.3512-0.18555-1.7812l-0.12109 0.67577-0.12305 0.55273-0.12305 0.8613-0.24609 1.2891-2.5801 14.746h-2.5195l3.5625-20.275zm21.014 0h12.229l-0.49218 2.3965h-4.7304l-3.1348 17.879h-2.7637l3.1328-17.879h-4.6698l0.42968-2.3965zm59.048 0h12.227l-0.49219 2.3965h-4.7304l-3.1328 17.879h-2.7656l3.1328-17.879h-4.6698l0.43163-2.3965zm23.531 0h3.6875l1.1055 20.275h-3.0098l-0.12305-4.6073h-5.4081l-1.7812 4.6073h-2.7031l8.2323-20.275zm17.266 0h2.7656l-3.5644 20.275h-2.7637zm12.105 0h4.3612l1.9062 12.043c0.36867 2.8264 0.61345 4.7915 0.73633 5.9589 0.0614-0.4301 0.12409-1.0441 0.18554-1.9043 0.18433-1.2289 0.24519-1.9036 0.30664-2.0879l2.457-14.01h2.5195l-3.5644 20.275h-4.1152l-2.2129-14.07c0-0.24578-0.12318-0.98311-0.24609-2.2734-0.0614-0.73731-0.12213-1.3512-0.18358-1.7812l-0.12305 0.67577-0.12305 0.55273-0.12304 0.8613-0.2461 1.2891-2.5801 14.746h-2.5195l3.5644-20.275zm22.059 0h4.6073l0.98241 15.545 5.9608-15.545h4.6073l-3.5624 20.275h-2.3965l3.0723-17.389-7.3729 17.389h-2.7656l-1.2285-17.389-3.0723 17.389h-2.3965l3.5644-20.275zm44.054 0h4.3612l1.9062 12.043c0.36865 2.8264 0.61343 4.7915 0.73631 5.9589 0.0615-0.4301 0.1241-1.0441 0.18555-1.9043 0.18433-1.2289 0.24522-1.9036 0.30664-2.0879l2.457-14.01h2.5195l-3.5644 20.275h-4.1152l-2.2129-14.07c0-0.24578-0.12319-0.98311-0.2461-2.2734-0.0614-0.73731-0.12214-1.3512-0.18359-1.7812l-0.12304 0.67577-0.12305 0.55273-0.12304 0.8613-0.2461 1.2891-2.5801 14.746h-2.5195l3.5644-20.275zm21.014 0h12.227l-0.49022 2.3965h-4.7323l-3.1328 17.879h-2.7656l3.1348-17.879h-4.6698l0.42969-2.3965zm52.409 0h3.1953l1.4141 8.908 4.6698-8.908h2.7637l-6.7577 11.859-1.4746 8.4159h-2.7656l1.4746-8.4159-2.5195-11.859zm39.938 0h12.166l-0.42968 2.3965h-4.7323l-3.1328 17.879h-2.7656l3.1348-17.879h-4.6698l0.42968-2.3965zm39.508 0h4.6074l0.98436 15.545 5.9589-15.545h4.6093l-3.5644 20.275h-2.3965l3.0723-17.389-7.3729 17.389h-2.7656l-1.2285-17.389-3.0723 17.389h-2.3965l3.5644-20.275zm-289.28 2.2109-1.168 6.5761h1.7812c1.2289 0 2.1512-0.24567 2.7656-0.67577 0.73731-0.55298 1.2278-1.4762 1.4121-2.7051 0.18432-1.1674 0.0629-1.9655-0.36719-2.457-0.30723-0.30723-0.67641-0.49234-1.168-0.61522-0.4301-0.0615-0.92161-0.12303-1.4746-0.12303h-1.7812zm42.149 0.30859-4.1796 10.814h4.4238l-0.24414-10.814z" fill="#1a1a1a" stroke-linecap="round" stroke-linejoin="round" stroke-width="7.9999" style="paint-order:stroke markers fill"/>
 <g transform="matrix(3.8449 0 0 3.8449 -10.247 -4.5683)" fill="#1a1a1a" stroke-width=".26458" aria-label="hacks">
  <path d="m51.481 68.059c0.0038-0.57126 0.33449-0.91702 0.84185-0.91702 0.52992 0 0.83058 0.34576 0.82682 0.91702v3.2471h2.0746v-3.6831c0.0038-1.2628-0.793-2.1648-2.0144-2.1648-0.85313 0-1.4845 0.43596-1.7438 1.1726h-0.06013v-3.0217h-1.9994v7.6969h2.0746z"/>
  <path d="m57.855 71.396c0.75165 0 1.3192-0.25556 1.6687-0.90199h0.0451v0.81179h1.9393v-3.9537c0-1.0673-1.011-1.8942-2.6609-1.8942-1.725 0-2.5744 0.90199-2.6458 1.9543h1.9092c0.04886-0.35704 0.31194-0.52616 0.70656-0.52616 0.36079 0 0.61636 0.16536 0.61636 0.46603v0.01503c0 0.33449-0.36831 0.43972-1.3379 0.51112-1.1914 0.08644-2.1197 0.5675-2.1197 1.834 0 1.15 0.7742 1.6837 1.8791 1.6837zm0.67649-1.3079c-0.35328 0-0.60132-0.17288-0.60132-0.49609 0-0.2969 0.21046-0.52616 0.69152-0.60132 0.33073-0.05262 0.60884-0.12026 0.82682-0.21046v0.48106c0 0.52616-0.44724 0.82682-0.91702 0.82682z"/>
  <path d="m65.281 71.411c1.71 0 2.7586-0.98091 2.7811-2.5105h-1.9242c-0.0451 0.60508-0.37207 0.93205-0.82682 0.93205-0.54495 0-0.90199-0.46603-0.90199-1.4131s0.35704-1.4131 0.90199-1.4131c0.45851 0 0.77045 0.32697 0.82682 0.93205h1.9242c-0.01128-1.5033-1.0824-2.4805-2.7811-2.4805-1.8791 0-2.9916 1.2026-2.9916 2.9766 0 1.7739 1.1124 2.9766 2.9916 2.9766z"/>
  <path d="m68.919 71.306h2.0746v-1.6386l0.31194-0.39462 1.1763 2.0332h2.3752l-2.022-3.2434 1.9618-2.5293h-2.3301l-1.3981 1.9393h-0.07517v-3.8635h-2.0746z"/>
  <path d="m80.615 67.413c-0.05262-1.2214-1.0674-1.9543-2.736-1.9543-1.6499 0-2.6684 0.67649-2.6609 1.8791-0.0075 0.9095 0.58253 1.492 1.7589 1.6987l1.0222 0.1804c0.45099 0.08268 0.65394 0.20295 0.66146 0.42093-0.0075 0.24053-0.28187 0.37583-0.66146 0.37583-0.46978 0-0.80051-0.20295-0.85689-0.57126h-2.0595c0.11275 1.1839 1.135 1.9693 2.9014 1.9693 1.5973 0 2.7736-0.77796 2.7811-2.0144-0.0075-0.85313-0.57877-1.3492-1.7589-1.5634l-1.1726-0.21046c-0.43972-0.07892-0.56374-0.23677-0.55622-0.40589-0.0075-0.24053 0.28939-0.37583 0.64642-0.37583 0.40965 0 0.75166 0.21798 0.78172 0.57126z"/>
 </g>
 <style type="text/css">.st0{fill:#FC0C18;}
	.st1{fill:#FC0C18;}</style>
</svg>
