<?xml version="1.0" encoding="UTF-8"?>
<svg width="480" height="320" version="1.1" viewBox="0 0 480 320" xmlns="http://www.w3.org/2000/svg">
 <defs>
  <linearGradient id="a" x1="81.598" x2="81.598" y2="84.667" gradientTransform="matrix(3.7795 0 0 3.7795 -.00025177 0)" gradientUnits="userSpaceOnUse">
   <stop stop-color="#fff" offset="0"/>
   <stop stop-color="#e6e6e6" offset="1"/>
  </linearGradient>
 </defs>
 <rect x="-.00025177" y="9.1553e-8" width="480" height="320" ry="16" fill="url(#a)" stroke-linecap="square" stroke-linejoin="round" stroke-width="2" style="paint-order:stroke fill markers"/>
 <path d="m39.999 110.82v5.8594h7.0057v79.536h7.0076v-79.536h5.7986v-5.8594zm368.56 23.182c-17.365 0-31.438 14.143-31.438 31.59 0 17.448 14.077 31.591 31.438 31.591 17.363 0 31.438-14.144 31.438-31.591 0-17.446-14.076-31.59-31.438-31.59zm-227.02 0.40233c-3.8358 0-6.627 3.2937-6.627 5.8008v49.958c0 3.2282 3.5776 6.158 6.5976 6.158h8.2753c3.232 0 6.463-3.3534 6.463-6.0291v-50.256c0-2.2518-3.0497-5.6326-7.0957-5.6326h-7.6131zm-110.46 0.26759v55.65c0 3.3448 3.1516 6.2343 6.6833 6.2343h7.8943c3.344 0 6.6036-2.5514 6.6036-6.1602v-55.725h-6.7635v55.725h-7.7344v-55.725h-6.6833zm69.177 0.18554v61.512h14.617c2.96 0 6.2812-1.8568 6.2812-5.8575 0 0 0.034-19.213 0-21.971-0.028-2.7621-2.8965-4.5059-2.8965-4.5059s2.8965-1.8863 2.8965-4.5078v-18.811c0-3.5498-3.1112-5.8613-6.2812-5.8613h-14.617zm-34.264 0.0178v61.617h6.404v-28.951h2.416l7.1248 28.843h6.2831l-6.6444-29.295c2.294 0 5.3458-2.7587 5.3458-6.449v-20.166c0-2.9007-3.2911-5.6016-7.0371-5.6016h-13.893zm75.987 5.6133h7.4102v49.481h-7.4102zm-35.08 0.34178h7.6698v20.221h-7.6698zm-34.266 0.0136h7.6717v20.221h-7.6717zm275.49 10.533h15.721l3.1445 3.1602v3.1582h-3.1445v-1.5802l-1.5723-1.578h-12.576v23.691h12.576l1.5723-1.5801v-1.5781h3.1445v3.1582l-3.1445 3.1601h-15.721l-1.5703-1.5801v-26.852l1.5703-1.5801zm22.01 0h17.291l3.1426 3.1602v23.691l-3.1426 3.1601h-17.291v-3.1601h1.5723v-23.691h-1.5723zm4.7168 3.1602v23.691h12.574v-23.691zm-267.95 12.881h7.6698v22.928h-7.6698z" fill="#1a1a1a" stroke-width=".66822"/>
 <path d="m218.84 111.19c-3.594 0-6.7929 3.2683-6.7929 6.3379v73.058c0 3.6328 3.8332 6.0291 6.9453 6.0291h14.559v-48.332h-10.33v5.9161h3.5038v36.441h-8.0939v-72.941h7.9102v17.066h6.9626v-17.307c0-3.0274-3.1966-6.2676-6.7208-6.2676h-7.9434zm28.86 23.518v61.625h6.3984v-28.954h2.418l7.1308 28.84h6.2793l-6.6463-29.287c2.296 0 5.3514-2.7627 5.3514-6.4512v-20.166c0-2.9007-3.2971-5.6073-7.039-5.6073h-13.893zm40.456 0.13671c-3.8079 0-6.0431 3.154-6.0431 5.6326v55.77h6.4022v-29.295h8.0916v29.295h6.404v-55.434c-2e-3 -3.6783-2.5342-5.9705-6.404-5.9705h-8.451zm34.109 0c-3.17 0-5.6776 2.7618-5.6776 5.297v56.107h6.5216v-29.295l8.1581 0.0253v-5.9958h-8.1581v-20.729h9.908v-5.4081h-10.752zm23.98 0.0155v21.156c0 2.7252 7.1641 9.4881 7.1641 9.4881s-7.1641 7.1093-7.1641 9.7107v21.156h6.7635v-22.132l4.1072-4.1212 4.1072 4.1737v22.08h6.3632v-21.206c0-2.7702-6.7635-9.6052-6.7635-9.6052s6.6814-6.8405 6.6814-9.4356v-21.264h-6.7635v22.457l-3.7852 3.7969-3.8653-3.9061v-22.348h-6.8455zm-91.99 5.7558h7.666v20.221h-7.666zm34.504 0.42577h7.666v19.83h-7.666z" fill="#1a1a1a" fill-opacity=".8" stroke-width="1.2991"/>
 <style type="text/css">.st0{fill:#FC0C18;}
	.st1{fill:#FC0C18;}</style>
</svg>
