<?xml version="1.0" encoding="UTF-8"?>
<svg width="480" height="320" version="1.1" viewBox="0 0 480 320" xmlns="http://www.w3.org/2000/svg">
 <defs>
  <linearGradient id="a" x1="81.598" x2="81.598" y2="84.667" gradientTransform="matrix(3.7795 0 0 3.7795 -.00025177 0)" gradientUnits="userSpaceOnUse">
   <stop stop-color="#fff" offset="0"/>
   <stop stop-color="#e6e6e6" offset="1"/>
  </linearGradient>
 </defs>
 <rect x="-.00025177" y="9.1553e-8" width="480" height="320" ry="16" fill="url(#a)" stroke-linecap="square" stroke-linejoin="round" stroke-width="2" style="paint-order:stroke fill markers"/>
 <path d="m39.999 110.82v5.8594h7.0057v79.536h7.008v-79.536h5.797v-5.8594zm368.56 23.17c-17.362 0-31.432 14.145-31.432 31.596 0 17.45 14.07 31.597 31.432 31.597 17.36 0 31.438-14.147 31.438-31.597s-14.076-31.596-31.438-31.596zm-227.03 0.41211v2e-3c-3.8358 0-6.627 3.294-6.627 5.8008v49.958c0 3.2284 3.5777 6.1583 6.5975 6.1583h8.2753c3.232 0 6.463-3.3539 6.463-6.0295v-50.256c0-2.2514-3.0497-5.633-7.0957-5.633h-7.6135zm-110.46 0.26563v55.654c0 3.345 3.1518 6.2343 6.6837 6.2343h7.8947c3.344 0 6.6036-2.5537 6.6036-6.1621v-55.725h-6.7638v55.725h-7.7344v-55.725h-6.6837zm69.177 0.1875v61.514h14.617c2.96 0 6.2812-1.8571 6.2812-5.8575 0 0 0.034-19.213 0-21.971-0.028-2.762-2.8965-4.5078-2.8965-4.5078s2.8965-1.8845 2.8965-4.5059v-18.813c0-3.5499-3.1112-5.8594-6.2812-5.8594h-14.617zm-34.264 0.0196v61.617h6.4044v-28.951h2.416l7.1229 28.842h6.2831l-6.6444-29.291c2.294 0 5.3458-2.7587 5.3458-6.4494v-20.166c0-2.9007-3.2891-5.6035-7.0352-5.6035h-13.893zm75.987 5.6133h7.4101v49.481h-7.4101zm-35.08 0.34178h7.6698v20.221h-7.6698zm-34.264 0.0136h7.6698v20.221h-7.6698zm275.32 12.047h6.7597v22.109h3.1485v3.5684h-9.967v-3.5098h3.2129v-18.543h-3.1543v-3.625zm16.848 0.11327h22.625l1.9434 1.957v4.6639h-3.2032v-3.2246h-20.228v7.7147h21.604l1.8281 1.8457v10.193l-2.2891 2.3028h-22.111l-2.293-2.3028v-21.017l2.125-2.1328zm-257.9 14.412h7.6698v22.93h-7.6698zm259.22 0.0938v7.4317h19.822v-7.4317z" fill="#1a1a1a" stroke-width="3.7795"/>
 <path d="m218.84 111.19c-3.594 0-6.7929 3.2683-6.7929 6.3379v73.058c0 3.6323 3.8332 6.0291 6.9453 6.0291h14.559v-48.332h-10.33v5.9161h3.5038v36.442h-8.0939v-72.941h7.9102v17.066h6.9626v-17.309c0-3.0272-3.1966-6.2676-6.7208-6.2676h-7.9434zm28.86 23.52v61.625h6.3984v-28.954h2.418l7.1308 28.84h6.2793l-6.6463-29.289c2.296 0 5.3514-2.7604 5.3514-6.449v-20.166c0-2.9007-3.2971-5.6073-7.039-5.6073h-13.893zm40.456 0.13671c-3.8079 0-6.0431 3.1542-6.0431 5.6326v55.77h6.4022v-29.292h8.0916v29.292h6.404v-55.43c-2e-3 -3.6785-2.5342-5.9705-6.404-5.9705h-8.451zm34.109 0c-3.17 0-5.6776 2.762-5.6776 5.297v56.103h6.5216v-29.292l8.1581 0.0253v-5.9958h-8.1581v-20.73h9.908v-5.4081h-10.752zm23.98 0.0155v21.156c0 2.7257 7.1641 9.4881 7.1641 9.4881s-7.1641 7.1096-7.1641 9.7107v21.156h6.7635v-22.132l4.1072-4.1212 4.1072 4.1737v22.08h6.3632v-21.206c0-2.77-6.7635-9.6071-6.7635-9.6071s6.6814-6.8402 6.6814-9.4356v-21.262h-6.7635v22.457l-3.7852 3.7969-3.8653-3.9061v-22.348h-6.8455zm-91.99 5.7558h7.666v20.221h-7.666zm34.504 0.42577h7.666v19.828h-7.666z" fill="#1a1a1a" fill-opacity=".8" stroke-width="1.2994"/>
 <style type="text/css">.st0{fill:#FC0C18;}
	.st1{fill:#FC0C18;}</style>
</svg>
