<svg width="480" height="320" version="1.1" viewBox="0 0 480 320" xml:space="preserve" xmlns="http://www.w3.org/2000/svg"><defs><linearGradient id="a" x2="0" y1="200" y2="300" gradientUnits="userSpaceOnUse"><stop stop-color="#fff" offset="0"/><stop stop-color="#e6e6e6" offset="1"/></linearGradient></defs><rect id="b" width="480" height="320" ry="16" fill="url(#a)"/><path d="m275.2 237.7c-1.76 0-2.959 1.28-2.959 3 0 1.68 1.199 2.959 2.959 2.959 1.8 0 2.961-1.279 2.961-2.959 0-1.72-1.161-3-2.961-3zm-68.48 1.559-4.92 0.5215v25.32c0 3 1.8 4.92 4.68 4.92 1.2 0 2.321-0.3598 3.041-0.7598l-0.9609-3.359c-0.2 0.04-0.5189 0.1602-0.8789 0.1602-0.64 0-0.9609-0.4802-0.9609-1.16zm10.76 0-4.92 0.5215v25.32c0 3 1.802 4.92 4.682 4.92 1.2 0 2.319-0.3598 3.039-0.7598l-0.9609-3.359c-0.2 0.04-0.5189 0.1602-0.8789 0.1602-0.64 0-0.9609-0.4802-0.9609-1.16zm-45.6 1.961c-5.76 0-10.2 4.52-10.2 14.32 0 9.92 4.239 14.48 10.2 14.48 3.2 0 5.601-1.598 7.121-3.318l-2.441-2.801c-1.24 1.04-2.438 2.039-4.318 2.039-3.12 0-5.201-2.638-5.201-10.4 0-7.96 2.161-10.44 5.121-10.44 1.6 0 2.838 0.6809 4.158 1.881l2.441-2.92c-1.92-1.8-3.961-2.84-6.881-2.84zm92.72 1.76-4.92 0.5996v4.68h-2.48v3.561h2.48v12.32c0 3.48 1.839 5.879 5.639 5.879 1.64 0 3.282-0.5186 4.602-1.559l-1.721-3.041c-0.72 0.4-1.199 0.6406-1.959 0.6406-1.12 0-1.641-0.7199-1.641-1.92v-12.32h3.52l0.4805-3.561h-4zm-75.48 4.721c-5.24 0-8.439 3.879-8.439 11.12 0 7.28 3.199 11.2 8.439 11.2s8.439-4.159 8.439-11.2c0-7.52-3.199-11.12-8.439-11.12zm41.4 0c-5.28 0-8.121 4.438-8.121 11.32 0 6.96 3.042 11 8.602 11 2.84 0 5.039-1.079 6.719-2.719l-2.039-2.801c-1.48 1.2-2.72 1.76-4.4 1.76-2.2 0-3.68-1.239-3.92-5.879h10.92c0.04-0.56 0.1191-1.361 0.1191-2.041 0-7.12-2.999-10.64-7.879-10.64zm19.72 0c-5.16 0-8.521 4.158-8.521 11.32 0 7.4 3.28 11 8.6 11 2.28 0 4.161-0.9594 5.721-2.439l-2.199-2.84c-1.16 0.84-2.041 1.32-3.281 1.32-2.16 0-3.639-1.561-3.639-7.121 0-5.6 1.359-7.439 3.639-7.439 1.24 0 2.241 0.4804 3.361 1.4l2.119-2.801c-1.68-1.64-3.479-2.398-5.799-2.398zm40.32 0c-5.24 0-8.439 3.879-8.439 11.12 0 7.28 3.199 11.2 8.439 11.2s8.441-4.159 8.441-11.2c0-7.52-3.201-11.12-8.441-11.12zm22.76 0c-2.4 0-3.878 1.238-5.238 3.318l-0.3613-2.76h-4.279v21.16h4.92v-14.8c1-1.92 2.12-3.16 3.32-3.16 1.04 0 1.639 0.7598 1.639 2.84v15.12h4.92v-15.68c0-3.68-1.88-6.039-4.92-6.039zm-40.56 0.5586v21.16h4.92v-21.16zm-42.2 2.881c2.16 0 3.041 1.76 3.041 5.76v0.2793h-6.24c0.2-4.68 1.359-6.039 3.199-6.039zm-41.44 0.2793c2.2 0 3.32 1.88 3.32 7.4s-1.12 7.439-3.32 7.439-3.32-1.879-3.32-7.439c0-5.48 1.12-7.4 3.32-7.4zm101.4 0c2.2 0 3.32 1.88 3.32 7.4s-1.12 7.439-3.32 7.439-3.318-1.879-3.318-7.439c0-5.48 1.118-7.4 3.318-7.4z" fill="#444"/><path d="m292.9 70c-4.578 0-8.328 2.203-8.328 7.195s3.742 7.193 8.328 7.193a10.56 10.56 0 0 0 3.824-0.7031l1.656 0.7031v-6.812l2.201-1.152v-0.04883h-8.021v0.04883l2.203 1.152v4.893a3.692 3.692 0 0 1-1.855 0.4883c-2.74 0-4.082-2.16-4.082-5.795 0-3.634 1.408-5.797 4.082-5.797 1.995 0 3.668 1.747 5.432 3.742h0.08203v-5.107l-1.846 0.7695a8.221 8.221 0 0 0-3.676-0.7695zm72.03 0c-3.933 0-7.916 2.211-7.916 7.195s3.694 7.193 7.916 7.193 7.914-2.209 7.914-7.193-3.982-7.195-7.914-7.195zm-168.1 0.332v5.438h0.08398l2.648-4.064h2.566v11.14l-2.234 1.158v0.05078h8.443v-0.05078l-2.152-1.158v-11.14h2.484l2.648 4.064h0.08399v-5.438h-14.57zm15.73 0v0.04883l2.234 1.158v11.31l-2.234 1.158v0.05078h8.527v-0.05078l-2.236-1.158v-5.158h5.135v5.158l-2.154 1.158v0.05078h8.445v-0.05078l-2.234-1.158v-11.31l2.234-1.158v-0.04883h-8.445v0.04883l2.154 1.158v4.777h-5.135v-4.777l2.236-1.158v-0.04883h-8.527zm42.64 0v0.04883l2.236 1.158v11.31l-2.236 1.158v0.05078h12.83v-7.203h-0.08203l-3.229 5.828h-3.229v-11.14l2.316-1.158v-0.04883h-8.609zm60.77 0v0.04883l2.236 1.158v11.31l-2.236 1.158v0.05078h7.285v-0.05078l-2.234-1.158v-7.732l9.521 9.131h0.08203v-12.71l2.234-1.158v-0.04883h-7.285v0.04883l2.236 1.158v5.258l-6.789-6.465h-5.051zm17.62 0v0.04883l2.203 1.158v11.31l-2.203 1.158v0.06641h5.631c5.671 0 10.45-1.879 10.45-6.871v-0.007813c0-4.967-4.917-6.863-10.45-6.863h-5.631zm39.59 0v0.04883l2.152 1.158v11.31l-2.152 1.158v0.05078h8.443v-0.05078l-2.152-1.158v-4.943h1.822l1.986 1.945h0.08203v-5.166h-0.08203l-1.986 1.855h-1.822v-4.836h3.975l2.896 3.801h0.08398v-5.174h-13.25zm-142.1 0.007813v0.04102l2.152 1.158v11.31l-2.152 1.158v0.05078h13.25v-6.127l-2.896 4.752h-4.057v-4.992h1.82l1.986 1.838h0.08398v-4.951h-0.08398l-1.986 1.738h-1.82v-4.611h3.973l2.98 3.801v-5.166h-13.25zm38.25 0v0.04102l2.154 1.158v11.31l-2.154 1.158v0.05078h13.25v-6.26l-0.08398 0.1328-2.814 4.752h-4.139v-4.992h1.904l1.986 1.838h0.08203v-4.951h-0.08203l-1.986 1.738h-1.904v-4.611h4.057l2.896 3.801h0.08398v-5.166h-13.25zm31.38 0v0.04102l2.234 1.158v11.31l-2.234 1.158v0.05078h13.33v-6.26l-0.08203 0.1328-2.898 4.752h-4.057v-4.992h1.904l1.904 1.838h0.08203v-4.951h-0.08203l-1.904 1.738h-1.904v-4.611h3.975l2.98 3.801h0.08203v-5.166h-13.33zm-236.2 0.05664-14.67 39.12h0.5371l33.79-26.14h59.54l-90.99 137.3h117.8l10.18-27.16h133.2c28.66 0 43.73-18.81 43.73-50.06l0.08203-0.04102c0-31.24-15.07-50.05-43.73-50.05h-26.66v0.3887l12.88 9.406v80.51l-8.865 6.482v-44.55h-0.3984l-14.69 38.08h-9.811v-80.53l12.88-9.414v-0.3887h-109.2v0.3887l12.88 9.414v79.79l-27.66 24.34h-63.86l90.74-136.9h-117.7zm300.3 1.035c2.889 0 3.75 2.162 3.75 5.797 0 3.634-1.142 5.795-3.75 5.795s-3.75-2.16-3.75-5.795c0-3.634 0.8275-5.797 3.75-5.797zm-25.03 0.3242c3.179 0 5.547 1.828 5.547 5.43 0 3.601-2.368 5.439-5.547 5.439v-10.87zm25.03 2.6-1.822 2.84 1.822 2.838 1.904-2.838-1.904-2.84zm-204.9 6.945-25.85 47.14-8.875 4.412 0.2812-8.576 34.44-42.98zm203.7 12.13v0.3887l12.21 9.389-23.05 80.54-12.88 9.412v0.3887h35.82v-0.3887l-10.49-8.279 6.359-23.92h17.62l5.529 24.15-10.2 8.08v0.3887h45.24v-0.3887l-12.88-9.438-0.06641-0.248-23.35-90.08h-29.86zm-128.5 2.178 10.45 7.633v80.51l-10.45 7.6v-45.61h-0.3887l-14.39 38.08h-17.95v-36.5h10.03l10.32 14.14v-36.67l-10.28 12.77h-10.06v-35.45h18.02l14.32 31.05h0.3887v-37.55zm84 7.145c4.967 0 19.59 8.129 19.59 40.75s-14.64 40.75-19.59 40.75v-81.5zm61.74 23.53h0.4629l5.613 24.54h-12.59l6.516-24.54zm-260.2 13.21 1.332 9.105-10.02 4.023-0.9512-9.271 9.637-3.857zm-13.08 19.69-0.2812 8.561-34.42 43 25.85-47.14 8.857-4.42z" fill="#444"/></svg>
