<?xml version="1.0" encoding="UTF-8"?>
<svg version="1.1" viewBox="0 0 480 320" xmlns="http://www.w3.org/2000/svg"><defs><linearGradient id="a" x1="41.22" x2="63.15" y1="-15.72" y2="113.9" gradientTransform="scale(3.78)" gradientUnits="userSpaceOnUse"><stop stop-color="#68b723" offset="0"/><stop stop-color="#007367" offset="1"/></linearGradient></defs><rect width="480" height="320" ry="16" fill="url(#a)"/><path d="m203.8 104c-15.92 0-29.44 11.68-31.68 27.44l-8.721 61.28c-1.76 12.32 7.76 23.28 20.16 23.28 5.44 0 10.56-2.16 14.4-6l18.08-18h48l18 18c3.84 3.84 9.04 6 14.4 6 12.48 0 22-10.96 20.24-23.28l-8.721-61.28c-2.24-15.76-15.76-27.44-31.68-27.44h-72.48zm0 16h72.48c7.92 0 14.72 5.922 15.84 13.76l8.721 61.28c0.24 1.6-0.4009 2.721-0.9609 3.441-0.64 0.72-1.679 1.52-3.359 1.52-1.2 0-2.321-0.4812-3.121-1.281l-22.72-22.72h-61.28l-22.72 22.72c-0.8 0.8-1.921 1.281-3.121 1.281-1.68 0-2.719-0.7995-3.359-1.52s-1.279-1.841-1.039-3.521l8.719-61.28c1.2-7.76 8.002-13.68 15.92-13.68zm4.238 8v16h-16v8.002h16v16h8v-16h16v-8.002h-16v-16zm56 0a8 8 0 0 0-8 8 8 8 0 0 0 8 8 8 8 0 0 0 8-8 8 8 0 0 0-8-8zm16 24a8 8 0 0 0-8 8 8 8 0 0 0 8 8 8 8 0 0 0 8-8 8 8 0 0 0-8-8z" fill="#fff"/></svg>
