<?xml version="1.0" encoding="UTF-8"?>
<svg width="480" height="320" version="1.1" viewBox="0 0 480 320" xmlns="http://www.w3.org/2000/svg">
 <defs>
  <linearGradient id="a" x1="59.977" x2="127" y1="-39.605" y2="84.667" gradientTransform="scale(3.7795)" gradientUnits="userSpaceOnUse">
   <stop stop-color="#43d6b5" offset="0"/>
   <stop stop-color="#0d52bf" offset="1"/>
  </linearGradient>
 </defs>
 <rect width="480" height="320" ry="16" fill="url(#a)" stroke-linecap="square" stroke-linejoin="round" stroke-width="2" style="paint-order:stroke fill markers"/>
 <path d="m206 94h68.001v30l-34 34-34-34z" fill="#fff" fill-opacity=".25" stroke-linecap="round" stroke-linejoin="round" stroke-width=".51437" style="paint-order:stroke markers fill"/>
 <g transform="matrix(8.0001 0 0 8.0001 144 63.998)">
  <path d="m0 0h24v24h-24z" fill="none"/>
  <path d="m6 2v6h0.01l-0.01 0.01 4 3.99-4 4 0.01 0.01h-0.01v5.99h12v-5.99h-0.01l0.01-0.01-4-4 4-3.99-0.01-0.01h0.01v-6zm10 14.5v3.5h-8v-3.5l4-4zm-4-5-4-4v-3.5h8v3.5z" fill="#fff"/>
 </g>
 <style type="text/css">.st0{fill:#FC0C18;}
	.st1{fill:#FC0C18;}</style>
</svg>
