<?xml version="1.0" encoding="UTF-8"?>
<svg width="480" height="320" version="1.1" viewBox="0 0 480 320" xmlns="http://www.w3.org/2000/svg">
 <defs>
  <linearGradient id="a" x1="57.51" x2="34.421" y1="-4.6215" y2="98.779" gradientTransform="scale(3.7795)" gradientUnits="userSpaceOnUse">
   <stop stop-color="#ed5353" offset="0"/>
   <stop stop-color="#a10705" offset="1"/>
  </linearGradient>
 </defs>
 <rect width="480" height="320" ry="16" fill="url(#a)" stroke-linecap="square" stroke-linejoin="round" stroke-width="2" style="paint-order:stroke fill markers"/>
 <path d="m308.5 81.021v13.514c-1.9447-2.5946-3.6744-3.9999-10.697-3.9999-11.237 0-13.397 3.027-13.397 12.107 0 9.2968 3.0252 12 13.937 12 6.9146 0 8.9673-1.7309 10.588-4.7576v4.2168h8.4276v-33.08zm-157.31 9.1895c-6.3746 0-8.1056 2.1634-9.1858 5.9474l0.10938-5.2989h-7.8867v23.244h8.4257v-12.002c0-3.5673 1.7287-4.7558 6.4823-4.7558 4.4296 0 5.619 1.6231 5.619 5.9474v10.701h8.6426v-12.324c0-3.3511 2.5937-4.4315 6.6992-4.4315 3.8895 0 5.619 1.0805 5.619 4.4315v12.324h8.4257v-13.728c0-6.9188-4.213-10.055-11.992-10.055-6.6988 0-9.1824 2.4879-10.047 5.0819-1.7286-3.0269-4.2134-5.0819-10.912-5.0819zm56.829 0c-6.1584 0-7.7802 2.1634-8.9688 5.9474v-5.2989h-7.8867v23.244h8.4276v-12.002c0-3.5673 2.1613-4.7558 6.3749-4.7558 4.4296 0 5.6171 1.4069 5.6171 5.9474v10.701h8.6445v-12.324c0-3.3511 2.4852-4.4315 6.4823-4.4315 3.8899 0 5.8341 1.1886 5.8341 4.4315v12.324h8.4276v-13.728c0-6.9188-4.213-10.055-11.992-10.055-6.6988 0-8.9684 2.2713-10.049 5.0819-1.7286-3.0269-4.2134-5.0819-10.912-5.0819zm168.98 0.10741c-5.0782 0-6.9131 1.0811-8.75 4.9727v-4.4315h-8.1037v23.242h8.4276v-12.107c0-3.135 1.9442-4.7558 5.5098-4.7558 3.5653 0 4.4296 1.0812 4.5373 3.9999h7.8867c0-7.8916-1.0807-10.92-9.5078-10.92zm-264.49 0.32421c-14.586 0-16.424 2.2701-16.424 12.107 0 10.054 2.4863 12.11 16.424 12.11 14.802 0.10685 16.205-2.3802 16.205-12.758 0-9.513-2.5918-11.459-16.205-11.459zm150.18 0c-14.586 0-16.424 2.4872-16.424 12.324 0 9.8373 2.4864 12 16.424 12 14.802 0 16.424-2.4877 16.424-12.865 0-9.513-2.8103-11.459-16.424-11.459zm76.169 0c-14.478 0-16.207 2.2701-16.207 12.107 0 10.054 2.4858 12.11 16.207 12.11 14.802 0.10685 16.207-2.3802 16.207-12.758 0-9.513-2.5938-11.459-16.207-11.459zm65.798 0.10938c-12.641 0-15.451 2.2705-15.451 12.324 0 9.2968 3.6735 11.675 13.937 11.783 11.453 0 16.856-0.54024 16.856-8.1074h-8.3184c-0.32428 1.8377-0.9736 2.7012-4.5392 2.7012-8.1033 0-9.2912-0.75628-9.2912-4.7558h22.148c-0.32429-11.243-0.32391-13.945-15.342-13.945zm-328.24 0.10741c-13.397 0-16.422 2.1624-16.422 12 0 9.8373 2.8088 12.107 15.342 12.107 13.181 0 15.883-1.7308 15.883-10.055h-8.4276c0 2.2704-0.86513 3.3516-7.3478 3.3516-5.6183 0-6.9143-1.4049-6.9143-5.9452 0-4.4322 1.1881-4.4315 7.8867-4.4315 4.9701 0 5.8348 0.54021 6.3749 2.8106h8.4276c-0.75651-7.8916-3.0259-9.8377-14.803-9.8377zm327.91 5.6232c6.1584 0 7.0227 0.32311 7.4551 3.3496h-14.154c0.32428-2.4865 1.0811-3.3496 6.6992-3.3496zm-101.99 0.64652c4.7539 0 6.373 0.64773 6.373 4.4315 0 5.6213-0.32304 6.164-7.0216 6.164-6.6988 0-8.4276-0.21774-8.4276-4.9727 0-5.4051 2.0532-5.6232 9.0762-5.6232zm-190.37 0.21679c6.9146 0 8.1037 0.2177 8.1037 5.297 0 4.7565-0.86513 5.6213-7.3478 5.6213-6.9146 0-7.7794-0.75681-7.7794-5.6213 0-4.7565 1.0811-5.297 7.0235-5.297zm150.29 0c6.9146 0 8.1014 0.2177 8.1014 5.297 0 4.7565-0.86317 5.6213-7.3459 5.6213-7.1308 0-7.996-0.75681-7.996-5.6213 0-4.7565 1.0821-5.297 7.2404-5.297zm76.063 0c6.9146 0 8.1014 0.2177 8.1014 5.297 0 4.7565-0.86313 5.6213-7.3459 5.6213-7.1308 0-7.996-0.75681-7.996-5.6213 0-4.7565 1.0821-5.297 7.2404-5.297zm-178.26 37.631-2e-3 2e-3c-27.714 0-52.059 23.177-52.059 52.097 0 29.715 24.547 51.9 52.263 51.9 4.9493 0 7.9196-0.59338 14.057-2.1777v-26.942c-6.1364 3.1695-9.3071 3.9609-14.256 3.9609-15.441 0-27.119-12.876-27.119-27.139 0-14.857 11.481-27.537 26.922-27.537 5.1473 0 9.7024 1.3868 14.453 4.1601v-26.348c-5.345-1.3863-8.911-1.9785-14.256-1.9785zm106.01 10.402c-21.221 0-35.169 16.292-35.248 42.55-0.0791 29.42 16.203 40.652 35.092 40.652 19.126 0 32.484-11.508 32.405-28.947 0.0791-14.829-9.8411-25.623-24.502-25.623-9.247 0-17.625 4.4269-20.707 11.861h-0.4746c0.0791-13.089 4.1885-21.828 13.435-21.828 4.6235 0 8.6547 2.0535 9.6427 6.6406h21.656c-1.3831-13.841-13.437-25.305-31.299-25.305zm68.78 1.1055-32.559 51.25v17.08h39.356v12.656h21.024v-12.656h9.3264v-17.08h-9.3264v-51.25zm-159.16 18.209v20.402h24.547l20.191-20.402zm165.8 4.5702h0.63477v28.471h-18.178v-0.6328zm-75.734 19.613c6.5598 0 11.3 4.8642 11.221 11.547 0.0791 6.6829-4.6613 11.547-11.221 11.547-6.4018 0-11.142-4.8642-11.221-11.547 0.0791-6.6829 4.8193-11.547 11.221-11.547zm-90.066 0.57618v20.406h44.738l-19.795-20.406z" fill="#fafafa" stroke-width="1.2992"/>
 <style type="text/css">.st0{fill:#FC0C18;}
	.st1{fill:#FC0C18;}</style>
</svg>
