<?xml version="1.0" encoding="UTF-8"?>
<svg width="480" height="320" version="1.1" viewBox="0 0 480 320" xmlns="http://www.w3.org/2000/svg">
 <defs>
  <linearGradient id="a" x1="78.505" x2="78.505" y1="-2.35e-16" y2="84.667" gradientTransform="scale(3.7795)" gradientUnits="userSpaceOnUse">
   <stop stop-color="#43d6b5" offset="0"/>
   <stop stop-color="#3689e6" offset=".3"/>
   <stop stop-color="#002e99" offset="1"/>
  </linearGradient>
 </defs>
 <rect width="480" height="320" ry="16" fill="url(#a)" stroke-linecap="square" stroke-linejoin="round" stroke-width="2" style="paint-order:stroke fill markers"/>
 <path d="m145.15 74.983v3.6991c0 4.2397-1.1139 3.6594 10.367 5.4003 4.0316 0.61133 9.695 1.7955 12.586 2.6328 9.8748 2.8602 11.083 4.5929 11.105 15.932l0.0137 7.7597-3.541 0.20311-3.543 0.20507v7.4765c0 7.1097 0.0837 7.5566 1.6875 9.0428l1.6855 1.5625v17.574c0 9.666-0.25477 17.576-0.56835 17.576-1.7674 0-1.7035 0.15213-18.691-43.856l-3.5156-9.1092h-24.784l-10.463 27.59-10.463 27.588-0.19336-5.828-0.1953-5.83h-15.213l-1.4766 2c-3.8034 5.1443-13.616 3.6615-18.043-2.7266-3.2763-4.7276-4.4423-11.011-2.8828-15.533 2.3453-6.8002 9.3695-10.292 11.463-5.6972 0.5259 1.1543 0.44759 2.0239-0.3125 3.4745l-1.0137 1.9336 5.8378 3.8983c3.2107 2.1434 6.1464 3.8161 6.5253 3.7187 0.79982-0.2056 18.541-18.803 18.541-19.436 0-1.1159-5.237-6.9424-8.3554-9.2967-7.575-5.7192-13.603-7.6374-24.031-7.6483-5.7816-6e-3 -8.096 0.31472-12.588 1.7461-16.524 5.2654-25.809 18.856-25.041 36.649 0.27921 6.4689 0.47856 7.2805 3.1094 12.59 4.8097 9.7065 14.597 17.262 26.424 20.398 3.9288 1.0418 9.8485 1.1877 56.843 1.4141l52.46 0.25391v5.2792l-47.735 0.18946c-47.442 0.18909-47.752 0.19911-50.435 1.6465-5.7885 3.1234-8.6815 7.9226-8.6815 14.4 0 6.4776 2.8931 11.275 8.6815 14.398 2.6823 1.4474 2.993 1.4574 50.435 1.6465l47.735 0.1914v3.2519c0 2.2569-0.46641 3.9421-1.5215 5.5077-3.1725 4.7076-8.6995 6.4258-22.938 7.1308l-9.2773 0.46092v8.5703h190.27v-8.5722l-6.2401-0.44726c-8.7645-0.62734-18.235-2.7109-21.791-4.7948-3.3152-1.9428-5.705-5.7448-5.705-9.078v-2.0293l47.735-0.19139c47.442-0.18909 47.752-0.19911 50.435-1.6465 5.7885-3.1234 8.6815-7.9207 8.6815-14.398 0-6.4775-2.8931-11.277-8.6815-14.4-2.6823-1.4473-2.993-1.4574-50.435-1.6465l-47.735-0.18947v-11.94l5.9042 2.959c3.2471 1.6277 7.7139 3.4124 9.9257 3.9667 4.7587 1.1925 12.375 1.3061 17.367 0.2578 4.302-0.90336 12.102-4.3942 16.344-7.3124l3.0879-2.123v8.8358h31.662l0.38671-13.156 19.904-0.375v13.531h33.736v-8.4667c0-8.1467-0.0638-8.5214-1.6641-9.951-1.5025-1.3424-1.8918-2.9468-4.0468-16.625-2.8088-17.827-2.9151-19.954-1.0371-20.959 1.2236-0.65489 1.3496-1.4116 1.3496-8.1308v-7.4101l-34.072 0.35935-0.9824 3.8808c-0.5401 2.1338-1.1828 3.8788-1.4277 3.8788-0.24517 0-1.11-1.8222-1.9219-4.0487l-1.4766-4.0468h-32.988l-0.0156 15.855-1.7988-2.3613c-9.4535-12.416-24.864-17.817-41.228-14.449-5.6017 1.1529-10.457 2.9884-14.465 5.4687-1.3842 0.85666-2.7052 1.5586-2.9356 1.5586-0.23031 0-0.30322-5.0868-0.1621-11.303 0.28087-12.371 0.7123-13.995 4.5624-17.234 2.4044-2.0232 8.5744-3.5587 18.418-4.5819 12.426-1.2917 11.311-0.79451 11.311-5.0331v-3.6815h-190.27zm93.458 8.4354c1.7817 5.21e-4 3.4565 0.23301 6.1444 0.69726 8.1552 1.4085 15.815 3.5181 18.338 5.0526 3.317 2.0172 4.4061 4.8509 4.7284 12.289 0.22343 5.1571 0.0867 6.627-0.63672 6.8358-0.50683 0.14634-3.8046 0.59459-7.33 0.99608-8.6717 0.98758-15.698 4.3948-21.83 10.588-2.3751 2.3986-4.4588 4.3612-4.6308 4.3612-0.17199 0-0.66251-0.7707-1.0918-1.7129-0.42927-0.94213-2.1815-3.2097-3.8926-5.039-3.2048-3.4262-8.5153-6.0569-12.27-6.078-3.5393-0.02-3.714-0.49429-3.3926-9.1912 0.30859-8.35 0.78432-10.006 3.8104-13.25 2.0912-2.2416 5.9723-3.4752 15.268-4.8554 3.115-0.46255 5.0033-0.69387 6.7851-0.69335zm88.788 32.255c1.3409 0.0264 2.7001 0.12536 4.0741 0.29881 11.615 1.466 20.832 7.7069 25.557 17.305 1.9876 4.0377 2.3269 5.4777 2.5625 10.867 0.43181 9.873-2.1253 16.684-8.7519 23.311-3.7642 3.7641-11.384 7.752-16.691 8.7362-19.85 3.6805-37.403-7.8939-40.062-26.418-2.6989-18.796 13.199-34.496 33.312-34.099zm-249.95 0.17968c1.4673-1e-3 2.9455 0.0999 4.4218 0.30859 4.9735 0.70301 12.451 4.2502 16.621 7.8847l2.9355 2.5566-5.3144 5.6679c-4.7574 5.074-5.4626 5.5901-6.7187 4.9179-1.2018-0.64316-1.3584-1.2186-1.0898-4.0136 0.26766-2.7856 0.05845-3.5669-1.4316-5.3378-2.4791-2.9462-5.0218-3.7981-10.438-3.4921-5.5186 0.31181-8.2974 1.9106-11.453 6.5897-4.2038 6.2336-4.5521 14.882-0.91015 22.586 3.7352 7.901 9.3189 11.874 17.432 12.404 6.6287 0.43294 9.3029-0.20375 12.32-2.9296 1.4145-1.2779 3.2178-2.3242 4.0077-2.3242 1.3741 0 1.4375 0.30829 1.4375 7.0858v7.0839l-12.652-0.0488c-17.367-0.066-22.753-1.6971-30.738-9.3124-4.6178-4.4038-6.8668-7.9586-8.6425-13.664-1.5491-4.9773-1.585-7.3755-0.20312-13.451 2.9562-12.997 16.232-22.501 30.416-22.512zm188.17 0.37303c0.92675-0.0159 1.8826-3e-3 2.873 0.0391 5.6499 0.24113 7.155 0.57421 11.039 2.4453 2.4733 1.1915 5.9505 3.484 7.7284 5.0937l3.2324 2.9276-4.9901 5.4999c-6.3436 6.9913-7.7362 7.1241-7.7577 0.74608-0.0208-6.1791-4.0196-9.066-11.932-8.619-5.7548 0.32519-9.2669 2.6022-12.299 7.9745-1.9562 3.4664-2.0957 4.1565-2.0957 10.473 0 6.2801 0.15893 7.0814 2.2188 11.266 4.0238 8.1735 10.773 12.355 19.754 12.238 4.8465-0.063 8.2978-1.3387 10.787-3.9882 0.85191-0.90682 2.1038-1.6504 2.7812-1.6504 1.118 0 1.2324 0.68595 1.2324 7.4218v7.4237l-9.6151-0.0859c-5.288-0.047-11.448-0.32628-13.688-0.61913-12.07-1.5781-21.634-8.2807-26.807-18.787-2.0202-4.1036-2.1816-4.9369-2.1816-11.195 0-6.1632 0.18551-7.1507 2.0938-11.178 2.6379-5.5665 5.5892-8.9488 10.697-12.256 5.3875-3.4878 10.44-5.0583 16.928-5.1698zm-132.98 1.2246 7.705 0.1875 7.703 0.18947 9.3085 24.182c5.1195 13.3 9.7846 24.91 10.367 25.799 0.58251 0.88902 1.7493 2.0691 2.5918 2.6211 1.0324 0.67646 1.5044 1.6144 1.4492 2.877l-0.082 1.873h-22.03l-0.084-1.9102c-0.0528-1.2048 0.36026-2.1456 1.1211-2.5526 1.7257-0.92358 1.5022-3.1584-0.96874-9.6932l-2.1738-5.7479h-18.412l-2.1152 5.5995c-2.4785 6.5668-2.658 8.904-0.76366 9.9178 0.8836 0.47289 1.3496 1.4128 1.3496 2.7226v2.002h-17.543v-1.957c0-1.2941 0.74308-2.7218 2.1934-4.2167 1.8062-1.8617 3.7954-6.638 11.287-27.078l9.0956-24.814zm46.245 0.0391h17.133c15.137 0 17.636 0.1553 21.424 1.3281 7.7635 2.4035 11.035 6.8311 10.984 14.865-0.0707 11.185-5.9121 16.576-24.707 22.797l-7.2909 2.4121v4.5487c0 3.9018 0.24575 4.8421 1.7344 6.6112 1.0292 1.2232 1.6465 2.6874 1.5176 3.5956-0.21377 1.5063-0.38613 1.5336-10.506 1.7168l-10.289 0.1875v-1.9258c0-1.18 0.65108-2.536 1.6856-3.5078l1.6875-1.584v-44.199l-1.6875-1.3262c-1.1524-0.90649-1.6856-1.992-1.6856-3.4238v-2.0957zm200.37 0h10.773l3.4688 10.965c1.9079 6.0302 3.698 11.209 3.9766 11.51 0.27862 0.30066 2.2729-4.6318 4.4316-10.963l3.9238-11.512h11.014c10.875 0 11.014 0.0185 11.014 1.4746 0 0.81104-0.64947 2.1648-1.4414 3.0078l-1.4394 1.5332 3.4004 23.014c2.4168 16.359 3.7116 23.358 4.4766 24.203 0.59183 0.654 1.0762 2.0009 1.0762 2.9922v1.8027h-20.916v-1.7207c0-0.99766 0.71468-2.3429 1.7051-3.205l1.707-1.4844-1.3691-8.7714c-3.3323-21.333-4.0212-25.48-4.2676-25.727-0.14418-0.14423-2.1508 5.5854-4.4589 12.732-2.3082 7.1468-4.3198 13.374-4.4706 13.838-0.19056 0.58597-2.0028 0.84178-5.9393 0.84178h-5.6659l-4.2011-12.312c-2.3105-6.7724-4.36-12.77-4.5546-13.326-0.514-1.4711-0.60019-1.0334-2.8594 14.582-2.5654 17.732-2.5828 18.78-0.33984 20.25 1.1157 0.73099 1.6491 1.6272 1.5176 2.5469-0.19305 1.3521-0.63656 1.4266-9.4804 1.6055l-9.2772 0.1875v-2.0195c0-1.3211 0.4613-2.2654 1.334-2.7324 0.7337-0.39265 1.6123-1.24 1.9512-1.8809 0.33883-0.64091 2.218-11.158 4.1758-23.371l3.5586-22.207-1.7988-1.4336c-0.98923-0.78879-1.7988-2.1067-1.7988-2.9276 0-1.4784 0.10626-1.4922 10.775-1.4922zm-51.964 7.4765c-0.63347 2.8e-4 -1.307 0.0219-2.0254 0.0625-3.8114 0.21535-5.1424 0.62172-7.5175 2.291-6.0579 4.2576-8.3169 10.289-7.7987 20.822 0.48842 9.9294 3.4804 15.405 9.9511 18.203 1.2988 0.5617 4.3511 1.0345 6.7831 1.0488 11.511 0.0687 18.164-8.7538 17.369-23.035-0.39777-7.1503-2.3338-11.792-6.4218-15.391-3.3598-2.9574-5.9055-4.0038-10.34-4.0019zm-124.72 0.30467c-0.77813 4e-3 -1.59 0.0534-2.4336 0.14846l-2.9824 0.33592-0.19727 12.398c-0.10829 6.82 0.0705 12.399 0.39648 12.398 1.2878-2e-3 7.9261-4.2559 11.117-7.1249 2.1339-1.9186 3.8092-4.1716 4.5566-6.1288 1.0588-2.7724 1.0809-3.3794 0.21678-5.8241-1.4333-4.0551-5.2268-6.2318-10.674-6.203zm-64.909 4.8905c-0.44047 0.50087-5.3358 15.076-5.3358 15.887 0 0.24971 2.582 0.45507 5.7362 0.45507s5.7343-0.18262 5.7343-0.40429c-1e-5 -1.3129-5.7832-16.337-6.1347-15.938zm91.413 21.168c0.0936 0.12854 0.71871 1.7519 1.3887 3.6073 4.5424 12.581 14.425 21.485 28.031 25.256 2.7697 0.76752 5.8782 1.3965 6.9061 1.3965 1.7654 0 1.8691 0.16736 1.8691 3.0352v3.037h-53.977v-27.61l4.7968-2.4082c2.6384-1.3241 6.1513-3.3376 7.8065-4.4765 1.6553-1.1389 3.0861-1.9664 3.1797-1.8379zm3.0977 45.667c3.5978 0 6.0319 1.5858 6.0897 3.8261h-2.9473c-0.15679-1.1266-1.36-1.793-3.1836-1.793-1.9144 0-3.0546 0.73136-3.0625 1.7285-0.0165 1.1072 1.4848 1.5672 2.8711 1.8262l1.5859 0.31056c2.5415 0.47266 4.9588 1.5217 4.9667 3.8202-8e-3 2.3375-2.3605 3.9237-6.412 3.9237-3.936 0-6.4367-1.4819-6.5605-4.1171h3.0137c0.12377 1.3921 1.609 2.0644 3.5234 2.0644 1.9969 0 3.367-0.75748 3.375-1.8906-8e-3 -1.0295-1.2135-1.4753-3.0371-1.8379l-1.9238-0.38867c-2.7808-0.56332-4.5038-1.6588-4.5038-3.5624-8e-3 -2.344 2.6568-3.9101 6.205-3.9101zm36.553 0c3.5978 0 6.032 1.5858 6.0897 3.8261h-2.9453c-0.15677-1.1266-1.3619-1.793-3.1854-1.793-1.9144 0-3.0546 0.73136-3.0625 1.7285-0.0165 1.1072 1.4868 1.5672 2.873 1.8262l1.584 0.31056c2.5415 0.47266 4.9588 1.5217 4.9667 3.8202-8e-3 2.3375-2.3605 3.9237-6.412 3.9237-3.936 0-6.4347-1.4819-6.5585-4.1171h3.0117c0.12378 1.3921 1.609 2.0644 3.5234 2.0644 1.9969 0 3.367-0.75748 3.375-1.8906-8e-3 -1.0295-1.2135-1.4753-3.0371-1.8379l-1.9219-0.38867c-2.7808-0.56332-4.5058-1.6588-4.5058-3.5624-8e-3 -2.344 2.6568-3.9101 6.205-3.9101zm-121.32 0.18164h6.3378c3.8866 0 5.9569 1.8589 5.9569 4.3905 1e-5 2.5512-2.095 4.3886-5.9979 4.3886h-3.2344v4.4804h-3.0625v-13.26zm17.502 0h3.0605v11.246h7.4433v2.0137h-10.504v-13.26zm21.188 0h3.7792l5.9589 13.26h-3.2676l-1.4023-3.2694h-6.3554l-1.3945 3.2694h-3.2676zm11.643 0h3.459l4.1327 5.8651h0.16602l4.1328-5.8651h3.459l-6.1483 8.3143v4.9452h-3.0527v-4.9452l-6.1483-8.3143zm44.87 0h3.457l4.1348 5.8651h0.16407l4.1347-5.8651h3.457l-6.1483 8.3143v4.9452h-3.0527v-4.9452l-6.1464-8.3143zm36.965 0h13.484v2.0137h-5.2245v11.246h-3.0371v-11.246h-5.2226v-2.0137zm18.623 0h10.992v2.0137h-7.9296v3.5995h7.3593v2.0137h-7.3593v3.619h7.994v2.0137h-11.057v-13.26zm16.668 0h3.7461l5.0175 9.6092h0.19726l5.0175-9.6092h3.746v13.26h-2.9375v-9.1092h-0.15625l-4.6718 9.0702h-2.1934l-4.6718-9.0896h-0.15624v9.1288h-2.9375v-13.26zm-164.4 2.0078v4.7968h2.8203c2.2775 0 3.293-1.0025 3.293-2.4141s-1.0146-2.3828-3.3086-2.3828zm37.451 0.71093-2.2852 5.3417h4.703l-2.2852-5.3417h-0.13281zm25.371 20.15h53.977v3.2734c0 5.9319-4.3051 10.019-12.066 11.457-12.566 2.3278-28.809 0.68286-36.348-3.6815-3.183-1.8427-5.5643-5.6946-5.5643-8.9978v-2.0508z" fill="#fafafa" stroke-width=".67471"/>
 <style type="text/css">.st0{fill:#FC0C18;}
	.st1{fill:#FC0C18;}</style>
</svg>
