<?xml version="1.0" encoding="UTF-8"?>
<svg width="480" height="320" version="1.1" viewBox="0 0 480 320" xmlns="http://www.w3.org/2000/svg">
 <defs>
  <linearGradient id="a" x2="127" y2="84.667" gradientTransform="scale(3.7795)" gradientUnits="userSpaceOnUse">
   <stop stop-color="#43d6b5" offset="0"/>
   <stop stop-color="#3689e6" offset=".3"/>
   <stop stop-color="#002e99" offset="1"/>
  </linearGradient>
 </defs>
 <rect width="480" height="320" ry="16" fill="url(#a)" stroke-linecap="square" stroke-linejoin="round" stroke-width="2" style="paint-order:stroke fill markers"/>
 <path d="m101.15 75.083v3.6405c0 3.5645 0.0545 3.6381 2.6289 3.6483 3.7165 0.01436 22.363 4.3214 25.273 5.8378 5.0272 2.6189 5.6344 4.0143 5.9335 13.645l0.27343 8.8124h-7.0585l-5.3944 14.355c-10.859 28.898-15.155 40.066-15.57 40.481-0.23364 0.23365-0.42383-2.1834-0.42383-5.371v-5.7968h-7.5897c-7.171 0-7.6624 0.10998-8.8944 1.9902-1.6672 2.5445-6.3597 3.8399-10.496 2.8965-8.9286-2.0368-14.404-15.813-9.4628-23.809 3.534-5.7181 10.564-6.6681 10.564-1.4277 0 1.2298-0.3769 2.6113-0.83593 3.0702-0.57364 0.57365 0.94157 2.0146 4.8437 4.6093 3.1225 2.0763 6.0096 3.7753 6.4159 3.7753 0.84211 0 18.689-18.634 18.689-19.514 0-0.31608-1.8105-2.5552-4.0234-4.9765-17.196-18.815-50.926-14.579-61.87 7.7714-7.4782 15.272-4.7632 30.582 7.4354 41.921 4.4293 4.1175 9.5118 6.9751 16.406 9.2244 3.8467 1.255 8.6553 1.5138 35.582 1.9102l31.137 0.45703 0.25 2.5859 0.25 2.5878-25.725 0.24416-24.984 0.23633c-0.19326-7e-3 -0.387-0.01-0.58202-0.01-8.7415 0-15.779 7.0376-15.779 15.779 0 8.6435 6.8811 15.62 15.486 15.775l0.0039 2e-3 25.338 0.24608 25.338 0.24412v3.246c0 8.4859-5.634 11.551-23.004 12.516-9.2767 0.51541-10.059 0.68411-10.482 2.2617-0.62651 2.3339-0.59553 5.7696 0.0586 6.4237 0.29652 0.2965 63.072 0.53906 139.5 0.53906h138.96v-4.0702c0-2.5618-0.37329-4.1751-1.0098-4.3573-0.55598-0.15908-5.0086-0.73797-9.8944-1.2871-11.345-1.275-16.035-2.693-19.541-5.9061-2.0764-1.9029-2.9295-3.4648-3.2656-5.9706l-0.45703-3.3944 51.556-0.48827 6e-3 -4e-3c8.6797-0.0711 15.646-7.0781 15.646-15.775 0-8.7414-7.0376-15.779-15.779-15.779-0.19701 0-0.39267 5e-3 -0.58788 0.0117l-50.639-0.48212v-4.2851c0-4.2751 8e-3 -4.2907 4.0956-6.8319 2.2535-1.4009 4.2564-2.5469 4.4492-2.5469 0.1929 0 0.3496 1.819 0.3496 4.0429v4.0448h31.541v-12.94h20.216v12.94h33.966v-8.1737c0-7.7545-0.10319-8.2546-2.0215-9.7635-1.112-0.87468-2.0215-2.3782-2.0215-3.3418s-1.1455-8.6428-2.5449-17.064l-2.5449-15.311 1.7363-1.4062c1.5444-1.2508 1.7363-2.2138 1.7363-8.7558v-7.3515h-33.818l-1.0352 4.0429c-0.56998 2.224-1.2954 4.0448-1.6113 4.0448-0.31603 0-1.2296-1.821-2.0293-4.0448l-1.4531-4.0429h-32.838v15.742l-3.7422-4.2773c-2.0581-2.3527-5.7879-5.6365-8.289-7.2968l-4.5468-3.0176 0.0215-9.4392c0.0179-8.2026 0.23499-9.735 1.668-11.695 3.0968-4.2359 11.592-6.9416 25.201-8.0272l6.6718-0.53124v-7.0409h-277.4zm180.3 7.6698c4.3482 0.14294 21.904 4.0156 24.959 5.5956 4.0952 2.1177 5.923 7.1432 5.6464 15.533l-0.23633 7.1249-4.8515 2.7168c-2.6688 1.494-6.4967 4.0979-8.5077 5.787l-3.6582 3.0722-3.0371-3.4921c-5.7814-6.6461-19.918-11.384-30.691-10.285l-4.6503 0.4746v-7.8749c0-6.8015 0.24282-8.2225 1.7793-10.426 3.1953-4.5817 6.1923-5.6721 22.562-8.203 0.16427-0.02532 0.39567-0.03288 0.68554-0.02343zm-86.843 0.37107c2.4074 0.04751 4.744 0.32874 7.2284 0.83593 13.104 2.6751 17.135 4.3452 20.105 8.33 1.4549 1.9518 1.6766 3.4329 1.7012 11.322 0.0236 7.5982-0.16808 9.0553-1.1836 8.9452-0.66718-0.0723-3.1744-0.52805-5.5702-1.0117-2.4422-0.49302-13.19-0.87889-24.463-0.87889h-20.107v7.5038c0 6.5022 0.21549 7.6865 1.6172 8.8866 1.5265 1.307 1.6172 2.3866 1.6172 19.186 0 9.7896-0.31864 17.799-0.70897 17.799-1.2314 0-2.4335-1.9867-4.4668-7.3886-1.9017-5.0523-1.9901-6.1957-2.4375-31.88-0.50333-28.897-0.23272-31.646 3.5059-35.739 1.7841-1.9534 3.6462-2.7635 9.537-4.1464 5.4054-1.2691 9.6126-1.8409 13.625-1.7617zm131.97 32.548c0.8957 7e-3 1.8001 0.0454 2.7109 0.11523 11.362 0.87101 20.261 5.8144 25.748 14.305 11.774 18.217 0.11263 42.438-22.188 46.085-2.6688 0.43647-5.9429 0.75707-7.2772 0.71092-12.41-0.42923-24.235-8.138-29.361-19.141-1.8316-3.9309-2.1543-5.7151-2.1543-11.902 0-6.1737 0.32447-7.976 2.1387-11.869 5.3612-11.505 16.947-18.407 30.383-18.305zm-247.86 0.0996c0.82221 0.0249 1.6431 0.0848 2.4609 0.17967 5.589 0.64868 14.471 4.8296 17.93 8.4394l2.375 2.4785-5.2167 5.2636c-2.8691 2.8948-5.7629 5.1579-6.4315 5.0292-0.8783-0.16913-1.2236-1.3224-1.2402-4.1522-0.01956-3.3605-0.38482-4.2411-2.5762-6.1991-5.2641-4.7035-14.465-3.7183-19.568 2.0938-2.5863 2.9456-4.9237 9.482-4.9237 13.768 0 4.5733 3.0462 12.769 6.0487 16.277 4.1605 4.8606 9.2209 7.0587 16.262 7.0643 5.7513 4e-3 9.0882-1.2416 11.305-4.2225 0.47418-0.63776 1.5656-1.0238 2.4258-0.8574 1.3833 0.26759 1.5778 1.0727 1.6816 6.9667 0.06458 3.6652-0.11732 6.7526-0.4043 6.8612-0.28698 0.10862-6.7079 0.0155-14.27-0.20704-13.384-0.3936-13.892-0.47287-19.186-2.9804-7.2484-3.4337-12.936-8.8804-16.203-15.52-2.2715-4.6159-2.6156-6.1391-2.5801-11.408 0.03297-4.8891 0.48852-7.0668 2.3281-11.121 4.8893-10.775 17.45-18.128 29.783-17.754zm187.06 0.28516c7.7062-0.16339 15.47 2.4547 21.783 7.8886l3.2344 2.7852-5.2343 5.3105c-2.8783 2.9216-5.6255 5.3124-6.1054 5.3124-1.723 0-2.7717-1.7994-1.9473-3.3398 1.0478-1.9578-0.90422-6.6487-3.4258-8.2323-6.9836-4.3859-16.793-1.1243-21.117 7.0233-2.5433 4.7919-2.5056 14.672 0.0762 20.318 3.4842 7.6196 9.4187 12.092 17.273 13.014 5.3418 0.62663 10.431-0.67444 12.926-3.3046 1.0416-1.0981 2.5302-2.0038 3.3086-2.0117 1.244-0.0125 1.416 0.86757 1.416 7.2655v7.2772l-10.312-0.0937c-5.671-0.052-12.268-0.42098-14.66-0.81835-10.099-1.6774-20.535-9.3981-24.998-18.496-1.8631-3.7975-2.176-5.4532-2.1484-11.322 0.0408-8.5455 2.424-14.103 8.4843-19.771 6.0904-5.6969 13.741-8.6412 21.447-8.8046zm-125.51 1.0801h7.5741l9.0917 23.654c10.137 26.372 10.731 27.707 12.986 29.115 0.95869 0.59871 1.5938 1.8827 1.5938 3.2266v2.2305h-21.836v-1.9219c0-1.0575 0.54569-2.376 1.2129-2.9296 1.673-1.3884 1.5431-2.62-0.99218-9.4374l-2.2051-5.9276h-18.291l-1.5488 3.6094c-0.85116 1.9857-2.0037 5.1367-2.5625 7.0019-0.95108 3.1744-0.90206 3.4655 0.76756 4.5741 1.007 0.6686 1.7832 2.0217 1.7832 3.1073 0 1.9084-0.0684 1.9238-8.8964 1.9238-8.6204 0-8.8944-0.055-8.8944-1.7754 0-0.97642 0.93731-2.7543 2.084-3.9511 1.421-1.4832 5.0264-10.092 11.322-27.037 5.0804-13.674 9.2382-24.997 9.2382-25.162 0-0.16532 3.4067-0.30078 7.5722-0.30078zm228.57 0h20.836l3.8476 11.928c2.1157 6.5606 3.9918 11.564 4.1698 11.119 0.17779-0.44478 2.0375-5.7198 4.1328-11.725l3.8106-10.918 11.119-0.22654c10.049-0.20334 11.119-0.0904 11.119 1.1621 0 0.76226-0.72308 2.1563-1.6074 3.0976-1.6069 1.7104-1.6059 1.7243 1.6133 23.908 1.7716 12.209 3.77 23.229 4.4393 24.488 0.66943 1.2592 1.2168 2.9882 1.2168 3.8417 0 1.4505-0.68746 1.5508-10.514 1.5508-10.377 0-10.514-0.0227-10.514-1.8262 0-1.005 0.72755-2.2823 1.6172-2.8378 0.90485-0.56509 1.6191-1.8858 1.6191-2.998 0-2.2349-4.796-32.985-5.2089-33.397-0.14585-0.14589-2.3187 6.1213-4.83 13.928l-4.5663 14.193h-5.2733c-6.1488 0-5.1762 1.3809-10.969-15.562-1.9378-5.6682-3.7392-10.308-4.0038-10.311-0.26445-3e-3 -1.5119 7.3273-2.7715 16.289l-2.291 16.293 1.7617 1.4258c0.968 0.78383 1.7598 2.1857 1.7598 3.1152 0 1.6102-0.41438 1.6894-8.7616 1.6894-4.8185 0-9.0042-0.24253-9.3007-0.53905-1.0638-1.0638-0.50913-3.4623 0.98436-4.2616 0.83725-0.44807 1.7634-1.4435 2.0586-2.2129 0.29524-0.76933 2.1502-11.243 4.123-23.273 3.5456-21.622 3.5684-21.888 1.9844-22.984-0.88136-0.61023-1.6016-1.9755-1.6016-3.0332v-1.9219zm-189.51 0.4043h17.723c20.053 0 23.347 0.67687 27.76 5.703 5.8771 6.6937 4.6866 18.142-2.5215 24.252-3.2136 2.7238-11.859 6.788-19.85 9.3338l-5.8612 1.8691v4.9726c1e-5 3.945 0.33387 5.2741 1.6172 6.4355 0.88958 0.80502 1.6172 2.3163 1.6172 3.3593 0 1.8923-0.0239 1.8965-10.514 1.8965-10.402 0-10.514-0.0193-10.514-1.8418 0-1.0131 0.72758-2.4649 1.6172-3.2266 1.5454-1.3232 1.6172-2.386 1.6172-23.857 0-20.835-0.10797-22.565-1.4902-23.748-0.81995-0.70207-1.4254-2.1481-1.3457-3.2128l0.14453-1.9356zm146.56 7.0155c-5.6818 0.0637-10.844 3.2608-13.854 9.0564-1.2758 2.4573-1.8226 5.2527-2.0742 10.615-0.5437 11.594 2.0106 17.817 8.7343 21.279 4.9233 2.5352 12.971 2.2504 17.139-0.60546 5.7435-3.9355 7.9257-9.07 7.9257-18.652 0-10.525-2.8882-16.266-9.955-19.787-2.6429-1.317-5.3333-1.9352-7.9159-1.9062zm-123.75 0.74023c-0.49838 0.0117-1.0113 0.0344-1.541 0.0723l-3.621 0.2578-0.22461 12.334c-0.17804 9.8358-4e-3 12.332 0.85351 12.332 1.4087 0 8.4494-4.4323 11.371-7.1581 3.1948-2.9806 4.578-5.9466 4.578-9.8201 0-5.4365-3.94-8.1913-11.416-8.0175zm-63.894 5.3026c-0.74657 0.29246-5.5605 13.227-5.5605 15.045 0 0.33252 2.585 0.60546 5.746 0.60546 4.2515 0 5.6539-0.26392 5.3866-1.0117-0.19875-0.55598-1.3874-3.922-2.6426-7.4804-1.2552-3.5583-2.548-6.7736-2.8711-7.1464-0.0153-0.0178-0.0345-0.0212-0.0586-0.0117zm84.407 24.557c0.33358-5e-3 0.60742 7.2681 0.60742 16.164v16.174h-55.095l0.25391-2.6289 0.25195-2.627 37.492-0.43358 0.25976-7.2284c0.24731-6.8965 0.17194-7.268-1.6191-8.0819-3.2744-1.488-1.7748-3.342 4.3026-5.3183 3.1136-1.0124 7.2991-2.779 9.3007-3.9257 2.0016-1.1468 3.9124-2.0881 4.246-2.0938zm71.772 14.408 3.9882 3.1757c2.1937 1.7466 6.0145 4.2336 8.4901 5.5272 4.3866 2.2921 4.5002 2.4395 4.502 5.789h2e-3v3.4374h-54.183v-3.7323c0-3.6691 0.039-3.7246 2.2246-3.1758 1.2232 0.3072 9.5924 0.75556 18.6 0.99608l16.377 0.43749v-12.455zm-62.257 27.434c3.5978 0 6.0319 1.5858 6.0897 3.8261h-2.9473c-0.15679-1.1266-1.36-1.793-3.1836-1.793-1.9144 0-3.0546 0.73135-3.0625 1.7285-0.0165 1.1072 1.4848 1.5672 2.8711 1.8262l1.5859 0.31052c2.5415 0.47267 4.9588 1.5217 4.9667 3.8202-8e-3 2.3375-2.3605 3.9237-6.412 3.9237-3.936 0-6.4367-1.4819-6.5605-4.1171h3.0137c0.12377 1.3921 1.609 2.0644 3.5234 2.0644 1.9969 0 3.367-0.75748 3.375-1.8906-8e-3 -1.0295-1.2135-1.4753-3.0371-1.8379l-1.9238-0.38866c-2.7808-0.56332-4.5038-1.6588-4.5038-3.5624-8e-3 -2.344 2.6568-3.9101 6.205-3.9101zm36.553 0c3.5978 0 6.032 1.5858 6.0897 3.8261h-2.9453c-0.15677-1.1266-1.3619-1.793-3.1854-1.793-1.9144 0-3.0546 0.73135-3.0625 1.7285-0.0165 1.1072 1.4868 1.5672 2.873 1.8262l1.584 0.31052c2.5415 0.47267 4.9588 1.5217 4.9667 3.8202-8e-3 2.3375-2.3605 3.9237-6.412 3.9237-3.936 0-6.4347-1.4819-6.5585-4.1171h3.0117c0.12378 1.3921 1.609 2.0644 3.5234 2.0644 1.9969 0 3.367-0.75748 3.375-1.8906-8e-3 -1.0295-1.2135-1.4753-3.0371-1.8379l-1.9219-0.38866c-2.7808-0.56332-4.5058-1.6588-4.5058-3.5624-8e-3 -2.344 2.6568-3.9101 6.205-3.9101zm-121.32 0.18165h6.3378c3.8866 0 5.9569 1.8589 5.9569 4.3905 1e-5 2.5512-2.095 4.3886-5.9979 4.3886h-3.2344v4.4804h-3.0625v-13.26zm17.502 0h3.0605v11.246h7.4433v2.0137h-10.504v-13.26zm21.188 0h3.7792l5.9589 13.26h-3.2676l-1.4023-3.2694h-6.3554l-1.3945 3.2694h-3.2676zm11.643 0h3.459l4.1327 5.8651h0.16602l4.1328-5.8651h3.459l-6.1483 8.3143v4.9452h-3.0527v-4.9452l-6.1483-8.3143zm44.87 0h3.457l4.1348 5.8651h0.16407l4.1347-5.8651h3.457l-6.1483 8.3143v4.9452h-3.0527v-4.9452l-6.1464-8.3143zm36.965 0h13.484v2.0137h-5.2245v11.246h-3.0371v-11.246h-5.2226v-2.0137zm18.623 0h10.992v2.0137h-7.9296v3.5995h7.3593v2.0137h-7.3593v3.619h7.994v2.0137h-11.057v-13.26zm16.668 0h3.7461l5.0175 9.6092h0.19726l5.0175-9.6092h3.746v13.26h-2.9375v-9.1092h-0.15625l-4.6718 9.0702h-2.1934l-4.6718-9.0896h-0.15624v9.1288h-2.9375v-13.26zm-164.4 2.0078v4.7968h2.8203c2.2775 0 3.293-1.0025 3.293-2.4141s-1.0146-2.3828-3.3086-2.3828zm37.451 0.71092-2.2852 5.3417h4.703l-2.2852-5.3417h-0.13281zm69.308 19.943h54.183v2.453c0 5.9491-3.1456 9.6458-9.955 11.695-8.8785 2.6721-26.733 1.8695-35.848-1.6113-4.6666-1.7822-8.3808-6.0967-8.3808-9.7342v-2.8026zm-89.087 2e-3h55.122l-6e-3 1.8184c-2e-3 1.0008-0.3858 3.1918-0.85156 4.869-0.96445 3.4729-4.8055 6.4325-10.061 7.7499-5.9164 1.4832-18.217 1.7199-25.314 0.48632-12.218-2.1234-16.838-5.2224-18.334-12.297l-0.55663-2.627z" fill="#fafafa" stroke-width=".80871"/>
 <style type="text/css">.st0{fill:#FC0C18;}
	.st1{fill:#FC0C18;}</style>
</svg>
