<?xml version="1.0" encoding="UTF-8"?>
<svg version="1.1" viewBox="0 0 480 320" xmlns="http://www.w3.org/2000/svg"><defs><linearGradient id="a" x1="95.9" x2="13.84" y1="-15.24" y2="84.67" gradientTransform="scale(3.78)" gradientUnits="userSpaceOnUse"><stop stop-color="#a56de2" offset="0"/><stop stop-color="#bc245d" offset="1"/></linearGradient></defs><rect width="480" height="320" ry="16" fill="url(#a)"/><path d="m248 96v21.36l-8 8-8-8v-21.36h16m56 56v16h-21.36l-8-8 8-8h21.36m-106.6 0 8 8-8 8h-21.36v-16h21.36m42.64 42.64 8 8v21.36h-16v-21.36l8-8m24-114.6h-48v44l24 24 24-24zm56 56h-44l-24 24 24 24h44zm-116 0h-44v48h44l24-24zm36 36-24 24v44h48v-44z" fill="#fff"/></svg>
