<?xml version="1.0" encoding="UTF-8"?>
<svg width="480" height="320" version="1.1" viewBox="0 0 480 320" xmlns="http://www.w3.org/2000/svg">
 <defs>
  <linearGradient id="a" x1="21.096" x2="139.51" y1="22.923" y2="63.143" gradientTransform="scale(3.7795)" gradientUnits="userSpaceOnUse">
   <stop stop-color="#cc3b02" offset="0"/>
   <stop stop-color="#a10705" offset="1"/>
  </linearGradient>
 </defs>
 <rect width="480" height="320" ry="16" fill="url(#a)" stroke-linecap="square" stroke-linejoin="round" stroke-width="2" style="paint-order:stroke fill markers"/>
 <path d="m99.409 195.15-11.875-1.0979-0.08806-3.6636 0.51277 6.3e-4c0.73255 7.8e-4 23.283 2.0148 23.354 2.0858 0.0325 0.0325 0.0391 0.89461 0.0147 1.916l-0.044 1.8569zm-56.485-1.324v-2.1875h5.6704c6.243 0 6.7098-0.0533 8.4144-0.96192 1.1439-0.60972 2.3707-1.8975 2.916-3.0611 0.3899-0.83194 0.42497-1.0762 0.47131-3.2816l0.05008-2.3828h-20.022v-4.3752h23.906v3.973c0 4.3827-0.1426 5.8499-0.72559 7.466-1.1886 3.295-3.9579 5.9629-7.0171 6.7597-0.75005 0.19536-2.0765 0.23883-7.2903 0.23883h-6.3734zm22.969 0.39061v-1.7969l3.1641-9.4e-4c1.7402-4.6e-4 3.4205-0.0721 3.7339-0.15915 0.88815-0.24665 1.0707-0.67136 1.0707-2.4907v-1.568h7.0552l0.45672-0.45671c0.35543-0.35543 0.45672-0.598 0.45672-1.0938v-0.637h-15.938v-3.75h19.219l-0.0016 3.3203c-0.0014 3.1644-0.0189 3.357-0.37085 4.1015-0.4439 0.93898-1.0271 1.513-1.9714 1.9405-0.62098 0.28108-1.0253 0.31868-3.4599 0.32171-2.9624 4e-3 -2.9443-1e-3 -2.9479 0.83652-0.0024 0.56299-0.86634 1.8886-1.531 2.3492-1.1138 0.77185-1.7936 0.88021-5.5238 0.88021h-3.4127zm50.468-0.39061v-2.1875h6.0881c5.7744 0 6.1323-0.0166 6.9524-0.32353 1.2136-0.45407 2.4545-1.6315 3.0914-2.9335l0.50869-1.0398 0.0944-9.922h3.265l-2e-3 5.2736c-3e-3 5.8462-0.0829 6.5261-0.97142 8.2276-0.75707 1.4498-2.5497 3.1477-4.1824 3.9613-2.213 1.1028-2.4398 1.1312-9.0172 1.1312h-5.8265zm54.376 0v-2.1875h20.942l-0.0826-9.609-20.859-0.0804v-4.3729h24.375v18.438h-24.375zm26.25 6e-3v-2.1936h7.6422c7.0617 0 7.7148-0.0227 8.5935-0.29602 1.8657-0.58068 3.1839-1.7325 3.781-3.304 0.26744-0.70382 0.29575-1.2495 0.29575-5.6984v-4.9202h3.2812v5.3578c0 5.8586-0.0576 6.3628-0.93245 8.1577-0.92496 1.8978-3.1302 3.8048-5.3526 4.6291-0.97307 0.36083-1.0425 0.36397-9.1446 0.41288l-8.1642 0.0492v-2.194zm29.202 1.8131c-1.527-0.62816-2.2916-1.3284-3.0778-2.8185l-0.42104-0.79804-0.0898-14.609h3.293v4.6874h13.091l0.10322 0.41129c0.0568 0.2262 0.50955 0.81762 1.0062 1.3142 0.6917 0.69169 1.0986 0.96102 1.739 1.1512 1.5048 0.44689 2.9034 0.21464 4.1654-0.69172l0.67631-0.48567v2.8319h-20.781v1.6456c0 1.9187 0.20916 2.5757 0.96714 3.0378 0.504 0.30727 0.76384 0.31536 10.166 0.31593l9.6484 5.9e-4v4.3752l-19.609-8e-3 -0.87617-0.36041zm22.048-1.8196v-2.1875h12.977l-0.086-4.9218-10.859-0.0822v-3.9024h13.437v8.906h4.0626v4.3752h-19.531zm44.375 0v-2.1875h7.2378c6.2419 0 7.3395-0.0348 7.9756-0.25146 0.86941-0.29623 1.8178-1.1316 1.8178-1.6011 0-0.33112-3e-3 -0.33127-6.0548-0.37217l-6.0548-0.0409v-4.3752l14.141-0.0813v-2.9656h-14.491l-0.10107 0.76195c-0.15341 1.1566-0.90931 2.51-1.9631 3.5152-1.1886 1.1337-2.2872 1.6568-3.4839 1.6588l-0.89844 2e-3v-4.3453l0.83241-0.46979c1.6757-0.94571 3.0276-2.9421 3.1876-4.7074l0.0858-0.94631h20.131l-0.0958 11.484-0.4122 1.1275c-0.78912 2.1586-2.4689 4.0063-4.588 5.046-1.8559 0.91086-2.1212 0.93562-10.033 0.93562h-7.2329zm-193.9-4.8525c-6.1444-0.58609-11.189-1.0699-11.211-1.0751-0.02154-5e-3 -0.03908-0.84654-0.03908-1.8696v-1.8601l0.58594 0.0684c0.32228 0.0378 5.3673 0.48672 11.211 0.99805 5.8435 0.51133 10.959 0.97266 11.367 1.0252l0.74219 0.0955v3.7207l-0.74219-0.0185c-0.40819-0.0102-5.7694-0.49822-11.914-1.0843zm14.219-5.5377v-6.0155h3.2812v12.031h-3.2812zm25.625 3.75v-2.2656h22.656v4.5313h-22.656zm127.34-0.31249v-1.9531h23.438v3.9061h-23.438zm-166.33-3.8362c-6.1875-0.58778-11.443-1.0725-11.68-1.0772l-0.42969-8e-3v-1.8752c0-1.396 0.04989-1.8749 0.19533-1.8747 0.10741 1.5e-4 5.328 0.45694 11.602 1.0151 6.2736 0.55812 11.565 1.015 11.758 1.0153 0.34579 4.7e-4 0.35157 0.0325 0.35157 1.9537 0 1.7623-0.0268 1.9515-0.27345 1.9366-0.15039-9e-3 -5.3359-0.49746-11.523-1.0852zm142.42 0.62105c-0.87247-0.39575-1.209-0.69637-1.5689-1.4015-0.71554-1.4019-0.51565-2.763 0.56443-3.843 1.248-1.248 3.0786-1.3172 4.3899-0.16592 1.5109 1.3265 1.5026 3.6507-0.0174 4.9035-1.0415 0.85848-2.2063 1.0338-3.3679 0.50684zm2.4655-1.699c1.1819-1.1819 0.45554-2.9809-1.2003-2.9729-1.1043 5e-3 -1.7367 0.66031-1.7367 1.7987 0 0.44304 0.12031 0.69309 0.53125 1.104 0.44758 0.44757 0.6426 0.53125 1.238 0.53125 0.5743 0 0.79313-0.0864 1.1678-0.4611zm-47.626-2.1951v-2.1875h13.594v4.3752h-13.594zm-156.72-9.1408v-1.9531h396.25l-4.1366 3.9006-392.13 6e-3zm201.48-6.5699c-8.2953-1.5561-14.618-7.8841-16.277-16.292-0.39851-2.019-0.3589-5.7124 0.0837-7.7994 1.7457-8.2318 8.1169-14.499 16.194-15.928 2.0428-0.36166 5.2154-0.32061 7.2242 0.0935 7.9604 1.6411 13.997 7.6894 15.763 15.793 0.35747 1.6404 0.40932 6.4082 0.0858 7.8905-0.91204 4.1794-2.6055 7.4487-5.334 10.298-2.7859 2.9089-5.7524 4.6469-9.679 5.6704-1.9346 0.50438-6.0805 0.64528-8.0602 0.27394zm5.7918-6.9596c2.924-0.53752 5.8658-2.3894 7.7348-4.8692 2.7719-3.6779 3.4774-8.0791 2.0059-12.515-0.67411-2.0324-1.5351-3.3989-3.174-5.0373-1.65-1.6497-2.9714-2.4844-5.0925-3.2167-1.4287-0.4933-1.5752-0.5125-3.9061-0.5125-2.3311 0-2.4776 0.0193-3.9061 0.5125-2.1212 0.73236-3.4426 1.567-5.0925 3.2167-1.8986 1.8983-2.8825 3.631-3.6014 6.3424-0.40664 1.5337-0.3767 4.6998 0.0599 6.328 1.3186 4.919 5.105 8.6611 9.806 9.6914 1.1639 0.25512 3.9303 0.28721 5.1666 0.0599zm-43.843 6.8152c-6.1625-1.0388-11.723-5.2154-14.568-10.942-2.2877-4.605-2.6898-10.382-1.0681-15.344 1.8313-5.6039 6.079-10.184 11.498-12.397 8.7908-3.5905 18.842-0.43003 24.124 7.5851l1.1325 1.7187-8.6362 0.0831-1.0392-0.86256c-1.2068-1.0017-2.9304-1.934-4.4852-2.4262-1.6637-0.5266-4.7048-0.60843-6.517-0.17533-4.9194 1.1756-8.5058 4.8423-9.7595 9.9775-0.38669 1.5842-0.34916 4.295 0.0839 6.0593 0.94417 3.8468 3.4687 6.986 6.974 8.6717 2.0668 0.99394 3.4538 1.3158 5.6251 1.3054 1.8464-9e-3 3.2186-0.27765 4.8438-0.9487 1.1063-0.45683 3.2455-1.846 3.8963-2.5302l0.45891-0.48246h8.5406l-0.37927 0.74219c-0.63844 1.2494-1.9624 3.0107-3.2071 4.2667-2.9703 2.997-6.7412 4.9814-10.786 5.6764-1.7416 0.29915-5.0222 0.30992-6.7302 0.0219zm144.3-0.40944c-4.9697-1.2108-8.8127-5.3884-9.5951-10.43-0.1138-0.73349-0.17057-5.7562-0.17057-15.093v-13.993h7.6498l0.0846 28.516 0.43291 0.8815c0.48438 0.98634 1.4601 1.967 2.4813 2.4938 0.48586 0.25062 1.0444 0.37062 1.9593 0.42081 1.1736 0.0644 1.3614 0.0318 2.2656-0.39621 1.2125-0.57365 2.0723-1.411 2.6089-2.5405l0.40826-0.85939 0.083-28.516h7.6513l-5e-3 14.101c-6e-3 15.147-0.0132 15.306-0.81816 17.499-1.4131 3.8498-4.9395 6.9475-9.0202 7.9238-1.7545 0.41968-4.2758 0.41665-6.0155-7e-3zm-307.73-19.673v-19.844h20.781v7.3402l-13.047 0.0816v9.0625l13.047 0.0816v7.3368l-13.047 0.0816-0.08104 15.703h-7.6535zm12.038 19.729c0.0036-0.0658 6.1047-8.979 13.558-19.807l13.552-19.687 6.3209-0.0846v39.692h-7.1807l-0.08474-6.1718-13.496-0.0814-4.173 6.175-4.252 0.0416c-2.3385 0.0227-4.2489-0.0125-4.2452-0.0781zm26.206-19.455c0.0223-3.502-0.01285-6.367-0.07812-6.3666-0.12076 4.8e-4 -8.4302 12.192-8.5856 12.597-0.0717 0.18683 0.57592 0.21393 4.269 0.17866l4.3536-0.0416zm9.4122-0.27587v-19.846l8.7874 0.083 5.8798 13.622c3.2339 7.4925 5.9293 13.574 5.9902 13.514 0.0607-0.0594 2.7372-6.1893 5.9475-13.622l5.8371-13.514 8.8078-0.083v39.692h-7.6562v-20h-0.44946c-0.48333 0-0.42138-0.13553-7.7118 16.875l-1.3058 3.0469h-7.014l-4.2879-9.9609c-4.2217-9.8075-4.2947-9.9609-4.7282-9.9609h-0.4405v20h-7.6562zm43.279 2e-3v-19.844h7.3436v39.689h-7.3436zm9.5312 0v-19.844h7.8127v32.344h10.156v7.3436h-17.969zm22.031 12.25v-7.5938l-12.367-24.5 8.0697 6e-3 3.8963 7.6633c2.143 4.2149 3.9746 7.7703 4.0702 7.9011 0.13988 0.19128 0.96987-1.3037 4.2346-7.6271l4.0607-7.8652 4.0176-0.0417c2.2096-0.0231 4.0176-4e-3 4.0176 0.0423 0 0.0462-2.7774 5.5672-6.172 12.269l-6.172 12.185v15.155h-7.6562zm104.53-12.249v-19.844h8.6929l5.6791 13.164c3.1234 7.24 5.7989 13.406 5.9456 13.701l0.26653 0.53748 0.3024-0.69372c0.16634-0.38155 2.8293-6.5472 5.9176-13.701l5.6152-13.008h8.6744v39.689h-7.6562v-20h-0.39923c-0.33177 0-0.45997 0.1386-0.75886 0.82031-0.19778 0.45116-2.1362 4.9512-4.3075 9.9998l-3.9481 9.1797h-6.9354l-4.2864-9.9609c-4.0989-9.5251-4.3053-9.9632-4.7161-10.01l-0.42969-0.0494v20.021h-7.6562zm43.438-8e-3v-19.852l7.539 0.0573c8.4926 0.0645 8.2654 0.037 10.844 1.3028 1.6176 0.794 3.2081 2.0553 4.3223 3.4276 0.99787 1.2292 2.2031 3.7406 2.5469 5.3072 0.3213 1.4639 0.35252 3.9401 0.0669 5.3125-0.8262 3.9704-3.6482 7.5088-7.3141 9.171-2.0002 0.90697-3.0664 1.0898-6.8719 1.1787l-3.4766 0.0812v13.866h-7.6562zm15.279-2.3799c1.0798-0.56897 2.0162-1.5443 2.5073-2.6118 0.31381-0.68209 0.3976-1.1179 0.40618-2.1127 0.01-1.1134-0.0466-1.3698-0.50354-2.2981-0.55941-1.1364-1.3588-1.93-2.5207-2.5025-0.66433-0.32738-0.95551-0.35565-4.1133-0.39984l-3.3984-0.0475v10.507l3.3984-0.05c3.3713-0.0496 3.405-0.0534 4.224-0.48503zm46.439 6.2162v-16.016h-6.4063v-7.6562h20.625v7.6562h-6.5624v32.031h-7.6562zm16.25-3.8283v-19.844h20.313v7.3436h-12.656v9.2186h12.656v7.3436h-12.656v8.4374h12.656v7.3436h-20.313zm22.693 0.039 0.0412-19.805h8.9843c8.9272 0 8.9922 2e-3 10.234 0.36166 4.4436 1.2857 7.9083 4.8453 9.0765 9.326 0.43136 1.6542 0.40063 4.7629-0.0631 6.387-1.028 3.5996-3.4047 6.5295-6.5915 8.126-0.73047 0.36593-1.4914 0.70782-1.691 0.75975-0.33789 0.088-0.34696 0.11947-0.13456 0.4577 0.12548 0.19979 1.9314 3.3164 4.0131 6.9256 2.0815 3.6094 3.8838 6.7207 4.0052 6.9139l0.22073 0.35157-8.2103-3.1e-4 -6.0937-10.149c-3.3516-5.582-6.1466-10.152-6.2109-10.156-0.0646-4e-3 -0.11717 4.5634-0.11717 10.149v10.156h-7.5046zm18.266-2.3526c1.1708-0.5825 1.952-1.3585 2.5112-2.4944 0.45241-0.91899 0.51436-1.1962 0.51436-2.3014 0-1.1048-0.062-1.3826-0.51353-2.2998-0.61651-1.2523-1.5946-2.1698-2.7897-2.6169-0.78663-0.29431-1.2053-0.31771-5.687-0.31771h-4.8378v10.485l5.0389-0.0471c4.9009-0.0458 5.0589-0.057 5.7634-0.40747z" fill="#fff" stroke-width=".080371"/>
 <style type="text/css">.st0{fill:#FC0C18;}
	.st1{fill:#FC0C18;}</style>
</svg>
