<?xml version="1.0" encoding="UTF-8"?>
<svg width="480" height="320" version="1.1" viewBox="0 0 480 320" xmlns="http://www.w3.org/2000/svg">
 <defs>
  <linearGradient id="a" x1="116.42" x2="71.208" y1="7.9375" y2="84.667" gradientTransform="scale(3.7795)" gradientUnits="userSpaceOnUse">
   <stop stop-color="#00594f" offset="0"/>
   <stop stop-color="#002934" offset="1"/>
  </linearGradient>
 </defs>
 <rect width="480" height="320" ry="16" fill="url(#a)" stroke-linecap="square" stroke-linejoin="round" stroke-width="2" style="paint-order:stroke fill markers"/>
 <path d="m39.999 219.82c0-0.21702 0.86551-1.6974 1.9234-3.2898 1.0579-1.5923 1.9295-3.1676 1.937-3.5005 0.0076-0.33293 0.19665-0.60532 0.42021-0.60532 0.2236 0 0.65847-0.55298 0.96643-1.2289 0.30796-0.67586 0.79117-1.4931 1.0738-1.816 1.0228-1.1685 6.2699-9.5659 6.2699-10.034 0-0.26419 0.21793-0.4803 0.48427-0.4803s0.48427-0.22262 0.48427-0.49463c0-0.42349 1.8702-3.552 3.0334-5.0744 0.79223-1.0369 2.7777-4.1711 2.7777-4.385 0-0.12397 0.76271-1.3107 1.6949-2.637 0.93222-1.3263 1.6949-2.5031 1.6949-2.6152 0-0.26608 5.1111-8.1044 5.7808-8.8656 0.28309-0.32163 0.5147-0.70503 0.5147-0.8519 0-0.14665 1.1986-2.1249 2.6634-4.3956 2.7067-4.1956 3.0738-5.0634 2.1421-5.0634-0.28675 0-2.4114-0.80877-4.7214-1.7973-8.9484-3.829-15.525-9.6869-19.186-17.089-0.72446-1.4649-1.5149-3.0382-1.7565-3.4964-0.24162-0.45808-0.90021-2.9603-1.4635-5.5604-0.81358-3.7551-0.97092-5.7252-0.76486-9.5788 0.312-5.8348 1.4869-13.227 2.2185-13.959 0.29106-0.29102 0.52921-0.82646 0.52921-1.1898 0-0.99061 2.3266-5.8843 3.9224-8.2499 0.77254-1.1453 1.4046-2.2609 1.4046-2.479 0-0.21808 1.7978-2.2341 3.9953-4.4799 6.0117-6.1444 16.265-12.494 22.155-13.72 0.93222-0.19427 1.9128-0.52637 2.1792-0.73837 0.26634-0.21203 1.6828-0.63469 3.1477-0.9394 10.867-2.26 18.766-1.8013 29.54 1.7153 4.4186 1.4422 4.4946 1.4435 5.091 0.08466l0.47803-1.0896 32.074-0.25512 0.27753 1.8224c0.15265 1.0023 0.40482 2.3672 0.56043 3.0331 0.1556 0.66588 0.49478 2.826 0.75371 4.8004 0.49451 3.7701 0.72454 4.3835 1.3657 3.6419 0.30693-0.35527 3.4529-9.7587 4.2418-12.68 0.12994-0.48098 15.786-0.60533 76.222-0.60533 75.643 0 76.074 0.0038 79.037 1.0028 4.6927 1.5808 6.5325 2.708 9.8729 6.0484 1.715 1.715 3.2984 3.1182 3.5185 3.1182 0.22012 0 0.79464-0.43582 1.2767-0.9685 0.48208-0.53272 1.1463-0.96854 1.476-0.96854 0.32977 0 0.72495-0.32693 0.87829-0.72638 0.15337-0.39953 0.58575-0.72638 0.96102-0.72638s0.97243-0.3496 1.327-0.77684c0.35459-0.42727 1.0895-0.97152 1.6331-1.2095 0.54365-0.23811 1.3153-0.63726 1.7148-0.88735 1.6932-1.0599 4.3438-2.0771 7.7182-2.9617 3.4481-0.90391 5.5449-0.94431 49.032-0.94431 24.986 0 45.43 0.12321 45.43 0.27402 0 0.41382-1.0672 2.3557-1.4462 2.6316-0.18293 0.13304-0.95369 1.3317-1.7128 2.6634-0.75912 1.3317-2.2807 3.8377-3.3813 5.5691-1.1006 1.7312-2.7488 4.3264-3.6626 5.7675-0.91386 1.4411-2.969 4.6526-4.5672 7.1372-1.5981 2.4846-3.6683 5.7536-4.6004 7.2646-2.7027 4.3808-5.7267 9.0489-6.5265 10.075-0.40559 0.52029-0.73747 1.1288-0.73747 1.3522 0 0.22337-0.22563 0.66939-0.50127 0.99106-0.27591 0.32164-1.6742 2.4576-3.1078 4.7463-2.462 3.9307-2.6244 4.3873-2.9291 8.2325-0.17726 2.239-0.61569 5.8144-0.97395 7.9449-0.3583 2.1307-0.78909 5.4538-0.95732 7.3848l-0.30576 3.5109 15.889 8e-3c8.739 4e-3 16.107 0.16744 16.373 0.36322 0.31408 0.23055 0.48427 11.213 0.48427 31.249 0 30.492-0.0113 30.896-0.96851 31.127-2.0894 0.50585-126.18-0.0302-126.53-0.54663-0.29862-0.44251-2.9272-2.5396-10.097-8.0549-3.7116-2.8554-4.6292-3.5735-5.6043-4.3869-0.55862-0.46609-1.2002-0.84744-1.4258-0.84744s-0.41015 3.1608-0.41015 7.0238v7.0238l-101.86-0.24658-1.4931-2.2029c-1.8327-2.7041-2.3175-3.4743-4.0229-6.3923-0.73927-1.2649-1.4531-2.2973-1.5863-2.2942-0.13319 3e-3 -1.146 0.84518-2.2508 1.8714-2.2576 2.0971-7.4423 5.3858-8.4907 5.3858-0.37799 0-0.89427 0.20666-1.1473 0.45928-0.41382 0.41314-2.0992 0.9414-8.2084 2.5728-2.3298 0.62218-123.24 1.1023-123.24 0.48937zm57.385-15.628v-4.6004l-12.409-0.27137 0.94261-1.5591c0.51844-0.85753 1.8802-3.3025 3.0262-5.4334s2.5841-4.7456 3.1959-5.811c0.61179-1.0654 1.3081-2.3735 1.5473-2.9069 0.23917-0.53344 1.1868-2.2181 2.1058-3.7438l1.671-2.7739 2.3817 4.2172c1.3099 2.3194 2.65 4.7667 2.9779 5.4387s0.81744 1.5484 1.0878 1.9479c0.65185 0.96329 6.9891 12.146 7.4098 13.075 0.18085 0.39949 0.87847 1.598 1.5503 2.6634 0.67181 1.0654 1.4605 2.5363 1.7526 3.2688l0.53103 1.3317 20.897-8e-3c18.798-7e-3 21.343-0.10178 25.339-0.94529 7.6683-1.6188 12.926-4.8778 15.748-9.7617 1.9115-3.3083 3.0008-8.5961 2.643-12.829-0.16619-1.966-0.21305-3.5746-0.10413-3.5746 0.10893 0 1.686 2.5244 3.5047 5.6099 1.8187 3.0854 3.6885 6.1908 4.1552 6.9006 0.46666 0.71002 1.181 1.9447 1.5874 2.7437 0.40642 0.79903 1.5984 2.7603 2.6489 4.3585 1.0505 1.598 2.2314 3.5593 2.6242 4.3585 1.4771 3.0046 1.7567 3.1477 6.1504 3.1477 4.7138 0 3.9383 0.6652 8.1846-7.022 0.88275-1.5981 1.7864-2.9782 2.0081-3.067 0.22171-0.0888 0.40309-0.36245 0.40309-0.60816 0-0.24566 3.6327-6.7105 8.0727-14.366 4.4398-7.6558 8.5776-14.792 9.1952-15.857 0.61742-1.0654 1.1252-2.1066 1.1284-2.3139 3e-3 -0.20712-2.9672-0.31635-6.6009-0.24227-5.2853 0.10772-6.6818 0.28006-6.9827 0.86112-0.20689 0.3995-1.3719 2.4847-2.5889 4.6337-2.7298 4.8204-5.8976 10.622-6.8564 12.557-0.39591 0.79902-1.5962 2.9782-2.6672 4.8427-1.0711 1.8644-2.0713 3.7712-2.2227 4.2372-0.3747 1.1532-0.98419 1.0644-1.6627-0.24227-1.8729-3.6066-15.243-26.333-15.665-26.627-0.80012-0.55771-13.828-0.44928-13.828 0.11489 0 0.26721 0.6407 1.5151 1.4237 2.7731 1.5098 2.4258 1.5688 3.3458 0.11467 1.7907-0.85406-0.91339-2.3597-1.7372-6.0249-3.2966-3.0463-1.296-9.5686-1.7448-25.417-1.749l-15.133-4e-3v17.704c0 10.638-0.1776 17.594-0.445 17.429-0.24472-0.15118-1.2799-1.7182-2.3002-3.4822-1.0204-1.764-2.2366-3.8324-2.7027-4.5963-0.46609-0.76388-1.2288-2.0139-1.6949-2.7778-0.46613-0.76392-1.7191-2.8551-2.7845-4.6473-1.0654-1.792-2.2639-3.7636-2.6634-4.3812-0.3995-0.6178-2.2403-3.7021-4.0906-6.8542-1.8503-3.152-3.5392-5.8034-3.753-5.8923-0.21385-0.0888-0.3888-0.46246-0.3888-0.8304 0-1.2286-1.8319-1.6716-6.9128-1.6716h-5.0392l-4.3691 7.3848c-4.3215 7.3043-6.367 10.746-8.013 13.482-1.848 3.0722-2.7191 4.5437-7.3357 12.39-2.6364 4.481-5.1152 8.6403-5.5083 9.2436l-0.71471 1.0965 30.871-0.25592zm40.063-16.772 0.12998-11.557 9.4432-0.13342c13.057-0.18481 16.024 0.61308 18.478 4.9678 1.4272 2.5331 1.5566 9.1865 0.2321 11.935-2.285 4.7414-5.5211 5.805-18.598 6.1134l-9.8151 0.23131zm104.97 16.772c0-3.5366-0.16328-4.8499-0.60533-4.8703-0.33294-0.0151-3.0569-3e-3 -6.0533 0.0265-5.0782 0.0495-5.4478-0.0113-5.4478-0.88173 0-0.51412 0.31842-1.1991 0.70764-1.5221 0.38921-0.32315 0.84899-1.0326 1.0218-1.5769 0.17277-0.54429 1.0283-2.2135 1.9011-3.7093 1.8323-3.14 5.7305-10.224 6.8924-12.526 0.96896-1.9194 1.3187-1.9582 2.1851-0.24226 0.36982 0.73243 2.4242 4.3827 4.5653 8.1112 2.141 3.7288 4.4904 7.8693 5.221 9.2008 0.73054 1.3318 2.6592 4.7641 4.286 7.6271l2.9576 5.2059h21.594v-12.833c0-7.0579 0.1177-12.833 0.26136-12.833 0.26774 0 10.941 8.2934 12.427 9.6559 1.1814 1.0834 1.3425 1.2127 10.615 8.5266 4.6288 3.651 8.4884 6.8284 8.5773 7.0609 0.0888 0.23248 2.2158 0.4227 4.7267 0.4227h4.5653l-0.25225-43.34h-11.138v12.47c0 8.5451-0.16327 12.47-0.51889 12.47-0.28539-1.1e-4 -3.99-2.7321-8.2326-6.071-4.2425-3.339-8.9121-6.9694-10.377-8.0674s-3.0343-2.3431-3.4876-2.7668c-1.1082-1.0358-1.6866-1.4858-4.3816-3.4092-1.2651-0.90289-2.3003-1.8226-2.3003-2.0438 0-0.2211-0.31604-0.40218-0.70231-0.40218s-0.87662-0.29518-1.0896-0.65567c-0.75103-1.2716-2.5441-1.7656-6.4086-1.7656h-3.9058v17.675c0 9.7217-0.17756 17.675-0.39458 17.675s-0.76384-0.7082-1.2152-1.5738c-0.45131-0.86562-1.2544-2.2821-1.7846-3.1477s-1.3454-2.2106-1.8114-2.9888-2.2639-3.7636-3.9953-6.6342c-1.7312-2.8707-3.4795-5.7751-3.885-6.4543s-1.7131-2.8309-2.9056-4.7815c-2.7739-4.5373-3.6557-6.0136-4.7524-7.9544l-0.8891-1.5738h-11.472l-3.7608 6.2955c-2.0685 3.4624-4.0989 6.949-4.512 7.748-0.41318 0.79903-1.1852 2.1065-1.7156 2.9055s-1.2347 1.9976-1.565 2.6634c-0.33033 0.66588-0.72434 1.3196-0.87556 1.4528-0.15122 0.13304-2.859 4.7093-6.0174 10.17-3.1583 5.4599-6.0355 10.271-6.3934 10.692-0.35811 0.42051-0.6511 0.91078-0.6511 1.0896 0 0.17877 6.9732 0.32508 15.496 0.32508h15.496zm128.81 3.5796c3.365-1.5758 4.3574-3.9745 4.3574-10.534v-5.1526l-3.5109-4e-3c-1.931-2e-3 -4.6443-0.14022-6.0298-0.3069l-2.5188-0.30236-0.14461 3.3334-0.1446 3.3336-23.971 0.25927v-22.293h24.213v5.7139l12.107-0.0302v-4.8669c0-7.5152-1.6867-10.112-7.1475-11.007-3.7208-0.60941-31.27-0.58893-34.511 0.0264-2.6779 0.50786-5.353 2.1856-6.3976 4.0123-0.67321 1.1772-1.1898 28.343-0.61255 32.214 0.38824 2.6042 2.2615 4.783 5.1243 5.9595 1.9506 0.80182 3.6866 0.8705 19.574 0.77404 16.6-0.10076 17.538-0.15465 19.613-1.1267zm55.688-3.8218v-5.0846h-34.382v-7.7597l9.7066 0.12699c11.249 0.14702 10.286 0.69191 10.049-5.6859l-0.14362-3.8725-19.613-0.2623v-5.7785l33.656-0.25474v-9.6854h-46.004l-0.25247 43.34h46.983zm-71.429-49.58c14.51-4.5218 24.147-20.998 22.045-37.693-1.1801-9.3751-6.192-17.891-12.656-21.504-5.7033-3.1876-13.16-3.9874-18.458-1.9797-12.712 4.8162-20.851 16.577-21.509 31.08-0.36106 7.957 0.84446 13.247 4.374 19.194 3.4657 5.839 7.5054 9.0689 13.613 10.884 3.8646 1.1484 8.9431 1.1562 12.591 0.0189zm-9.4432-11.936c-4.2452-1.314-7.1758-5.667-8.2579-12.266-0.65933-4.0214 0.33294-9.7009 2.5922-14.837 1.2305-2.7974 1.3169-2.9237 4.2032-6.1478 3.9564-4.4194 8.5047-5.8367 12.842-4.0017 3.3025 1.3967 5.1693 3.9118 6.5896 8.8788 3.1874 11.145-3.2815 25.724-12.571 28.33-1.5394 0.43196-2.8935 0.77015-3.0092 0.75159-0.11569-0.0189-1.191-0.33713-2.3895-0.7082zm-256.42 11.869c3.4585-0.48578 8.4374-2.0647 10.156-3.2205 1.7072-1.1482 2.3125-0.82636 1.4785 0.78629-0.40633 0.78579-0.73882 1.5485-0.73882 1.6949 0 0.14627 3.0362 0.26608 6.7472 0.26608 6.5734 0 6.7559-0.0265 7.0874-1.0896 0.18728-0.59928 1.0598-2.615 1.939-4.4795 0.87915-1.8644 2.3815-5.1333 3.3385-7.2638 0.95702-2.1307 1.9204-4.2009 2.1409-4.6004 0.54773-0.9925 14.473-1.3457 14.832-0.37606 0.12608 0.34016 0.42799 1.9258 0.67086 3.5239 0.24291 1.598 0.70228 4.3219 1.0208 6.0533 0.31858 1.7312 0.79023 4.2916 1.0482 5.6901l0.46896 2.5424h21.643l0.72975-2.0581c0.40135-1.132 1.0744-3.1477 1.4956-4.4795 3.2189-10.177 4.9829-15.7 6.3912-20.01 0.89813-2.7488 1.633-5.3095 1.633-5.6901s0.28347-0.69214 0.62997-0.69214c0.406 0 0.83551 1.2481 1.2082 3.5109 0.71112 4.3181 1.5173 8.4177 3.2614 16.586 0.73932 3.4625 1.5877 7.7117 1.8854 9.4431l0.54119 3.1477 4.7116 0.13871c3.2734 0.0964 4.7116-0.0302 4.7116-0.41106 0-0.30236 0.35577-1.3453 0.7906-2.3178 1.7962-4.0169 2.7174-6.1368 7.1875-16.538 5.424-12.621 5.6455-13.13 6.8893-15.835l0.93498-2.0338 0.82817 15.835c0.45551 8.7095 0.82243 17.088 0.8154 18.62l-0.0128 2.7845h12.704l-0.32783-11.743c-0.18033-6.4588-0.53246-15.884-0.78256-20.944-0.25009-5.0604-0.57418-12.797-0.72015-17.191-0.146-4.3948-0.3784-8.9219-0.51647-10.061l-0.25104-2.0702-15.158 0.26683-1.7836 4.1163c-0.98101 2.2639-2.1187 4.879-2.5283 5.811-1.3738 3.1271-2.1907 5.0653-3.4697 8.2325-1.462 3.6204-2.4479 5.9259-3.4167 7.9903-0.375 0.79907-1.1981 2.7296-1.8292 4.2901-1.3319 3.2935-1.4517 3.1491-2.5036-3.0176-0.39197-2.2979-1.1366-6.466-1.6547-9.2628s-1.1943-6.5011-1.5026-8.2325c-0.30834-1.7312-0.88271-4.7274-1.2764-6.6587l-0.7158-3.5109h-6.0091c-5.6999 0-6.0454 0.05594-6.714 1.0896-0.38763 0.59928-0.85932 1.7433-1.0483 2.5424-0.1889 0.79903-1.8101 5.9202-3.6026 11.38-1.7926 5.4599-4.5003 13.85-6.0174 18.644-1.5171 4.7943-3.0565 9.403-3.4208 10.242-0.36438 0.83879-0.80972 2.3097-0.98963 3.2688-0.42369 2.2586-1.07 2.2257-1.4226-0.0722-0.15322-0.99881-0.59368-3.6683-0.97882-5.9323-0.38509-2.2639-0.82851-4.9878-0.98532-6.0533-0.15681-1.0654-0.59078-3.5714-0.96439-5.5691-0.3736-1.9976-1.1298-6.4648-1.6804-9.9273-0.55064-3.4624-1.3285-8.1479-1.7286-10.411-0.40006-2.2639-0.88754-5.2059-1.0833-6.5374l-0.356-2.4213-7.011-0.13909c-7.2465-0.14362-9.1903 0.04573-9.1903 0.89484 0 0.2725-0.66527 1.9571-1.4784 3.7438s-1.671 3.6844-1.9063 4.2172c-0.23535 0.53268-1.1138 2.494-1.952 4.3585-0.83826 1.8646-2.5087 5.678-3.712 8.4744-1.2033 2.7965-2.8194 6.4471-3.5913 8.1127-0.77189 1.6653-1.4034 3.1234-1.4034 3.2401 0 0.11679-0.87167 2.0641-1.937 4.3275-1.0654 2.2634-1.937 4.2327-1.937 4.3763s-0.72752 1.8458-1.6167 3.7825c-0.88921 1.9368-1.8963 4.2296-2.2379 5.0955-0.87983 2.2292-1.4166 1.9517-0.93656-0.48426 0.22306-1.132 0.64134-3.5835 0.9295-5.4478 0.28815-1.8644 0.83909-5.2732 1.2243-7.5753s0.70042-4.5358 0.70042-4.9636c0-0.6932-1.2823-0.77805-11.758-0.77805h-11.758l-0.83633 4.9636c-1.228 7.2884-1.5821 6.6587 3.7423 6.6587 2.5146 0 4.6885 0.1886 4.8306 0.41885 0.14238 0.23055 6e-3 1.6248-0.30327 3.0989-0.53601 2.5555-0.64241 2.6933-2.2884 2.9656-0.94942 0.15723-3.4831 0.288-5.6304 0.29102-6.0367 8e-3 -9.2916-1.9882-12.229-7.5008-1.149-2.1565-1.2906-2.9524-1.2953-7.2763-6e-3 -5.3775 0.59358-7.3591 3.4747-11.49 3.7032-5.3095 8.4128-8.4215 16.002-10.574 4.9655-1.408 15.202-1.5256 18.411-0.21165 2.598 1.064 3.5119 0.73432 3.5119-1.267 0-0.85322 0.34658-3.4009 0.77019-5.6617 0.92039-4.9119 1.1596-4.6341-5.3707-6.2339-9.3558-2.2917-18.86-1.1153-28.571 3.5366-2.7744 1.329-3.2887 1.6385-7.2824 4.3831-3.8237 2.6277-6.1591 5.0184-8.7364 8.9427-2.7136 4.1322-3.8547 7.0858-4.7792 12.371-0.94707 5.4145-0.94741 8.7983-0.0013 13.373 1.2095 5.8488 4.1223 10.447 8.9885 14.192 6.8549 5.2747 14.559 7.2476 23.433 6.0011zm39.239-34.734c0.89851-2.0641 2.0507-4.6034 2.5604-5.6428l0.92682-1.89 0.53609 2.3742c0.57585 2.5502 1.533 7.8678 1.533 8.5164 0 0.21732-1.6178 0.39533-3.595 0.39533h-3.595zm126.8 33.414c0.13187-0.46609 0.38185-2.046 0.55552-3.5109s0.49447-3.4262 0.71285-4.3585c0.21838-0.93222 0.53205-2.2942 0.69699-3.0266l0.2999-1.3317h-11.147c-10.291 0-11.148-0.065-11.155-0.84744-4e-3 -0.46613 0.37739-2.8628 0.84745-5.3261l0.8547-4.4783 2.6634-0.0529c1.4649-0.0302 5.6734-0.0514 9.3524-0.0495 6.5601 4e-3 6.6973-0.0189 7.118-1.1244 0.38377-1.0094 1.9315-10.45 1.9315-11.781 0-0.36548-3.008-0.57426-9.5641-0.66425-9.2156-0.12661-9.5626-0.16668-9.5172-1.0998 0.0529-1.0865 1.1868-8.3845 1.4485-9.3218 0.12884-0.46163 2.7911-0.60533 11.215-0.60533h11.046l0.66119-3.9949c1.1135-6.7279 1.3771-8.8225 1.1583-9.2008-0.11554-0.19994-7.9385-0.36321-17.385-0.36321h-17.175l-0.4822 1.2683c-0.26521 0.69758-0.69278 2.8222-0.95017 4.7214-0.47932 3.537-1.5741 10.388-2.4864 15.56-0.28191 1.5981-0.80791 4.8669-1.1689 7.2638-0.36099 2.3971-1.1074 7.1913-1.6587 10.654-0.55129 3.4624-1.3234 8.4238-1.7158 11.025-0.39239 2.6011-0.92636 5.6519-1.1865 6.7797-0.26022 1.1277-0.47841 2.6496-0.48495 3.382l-0.0117 1.3317h17.643c16.389 0 17.66-0.0601 17.883-0.84744zm55.094-1.0069c3.6478-1.8311 7.8769-5.6836 9.7051-8.8403 3.4912-6.0295 2.8364-12.94-1.7574-18.546-1.6855-2.0569-2.1437-3.2051-1.2789-3.2051 0.53322 0 3.8151-4.8427 5.0865-7.5061 1.3513-2.8305 1.3115-8.5338-0.0782-11.195-1.2797-2.4505-5.7785-7.449-6.7045-7.449-0.37278 0-0.67782-0.20031-0.67782-0.44481 0-0.24454-1.3746-0.90221-3.0546-1.4613-2.8313-0.9422-3.9545-1.0071-15.362-0.88694l-12.307 0.12964-1.0994 7.0216c-0.60465 3.8619-1.4231 8.8739-1.8187 11.138-0.39557 2.2639-0.84265 5.097-0.99353 6.2955-0.1508 1.1986-0.57728 4.0316-0.9476 6.2955-0.37036 2.2639-1.0102 6.1863-1.422 8.7167-0.41174 2.5302-1.1745 7.2155-1.6951 10.411-0.52059 3.1961-1.096 7.0726-1.2786 8.6143l-0.3321 2.803 32.804-0.27893zm-20.856-10.238c-0.35111-0.22148 0.19148-4.3729 1.331-10.184l0.33241-1.6949h6.7926c6.3829 0 6.8795 0.0684 8.2326 1.1303 2.6979 2.118 3.2348 4.1488 1.8595 7.0329-1.4256 2.9894-3.4384 3.6735-11.277 3.8324-3.776 0.0767-7.0481 0.0227-7.2714-0.11717zm4.0728-27.516c0.179-1.5423 0.58175-4.103 0.895-5.69l0.56953-2.8858 5.2229 0.0763c5.8462 0.0858 7.2367 0.61893 8.3176 3.1902 1.2108 2.8797-0.95494 6.4853-4.5411 7.5598-1.0165 0.30463-3.86 0.5537-6.319 0.5537h-4.4708zm100.24 37.308c0.15988-1.2652 0.60352-4.2614 0.98559-6.6587 0.38203-2.3971 0.82741-5.4478 0.98971-6.7797 0.89711-7.3625 1.7458-10.496 3.5842-13.234 3.3494-4.9882 6.2978-9.6842 6.8731-10.946 0.31143-0.68383 0.70261-1.2433 0.86895-1.2433 0.1663 0 0.94855-1.1978 1.7382-2.6618 0.7897-1.464 1.5993-2.6625 1.799-2.6634 0.19994-9.4e-4 0.36321-0.22148 0.36321-0.49035 0-0.43491 1.7422-3.2519 7.0862-11.458 0.89665-1.3768 1.6303-2.7388 1.6303-3.0266 0-0.79011-13.841-0.71195-14.534 0.08202-0.29065 0.33298-1.4181 2.0218-2.5051 3.753s-2.71 4.2882-3.6066 5.6825c-0.89662 1.3942-1.6302 2.6494-1.6302 2.7894 0 0.14022-0.70821 1.2982-1.5739 2.5738-0.86559 1.2756-1.8073 2.7313-2.0927 3.235-0.7355 1.298-1.6603 1.4739-1.6603 0.31597 0-0.53919-0.19389-1.1001-0.43064-1.2464-0.23698-0.14626-0.58057-0.86373-0.76388-1.5941-0.18331-0.73039-1.515-4.3007-2.9592-7.934-1.4443-3.6333-2.6259-6.8281-2.6259-7.0994 0-0.89181-1.4491-1.0812-8.2719-1.0812-6.83 0-7.2231 0.11414-6.2718 1.8226 0.2575 0.4625 1.1544 2.3663 1.9932 4.2308 0.83875 1.8644 2.2838 5.0241 3.2112 7.0216 0.92742 1.9976 2.2385 4.8306 2.9134 6.2955 4.2467 9.216 5.1027 11.034 5.7687 12.253 0.61157 1.1186 0.64604 1.7565 0.19616 3.6319-0.51364 2.1415-0.80825 3.9602-2.6826 16.561-0.41597 2.7966-0.96722 5.8473-1.2249 6.7797-0.97225 3.5166-1.198 3.3898 6.034 3.3898h6.508z" fill="#0f6" stroke-width=".2491"/>
 <g transform="matrix(3.8449 0 0 3.8449 -10.246 -4.5683)" fill="#0f6" stroke-width=".26458" aria-label="hacks">
  <path d="m51.481 68.059c0.0038-0.57126 0.33449-0.91702 0.84185-0.91702 0.52992 0 0.83058 0.34576 0.82682 0.91702v3.2471h2.0746v-3.6831c0.0038-1.2628-0.793-2.1648-2.0144-2.1648-0.85313 0-1.4845 0.43596-1.7438 1.1726h-0.06013v-3.0217h-1.9994v7.6969h2.0746z"/>
  <path d="m57.855 71.396c0.75165 0 1.3192-0.25556 1.6687-0.90199h0.0451v0.81179h1.9393v-3.9537c0-1.0673-1.011-1.8942-2.6609-1.8942-1.725 0-2.5744 0.90199-2.6458 1.9543h1.9092c0.04886-0.35704 0.31194-0.52616 0.70656-0.52616 0.36079 0 0.61636 0.16536 0.61636 0.46603v0.01503c0 0.33449-0.36831 0.43972-1.3379 0.51112-1.1914 0.08644-2.1197 0.5675-2.1197 1.834 0 1.15 0.7742 1.6837 1.8791 1.6837zm0.67649-1.3079c-0.35328 0-0.60132-0.17288-0.60132-0.49609 0-0.2969 0.21046-0.52616 0.69152-0.60132 0.33073-0.05262 0.60884-0.12026 0.82682-0.21046v0.48106c0 0.52616-0.44724 0.82682-0.91702 0.82682z"/>
  <path d="m65.281 71.411c1.71 0 2.7586-0.98091 2.7811-2.5105h-1.9242c-0.0451 0.60508-0.37207 0.93205-0.82682 0.93205-0.54495 0-0.90199-0.46603-0.90199-1.4131s0.35704-1.4131 0.90199-1.4131c0.45851 0 0.77045 0.32697 0.82682 0.93205h1.9242c-0.01128-1.5033-1.0824-2.4805-2.7811-2.4805-1.8791 0-2.9916 1.2026-2.9916 2.9766 0 1.7739 1.1124 2.9766 2.9916 2.9766z"/>
  <path d="m68.919 71.306h2.0746v-1.6386l0.31194-0.39462 1.1763 2.0332h2.3752l-2.022-3.2434 1.9618-2.5293h-2.3301l-1.3981 1.9393h-0.07517v-3.8635h-2.0746z"/>
  <path d="m80.615 67.413c-0.05262-1.2214-1.0674-1.9543-2.736-1.9543-1.6499 0-2.6684 0.67649-2.6609 1.8791-0.0075 0.9095 0.58253 1.492 1.7589 1.6987l1.0222 0.1804c0.45099 0.08268 0.65394 0.20295 0.66146 0.42093-0.0075 0.24053-0.28187 0.37583-0.66146 0.37583-0.46978 0-0.80051-0.20295-0.85689-0.57126h-2.0595c0.11275 1.1839 1.135 1.9693 2.9014 1.9693 1.5973 0 2.7736-0.77796 2.7811-2.0144-0.0075-0.85313-0.57877-1.3492-1.7589-1.5634l-1.1726-0.21046c-0.43972-0.07892-0.56374-0.23677-0.55622-0.40589-0.0075-0.24053 0.28939-0.37583 0.64642-0.37583 0.40965 0 0.75166 0.21798 0.78172 0.57126z"/>
 </g>
 <style type="text/css">.st0{fill:#FC0C18;}
	.st1{fill:#FC0C18;}</style>
 <style type="text/css">.st0{fill:#FC0C18;}
	.st1{fill:#FC0C18;}</style>
 <style type="text/css">.st0{fill:#FC0C18;}
	.st1{fill:#FC0C18;}</style>
</svg>
