<?xml version="1.0" encoding="UTF-8"?>
<svg width="480" height="320" version="1.1" viewBox="0 0 480 320" xmlns="http://www.w3.org/2000/svg">
 <defs>
  <linearGradient id="a" x1="95.956" x2="68.019" y1="-14.236" y2="95.695" gradientTransform="scale(3.7795)" gradientUnits="userSpaceOnUse">
   <stop stop-color="#a56de2" offset="0"/>
   <stop stop-color="#452981" offset=".69626"/>
   <stop stop-color="#273445" offset="1"/>
  </linearGradient>
 </defs>
 <rect width="480" height="320" ry="16" fill="url(#a)" stroke-linecap="square" stroke-linejoin="round" stroke-width="2" style="paint-order:stroke fill markers"/>
 <path d="m40.169 193.81c-0.1573-0.40974-0.21513-7.5904-0.12862-15.957l0.1573-15.211 15.298-10.469 49.3 0.31397-13.997 9.414-32.361 0.5885v21.77l22.653 0.31963v-6.4668l-17.824-0.32496 13.697-9.12h22.367v16.451l-14.086 9.4371h-22.394c-17.528 0-22.456-0.16203-22.68-0.74517zm64.26 0.35293c-0.21578-0.21577-0.39228-7.4789-0.39228-16.14v-15.748l16.501-10.097 43.094 0.30863-13.997 9.414-27.065 0.58851v5.8836l31.65 0.58866-13.65 9.089-18 0.32496v5.884l40.547 0.58866-14.955 9.708h-21.671c-11.919 0-21.848-0.17669-22.063-0.39242zm63.742-20.774v-21.197h18.06l11.122 6.0994c6.1172 3.3546 11.32 5.9868 11.563 5.8492 0.24268-0.13761 0.44126-2.8892 0.44126-6.1145v-5.8643l17.946 0.32467v41.775l-17.946 0.32496v-6.7872c0-5.7396-0.15893-6.9222-1.0297-7.6596-0.56633-0.47969-5.6632-3.7398-11.326-7.2446l-10.297-6.3723-0.5884 27.739-17.946 0.32496zm64.524 20.774c-0.21569-0.21577-0.39227-7.4789-0.39227-16.14v-15.748l16.501-10.097 43.094 0.30863-13.997 9.414-27.065 0.58851v5.8836l31.65 0.58866-13.65 9.089-18 0.32496v5.884l40.547 0.58866-14.955 9.708h-21.671c-11.919 0-21.848-0.17669-22.063-0.39242zm57.857 0.10965c0-0.15538 3.1694-2.406 7.0432-5.0011l7.0432-4.7187h26.512v-6.472h-40.6l0.014-15.592 15.214-10.311 44.493 0.30841-14.381 9.7081h-27.1v6.472h40.6l-0.031 16.18-14.673 9.7081h-22.068c-12.137 0-22.068-0.12696-22.068-0.28233zm64.721-20.899v-21.182h18.24v42.365h-18.24zm25.3 20.97c0-0.11675 3.2536-2.367 7.2302-5.001l7.2302-4.7894h26.787l-0.35603-6.178-40.925-0.30985 0.32806-15.577 15.254-10.297h22.065c18.658 0 21.932 0.12386 21.204 0.80205-0.47388 0.44115-3.656 2.6917-7.0715 5.0011l-6.2098 4.199h-27.357l0.35604 6.178 40.891 0.30984v15.791l-15.004 10.088-22.211-2e-3c-12.216-2e-3 -22.211-0.0986-22.211-0.21532zm-186.07-54.905c-3.2979-0.24268-3.3832-0.29272-3.3832-1.9847v-1.7357h7.6036c7.2435 0 7.6864-0.0694 9.3441-1.4645 2.1051-1.7713 2.638-4.0513 1.5536-6.6466-0.98524-2.358-3.7551-3.6563-7.8006-3.6563-2.1285 0-3.1464-0.30588-3.9413-1.1844-1.6284-1.7994-1.3809-4.6197 0.55116-6.2816 1.5358-1.321 1.9913-1.3872 8.4824-1.2307l6.8595 0.16527v3.5303l-6.6191 0.16633c-7.2223 0.18153-8.8928 1.0227-2.8011 1.4106 4.2425 0.27013 6.1591 1.3268 8.4427 4.6552 1.1359 1.6554 1.336 2.5765 1.1471 5.2796-0.27292 3.9054-1.8508 6.4293-4.9338 7.8924-2.247 1.0663-8.4518 1.5304-14.505 1.085zm29.1-0.17189c-1.065-0.25735-2.4821-0.96185-3.1492-1.5656-2.5083-2.27-2.8577-3.8589-2.8554-12.986 2e-3 -7.593 0.14895-8.9484 1.1487-10.588 2.1292-3.492 3.5497-3.9817 12.208-4.2085l7.8232-0.20485v4.2342h-7.2522c-9.9511 0-9.8109-0.15685-9.8109 10.967 0 10.954-0.13928 10.803 9.9307 10.803h7.2068l-0.18437 1.9122-0.18436 1.9122-6.4721 0.0961c-3.5597 0.0527-7.3436-0.11452-8.4083-0.3719zm24.124-2e-3c-1.065-0.25636-2.4821-0.96011-3.1492-1.5638-2.5083-2.2699-2.8577-3.8589-2.8554-12.986 2e-3 -7.593 0.14895-8.9484 1.1487-10.588 2.1815-3.5777 3.4954-4.0036 12.354-4.0036h7.971l0.18436 1.9122 0.18437 1.9122h-7.3126c-6.5072 0-7.4835 0.13432-8.863 1.2195-1.5453 1.2155-1.5503 1.2467-1.5503 9.6056 0 8.0054 0.0619 8.4442 1.3618 9.6654 1.1941 1.1218 2.0272 1.2793 6.7665 1.2793h5.4047v-11.768h-7.0605v-3.5302h11.148l0.32564 17.284 4.3026-13.065c4.5509-13.819 4.8737-14.38 8.7383-15.152 2.1503-0.43004 5.1424 0.94166 6.1466 2.8178 1.039 1.9414 8.7606 25.287 8.7606 26.487 0 0.94806-0.71255 1.0454-7.649 1.0454h-7.649v-4.1185h5.0011c3.6311 0 4.9897-0.20145 4.9591-0.73545-0.0231-0.40452-1.6779-5.5015-3.6774-11.326-3.3582-9.7833-3.7432-10.591-5.0498-10.591-1.3192 0-1.715 0.89045-5.884 13.238l-4.4693 13.238-8.8256 0.0943c-4.854 0.0518-9.6971-0.11543-10.762-0.37191zm21.647-0.20663c0-1.4114 7.6316-24.441 8.2197-24.805 0.41023-0.25353 7.0779 18.607 7.0779 20.02 0 0.14721-1.8366 0.26751-4.0815 0.26751h-4.0815l-0.18576-1.9122c-0.16528-1.7017-0.35252-1.4264-1.7006 2.5006-1.4241 4.1484-1.6267 4.4239-3.3818 4.597-1.3233 0.13073-1.8669-0.0641-1.8669-0.66867zm9.2557-10.709c-0.68787-2.2413-1.2925-2.098-1.9232 0.4558-0.35618 1.4421-0.23875 1.618 1.08 1.618 1.4211 0 1.4545-0.082 0.84317-2.0738zm-87.266 5.3922c-0.18917-0.49289-0.25217-1.375-0.14003-1.9602 0.17994-0.93906 0.98052-1.0836 6.816-1.2304 3.752-0.0944 6.6123-0.41257 6.6123-0.73546 0-0.31302-1.2577-0.57494-2.7948-0.58204-5.5249-0.0257-9.4946-3.164-10.438-8.2518-0.4986-2.6911 1.0089-6.545 3.3213-8.4907 2.512-2.1137 5.5604-2.7221 12.696-2.5339l6.3349 0.1671v3.5302l-7.3546 0.31154c-4.0452 0.17137-7.8278 0.53443-8.406 0.80678-1.3375 0.62997-2.773 3.3815-2.773 5.3151 0 0.81996 0.74411 2.3237 1.6536 3.3416 1.4769 1.6529 2.113 1.8928 5.9524 2.2448 3.2313 0.2962 4.501 0.67045 5.1126 1.5071 1.146 1.5672 1.0109 4.0445-0.30954 5.6772-1.0553 1.3048-1.5728 1.4009-8.5315 1.5841-6.2147 0.16369-7.4634 0.0507-7.7518-0.7011zm32.836-0.11566c-1.1019-0.77177-1.3077-1.4662-1.3077-4.413v-3.497h13.533v3.5303h-4.6722c-2.5698 0-4.8359 0.26475-5.0358 0.58835-0.23365 0.37807 1.8571 0.5884 5.8492 0.5884h6.2128v4.1185h-6.6353c-5.0532 0-6.9472-0.21838-7.943-0.91592zm24.124 0c-1.2406-0.86891-1.3077-1.3201-1.3077-8.7923 0-9.9734-0.26071-9.708 9.5448-9.708h6.9298v4.1185h-12.944v11.179h1.7651c0.97081 0 1.7652-0.26475 1.7652-0.58839 0-0.3236-0.39716-0.58836-0.88256-0.58836-0.5884 0-0.88256-0.58839-0.88256-1.7651 0-1.7259 0.0654-1.7651 2.9419-1.7651h2.9419v8.8255h-4.2818c-2.9232 0-4.6968-0.29065-5.5895-0.91593zm-25.431-13.172c0-4.9183 0.71237-5.3287 9.2508-5.3287h6.6353v4.1185h-6.2128c-3.9919 0-6.0828 0.21033-5.8492 0.5884 0.19997 0.32356 2.4662 0.58839 5.0358 0.58839h4.6722v3.5303h-13.533z" fill="#fff" stroke-width=".30266"/>
 <style type="text/css">.st0{fill:#FC0C18;}
	.st1{fill:#FC0C18;}</style>
</svg>
