<svg width="480" height="320" version="1.1" viewBox="0 0 480 320" xml:space="preserve" xmlns="http://www.w3.org/2000/svg"><defs><linearGradient id="a" x1="95.956" x2="68.019" y1="-14.236" y2="95.695" gradientTransform="matrix(3.7795 0 0 3.7795 -.000548 -.0037675)" gradientUnits="userSpaceOnUse"><stop stop-color="#006656" offset="0"/><stop stop-color="#002d36" offset=".69626"/><stop stop-color="#005a2b" offset="1"/></linearGradient></defs><rect width="480" height="320" ry="16" fill="url(#a)"/><path d="m197.38 117.98-18.521 30.219h-114.64l-24.209 13.385v27.043l24.209 13.385h351.58l24.209-13.385v-27.043l-24.209-13.385h-114.64l-18.512-30.219h-85.26zm1.8027 3.2285h81.645l18.512 30.219h115.62l21.812 12.062v23.23l-21.812 12.062h-349.92l-21.812-12.062v-23.23l21.812-12.062h115.63l18.512-30.219zm71.77 4.1992c-2.5833 0-4.7188 1.6973-5.3438 4.0098l-6.5 19.053v-13.98h-9.791v3.4688h6.4062v9.4375h-8.0098c-1.9583 0-3.4688-1.6042-3.4688-3.4688v-11.125c0-1.9583 1.6042-3.4688 3.4688-3.4688h11.488v-3.4688h-11.572c-3.8333 0-6.9473 3.1146-6.9473 6.9375h0.00977v11.125c0 3.8229 3.1244 6.9375 6.9473 6.9375h14.334l7.209-20.916c0.26042-0.80207 0.97787-1.334 1.8633-1.334 0.8854 0 1.5944 0.53191 1.8652 1.334l5.875 17.447h-9.2598v3.4688h14.062l-7.209-21.363c-0.70833-2.3125-2.8444-4.0938-5.4277-4.0938zm-63.291 0.44727c-4.5417 0-8.1875 3.6458-8.1875 8.1875s3.6458 8.1875 8.1875 8.1875h2.8438c0.27083 0 0.44727 0.17642 0.44727 0.44726 0 0.27083-0.17644 0.44922-0.35352 0.44922h-11.135v3.4688h11.125c2.1354 0 3.916-1.7826 3.916-3.918s-1.7806-3.916-3.916-3.916h-2.8438c-2.5833 0-4.7188-2.1354-4.7188-4.7187s2.1354-4.7188 4.7188-4.7188h11.041v-3.4687h-11.125zm19.76 0.00976c-3.8229 0-6.9375 3.1146-6.9375 6.9375v11.125c0 3.8229 3.1146 6.9375 6.9375 6.9375h11.928v-3.4688h-11.928c-1.9583 0-3.4688-1.6042-3.4688-3.4688v-11.125c0-1.9583 1.6042-3.4688 3.4688-3.4688h11.928v-3.4688h-11.928zm43.625 3.5527c-0.44792 0-0.88477 0.35482-1.0723 0.70898l-7.125 20.738h4.0938l2.4902-7.3848v3.1152h8.1973l-5.5215-16.375c-0.17709-0.44791-0.53125-0.80273-1.0625-0.80273zm-63.375 0.70898c-2.1354 0-3.916 1.7806-3.916 3.916s1.7806 3.916 3.916 3.916h2.8438c2.5833 0 4.7188 2.1354 4.7188 4.7188 0 2.5833-2.1354 4.7188-4.7188 4.7188h-11.031v3.4688h11.125c4.5416 0 8.1875-3.6458 8.1875-8.1875s-3.6458-8.1875-8.1875-8.1875h-2.8438c-0.27084 0-0.44727-0.17644-0.44727-0.44726 0-0.17708 0.17643-0.35352 0.35352-0.35352h11.125v-3.5625h-11.125zm19.75 0c-1.5104 0-2.666 1.1556-2.666 2.666v5.166h12.104v-3.4688h-8.6348c0-0.44792 0.35482-0.80078 0.80273-0.80078h10.238v-3.5625h-11.844zm20.209 0.00976c-1.5104 1e-5 -2.666 1.1556-2.666 2.666v11.125c0 1.5104 1.1556 2.668 2.666 2.668h7.209v-7.834h-5.5215v3.4688h2.0527v0.80273h-2.0527c-0.4375 0-0.80142-0.35547-0.79102-0.79297v-7.832c0-0.44791 0.35287-0.80273 0.80079-0.80273h9.875v-3.4688h-11.572zm-22.875 8.709v5.166c0 1.5104 1.1556 2.666 2.666 2.666h11.928v-3.4688h-10.322c-0.44791-0.08334-0.80273-0.43685-0.80273-0.88477h8.6348v-3.4785h-12.104zm46.197 0.26953 1.1562 3.5625h-2.4062l1.25-3.5625zm-24.947 20.23-12.229 6.291v25.209h33.281l9.4688-4.877c-0.00434 2e-5 -0.00734 0.00195-0.01171 0.00195h-30.5v-8.6992h14.25l9.4902-4.8848h-23.74v-8.1562h21.043l9.4883-4.8848h-30.541zm30.521 26.623c0.02668-1.8e-4 0.05438-8.3e-4 0.07227-0.00977h-0.05273l-0.01954 0.00977zm54.719-26.623c-0.0208 0.0104-0.05278 0.00977-0.08398 0.00977h-36.322l-12.23 6.291v11.625h36.365v8.6992h-26.865l-9.457 4.8633c-0.0208 0.0104-0.05341 0.02085-0.07421 0.03125l0.04296-0.00976h36.363l12.23-6.291v-12.178h-36.355v-8.1465h26.855l9.4883-4.8848 0.04296-0.00977zm-254.81 0.00977-12.23 6.291v25.209h12.23v-0.00977h24.125l12.238-6.293v-13.426h-15.291l-9.5 4.8848h12.553v9.959h-24.125v-21.73h26.863l9.5-4.8848h-36.363zm57.676 0-12.229 6.291v25.199h33.271l9.5-4.875h-30.543v-8.6992h14.25l9.4902-4.8848h-23.74v-8.1465h21.043l4.8125-2.4785 1.1445-0.59374 0.38671-0.1875 3.1562-1.625h-30.543zm41.98 0v31.5h12.238v-25.604l24.125 12.416v13.178h12.23v-31.49h-12.23v11.625l-22.604-11.625h-13.76zm164.78 0v31.5h12.229v-31.5h-12.229zm34.135 0-12.229 6.291v11.625h36.363v8.6992h-26.863l-9.459 4.8633c-0.0208 0.0104-0.05147 0.02085-0.07227 0.03125 0.0208-0.0104 0.05084-0.00976 0.08204-0.00976h36.324l12.229-6.291v-12.168h-36.354v-8.1562h26.854l9.4902-4.8848h-36.365z" fill="#0f6"/><path d="m192.61 256.03v23.969h6.4219v-9.4824h4.7031v9.4824h6.4219v-23.969h-6.4219v9.8203h-4.7031v-9.8203h-6.4219zm25.199 0-6.1602 23.969h6.4219l0.78515-3.584h5.748l0.74805 3.584h6.5703l-6.1602-23.969h-7.9531zm20.908 0c-3.6587 0-5.4883 1.5446-5.4883 4.6309v14.709c0 3.0862 1.8296 4.6289 5.4883 4.6289h5.2637c3.6587 0 5.4883-1.5427 5.4883-4.6289v-4.1816h-6.5332v3.6953c0 0.54755-0.31137 0.82226-0.93359 0.82226h-1.3066c-0.62222 0-0.9336-0.27471-0.9336-0.82226v-13.738c0-0.54755 0.31138-0.82031 0.9336-0.82031h1.3066c0.62222 0 0.93359 0.27276 0.93359 0.82031v3.8457h6.5332v-4.3301c0-3.0862-1.8296-4.6309-5.4883-4.6309h-5.2637zm13.178 0v23.969h6.5332v-23.969h-6.5332zm11.014 0-4.4434 11.723 4.4805 12.246h7.0176l-4.7031-12.246 4.666-11.723h-7.0176zm13.85 0c-3.6338 0-5.4492 1.5446-5.4492 4.6309v4.9277c0 1.5182 0.37247 2.6884 1.1191 3.5098 0.77155 0.79644 2.0782 1.1934 3.9199 1.1934h3.584c0.62222 0 0.9336 0.27471 0.9336 0.82226v3.3965c0 0.54756-0.31138 0.82226-0.9336 0.82226h-1.082c-0.62222 0-0.93359-0.2747-0.93359-0.82226v-2.0156h-6.5332v2.875c0 3.0862 1.8296 4.6289 5.4883 4.6289h5.0762c3.6338 0 5.4512-1.5427 5.4512-4.6289v-4.9277c0-1.4933-0.39887-2.6269-1.1953-3.3984-0.77156-0.77155-2.0782-1.1562-3.9199-1.1562h-3.5078c-0.62222 0-0.93359-0.27471-0.93359-0.82226v-3.5469c0-0.54756 0.31137-0.82031 0.93359-0.82031h1.082c0.62222 0 0.93359 0.27275 0.93359 0.82031v2.0156h6.5332v-2.873c0-3.0862-1.8174-4.6309-5.4512-4.6309h-5.1152zm-54.99 7.1309 1.8281 8.625h-3.7324l1.9043-8.625z" fill="#0f6"/></svg>
