<?xml version="1.0" encoding="UTF-8"?>
<svg width="480" height="320" version="1.1" viewBox="0 0 480 320" xml:space="preserve" xmlns="http://www.w3.org/2000/svg"><defs><linearGradient id="a" x1="26.292" x2="94.685" y2="96.493" gradientTransform="matrix(3.7795 0 0 3.7795 9.9346e-6 -3.6448e-6)" gradientUnits="userSpaceOnUse"><stop stop-color="#007310" offset="0"/><stop stop-color="#002612" offset="1"/></linearGradient></defs><rect width="480" height="320" ry="16" fill="url(#a)"/><path d="m192.61 256.03v23.969h6.4219v-9.4824h4.7031v9.4824h6.4219v-23.969h-6.4219v9.8203h-4.7031v-9.8203zm25.199 0-6.1602 23.969h6.4219l0.78514-3.584h5.748l0.74805 3.584h6.5703l-6.1602-23.969h-7.9531zm20.908 0c-3.6587 0-5.4883 1.5446-5.4883 4.6309v14.709c0 3.0862 1.8296 4.6289 5.4883 4.6289h5.2637c3.6587 0 5.4883-1.5427 5.4883-4.6289v-4.1816h-6.5332v3.6953c0 0.54755-0.31137 0.82226-0.93359 0.82226h-1.3066c-0.62222 0-0.9336-0.27471-0.9336-0.82226v-13.738c0-0.54755 0.31138-0.82031 0.9336-0.82031h1.3066c0.62222 0 0.93359 0.27276 0.93359 0.82031v3.8457h6.5332v-4.3301c0-3.0862-1.8296-4.6309-5.4883-4.6309h-5.2637zm13.178 0v23.969h6.5332v-23.969zm11.014 0-4.4434 11.723 4.4805 12.246h7.0176l-4.7031-12.246 4.666-11.723zm13.85 0c-3.6338 0-5.4492 1.5446-5.4492 4.6309v4.9277c0 1.5182 0.37247 2.6884 1.1191 3.5098 0.77155 0.79644 2.0782 1.1934 3.9199 1.1934h3.584c0.62222 0 0.9336 0.27471 0.9336 0.82226v3.3965c0 0.54756-0.31138 0.82226-0.9336 0.82226h-1.082c-0.62222 0-0.93359-0.2747-0.93359-0.82226v-2.0156h-6.5332v2.875c0 3.0862 1.8296 4.6289 5.4883 4.6289h5.0762c3.6338 0 5.4512-1.5427 5.4512-4.6289v-4.9277c0-1.4933-0.39886-2.6269-1.1953-3.3984-0.77157-0.77155-2.0782-1.1562-3.9199-1.1562h-3.5078c-0.62223 0-0.93359-0.27471-0.93359-0.82226v-3.5469c0-0.54756 0.31137-0.82031 0.93359-0.82031h1.082c0.62222 0 0.93359 0.27275 0.93359 0.82031v2.0156h6.5332v-2.873c0-3.0862-1.8174-4.6309-5.4512-4.6309h-5.1152zm-54.99 7.1309 1.8281 8.625h-3.7324z" fill="#0f6"/><path d="m205.97 40c-9.3469 0-23.909 10.079-36.1 25.845-15.072 19.49-20.806 40.296-12.821 46.475 1.5285 1.1765 3.4368 1.7416 5.6415 1.7416 9.3562 0 23.919-10.079 36.109-25.845 15.072-19.49 20.806-40.296 12.821-46.475-1.5285-1.1765-3.4368-1.7416-5.6508-1.7416zm64.687 0c-9.3469 0-23.909 10.079-36.109 25.845-15.063 19.49-20.806 40.296-12.821 46.466 1.5285 1.1765 3.4368 1.7416 5.6415 1.7416 9.3469 0 23.909-10.079 36.109-25.845 15.072-19.481 20.815-40.287 12.821-46.466-1.5192-1.1765-3.4368-1.7416-5.6415-1.7416zm64.687 0c-9.3469 0-23.909 10.079-36.109 25.845-15.072 19.49-20.806 40.296-12.821 46.475 1.5285 1.1765 3.4368 1.7416 5.6415 1.7416 9.3469 0 23.919-10.079 36.109-25.845 15.072-19.49 20.806-40.296 12.821-46.475-1.5285-1.1765-3.4368-1.7416-5.6415-1.7416zm-174.57 91.941c-14.933 0-24.799 14.97-25.327 26.114-0.89857 19.111 14.173 24.928 20.741 24.928 13.201 0 20.463-12.061 23.289-21.491 0.8893-2.9829-1.3434-5.975-4.4559-5.975h-14.97l-3.9647 9.5786h11.172c-2.4548 4.4002-6.8457 7.6424-12.006 7.6424-2.6123 0-10.468-2.3716-9.9214-13.923 0.37054-7.7536 6.4938-17.258 15.461-17.258 5.9472 0 9.9028 7.0866 9.9028 7.0866l8.5132-4.4373s-6.4011-12.265-18.434-12.265zm41.408 2.3901c-2.6772 0-5.3637 1.4172-6.6421 4.465l-17.86 43.177h10.366l3.696-8.9301h10.94l0.79663 8.9301h9.6154l-3.6497-41.047c-0.3798-4.2334-3.8074-6.5956-7.2627-6.5956zm28.708 0.16664c-3.0384 0-6.0677 1.9082-6.6421 5.7063l-6.2806 41.769h9.6804l3.446-22.844 3.2978 18.898c0.45391 2.5845 2.6124 4.0018 4.7894 4.0018 1.7138 0 3.4459-0.8707 4.3352-2.7512l8.7911-18.472-3.1775 21.167h9.6898l6.0027-39.944c0.69477-4.5762-2.9458-7.5313-6.5863-7.5313-2.2603 0-4.5392 1.1486-5.7713 3.761l-11.19 23.474-3.7796-21.677c-0.63918-3.7054-3.6219-5.5581-6.6048-5.5581zm47.244 0c-2.7698 0-5.1136 2.0103-5.5212 4.743l-5.4561 36.332c-0.50023 3.3627 2.1121 6.4011 5.521 6.4011h18.583l1.4266-9.5878h-15.35l1.3618-9.069h12.895l1.4082-9.5878h-12.876l1.4543-9.6804h15.387l1.4174-9.5507zm-77.388 16.804 1.0838 12.172h-6.1232zm7.1051 37.656c-14.933 0-24.799 14.97-25.327 26.114-0.89857 19.111 14.173 24.928 20.741 24.928 13.201 0 20.463-12.061 23.289-21.491 0.8893-2.9829-1.3432-5.975-4.4557-5.975h-14.97l-3.9741 9.5878h11.172c-2.4548 4.4002-6.8457 7.6424-12.006 7.6424-2.6123 0-10.468-2.3716-9.9212-13.923 0.37054-7.7536 6.4936-17.258 15.461-17.258 5.9472 0 9.9028 7.0866 9.9028 7.0866l8.5225-4.4465s-6.4011-12.265-18.434-12.265zm76.962 2.3993c-2.6679 0-5.3637 1.4172-6.6421 4.465l-17.86 43.177h10.366l3.696-8.9299h10.94l0.79663 8.9299h9.6154l-3.6497-41.047c-0.37054-4.2427-3.8074-6.5956-7.2627-6.5956zm-43.437 0.16663c-2.7698 0-5.1134 2.0103-5.521 4.743l-5.4563 36.332c-0.50023 3.3627 2.1121 6.4011 5.521 6.4011h18.583l1.4266-9.5878h-15.35l1.3617-9.0689h12.895l1.408-9.5878h-12.876l1.4543-9.6804h15.387l1.4172-9.5509zm72.32 0c-2.742 0-5.067 1.9826-5.5024 4.6875l-6.9108 42.798h9.699l2.742-16.934h4.3539c1.8249 0 3.3998 1.2784 3.7796 3.0478l3.0012 13.895h9.8657l-2.8809-13.358-0.12973-0.58349-9e-3 -0.0279c-0.0926-0.4076-0.23152-1.0931-0.48163-2.2232-0.6114-2.8439-2.7514-3.4831-2.7514-3.4831 7.9296-4.4372 7.5406-12.645 7.5406-13.191 0-8.1149-7.5776-14.627-13.858-14.627h-3.5017zm3.3998 9.5601h3.9926c1.899 0 3.7702 1.8991 4.187 4.1594 0.62992 3.3812-1.973 7.2348-5.7711 7.2348h-4.2336zm-33.701 7.2348 1.084 12.172h-6.1234z" fill="#0f6"/></svg>
