<?xml version="1.0" encoding="UTF-8"?>
<svg width="480" height="320" version="1.1" viewBox="0 0 480 320" xmlns="http://www.w3.org/2000/svg">
 <defs>
  <linearGradient id="a" x1="35.05" x2="60.885" y2="88.014" gradientTransform="scale(3.7795)" gradientUnits="userSpaceOnUse">
   <stop stop-color="#f37329" offset="0"/>
   <stop stop-color="#7a0000" offset="1"/>
  </linearGradient>
 </defs>
 <rect width="480" height="320" ry="16" fill="url(#a)" stroke-linecap="square" stroke-linejoin="round" stroke-width="2" style="paint-order:stroke fill markers"/>
 <path d="m116.1 63.696c6.7393 26.548-23.878 34.598-34.928 51.22-7.618 11.265 3.488 23.336 18.934 37.009-5.9622-13.407-26.282-25.214 0-45.857 32.792-25.472 15.995-42.372 15.995-42.372zm20.286 32.99s-55.544 13.676-28.992 43.978l0.0295-3e-3c7.8592 8.8501-2.1603 16.9-2.1603 16.9s20.046-10.195 10.84-22.798c-8.4015-12.069-14.905-17.969 20.283-38.079zm57.063 25.822v69.139c0 4.0104-0.33913 6.8957-1.021 8.632-0.68334 1.7182-1.8902 2.8529-3.628 3.415-1.7606 0.53484-4.7248 0.79899-8.8747 0.79899v8.1766c5.6636 0 10.015-0.38026 13.059-1.1393 3.0167-0.75756 5.3726-2.5383 7.0817-5.3472 1.7045-2.8348 2.5568-7.2491 2.5568-13.234l-0.0858-70.439zm95.909 0v81.649h9.2183v-71.962h1.6631l24.02 69.01h10.236l24.023-69.01h1.6631v71.962h9.2152v-81.649h-16.596l-23.422 69.139-23.419-69.139zm100.34 0v81.649h50.302v-8.0046h-41.083v-29.489h33.913v-7.9219h-33.913v-28.187h41.083v-8.0462zm-145.13 2.613c-8.1347 0-15.944 1.0641-23.42 3.199l0.71909 7.5401 3.1161-0.58594c6.5091-1.3469 12.287-2.0242 17.32-2.0242 6.0605 0 10.435 1.0403 13.142 3.1191 2.7 2.1046 4.0543 5.6326 4.0543 10.574 0 2.9803-0.71244 5.8862-2.1336 8.7208-1.4485 2.8363-3.1872 5.4228-5.2056 7.7563-2.047 2.3-4.8937 5.3458-8.5346 9.1381l-23.079 23.928v7.6705h50.43v-7.9188h-39.549l21.035-21.109c6.1999-5.8968 10.495-10.882 12.885-14.956 2.3909-4.1 3.5837-8.8206 3.5837-14.157 0-7.1607-2.0056-12.44-6.0163-15.841-4.0411-3.3712-10.152-5.0543-18.345-5.0543zm-98.283 25.471c-1.9415-3e-3 -4.0002 0.33188-6.1081 1.0653-1.8939 0.53332-2.7048 2.1395-2.7048 2.1395s1.0897-0.53491 3.5215-1.0713c9.7244-1.8772 23.842 13.14-6.5046 28.696l-3e-3 6e-3c-0.27126 0.53484-0.54153 0.80198-0.54153 0.80198 36.203-9.3501 28.149-31.616 12.34-31.638zm-66.69 1.5773c-3.9368 0.088-13.13 0.8931-23.698 5.9214-16.527 8.0454 41.189 11.531 71.267 3.7553 2.9818-1.8803 7.3183-3.7553 7.3183-3.7553s-12.192 2.1455-24.384 3.2167c-14.899 1.0727-30.889 1.3405-39.016 0.26929-18.966-2.4106 10.565-9.3868 10.565-9.3868h-0.0087s-0.72968-0.05-2.0419-0.0208zm-5.0011 18.297c-27.352 9.1162 15.458 19.307 53.658 8.0432-2.453-0.8197-4.6817-2.1959-6.5016-4.0218-18.7 3.7424-29.534 3.4774-43.355 2.1395-10.522-1.0664-3.8597-6.116-3.7996-6.1614zm-12.186 29.19c-10.595-0.30875-34.994 10.166-14.397 13.45 64.668 10.445 117.98-4.5154 101.41-12.038 0.20969 0.17737 4.3317 3.7958-5.1848 6.6731-18.155 5.3635-76.139 6.9713-92.394 0-5.6923-2.4091 5.1496-5.9002 8.6706-6.4365 3.5242-0.80152 5.4214-0.80197 5.4214-0.80197-0.77877-0.53654-2.0109-0.80224-3.5245-0.84635zm87.012 1.4116c-5e-3 -5e-3 -0.0355-0.0325-0.0355-0.0325h-0.0325c0.0242 0.011 0.0442 0.0215 0.0681 0.0325zm10.266 7.9752s-2.1652 5.3643-24.115 9.3838c-24.93 4.5607-55.786 4.0256-73.973 1.0742 0 0 3.7912 3.2152 23.029 4.2879l3e-3 3e-3c29.263 1.8757 73.973-1.0688 75.058-14.749z" fill="#fafafa" stroke-width="3.7795"/>
 <style type="text/css">.st0{fill:#FC0C18;}
	.st1{fill:#FC0C18;}</style>
</svg>
