<?xml version="1.0" encoding="UTF-8"?>
<svg width="480" height="320" version="1.1" viewBox="0 0 480 320" xmlns="http://www.w3.org/2000/svg">
 <defs>
  <linearGradient id="a" x1="32.49" x2="15.594" y2="110.79" gradientTransform="scale(3.7795)" gradientUnits="userSpaceOnUse">
   <stop stop-color="#d48e15" offset="0"/>
   <stop stop-color="#1a1a1a" offset="1"/>
  </linearGradient>
 </defs>
 <rect width="480" height="320" ry="16" fill="url(#a)" stroke-linecap="square" stroke-linejoin="round" stroke-width="2" style="paint-order:stroke fill markers"/>
 <path d="m287.63 126c-9.8172 0-17.964 3.3566-24.439 10.07-6.4753 6.7194-9.7108 14.945-9.7108 24.682 0 5.4405 1.05 10.357 3.1602 14.748 1.6548 3.4053 3.9514 6.4655 6.8866 9.1892 2.9366 2.72 6.3272 4.9153 10.164 6.5897 3.8406 1.6679 8.6673 2.5059 14.479 2.5059 4.5491 0 8.9324-0.46901 13.166-1.4043 4.2322-0.93789 8.3014-2.3263 12.225-4.1659v-13.461c0-2.3592 0.13408-3.8418 0.40428-4.4452 0.48108-1.1491 1.165-1.9703 2.0527-2.4668 0.8857-0.4965 3.3054-0.81846 5.5604-0.98046v-2.2031h-31.953v2.2031l0.01 0.0155h1.582c1.4788 0 4.0088 0.30277 5.0507 0.91014 1.0419 0.6034 1.7278 1.2822 2.0586 2.0312 0.33215 0.74901 0.50195 2.3998 0.50195 4.9511v10.018c0 3.023-3.2098 4.5638-4.7557 4.8983-1.5533 0.3332-3.0623 0.49999-4.5312 0.49999-4.2373 0-7.8962-1.0984-10.98-3.2948-3.0802-2.1972-5.3119-5.6307-6.6972-10.314-1.382-4.6777-2.0723-10.115-2.0723-16.326 0-5.123 0.63314-10.12 1.8965-14.988 1.2666-4.8692 3.419-8.6634 6.4589-11.387 3.04-2.7206 6.8489-4.08 11.424-4.08 4.7883 0 7.5914 1.2055 11.115 4.8515 3.6048 3.726 7.0614 7.9599 9.08 14.176h2.9492v-22.82h-1.6777c-0.60496 1.828-1.2647 3.0694-1.9863 3.7245-0.7249 0.65784-1.5107 0.98436-2.3496 0.98436-0.54434 0-2.3001-0.59473-5.2655-1.7832-2.9642-1.1898-5.1109-1.9115-6.4335-2.166-2.4377-0.50633-4.3323-0.76171-7.371-0.76171zm-86.556 0.34764c-0.61366-3e-3 -1.2349 9e-3 -1.8633 0.0333-9.3084-0.38173-17.153 2.6374-23.523 9.0642-6.3818 6.421-9.5643 14.451-9.5643 24.078 0 8.5769 2.4491 15.989 7.3554 22.238 6.2019 7.9053 14.984 11.865 26.344 11.865l-0.0117-2e-3c11.322 0 20.091-4.1451 26.299-12.438 4.6841-6.2485 7.0292-13.482 7.0292-21.713 0-9.6275-3.1422-17.645-9.4218-24.057-5.8908-6.0098-13.438-9.0326-22.643-9.0702zm203.26 0.375c-8.5552 0.0401-15.824 3.0704-21.797 9.0956-6.3831 6.4217-9.5643 14.451-9.5643 24.078 0 8.5775 2.4492 15.99 7.3534 22.24 6.2039 7.9053 14.984 11.863 26.344 11.863 11.322 0 20.094-4.1438 26.301-12.438 4.6855-6.2413 7.0292-13.484 7.0292-21.713 0-9.6275-3.1435-17.648-9.4218-24.059-6.2849-6.4112-14.451-9.4206-24.506-9.035l-0.01-2e-3c-0.58178-0.0238-1.1582-0.034-1.7285-0.0314zm-296.23 0.5078v2.6191h1.7207c2.099 0 3.7548 0.44141 4.9628 1.3223 0.85869 0.59945 1.4474 1.4547 1.7637 2.5586 0.1608 0.66045 0.24023 2.4428 0.24023 5.3456v40.212c0 3.2178-0.17481 5.2066-0.52538 5.9608-0.44418 1.0711-1.0832 1.8314-1.9062 2.2715-1.1467 0.66375-2.657 0.99413-4.5351 0.99412h-1.7207v3.0254h55.546l3.3379-20.439h-3.0313c-1.5908 5.6903-4.2078 9.9253-7.8495 12.697-3.6416 2.7744-8.4868 4.1601-14.525 4.1601h-3.4473c-1.8459 0-3.1781-0.25278-4.0078-0.75389-0.82573-0.50699-1.3915-1.1537-1.6934-1.9414-0.30115-0.78966-0.45312-2.9518-0.45312-6.4823v-18.08c3.104 0 6.7406 0.40224 8.3729 1.209 1.6304 0.80279 3.0613 2.3786 4.291 4.7167 1.2337 2.3389 2.0416 4.9214 2.4258 8.5878h2.6211v-33.272h-2.6211c-0.51337 4.9971-1.6963 8.3547-3.5527 10.916-1.8525 2.5619-4.8459 3.8417-8.9706 3.8417h-2.5684v-22.32c-0.0212-3.8801 3.455-3.4296 3.455-3.4296h4.0566c4.9115 0 8.2583 0.28487 10.043 0.8535 3.0611 0.94642 5.4263 2.433 7.0995 4.453 1.6745 2.0214 2.9732 5.3556 3.8984 9.9959h2.1953v-19.021h-54.622zm58.884 43.87h0.0195l-0.0176-8e-3zm-126.12-43.866v2.1582c1.9032 0.063 1.9708 0.69656 2.9844 1.2324l5.3632 5.3729-0.0078 43.067c0 3.4059-0.67573 5.8143-2.0254 7.2323-1.351 1.4193-3.7462 2.1443-7.1815 2.1758v2.6035h22.154v-2.5957h-1.4648c-2.1154 0-3.9937-0.64604-5.6366-1.9394-1.6396-1.2941-2.4609-3.7819-2.4609-7.4726v-38.835l42.267 52.442 2.7402 4e-3v-53.487c0-3.0412 0.25367-3.9243 0.7578-5.1757s1.2092-2.1541 2.1094-2.709c0.90151-0.55355 2.6694-1.0046 5.2987-1.3535v-2.7206h-20.969v2.7206c3.4565-0.063 5.9256 0.82236 7.3886 2.6602 1.0716 1.3623 1.6074 2.713 1.6074 6.58v28.01l-32.904-39.971h-20.021zm21.287 61.247h0.0098l-0.0098-8e-3zm252.91-60.718v2.6034h1.7227c2.099 0 3.7536 0.4414 4.9608 1.3242 0.86 0.59946 1.45 1.4534 1.7656 2.5566 0.16146 0.65981 0.24219 2.4441 0.24219 5.3475v40.21c0 3.2177-0.17609 5.2072-0.52734 5.9667-0.44483 1.071-1.0831 1.8268-1.9082 2.2695-1.1467 0.66374-2.657 0.99607-4.5311 0.99607h-1.7246v3.0234h55.548l3.3379-20.447h-3.0449c-1.5915 5.6917-4.2098 9.926-7.8534 12.699l0.0293-2e-3c-3.641 2.7744-8.4874 4.162-14.531 4.162h-3.4453c-1.8466 0-3.1801-0.25016-4.0098-0.75584-0.82243-0.50502-1.3909-1.153-1.6914-1.9414-0.30182-0.78836-0.45311-2.9504-0.45311-6.4804v-18.08c3.1046 0 6.7393 0.40158 8.371 1.209 1.6304 0.80345 3.0613 2.3773 4.291 4.7167 1.235 2.3376 2.0416 4.9221 2.4258 8.5878h2.6211v-33.272h-2.6211c-0.51402 4.999-1.6963 8.3547-3.5527 10.916-1.8551 2.5612-4.8459 3.8417-8.9706 3.8417h-2.5684v-22.318c-0.0204-3.8794 3.4531-3.4315 3.4531-3.4315h4.0586c4.9082 0 8.2524 0.28747 10.037 0.85741 3.0591 0.94642 5.4269 2.4304 7.0995 4.4511 1.6746 2.0227 2.9699 5.3523 3.8944 9.9959h2.1992v-19.006h-54.624zm-115.4 1.7148c3.1343 0 5.9018 0.87506 8.3065 2.6289 2.4047 1.7532 4.3828 4.7569 5.9355 9.0096 1.5513 4.2566 2.3281 10.666 2.3281 19.238 0 7.2015-0.75893 13.044-2.2813 17.521-1.519 4.4776-3.646 7.7387-6.3769 9.7791-2.1405 1.5938-4.8089 2.3906-8.0077 2.3906-4.7487 0-8.4399-1.849-11.084-5.5448-3.7847-5.2896-5.6776-13.461-5.6776-24.523 0-9.3081 1.2236-16.446 3.6758-21.416l0.01-4e-3c3.009-6.053 7.3988-9.08 13.172-9.08zm206.96 0.33789c3.1349 0 5.9057 0.87766 8.3105 2.6308 2.4047 1.7519 4.3836 4.7569 5.9335 9.0096 1.5533 4.2572 2.3281 10.666 2.3281 19.244 0 7.2015-0.75828 13.044-2.2812 17.523l0.01-0.01c-1.5216 4.4776-3.646 7.7381-6.3769 9.7732-2.1418 1.5964-4.8115 2.3926-8.0097 2.3926-4.7487 0-8.4373-1.8503-11.08-5.5448-3.7854-5.2889-5.6796-13.461-5.6796-24.523 0-9.3082 1.2249-16.446 3.6776-21.416 3.0097-6.053 7.3982-9.08 13.168-9.08zm-163.22 22.447c-4.292 0-7.7733 3.4618-7.7733 7.7362 0 4.271 3.4787 7.7362 7.7733 7.7362 4.2914 0 7.7733-3.4625 7.7733-7.7362 0-4.2717-3.4787-7.7362-7.7733-7.7362z" fill="#fafafa" stroke-width=".99998" style="paint-order:stroke markers fill"/>
 <style type="text/css">.st0{fill:#FC0C18;}
	.st1{fill:#FC0C18;}</style>
</svg>
