<?xml version="1.0" encoding="UTF-8"?>
<svg width="480" height="320" version="1.1" viewBox="0 0 480 320" xmlns="http://www.w3.org/2000/svg">
 <defs>
  <linearGradient id="a" x1="116.42" x2="62.174" y1="7.9375" y2="76.729" gradientTransform="scale(3.7795)" gradientUnits="userSpaceOnUse">
   <stop stop-color="#cc3b02" offset="0"/>
   <stop stop-color="#a10705" offset="1"/>
  </linearGradient>
 </defs>
 <rect width="480" height="320" ry="16" fill="url(#a)" stroke-linecap="square" stroke-linejoin="round" stroke-width="2" style="paint-order:stroke fill markers"/>
 <path d="m144.96 231.54 0.0581-2.5349 9.953-0.10349c10.78-0.11206 10.337-0.0607 10.961-1.268 0.43816-0.84732 0.36627-1.3378-0.30671-2.0914l-0.60348-0.67578-14.427-0.20696-1.3398-0.66391c-1.7098-0.84722-3.3548-2.2937-3.908-3.4364-0.61122-1.2626-0.61122-3.9874 0-5.2497 0.52275-1.0798 2.096-2.4969 3.7969-3.4197l1.2544-0.68058 21.831-0.11739v5.1753l-9.7107 0.0576c-9.4991 0.0564-9.7236 0.0671-10.295 0.49262-1.1531 0.85886-1.1532 2.2025-2.1e-4 3.0617 0.5605 0.41768 0.87352 0.43911 7.8633 0.53847l7.2798 0.10348 1.0087 0.59289c1.3628 0.801 2.5612 1.9074 3.2682 3.0172 0.55279 0.86774 0.58598 1.0498 0.58526 3.2074-6.2e-4 1.9168-0.0673 2.3967-0.41167 2.9614-0.6367 1.0442-2.187 2.4275-3.5121 3.1338l-1.2032 0.6413h-22.2l0.0581-2.5349zm39.893-1.1899v-3.7248h-2.9053c-2.5292 0-3.014-0.0554-3.7445-0.4281-1.2026-0.61357-2.6143-2.1073-3.1996-3.3859-0.49787-1.0875-0.5037-1.1699-0.44908-6.3522l0.0553-5.2501 7.1392-0.11324v8.9491l1.4071 1.4071h5.3076c7.5005 0 7.1497 0.29911 7.1497-6.0941v-4.2523h7.0356v5.5975c0 6.2986 0.0329 6.1376-1.6038 7.8871-1.6859 1.8024-1.9988 1.9174-5.5355 2.0353l-3.104 0.10348-0.113 7.346h-7.44zm21.107 1.1381v-2.5866h19.7l0.70356-0.70355c0.94088-0.94088 0.96454-1.8658 0.0697-2.7238l-0.63394-0.60779-7.1777-0.10348c-6.7468-0.0973-7.2336-0.12964-8.109-0.53941-1.3206-0.61826-3.0932-2.0056-3.8748-3.0327-0.66179-0.86959-0.66739-0.89688-0.67253-3.2676-5e-3 -2.3332 0.01-2.4109 0.61421-3.2329 0.83161-1.1308 2.6213-2.4825 4.0826-3.0834l1.1955-0.4916 21.211-0.01v5.1613l-9.7107 0.0576c-9.4991 0.0564-9.7236 0.0671-10.295 0.49262-1.1531 0.85886-1.1532 2.2025-2e-4 3.0617 0.5605 0.41767 0.87352 0.4391 7.8633 0.53847 8.3282 0.11837 8.0281 0.0556 10.235 2.1425 1.6794 1.5882 1.9078 2.1685 1.9078 4.8446 0 2.1144-0.0344 2.2979-0.59301 3.1791-0.70541 1.1123-2.0074 2.221-3.4722 2.9568l-1.0647 0.53473h-21.978zm39.938-6.0631c0-6.4516-0.0631-8.7129-0.24831-8.8981-0.17794-0.17794-1.5267-0.24831-4.7596-0.24831h-4.5112v-5.1734h26.293l-0.1162 5.0698-4.433 0.056c-2.8443 0.0359-4.5313 0.13768-4.7078 0.28403-0.22042 0.18292-0.27481 1.9425-0.27481 8.8939v8.6657h-7.2427zm24.228 8.321c-0.61671-0.16581-1.4225-0.48764-1.7907-0.71516-1.0128-0.62597-2.1041-1.9362-2.3499-2.8214-0.13981-0.50347-0.21997-4.1915-0.22073-10.154l-1e-3 -9.3637h25.246v5.5873h-17.557l-0.61213 0.51507c-0.71861 0.60464-0.90021 1.2907-0.55745 2.1059 0.51901 1.2343 0.26257 1.1982 9.2916 1.3107l8.2976 0.10348 0.1174 4.449-8.0254 8.3e-4c-7.6819 8.2e-4 -8.0549 0.0189-8.7099 0.41793-1.3478 0.82175-1.4646 2.1355-0.29855 3.3578l0.54289 0.56904h17.512v4.9663l-9.8812-0.0136c-7.9691-0.011-10.098-0.072-11.002-0.31506zm26.056-11.156v-11.485l33.626 4e-3 1.0749 0.50048c1.3985 0.65114 2.7448 1.9068 3.3823 3.1547l0.50918 0.99673 0.1158 18.313h-7.0481v-7.977c0-10.321 0.21774-9.8192-4.2603-9.8192-3.1043 0-3.6182 0.20677-4.0089 1.6131-0.12832 0.46193-0.21335 3.8317-0.21407 8.4797l-2e-3 7.7128-7.3463-0.11301-0.20696-16.424-0.60779-0.63417-0.60688-0.63416h-5.639l-1.2156 1.2684-0.11709 16.528h-7.4358zm-251.04-20.18c-2.3746-0.40123-4.2678-1.8716-4.8246-3.7473-0.26997-0.90908-0.32179-2.5607-0.32179-10.255v-9.171h25.246v5.3801h-8.3875c-8.9998 0-9.3933 0.0412-10.106 1.0588-0.5486 0.78323-0.42505 1.585 0.36616 2.3762l0.70356 0.70356h16.389v4.5524h-8.0398c-8.0273 0-8.0409 8.3e-4 -8.7402 0.47199-1.2446 0.83875-1.3222 2.1509-0.19385 3.2793l0.59429 0.59429h17.414v4.9663l-9.5705-0.0242c-5.2637-0.0132-10.002-0.0972-10.529-0.18622zm25.479-11.269v-11.489l25.349 4e-3 1.0687 0.49757c1.3283 0.61844 2.5686 1.8387 3.3216 3.2678l0.57611 1.0934v18.003l-7.1392 0.11324-3e-3 -8.0235c-0.0033-8.626-0.0049-8.64-1.0985-9.4522-0.56364-0.41851-0.80995-0.43382-6.9793-0.43382h-6.395l-1.1475 1.1471-0.20696 16.649-7.3463 0.113zm43.041 2.9367c0-7.0556-0.0514-8.6233-0.2934-8.9548-0.27198-0.37232-0.61984-0.40652-4.7596-0.46813l-4.4659-0.0664v-4.9368h26.073v4.9308l-4.4322 0.0695c-2.4377 0.0383-4.5097 0.14702-4.6042 0.24178-0.0947 0.0948-0.21869 4.0989-0.27561 8.8981l-0.10348 8.7258-7.1392 0.11324zm24.879 8.313c-1.3694-0.22806-2.85-0.97542-3.7094-1.8724-1.3169-1.3745-1.3038-1.2565-1.3038-11.755v-9.5255h25.246v5.3631l-8.7428 0.0602c-9.7663 0.0672-9.6042 0.0427-10.095 1.529-0.19835 0.60094-0.17424 0.81376 0.15606 1.3794 0.68961 1.1808 0.68885 1.1806 9.4212 1.184l8.0186 3e-3v4.5524h-16.126l-0.7096 0.62302c-0.39028 0.34269-0.76797 0.8556-0.83932 1.1399-0.15859 0.63174 0.29106 1.5606 1.041 2.1505 0.53726 0.42259 0.7406 0.43215 9.2126 0.43215h8.6634v4.9663l-9.5705-0.0242c-5.2638-0.0132-10.062-0.10597-10.662-0.2059zm25.406-11.255v-11.485h11.909c9.9696 0 12.003 0.0486 12.486 0.29847 0.89877 0.46476 2.7568 2.5988 3.3857 3.8887 0.50551 1.0367 0.56905 1.3992 0.56905 3.2444 0 2.0603-8e-3 2.0918-0.9312 3.8574-0.51217 0.97912-0.9312 1.9876-0.9312 2.2411s0.18874 1.0199 0.41945 1.703c0.36253 1.0735 0.41166 1.6758 0.36211 4.4375l-0.0573 3.1954h-6.2079l-0.11006-2.4832c-0.0605-1.3658-0.18822-2.6496-0.28372-2.853-0.41144-0.8759-1.0761-0.97526-6.525-0.97526h-5.1802l-1.3516 1.2066-0.1372 5.2082h-7.4158zm20.295-0.70835c0.57955-0.57955 0.60487-0.68341 0.60487-2.4799 0-1.779-0.031-1.9097-0.60348-2.5508l-0.60347-0.67578-5.0623-0.0648c-5.6886-0.0729-6.2634 0.0291-6.8772 1.2152-0.26256 0.50774-0.32716 1.0803-0.27239 2.4139 0.0664 1.6168 0.11546 1.7859 0.65238 2.2477l0.58061 0.49943h10.976zm20.815 12.055c-0.0759-0.0759-0.13939-3.9636-0.14113-8.6392-2e-3 -4.989-0.0842-8.6298-0.19915-8.8119-0.16229-0.25701-0.98063-0.32232-4.7562-0.37962l-4.5604-0.0692v-4.9315h26.281v4.9368l-4.4179 0.0664c-3.3625 0.0506-4.4995 0.13428-4.7596 0.35047-0.30769 0.25576-0.34171 1.1468-0.34171 8.9499v8.6657h-3.4834c-1.9158 0-3.5454-0.0621-3.6213-0.13795zm19.866 0c-0.0759-0.0759-0.13795-3.8302-0.13795-8.3433 0-6.6576 0.058-8.4007 0.30761-9.2409 0.41167-1.3862 2.1585-3.8317 3.2962-4.6144l0.91983-0.63284 9.6884 8.3e-4c9.2999 8.2e-4 9.7156 0.0174 10.362 0.41166 1.1472 0.69948 2.5296 2.3155 3.2759 3.8298l0.71399 1.4485-0.1112 17.176-7.3463 0.113v-6.4301l-13.554 0.10908-0.0571 3.1557-0.0572 3.1557h-3.5814c-1.9698 0-3.6435-0.0621-3.7194-0.13795zm20.968-13.675c0-1.8412-0.0704-2.3387-0.40471-2.887-0.77499-1.271-1.1267-1.3371-6.7325-1.2648-5.0071 0.0645-5.0415 0.068-5.5722 0.56689-0.7169 0.674-0.94462 1.6117-0.94598 3.8952l-1e-3 1.9141h13.658v-2.2245zm12.624 2.3329v-11.49h7.2461l-0.0534 11.433-0.0535 11.433-7.1392 0.11323zm11.519 11.342c-0.0759-0.0759-0.13796-5.2441-0.13796-11.485v-11.347h25.578l1.0547 0.52557c1.2787 0.63723 2.8265 2.2433 3.4385 3.5681 0.44119 0.95501 0.45098 1.1687 0.45098 9.8744v8.8981l-7.1392 0.11324v-8.0447c0-8.0379 0-8.0451-0.47316-8.7477-0.78641-1.1686-1.3497-1.2512-8.0459-1.1801l-5.9339 0.0631-0.53393 0.50196c-0.29367 0.2761-0.62642 0.83478-0.73943 1.2416-0.11902 0.4283-0.20598 3.9844-0.20663 8.448l-1e-3 7.7083h-3.5868c-1.9728 0-3.6489-0.0621-3.7248-0.13795zm35.661-11.345v-11.493l17.02 0.0553c16.089 0.0522 17.062 0.0762 17.791 0.43854 1.2022 0.59773 2.4957 1.8476 3.1678 3.061l0.61384 1.1082 0.1198 18.313h-7.0299l-0.0628-8.1222c-0.0592-7.6596-0.0858-8.1562-0.46722-8.7193-0.60869-0.899-1.4763-1.1616-3.8377-1.1616-2.509 0-3.3056 0.27285-3.7928 1.2991-0.30486 0.64248-0.34605 1.6796-0.34605 8.7167v7.9872h-7.4494v-16.354l-0.7087-0.77295-0.70866-0.77295h-2.8047c-2.7891 0-2.8078 3e-3 -3.3782 0.57358l-0.57355 0.57358-0.20696 16.649-7.3463 0.11301zm49.089 11.254c-1.3694-0.22805-2.85-0.97542-3.7094-1.8724-1.3169-1.3745-1.3038-1.2565-1.3038-11.755v-9.5255h25.246v5.3801h-8.5047c-7.4426 0-8.5935 0.0422-9.2175 0.3383-1.3745 0.65223-1.6449 2.1894-0.56402 3.2053l0.52305 0.49156 16.521 0.11709v4.5388h-16.189l-0.829 0.829c-0.72575 0.7257-0.81298 0.9126-0.7005 1.5002 0.0736 0.3846 0.43676 0.95844 0.85032 1.3438l0.72178 0.67252h17.388v4.9663l-9.5705-0.0242c-5.2638-0.0132-10.062-0.10597-10.662-0.20594zm24.371-11.255v-11.485h25.387l1.2573 0.62831c1.3695 0.68432 2.4562 1.7512 3.1971 3.1389 0.47138 0.88282 0.47494 0.95006 0.53443 10.05l0.0597 9.1615-7.1554-0.11331-0.20712-16.444-0.67619-0.67631-0.67616-0.6763-5.9456-0.0663c-6.6569-0.0743-7.2794 9e-3 -7.9208 1.0605-0.38169 0.6257-0.40324 1.0979-0.40396 8.7832v8.1222h-7.4494v-11.485zm44.213 11.347c-0.076-0.0759-0.13795-4.0278-0.13795-8.7824 0-6.6882-0.0586-8.6823-0.25852-8.8119-0.14249-0.0921-2.2375-0.19732-4.656-0.23383l-4.3975-0.0665v-4.9368h26.073v4.9308l-4.4175 0.0695c-3.3586 0.0529-4.4995 0.13761-4.7596 0.3535-0.30765 0.25579-0.34167 1.1455-0.34167 8.9499v8.6657h-3.4833c-1.9158 0-3.5455-0.0621-3.6213-0.13795zm-313.43-34.027c-11.678-1.0203-22.779-7.3126-29.677-16.822-11.041-15.221-10.523-35.817 1.2692-50.407 1.4808-1.8324 5.0283-5.311 6.7835-6.6512 6.2219-4.7524 13.637-7.6815 21.388-8.4495 2.9806-0.29529 257.81-0.29529 260.79 0 8.0882 0.80118 15.824 3.9666 22.132 9.0553 2.3863 1.9253 5.8946 5.6972 7.7155 8.2957 2.7952 3.9885 4.9572 8.6105 6.1258 13.096 1.0776 4.1363 1.3167 6.0846 1.3167 10.727 0 4.6488-0.24718 6.661-1.3084 10.657-4.4685 16.823-19.058 29.009-36.529 30.512-3.0343 0.2609-257.02 0.25028-260.01-0.011zm262.91-10.083c11.307-2.5993 19.976-10.213 23.674-20.79 1.9791-5.6617 2.2154-12.825 0.61398-18.61-1.4276-5.1571-4.0154-9.7081-7.7231-13.581-4.817-5.0324-10.772-8.1815-17.686-9.3524-2.3664-0.40082-4.052-0.40524-132.56-0.34726l-130.16 0.05873-1.8624 0.46227c-6.5522 1.6264-11.044 4.0358-15.487 8.3074-5.0691 4.8737-8.2352 11.023-9.3596 18.177-0.45948 2.924-0.31185 8.1346 0.31328 11.057 2.8263 13.211 13.757 23.281 27.12 24.982 0.73976 0.0942 59.777 0.15795 131.19 0.1417l129.85-0.0299zm-129.64-10.407c-2.0561-0.27194-4.9134-1.2394-6.8288-2.3123-2.3482-1.3153-4.8661-3.908-5.9694-6.1462-2.5723-5.2184-1.6627-10.407 2.5577-14.589 3.3138-3.2834 7.8304-5.0698 12.818-5.0698 6.2876 0 11.781 2.6579 14.789 7.1561 1.1509 1.7207 2.0845 4.3132 2.0845 5.7876v0.9205h-21.107v4.2489c0 4.7028 0.11867 5.2981 1.2112 6.0763 1.3773 0.98071 4.9463 1.0163 6.2256 0.0621 1.1904-0.88796 1.353-1.3421 1.4269-3.9866l0.0691-2.4688h5.7766c4.7444 0 5.7766 0.0505 5.7766 0.28259 0 0.15545-0.33778 0.95777-0.75062 1.783-1.8869 3.7717-6.3844 6.9645-11.246 7.9846-1.87 0.39223-4.9826 0.51552-6.8338 0.27069zm7.2427-20.333c0-1.7226-0.0652-2.0669-0.57615-3.0451-1.6632-3.1837-6.6278-3.0126-8.0016 0.27587-0.21305 0.50993-0.32028 1.4268-0.32028 2.739v1.9725h8.8981zm106.07 20.344c-2.3497-0.3236-3.8396-0.78031-6.0212-1.8456-5.2263-2.5522-8.2329-7.0461-8.2394-12.314-8e-3 -6.1311 4.6537-11.435 11.757-13.38 2.2965-0.62865 7.3251-0.67487 9.6223-0.0884 6.613 1.6882 11.176 6.0502 12.133 11.6 1.2251 7.0994-4.2796 13.993-12.566 15.736-1.898 0.39926-4.9406 0.53177-6.6867 0.29125zm5.2966-3.7299c0.57475-0.29322 0.93619-0.67627 1.2126-1.285 0.3653-0.80458 0.3941-1.4524 0.39829-8.9586 3e-3 -5.5102-0.0705-8.3157-0.23097-8.7946-0.61942-1.8501-2.0908-2.8637-4.1684-2.8716-1.9703-8e-3 -3.27 0.73595-4.1522 2.3752-0.43502 0.80836-0.44545 1.0239-0.44545 9.2084 0 8.0564 0.0163 8.4083 0.42119 9.0977 0.4964 0.84498 1.5058 1.484 2.6727 1.6917 1.2844 0.22878 3.3789 3e-3 4.2924-0.46325zm-94.401-9.809v-12.933h11.362l0.12238 2.6718 2.3797-1.3367c3.4152-1.9183 4.5388-2.2238 7.8134-2.1242 2.3808 0.0723 2.7784 0.14116 4.0997 0.70933 0.80477 0.34609 2.0153 0.99077 2.6901 1.4327 1.819 1.1912 4.1306 3.5715 4.7403 4.8809l0.51776 1.1122 4e-3 18.52h-11.588v-9.0251c0-8.9401-4e-3 -9.0327-0.45944-9.8426-0.53363-0.94941-2.5191-2.3652-3.6019-2.5683-1.7565-0.32954-4.1843 0.54912-5.8144 2.1041l-0.88464 0.844v18.488h-11.381v-12.933zm49.247 12.72c-5.2192-0.6178-9.9402-5.1708-11.417-11.01-0.52939-2.0936-0.44152-4.9311 0.21642-6.9864 1.2361-3.8615 4.405-7.1036 8.462-8.6574 1.2244-0.46889 1.7114-0.53526 3.9817-0.54274 2.9111-0.01 4.3797 0.35006 6.7842 1.6618 0.71527 0.39016 1.3438 0.70942 1.3968 0.70942s0.0963-3.1661 0.0963-7.0356v-7.0356h11.381v38.075h-5.6905c-4.9206 0-5.6904-0.042-5.6904-0.31037 0-0.40909-0.30335-0.39152-1.573 0.091-2.1521 0.81796-5.7963 1.2949-7.9476 1.0403zm7.7065-4.8423c0.42501-0.20259 0.98374-0.7076 1.2416-1.1223 0.45291-0.72831 0.47112-0.94862 0.53503-6.4751 0.0734-6.3481-0.0701-7.7064-0.94594-8.9525-1.5049-2.1415-4.8597-2.3616-6.774-0.44455-1.2778 1.2797-1.3477 1.7302-1.3477 8.6823 0 6.5079 0.0664 7.0276 1.006 7.8648 1.0729 0.95592 4.6798 1.2127 6.285 0.4475zm-218.98-15.019v-19.041l12.286 0.10969 8.2942 13.082c4.5619 7.1951 8.4087 13.197 8.5489 13.337 0.20182 0.20183 0.25485-2.5304 0.25485-13.134v-13.389h11.381v38.075h-11.551l-8.6377-13.399c-4.7509-7.3693-8.7632-13.535-8.917-13.702-0.23445-0.25451-0.27912 1.8898-0.27912 13.399v13.702h-11.381zm48.008 6.2109v-12.83h11.381v25.659h-11.381zm17.796 0v-12.83h11.381v1.2416c0 0.68288 0.0493 1.2416 0.1096 1.2416s1.5043-0.72166 3.2089-1.6037l3.0993-1.6037h3.3612c3.189 0 3.4277 0.0287 4.6598 0.55676 2.9798 1.2774 6.3065 4.0668 7.3516 6.1648l0.55805 1.1198v18.543h-11.588l-8.3e-4 -9.0531c-8.3e-4 -10.298 0.093-9.7194-1.8022-11.11-1.3225-0.97012-2.7273-1.4328-3.8003-1.2516-1.275 0.2154-3.5791 1.459-4.4126 2.3817l-0.7446 0.8242v18.209h-11.381v-12.83zm40.766-0.10348v-12.933h-6.0011v-3.3109h6.0011v-5.3801h11.795v5.3801h6.0011v3.3109h-6.0011v25.867h-11.795zm163.32-13.678c-1.0589-0.38981-2.4989-1.744-3.0588-2.8765-0.60498-1.2238-0.57724-4.2225 0.0499-5.4043 0.7208-1.3579 1.444-2.0876 2.6575-2.6813 3.6703-1.7957 7.9805 0.79471 8.318 4.9988 0.18557 2.3148-0.9247 4.3937-2.9955 5.6073-1.1835 0.69362-3.5867 0.8657-4.9712 0.35603zm4.3321-0.93369c2.7428-1.3899 3.7039-4.8166 2.0666-7.3682-1.8976-2.9571-5.6478-3.3171-7.8947-0.75794-0.93555 1.0655-1.2977 2.035-1.3052 3.4933-8e-3 1.4636 0.43004 2.6166 1.3611 3.5872 1.5621 1.6286 3.8158 2.0368 5.7721 1.0457zm-1.5384-2.8796c-0.41366-0.72446-0.55706-0.81906-1.2436-0.82046-0.74922-1e-3 -0.77602 0.0234-0.77602 0.72268 0 0.50585-0.0937 0.72427-0.3103 0.72427-0.25927 0-0.31029-0.42535-0.31029-2.5866v-2.5866h1.5159c1.317 0 1.575 0.0629 1.9658 0.47894 0.61535 0.65503 0.60945 1.9112-0.0113 2.5728-0.44874 0.47769-0.45173 0.50967-0.10356 1.1165 0.43824 0.76361 0.44584 0.92726 0.0503 1.0791-0.20712 0.0795-0.46189-0.15046-0.77597-0.70053zm0.48934-2.3479c0.3205-0.70378-0.0703-1.322-0.9388-1.4849-1.2458-0.23372-1.4597-0.0946-1.5297 0.99503l-0.0631 0.98105h1.1539c1.0136 0 1.1811-0.0597 1.3777-0.49115zm-225.17-1.8885v-3.4144h11.381v6.8288h-11.381z" fill="#fff" stroke-width=".10644"/>
 <style type="text/css">.st0{fill:#FC0C18;}
	.st1{fill:#FC0C18;}</style>
</svg>
