<?xml version="1.0" encoding="UTF-8"?>
<svg width="480" height="320" version="1.1" viewBox="0 0 480 320" xmlns="http://www.w3.org/2000/svg">
 <defs>
  <linearGradient id="a" x1="64.449" x2="41.418" y1="-1.287" y2="84.667" gradientTransform="scale(3.7795)" gradientUnits="userSpaceOnUse">
   <stop stop-color="#ed5353" offset="0"/>
   <stop stop-color="#c6262e" offset=".4"/>
   <stop stop-color="#7a0000" offset="1"/>
  </linearGradient>
 </defs>
 <rect width="480" height="320" ry="16" fill="url(#a)" stroke-linecap="square" stroke-linejoin="round" stroke-width="2" style="paint-order:stroke fill markers"/>
 <path d="m267.32 50.001c-0.78448-0.01323-1.5946 0.04384-2.4277 0.17578l-17.414 2.7695c-8.8814 1.4133-18.388 11.091-20.133 20.498l-4.8437 26.107c-1.743 9.4065 4.6378 16.558 13.525 15.145l5.8202-0.91991 17.781-13.691-2.3242-9.2303-1.3125 0.15821-0.42187 2.2754c-0.29151 1.5791-1.5575 2.864-3.043 3.1034l-9.0038 1.4297c-1.487 0.23849-2.3365-0.71533-2.043-2.293l4.537-24.451c0.292-1.5716 1.5565-2.8597 3.041-3.0976l9.0038-1.4297c1.486-0.23698 2.336 0.71548 2.043 2.2871l-0.58007 3.1132 18.199-2.8965 0.6914-3.7265c1.581-8.5247-3.5122-15.197-11.096-15.326zm-53.724 8.5409c-0.74816-0.01587-1.5195 0.03439-2.3105 0.16014l-34.639 5.5058-7.3788 39.786-31.895 5.0722c-2.699 0.42984-5.3274 3.0968-5.8554 5.955l-11.92 64.235c-0.52799 2.8596 1.2326 4.8325 3.9316 4.4061l60.856-9.6756 4.9237-26.521 2.4785-0.39843c2.726-0.42784 2.3239-0.919 1.7949 1.9121l-4.4999 24.26 21.92-3.4844 0.13281-0.72654c0.55949 0.0421 1.3093 0.2598 1.9648 0.1621l16.922-2.6602c-0.62899 3.3822-5.0865 4.2323-11.893 5.3124l-7.744 1.2324-4.1542 22.377 10.176-1.6172c25.052-2.4774 34.583-15.451 37.643-30.915l30.527-4.8554 4.9179-26.521 2.4824-0.39843c2.72-0.43234 2.3203-0.92439 1.7988 1.9082l-4.5038 24.268 21.916-3.4862 0.29883-1.6074c1.654 0.73093 3.5878 0.98814 5.6327 0.666l37.902-6.0233 3.5352-19.062-2.457-1.752c2.1275-2.527 3.7866-5.6162 4.2676-8.2108l0.59765-3.0058c1.8915-11.243-8.4537-14.23-13.176-13.479l-21.75 3.4569c-3.853 0.61322-8.0926 3.304-11.18 6.8671-2.854-2.8326-7.2597-3.9336-9.8222-3.5253l-24.215 3.8475 2.7109 6.0038 21.838-3.4668c3.15-0.50349 5.2544 0.75589 5.8319 3.2558-0.2335 0.66131-5.8319 30.526-5.8319 30.526l-7.83 1.2461 4.1992-22.611c0.52049-2.8316-0.33374-3.7482-3.0527-3.3144l-15.006 2.3887-4.9237 26.521-8.6073 1.373 5.6327-30.366-7.0858-8.3749-25.506 9.24 12.088-1.9238 0.19531-0.0253-7.6874 41.438c-1.9535 10.526-13.163 20.592-23.107 22.174l-10.174 1.6152 1.543-8.2929 7.7382-1.2266c6.8044-1.0852 14.466-7.9092 15.787-15.045l0.83398-4.4901-20.154 3.203c-4.322 0.68885-6.6678-1.941-5.8183-6.5155l3.6152-19.48c0.639-3.4623 2.7957-6.3355 5.6796-7.83l0.0469-0.52147 10.113-7.7968-5.9061 0.99608c-3.144 0.49748-8.9717 2.8594-12.676 7.5917-2.8-3.3482-7.697-4.659-10.455-4.2206l-21.725 3.4569 3.541-19.066 15.85-2.5215c8.4359-1.3382 17.772-10.846 19.432-19.775l2.3809-12.85c1.503-8.097-3.5058-14.626-10.738-14.781zm-9.621 16.646c1.0996 0.0257 1.6311 0.82167 1.3809 2.1504l-1.9961 10.779c-0.286 1.5235-1.3726 2.6285-2.8106 2.8574l-10.959 1.7422 2.9219-15.75 10.959-1.7422c0.17968-0.02835 0.34681-0.04074 0.5039-0.03704zm45.038 1.6836c-0.70471 0.04222-1.297 0.61089-1.332 1.3398-0.038 0.78054 0.56279 1.4426 1.3418 1.4785 16.061 0.77002 31.73 2.3995 46.575 4.8417 0.078 0.0121 0.15591 0.01965 0.23241 0.01965 0.67799 0 1.2742-0.49021 1.3887-1.1836 0.1275-0.76952-0.39511-1.4958-1.1621-1.6211-14.952-2.4604-30.732-4.1004-46.901-4.8749-0.0478-2e-3 -0.0956-0.0028-0.14258 0zm65.181 2.1914-43.692 17.475-12.277-12.805 3.914 17.744-37.199 28.412 43.692-17.48 12.277 12.807-3.916-17.74 37.201-28.412zm-144.66 1.6484c-0.0936-0.0045-0.18889 5.94e-4 -0.28514 0.0155-23.064 3.6311-42.561 9.3762-56.384 16.613-14.57 7.63-22.47 16.788-22.848 26.488-0.46449 11.784 9.9112 23.178 30.008 32.95 0.1985 0.0977 0.40773 0.14453 0.61522 0.14453 0.52149 0 1.0241-0.29344 1.2676-0.7949 0.34-0.70539 0.0486-1.548-0.65038-1.8887-18.742-9.114-28.836-19.875-28.424-30.298 0.68399-17.582 30.132-33.071 76.853-40.423 0.76849-0.12174 1.2939-0.84324 1.1719-1.6133-0.105-0.67376-0.66882-1.1625-1.3242-1.1934zm141.02 3.9276c-0.65565-0.0037-1.2478 0.45237-1.3887 1.1191-0.15899 0.7625 0.32689 1.5125 1.0879 1.6738 23.304 4.9522 42.821 11.843 56.438 19.93 13.677 8.118 20.758 17.08 20.482 25.914-0.785 25.241-60.287 44.879-135.7 44.878-0.38949 0-0.78537-4.5e-4 -1.1719-2e-3h-6e-3c-0.77749 0-1.4032 0.62964-1.4062 1.4082-1e-3 0.78054 0.62335 1.4126 1.4024 1.4141 0.39548 2e-3 0.78567 2e-3 1.1797 2e-3 36.912 0 71.264-4.6661 96.843-13.164 26.454-8.7902 41.252-21.026 41.669-34.448 0.3095-9.9215-7.2512-19.754-21.863-28.43-13.88-8.2418-33.691-15.248-57.29-20.264-0.0951-0.02003-0.18953-0.03061-0.2832-0.03137zm-36.357 3.4765-7.2421 1.1543 5.578 5.246c0.47499-1.2805 0.80338-1.7665 1.0469-3.08l0.61719-3.3202zm74.767 19.543c3.0517-0.0151 5.0823 3.5396 4.4336 7.0214l-0.98827 5.1815c-0.69299 3.7158-4.4795 7.6659-7.869 8.2069l-20.9 3.3242-0.30272 1.8789c-0.397 2.1367 1.0181 3.8062 2.9746 3.494l23.361-3.7265-1.5742 8.494-26.354 4.1854c-4.6539 0.73846-8.5307-2.7758-7.5897-7.8729l2.9863-16.104c0.9475-5.093 6.4119-10.095 11.064-10.836l20.135-3.1972c0.21203-0.0336 0.4196-0.0498 0.62304-0.0508zm-181.08 3.7909-1.5371 8.2909-21.135 3.3632-3.2266 17.404 17.219-2.7363-1.5371 8.2851-17.219 2.7363-3.2344 17.41 27.398-4.3573-1.6894 9.117-36.006 5.7206 11.223-60.505 29.744-4.7284zm174.86 4.5917c-0.14514-0.01-0.29829-2e-3 -0.45897 0.0234l-4.1836 0.66209-6.6718 1.0644-1.6895 0.26366c-1.9565 0.31362-4.1024 2.5492-4.498 4.6874l-0.18555 1.0039 16.283-2.5898c1.2855-0.2064 2.5378-1.5087 2.8008-2.916 0.22489-1.2314-0.38051-2.1316-1.3965-2.1992zm-72.394 4.0643-6.4608 34.81-8.6073 1.3652 6.455-34.804 0.19726-0.037 8.4159-1.334zm-98.976 5.2714-5.5292 29.836-20.352 3.2344 0.76561-4.1386 16.438-2.6172 4-21.553-16.438 2.6172 0.76562-4.1425 20.35-3.2362zm35.34 4.9784c3.3322 0.10412 5.0342 2.6148 4.2909 6.621l-5.0351 27.148-8.6112 1.3633 4.1934-22.605c0.52949-2.8341-0.32622-3.7526-3.0527-3.3202l-15.004 2.3887-4.9179 26.521-8.6132 1.3711 6.4569-34.808 0.20116-0.0333 28.566-4.5409c0.54019-0.0861 1.0494-0.12034 1.5254-0.10548zm38.617 1.7715-15.787 2.5058c-2.726 0.43235-3.9848 1.6804-4.5078 4.5175l-1.9277 10.398c-0.52799 2.8386 0.32868 3.7506 3.0547 3.3183l15.785-2.5078 3.3828-18.232zm-8.2753 7.7519-0.77148 4.1405-2.4785 0.39648c-2.6615 0.42383-3.834 1.1351-3.3964-1.4746 0.534-2.6307 1.5065-2.247 4.1679-2.6719l2.4785-0.39061zm178.94 72.118v6.0585h11.82c1.6851 0 3.5742 0.28531 3.5742 2.3612 0 1.9646-1.5015 2.6914-3.2402 2.6914h-4.8847c-8.7703 0-9.8319 6.3211-9.8319 11.258v3.8964h26.135v-6.4999h-17.391c-2e-3 -3.0302 3.3319-2.5918 5.9042-2.5918h2.9199c5.2252 0 9.0019-2.6924 9.0019-8.7538 0-3.896-2.4429-8.4198-7.7147-8.4198h-16.293zm-348.55 10.484c-15.683 0-27.443 10.295-27.443 23.758 0 13.461 11.761 23.756 27.443 23.756h35.289v-7.9198h-35.289c-11.762 0-19.602-7.9834-19.602-15.836 0-7.8523 7.8394-15.836 19.602-15.836h35.289v-7.9218h-35.289zm43.128 0v47.513h35.287c15.683 0 27.443-10.295 27.443-23.756 0-13.462-11.761-23.758-27.443-23.758zm175.56 0c-15.684 0-27.445 10.295-27.445 23.758 0 13.461 11.762 23.756 27.445 23.756h23.523c15.683 0 27.443-10.295 27.443-23.756 0-13.462-11.761-23.758-27.443-23.758zm74.493 0c-7.8422 0-15.684 3.9611-15.684 11.881v35.632h7.8417v-31.675c0-7.9186 7.8429-7.9159 11.764-7.9159h7.8397v39.591h7.8417v-39.591h7.8417c3.9196 0 11.76-3e-3 11.76 7.9159v31.675h7.8437v-35.632c0-7.9196-7.8431-11.881-15.684-11.881zm-167.72 2e-3v47.513h7.8417v-19.797h35.287c3.9206 0 7.8417 3.9605 7.8417 7.9198v11.877h7.8417v-11.877c0-7.9196-7.8437-11.881-7.8437-11.881 3.9206 0 7.8417-5.7203 7.8417-9.6795 0-7.9186-3.9194-14.076-11.762-14.076h-47.048zm-74.491 7.9198h27.445c11.762 0 19.602 7.9834 19.602 15.836 0 7.8523-7.8395 15.836-19.602 15.836h-27.445zm82.333 0h35.287c3.9196 0 7.8417 2.1969 7.8417 6.1561-9.9e-4 3.9592-3.922 5.7206-7.8417 5.7206h-35.287v-11.877zm85.384 0h23.523c11.762 0 19.602 7.9834 19.602 15.836 0 7.8523-7.8394 15.836-19.602 15.836h-23.523c-11.762 0-19.604-7.9834-19.604-15.836 0-7.8523 7.8424-15.836 19.604-15.836zm-104.44 11.877c-2.1183 0.0542-3.8184 1.8078-3.8184 3.9589 0 2.1854 1.7539 3.9589 3.9198 3.9589h2.9394c2.165-1e-5 3.9198-1.7736 3.9198-3.9589s-1.7539-3.9589-3.9198-3.9589h-2.9394c-0.0336 0-0.0679-8.7e-4 -0.10156 0z" fill="#fafafa" stroke-width=".50049"/>
 <style type="text/css">.st0{fill:#FC0C18;}
	.st1{fill:#FC0C18;}</style>
</svg>
