<?xml version="1.0" encoding="UTF-8"?>
<svg width="480" height="320" version="1.1" viewBox="0 0 480 320" xmlns="http://www.w3.org/2000/svg">
 <defs>
  <linearGradient id="a" x1="47.767" x2="98.831" y1="-32.295" y2="78.758" gradientTransform="scale(3.7795)" gradientUnits="userSpaceOnUse">
   <stop stop-color="#3689e6" offset="0"/>
   <stop stop-color="#0e141f" offset="1"/>
  </linearGradient>
 </defs>
 <rect y="9.1553e-8" width="480" height="320" ry="16" fill="url(#a)" stroke-linecap="square" stroke-linejoin="round" stroke-width="2" style="paint-order:stroke fill markers"/>
 <path d="m300.16 101.83c-4.7841 0-8.8078 2.9503-10.041 6.9745l-12.533 36.728v-26.578h-18.785v6.6073h12.146v17.938h-15.201c-3.6548 0-6.6425-2.976-6.6425-6.6327v-21.029c0-3.6601 2.9662-6.6112 6.6249-6.6112h21.857v-6.6229h-21.91c-7.3401 0-13.287 5.9226-13.287 13.234v21.029c0 7.3125 6 13.244 13.34 13.244l21.857 0.01v-8e-3h5.4687l13.686-40.153c0.55564-1.3296 1.8676-2.2656 3.4082-2.2656 1.5321 0 2.8474 0.93665 3.4082 2.2578l11.398 33.548h-17.65v6.6151h26.859l-13.971-41.292c-1.2242-4.0276-5.2564-6.9921-10.033-6.9921zm-99.229 0.77148-21.104 2e-3c-8.6404 0-15.66 6.9759-15.66 15.588 0 8.6117 7.0197 15.59 15.66 15.59l5.4589 8e-3c0.41517 0 0.76757 0.33842 0.76757 0.76561 0 0.41935-0.35251 0.75781-0.76757 0.75781l-21.111 0.0155 8e-3 6.5937h21.154c4.0954 0 7.4081-3.3012 7.4081-7.3808 0-4.0749-3.3128-7.371-7.4081-7.371l-5.5155-0.0605c-4.9472 0-8.9608-3.9963-8.9608-8.9354 0-4.9255 4.0136-8.9256 8.9608-8.9256l21.115-6e-3 -6e-3 -6.6405zm16.438 2e-3c-7.3435 0-13.293 5.9226-13.293 13.234v21.027c0 7.3125 5.9492 13.244 13.293 13.244l22.473 0.01-4e-3 -6.6112-22.469 8e-3c-3.6678 0-6.6718-2.9194-6.6718-6.6483v-21.104c0-3.5874 3.004-6.5351 6.6718-6.5351l22.566 6e-3v-6.6288l-22.566-2e-3zm82.796 6.6229c-0.946 0-1.7465 0.60907-2.041 1.4512l-13.416 39.437h7.83l4.7558-14.01-0.0117 5.8886h15.535l-10.607-31.315c-0.28649-0.84205-1.0944-1.4512-2.041-1.4512h-4e-3zm-22.578 1.5449-21.857 6e-3c-2.7986 0-5.0663 2.2664-5.0663 5.0624v21.029h2e-3c0 2.8018 2.2678 5.08 5.0663 5.08h13.652v-14.822h-10.562v6.6288h3.9218l0.01 1.5566h-3.9024c-0.8518 0-1.5488-0.70559-1.5488-1.5566l-0.0332-14.803s-4e-3 -1.5398 1.5664-1.5781h18.762l-0.01-6.6034zm-60.218 6e-3c-2.803 0-5.0546 2.2664-5.0546 5.0624l-8e-3 9.7225h22.828v-6.6054h-16.221s0.0219-1.543 1.5781-1.543h19.441v-6.6366h-22.564zm-37.547 0.0117c-4.0824 0-7.4023 3.3136-7.4023 7.3847 0 4.0749 3.3193 7.3749 7.4023 7.3749l5.5175 0.0723c4.9556 0 8.9667 3.9951 8.9667 8.9218 0 4.93-4.0104 8.9315-8.9667 8.9315h-21.152l-8e-3 6.6874 21.143-0.0215c8.6495 0 15.656-6.9806 15.656-15.584 0-8.6202-7.0068-15.604-15.656-15.604l-5.4921 0.0295c-0.43267 0-0.78319-0.35475-0.78319-0.79101 0-0.43624 0.35065-0.791 0.78319-0.791l21.104 6e-3 6e-3 -6.6151-21.115-2e-3h-2e-3zm55.31 16.346-22.826 2e-3v9.7322c0 2.7882 2.2678 5.0409 5.0624 5.0409l22.467-0.01 4e-3 -6.5819h-19.348s-1.5567-6e-3 -1.5781-1.5625h16.219v-6.621zm65.019 0.55273 2.3379 6.9413h-4.6933zm-249.76 42.474c-6.9269 0-10.389 3.5548-10.389 10.666v7.9999c0 7.1117 3.4616 10.666 10.389 10.666h36.365v7.9999h-46.753v10.668h46.753c6.9263 0 10.389-3.5561 10.389-10.668v-7.9999c0-7.111-3.4623-10.666-10.389-10.666h-36.365v-7.9999h46.753v-10.666zm62.337 0c-6.9269 0-10.389 3.5548-10.389 10.666v26.666c0 7.1117 3.4616 10.668 10.389 10.668h44.155v-10.668h-44.155v-26.666h44.155v-10.666zm72.728 0v10.666h36.363l-12.986 16h25.973v10.666h-49.349v10.668h49.349c6.9257 0 10.391-3.5561 10.391-10.668v-10.666c0-7.111-3.4642-10.666-10.391-10.666h-5.1933l12.986-16h-57.142zm75.323 0c-6.9269 0-10.391 3.5548-10.391 10.666v26.666c0 7.1117 3.4636 10.668 10.391 10.668h38.961c6.9263 0 10.389-3.5561 10.389-10.668v-26.666c0-7.111-3.4623-10.666-10.389-10.666zm64.935 0c-6.9263 0-10.391 3.5548-10.391 10.666v26.666c0 7.1117 3.4642 10.668 10.391 10.668h38.961c6.9263 0 10.389-3.5561 10.389-10.668v-26.666c0-7.111-3.4623-10.666-10.389-10.666zm64.933 0c-6.9263 0-10.389 3.5548-10.389 10.666v26.666c0 7.1117 3.4623 10.668 10.389 10.668h38.963c6.9263 0 10.389-3.5561 10.389-10.668v-26.666c0-7.111-3.4622-10.666-10.389-10.666zm-129.87 10.666h38.961v26.666h-38.961zm64.935 0h38.961v26.666h-38.961zm64.933 0h38.963v26.666h-38.963zm-228.57 7.9999v10.666h18.182v-10.666z" fill="#fafafa" stroke-linecap="round" stroke-linejoin="round" stroke-width="5.9999" style="paint-order:stroke markers fill"/>
 <style type="text/css">.st0{fill:#FC0C18;}
	.st1{fill:#FC0C18;}</style>
</svg>
