<?xml version="1.0" encoding="UTF-8"?>
<svg width="480" height="320" version="1.1" viewBox="0 0 480 320" xmlns="http://www.w3.org/2000/svg">
 <defs>
  <linearGradient id="a" x1="10.583" x2="30.655" y1="-2.5613" y2="78.905" gradientTransform="scale(3.7795)" gradientUnits="userSpaceOnUse">
   <stop stop-color="#f9c440" offset="0"/>
   <stop stop-color="#d48e15" offset="1"/>
  </linearGradient>
 </defs>
 <rect width="480" height="320" ry="16" fill="url(#a)" stroke-linecap="square" stroke-linejoin="round" stroke-width="2" style="paint-order:stroke fill markers"/>
 <path d="m133.85 109.24c-34.778-0.0516-56.568 37.608-39.224 67.789 0.18637 0.32277 0.37576 0.64502 0.56818 0.96472h2.5953l34.331-34.372c3.1424 3.1364 7.4502-1.1011 8.7005-2.4799l-2.1544-2.1573c-2.9909-2.9758-5.5487 1.5832-5.5487 1.5832l-6.5401-6.5548s10.205-4.6609 15.755 0.89666c1.9848 1.994 3.2852 3.2986 4.1548 4.1609l7.6056-7.6112c-1.4818-4.0894 2.0112-8.2507 6.2884-7.4929 4.2773 0.76063 6.1308 5.8715 3.3351 9.2005-1.5242 1.8152-4.0199 2.4825-6.2442 1.675l-7.6025 7.6112 4.1284 4.1461c5.5593 5.5548 0.88781 15.773 0.88781 15.773l-6.5371-6.5578s4.5532-2.5364 1.5802-5.5547l-2.1574-2.1129c-1.3758 1.2591-5.6062 5.5729-2.4651 8.7122l-21.12 21.141h48.355c18.085-29.749-2.779-67.941-37.553-68.746-0.37882-9e-3 -0.75757-0.0136-1.1364-0.0117zm-68.511 4.365c-7.8845 0-14.079 1.6628-18.584 4.9893-4.5052 3.3266-6.7559 8.0485-6.7559 14.166 0 5.204 1.4663 9.1672 4.4005 11.89 2.9342 2.7233 7.4086 5.0528 13.423 6.9868 4.5056 1.511 7.5235 2.9799 9.0554 4.4065a6.3273 6.3348 0 0 1 2.2727 4.6756 5.8375 5.8443 0 0 1-3.0333 5.1847 14.555 14.572 0 0 1-7.8482 1.9117 31.611 31.648 0 0 1-9.8249-1.6069 27.936 27.969 0 0 1-6.4452-2.6811l-1.1571 12.713c2.0556 0.60896 4.7146 1.227 7.9752 1.8584a53.095 53.155 0 0 0 10.272 0.95584c7.7325 0 13.881-1.6892 18.448-5.0721s6.8508-8.1343 6.8508-14.252c0-5.0237-1.2259-8.9703-3.6814-11.84-2.4554-2.8699-6.7325-5.2849-12.831-7.2416-5.5079-1.8663-8.9711-3.3748-10.39-4.5305a5.2207 5.2267 0 0 1-2.1218-4.1786 5.8541 5.8609 0 0 1 2.8054-5.3121c1.8669-1.1756 4.4092-1.7667 7.6025-1.7667a32.456 32.494 0 0 1 13.989 2.9859l1.0802-11.843a45.044 45.097 0 0 0-6.9335-1.6897 49.561 49.621 0 0 0-8.5671-0.71025zm355.65 0c-7.8845 0-14.079 1.6628-18.584 4.9893-4.5052 3.3266-6.7589 8.0485-6.7589 14.166 0 5.2014 1.4776 9.1672 4.4005 11.89 2.9229 2.7233 7.3931 5.0755 13.391 6.9868 4.5052 1.511 7.5235 2.9799 9.0554 4.4065a6.3273 6.3348 0 0 1 2.2728 4.6756 5.8288 5.8356 0 0 1-3.0422 5.17 14.555 14.572 0 0 1-7.8482 1.9087 31.603 31.639 0 0 1-9.7807-1.5891c-3.2608-1.0572-5.4236-1.9538-6.4543-2.6811l-1.166 12.686c2.0528 0.60895 4.7032 1.2271 7.9725 1.8614a53.027 53.087 0 0 0 10.257 0.95583c7.7325 0 13.881-1.6922 18.448-5.0751 4.5672-3.383 6.8474-8.1343 6.836-14.252 0.0113-5.0124-1.2045-8.9423-3.6488-11.79-2.4498-2.8192-6.7264-5.241-12.825-7.265-5.4992-1.8691-8.9711-3.3804-10.39-4.5305a5.1953 5.2014 0 0 1-2.1188-4.1786 5.8541 5.8609 0 0 1 2.8024-5.3121c1.8669-1.1756 4.4092-1.7667 7.6025-1.7667a32.38 32.418 0 0 1 13.941 2.9859l1.089-11.843a45.286 45.339 0 0 0-6.9366-1.6897 49.561 49.621 0 0 0-8.5138-0.71025zm-236.05 1.089v63.364l50.899-0.0828 5.17-13.897h25.121l5.0691 13.897h16.32l-24.929-63.28h-17.495l-20.165 52.108h-25.113v-52.108zm102.58 63.28h14.877v-25.704h4.5543a7.1467 7.155 0 0 1 5.7086 2.3171 16.963 16.982 0 0 1 3.1694 5.8624l6.3269 17.525h15.965l-6.7589-17.711-0.39655-0.81973c-0.90108-2.4752-1.9722-5.0479-3.2168-7.7148a8.8025 8.8127 0 0 0-5.8477-5.0721c4.4209-0.90213 7.6532-2.7782 9.6975-5.6254a15.772 15.79 0 0 0 3.0836-9.4461c0-5.7513-1.9704-10.003-5.9127-12.755-3.942-2.7515-9.6162-4.1314-17.022-4.137h-24.228zm50.6-63.28v39.851c0 8.0515 2.3295 14.15 6.9868 18.294 4.6575 4.1442 11.366 6.2146 20.129 6.2146 8.9431 0 15.668-2.146 20.174-6.4426 4.5052-4.2966 6.7589-10.783 6.7589-19.454v-38.464h-14.876v36.494c0 5.3903-0.97844 9.4907-2.9327 12.299-1.9542 2.8079-5.0253 4.2176-9.2152 4.2289-4.114 0-7.1543-1.3635-9.165-4.0868s-2.983-6.6807-2.983-11.89v-37.045zm-35.743 10.893h5.8031c3.7507 0 6.565 0.61773 8.4488 1.8525 1.8838 1.2348 2.8646 3.2578 2.8646 6.0487a6.6735 6.6814 0 0 1-2.8557 5.9365h-0.0325c-1.9007 1.3109-4.5872 1.9531-7.9665 1.9531h-6.2619zm-48.59 1.8111 8.5315 25.692h-17.41zm-71.199 59.036c-4.3336 0-7.7367 1.0817-10.195 3.196-2.4582 2.1144-3.6932 5.0993-3.6932 8.9813 0 3.8819 1.199 6.8436 3.5896 8.9578 2.3991 2.1257 5.7203 3.1872 9.9609 3.1872a25.022 25.051 0 0 0 4.6462-0.43207 32.456 32.494 0 0 0 3.5571-0.84635v-12.684h-9.5792v4.0838h4.2229v5.2025a7.4763 7.4849 0 0 1-1.1304 0.30186 8.0591 8.0685 0 0 1-1.6306 0.13611 7.8478 7.8569 0 0 1-5.7619-2.1573 7.6789 7.6879 0 0 1-2.2047-5.7498 7.4763 7.4849 0 0 1 2.4237-5.7766 9.436 9.4469 0 0 1 6.5046-2.1484 14.665 14.682 0 0 1 3.2345 0.35512 11.438 11.452 0 0 1 2.906 1.0653l0.37289-4.3117v-0.23675a15.206 15.223 0 0 0-3.0925-0.84635 27.311 27.343 0 0 0-4.131-0.27817zm35.219 0c-4.3419 0-7.7367 1.0817-10.195 3.196-2.4582 2.1144-3.6932 5.0993-3.6932 8.9813 0 3.8819 1.1901 6.8436 3.5808 8.9578 2.3991 2.1257 5.7203 3.1872 9.9609 3.1872a24.802 24.831 0 0 0 4.6371-0.43207 31.113 31.149 0 0 0 3.5571-0.84635v-12.684h-9.5614v4.0838h4.2229v5.2025a7.0874 7.0957 0 0 1-1.1245 0.30186 8.1687 8.1785 0 0 1-1.6306 0.13611 7.8561 7.8655 0 0 1-5.7676-2.1573 7.7125 7.7215 0 0 1-2.1988-5.7498 7.4423 7.4509 0 0 1 2.4089-5.7766 9.4696 9.4809 0 0 1 6.5133-2.1484 14.699 14.716 0 0 1 3.2256 0.35512 11.151 11.164 0 0 1 2.8972 1.0653l0.37289-4.3117v-0.23675a14.783 14.801 0 0 0-3.0836-0.84635 27.193 27.225 0 0 0-4.1223-0.27817zm158.32 0c-4.3419 0-7.7454 1.0817-10.204 3.196-2.4582 2.1144-3.6843 5.0993-3.6843 8.9813 0 3.8819 1.1901 6.8436 3.5808 8.9578 2.4048 2.1257 5.729 3.1872 9.97 3.1872a24.777 24.806 0 0 0 4.6284-0.43207 31.113 31.149 0 0 0 3.5571-0.84635v-12.684h-9.5792v4.0838h4.2229v5.2025a6.5046 6.5121 0 0 1-1.1157 0.30186 8.2027 8.2121 0 0 1-1.6365 0.13611 7.8478 7.8569 0 0 1-5.7619-2.1573 7.7125 7.7215 0 0 1-2.1988-5.7498 7.4423 7.4509 0 0 1 2.4-5.8446 9.4613 9.4722 0 0 1 6.5401-2.1485 14.589 14.606 0 0 1 3.2256 0.35513 11.328 11.342 0 0 1 2.906 1.0653l0.3462-4.2436v-0.23675a14.606 14.623 0 0 0-3.0658-0.84635 27.396 27.428 0 0 0-4.131-0.27817zm-327.02 0.3699-9.0969 23.529h5.6761l1.9265-5.1757h9.2923l1.9087 5.1757h6.0635l-9.2655-23.529zm18.434 0v23.529h5.1934v-16.634l8.5671 16.261 0.19234 0.37285h6.6675v-23.529h-5.1462v16.773l-8.5996-16.773zm42.24 0-9.1 23.529h5.661l1.9176-5.1757h9.3426l1.8851 5.1757h6.0635l-9.2655-23.529zm18.161 0v23.529h5.534v-9.5644l1.6986 0.0325a2.6103 2.6134 0 0 1 2.1189 0.84634 6.2343 6.2415 0 0 1 1.1926 2.1662l2.3645 6.5193h5.9127l-2.5332-6.5786-0.14499-0.30481c-0.35482-0.92187-0.73391-1.878-1.1985-2.8676a3.2692 3.2731 0 0 0-2.1721-1.894 5.6428 5.6496 0 0 0 3.6163-2.0981 5.8628 5.8696 0 0 0 1.1304-3.5008 5.3813 5.3873 0 0 0-2.1781-4.7467c-1.4614-1.0149-3.5824-1.5388-6.3447-1.5388zm21.6 0v23.529h5.534v-8.6173h2.5184c2.8102 6e-3 5.0014-0.64826 6.5726-1.962a6.9184 6.9267 0 0 0 2.3645-5.6167c0-2.4781-0.8804-4.3211-2.5361-5.5219-1.6557-1.201-4.0702-1.8111-7.2295-1.8111zm87.764 0-9.1 23.529h5.661l1.9265-5.1757h9.2924l1.891 5.1757h6.0401l-9.2005-23.529zm18.303 0v23.529h5.3564l-0.074-18.691 6.1818 18.318h4.9183l6.3005-18.291-0.0592 18.664h5.3473v-23.529h-8.3214l-5.6345 16.409-5.4569-16.409zm32.694 0v23.529h15.569v-4.0928h-10.035v-5.972h9.1208v-4.0513h-9.1208v-5.3624h9.8487v-4.0513zm29.635 0v23.529h15.524v-4.0928h-10.035v-5.972h9.1412v-4.0513h-9.1412v-5.3624h9.8752v-4.0513zm19.774 0v23.529h5.1878v-16.637l8.5584 16.264 0.21898 0.37285h6.7v-23.529h-5.1965v16.773l-8.5818-16.773zm50.925 0v23.529h5.534v-23.529zm10.399 0v23.529h5.1432v-16.634l8.5584 16.261 0.20108 0.37285h6.7087v-23.529h-5.1965v16.773l-8.5466-16.773zm25.409 0v23.529h15.569v-4.0928h-10.035v-5.972h9.1147v-4.0513h-9.1147v-5.3624h9.8426v-4.0513zm-288.28 4.0426a5.9134 5.9202 0 0 1 2.619 0.70431 2.5343 2.5373 0 0 1 1.0565 2.249 2.4413 2.4442 0 0 1-1.089 2.1988 5.2037 5.2097 0 0 1-2.9652 0.72797h-2.3142v-5.8711h2.1455a5.9134 5.9202 0 0 1 0.54747-9e-3zm18.907 0.0681h1.8851a4.5026 4.5078 0 0 1 2.8972 0.84634 3.0073 3.0109 0 0 1 1.0802 2.471 3.1678 3.1716 0 0 1-1.0653 2.5361 4.3166 4.3219 0 0 1-2.912 0.90553l-1.8851-0.0592zm-102.73 0.62736 3.1606 9.538h-6.463zm60.661 0 3.1753 9.538h-6.4777zm127.48 0 3.1605 9.538h-6.463z" fill="#fff" stroke-width=".43478"/>
 <style type="text/css">.st0{fill:#FC0C18;}
	.st1{fill:#FC0C18;}</style>
</svg>
