<?xml version="1.0" encoding="UTF-8"?>
<svg width="480" height="320" version="1.1" viewBox="0 0 480 320" xmlns="http://www.w3.org/2000/svg">
 <defs>
  <linearGradient id="a" x1="51.436" x2="87.768" y2="146.65" gradientTransform="scale(3.7795)" gradientUnits="userSpaceOnUse">
   <stop stop-color="#0d52bf" offset="0"/>
   <stop stop-color="#0e141f" offset="1"/>
  </linearGradient>
 </defs>
 <rect width="480" height="320" ry="16" fill="url(#a)" stroke-linecap="square" stroke-linejoin="round" stroke-width="2" style="paint-order:stroke fill markers"/>
 <path d="m40.369 197.14c0.20383-1.061 0.83807-4.6333 1.4094-7.9385l1.0388-6.0094 6.5102-0.25262c8.437-0.32739 10.619-1.4511 12.028-6.1939 1.4397-4.848 1.2464-5.3907-3.7728-10.588-4.7486-4.9172-6.4728-7.7979-6.4913-10.845-0.01814-3.0472 1.908-13.513 3.1697-17.222 2.5414-7.4702 6.0839-12.281 10.897-14.799 1.9361-1.0126 3.086-1.1738 9.6582-1.3539l7.4604-0.20444-0.28044 1.4335c-0.15424 0.78844-0.68186 3.9685-1.1725 7.0673l-0.89208 5.6337h-6.1243c-5.876 0-6.1875 0.0531-7.683 1.3116-2.1399 1.8006-3.0251 3.7152-3.0251 6.5427 0 2.3806 0.03477 2.4305 5.5158 7.9272 6.4868 6.5053 6.6361 6.9067 5.6837 15.284-1.4081 12.382-5.0929 21.409-11.065 27.106-4.6972 4.4802-5.1175 4.6174-14.815 4.8378l-8.4204 0.1911zm43.011 0.68088c-3.6055-2.0329-6.7604-8.1868-6.7604-13.187 0-1.8168 3.4761-23.149 8.8845-54.523l1.3812-8.0126 4.9221-0.14381c4.5252-0.1322 4.9017-0.0716 4.6662 0.75118-0.1409 0.49225-2.2137 12.388-4.6061 26.434-3.8457 22.58-4.2849 25.779-3.7878 27.603 0.90561 3.324 2.2761 4.6976 4.687 4.6976 2.9264 0 5.7513-3.0021 7.3289-7.7888 0.63057-1.9133 3.2681-13.845 5.8609-26.514 2.593-12.67 4.8318-23.543 4.975-24.162 0.24782-1.0716 0.49455-1.1268 5.0423-1.1268 4.326 0 4.755 0.0835 4.5037 0.87635-0.15284 0.482-2.8547 13.722-6.0042 29.423-3.1494 15.7-6.1946 29.798-6.7672 31.328-2.3729 6.3424-6.8379 12.294-10.648 14.192-2.2353 1.1139-3.255 1.2982-7.1414 1.2912-3.7692-7e-3 -4.8718-0.19873-6.5371-1.1377zm181.53 0.39795c0-0.43064 0.54825-3.5371 1.2184-6.9033 0.67011-3.3661 2.3703-12.092 3.7782-19.391 1.4079-7.2986 2.9908-15.411 3.5175-18.028 0.52672-2.6166 1.2993-6.6096 1.7169-8.8732 0.41756-2.2637 0.9024-4.6862 1.0774-5.3832l0.31813-1.2675h-4.0604c-4.8574 0-4.6413 0.75983-2.6399-9.2643l1.3997-7.011 13.112-0.13353c7.2117-0.0734 13.112 0.0492 13.112 0.27254 0 0.22333-0.67333 3.7763-1.4963 7.8954-0.82295 4.1193-1.499 7.6584-1.5023 7.8652-4e-3 0.20659-1.7032 0.37557-3.7776 0.37557-2.5826 0-3.8309 0.19733-3.9606 0.62596-0.10386 0.34428-1.0976 5.3582-2.2084 11.142-3.6083 18.79-7.1191 36.93-8.287 42.814l-1.1424 5.7588-5.088 0.14271c-4.3415 0.12178-5.088 0.028-5.088-0.64029zm31.799-0.39795c-3.6086-2.0347-6.7604-8.1872-6.7604-13.196 0-1.7746 2.4523-16.84 9.383-57.645l0.78679-4.6322h9.6605l-4.4224 25.665c-4.6953 27.248-4.7966 28.423-2.7215 31.512 2.2713 3.3812 6.9766 2.1012 9.3014-2.5302 1.7885-3.5633 2.7835-7.6286 7.553-30.86l4.8321-23.537 4.8888-0.14381c2.6889-0.0791 4.7701 0.0483 4.625 0.28324-0.14518 0.23486-2.8819 13.482-6.0816 29.439-3.3282 16.597-6.3179 30.25-6.9861 31.906-2.6522 6.5699-7.0197 12.128-10.922 13.9-3.211 1.4576-10.422 1.3688-13.136-0.16188zm106.68-0.35852c-4.1843-2.1424-6.6217-5.7165-8.1071-11.887-0.97221-4.0395-1.1337-17.873-0.25852-22.164 0.30878-1.5148 0.66134-3.3556 0.78312-4.0906 0.48117-2.9041 4.0033-13.34 5.8545-17.347 2.6303-5.6931 6.9105-12.021 10.027-14.822 2.9694-2.6698 8.9114-5.7592 11.83-6.1504 4.3313-0.58094 9.4568 2.3749 12.593 7.262 3.0058 4.684 4.5819 14.198 3.5828 21.628-1.4008 10.418-4.7872 22.579-8.1562 29.291-6.3564 12.663-13.57 18.83-22.408 19.157-2.98 0.11033-4.1658-0.0708-5.74-0.87696zm13.209-19.506c4.9172-2.5086 8.739-10.869 10.557-23.092 1.3658-9.1861-1.6838-16.491-6.8848-16.491-1.645 0-5.0245 2.0786-6.5492 4.0282-1.772 2.2659-3.9927 7.1308-5.3616 11.746-1.7688 5.9629-2.266 15.189-1.0448 19.389 1.4444 4.9685 4.9429 6.6338 9.2837 4.4194zm-305.93 19.617c0-0.34801 2.4588-13.441 11.612-61.829l2.6286-13.897h22.362l-0.3086 1.6275c-0.1697 0.89514-0.9123 4.557-1.6502 8.1377l-1.3416 6.5102-12.495 0.50078-0.86797 4.7573c-0.47739 2.6166-1.0001 5.4898-1.1615 6.3847l-0.29356 1.6275h10.428l-1.1855 5.8839c-0.65201 3.2362-1.4266 7.0673-1.7213 8.513l-0.53579 2.6291h-4.7327c-4.4368 0-4.7614 0.0704-5.1957 1.1267-0.25482 0.61969-1.615 6.873-3.0226 13.897s-2.6743 13.164-2.8148 13.646c-0.21994 0.75461-0.91151 0.87635-4.9792 0.87635-2.598 0-4.7237-0.17627-4.7237-0.39174zm18.985-0.7181c0.24409-0.62899 4.7607-12.186 10.037-25.681 5.2762-13.496 11.763-30.123 14.414-36.949l4.8208-12.411 9.583 0.28445v75.617l-9.7652 0.28663v-12.556h-13.912l-4.9255 12.269-10.697 0.28414zm29.008-38.2c0.10583-6.3159-8e-3 -9.8305-0.30648-9.5145-0.36098 0.38112-4.5445 11.063-7.5107 19.177-0.18391 0.50309 0.64562 0.61515 3.7062 0.50078l3.9432-0.14736zm12.65 32.425c2.1236-10.262 13.973-68.832 13.973-69.067 0-0.11146 2.1947-0.1381 4.8771-0.0593l4.8771 0.14332 2.8469 18.699c1.5658 10.284 2.9369 18.789 3.047 18.899 0.11006 0.11002 4.916-8.3047 10.68-18.699l10.48-18.899 5.1715-0.14313c4.7679-0.13198 5.1504-0.0734 4.9002 0.75114-0.31143 1.0262-0.78546 3.4085-4.3132 21.676-1.4095 7.2986-3.0947 15.975-3.7448 19.28-0.65015 3.3048-2.2385 11.53-3.5297 18.278s-2.5577 13.114-2.8146 14.147l-0.46703 1.8779h-4.7475c-5.3715 0-4.8824 0.61776-3.7641-4.7573 0.28657-1.3772 1.2073-6.3348 2.0461-11.017s1.7452-9.64 2.0142-11.017c1.7508-8.9635 2.0028-10.416 1.8361-10.583-0.10224-0.10224-4.2229 8.2594-9.157 18.581l-8.9711 18.767-5.6152 0.0265-0.2939-3.3802c-0.16165-1.8591-0.80757-10.422-1.4354-19.029-0.62786-8.6071-1.2629-15.649-1.4111-15.649s-0.87171 3.0985-1.6076 6.8855c-0.73591 3.7871-2.397 12.35-3.6913 19.029l-2.3532 12.144h-10.258l1.4249-6.8855zm51.235 6.0094c0.15028-0.482 0.94008-4.3691 1.7552-8.6384 0.81509-4.269 1.8232-9.4522 2.2402-11.518 0.41699-2.0657 1.9054-9.7277 3.3077-17.026 1.4022-7.2986 2.9797-15.411 3.5054-18.028 0.52573-2.6166 1.5533-7.8977 2.2835-11.736 0.73017-3.8381 1.4412-7.2748 1.5802-7.6369 0.18387-0.47921 1.5321-0.65828 4.9565-0.65828 2.5871 0 4.7036 0.076 4.7036 0.16879 0 0.0928-0.77197 4.0928-1.7154 8.8887-0.94352 4.7958-2.8731 14.692-4.2879 21.99-1.4149 7.2986-3.2124 16.538-3.9946 20.532-0.78202 3.9938-2.1705 11.148-3.0855 15.9l-1.6637 8.6384h-4.9293c-4.4648 0-4.9036-0.0826-4.656-0.87635zm100.45 0.28142c0-0.56326 3.9428-21.202 6.0094-31.455 0.52735-2.6166 2.1048-10.729 3.5054-18.028 2.4414-12.722 4.2614-22.013 4.7822-24.413 0.24291-1.1192 0.3069-1.1268 9.5323-1.1268 9.5569 0 10.391 0.14457 12.65 2.1909 2.8074 2.544 3.6865 7.2843 3.0212 16.291-0.87625 11.864-4.9115 20.688-11.606 25.379l-1.401 0.98173 2.2649 14.01c1.2457 7.7057 2.3776 14.63 2.5152 15.388l0.25035 1.3771h-5.9966c-5.3786 0-5.9966-0.0903-5.9936-0.87635 8e-3 -2.0555-3.7053-23.659-4.0048-23.303-0.1813 0.21581-1.3141 5.7445-2.5176 12.286l-2.1881 11.893h-5.4115c-3.8445 0-5.4115-0.17227-5.4115-0.5949zm22.385-43.325c3.201-1.4794 5.6598-6.0877 5.6568-10.602-2e-3 -3.3093-1.1633-5.577-3.6242-7.0779-2.0522-1.2517-1.8761-1.647-3.9043 8.7666-0.85833 4.4069-1.6866 8.5444-1.8406 9.1944-0.24967 1.0538-0.15046 1.1429 0.91488 0.82065 0.65718-0.1988 1.9161-0.69479 2.7975-1.1021zm11.823 43.234c0.16013-0.41741 3.616-17.466 7.6796-37.886l7.3882-37.126 8.7889 0.16429c9.577 0.17904 10.985 0.55125 13.169 3.4809 1.6739 2.2459 2.2145 8.0466 1.2211 13.102-0.90478 4.605-3.5114 11.311-5.6561 14.552-0.84764 1.2808-1.1691 2.2228-0.88736 2.6 3.0132 4.0342 3.6474 5.9576 3.6749 11.144 0.0265 5.1689-1.0538 10.535-3.3001 16.379-2.7401 7.1289-5.2014 10.435-9.4477 12.691-2.4371 1.295-2.7761 1.3348-12.712 1.4933-8.9582 0.14294-10.173 0.0699-9.9175-0.59607zm20.275-16.541c2.1662-1.1202 3.2032-3.0825 3.4851-6.5949 0.49051-6.1103-0.8005-8.2303-5.012-8.2303h-1.6778l-1.3822 7.2998c-0.76018 4.015-1.519 7.6562-1.6862 8.0919-0.26154 0.68159 0.0541 0.75 2.257 0.4891 1.4086-0.16682 3.2158-0.64187 4.0161-1.0557zm3.754-32.19c2.2007-1.1198 3.3541-3.4732 3.3562-6.8481 1e-3 -2.6651-0.15193-3.0832-1.7008-4.6322-0.93642-0.93645-1.9215-1.7026-2.1891-1.7026-0.38343 0-3.1325 12.488-3.1217 14.181 4e-3 0.47399 1.6424 0.0265 3.6554-0.99786z" fill="#fafafa" stroke-width=".50079"/>
 <style type="text/css">.st0{fill:#FC0C18;}
	.st1{fill:#FC0C18;}</style>
</svg>
