<?xml version="1.0" encoding="UTF-8"?>
<svg width="480" height="320" version="1.1" viewBox="0 0 480 320" xmlns="http://www.w3.org/2000/svg">
 <defs>
  <linearGradient id="a" x1="24.138" x2="46.797" y1="84.667" y2=".10223" gradientTransform="scale(3.7795)" gradientUnits="userSpaceOnUse">
   <stop stop-color="#0e9a83" offset="0"/>
   <stop stop-color="#43d6b5" offset="1"/>
  </linearGradient>
 </defs>
 <rect width="480" height="320" ry="16" fill="url(#a)" stroke-linecap="square" stroke-linejoin="round" stroke-width="2" style="paint-order:stroke fill markers"/>
 <path d="m57.902 133.48c-5.1968-0.0306-10.413 2.2561-13.802 6.6969-4.3744 5.7226-4.283 15.989 4.4655 20.531 1.8228 0.99848 3.8264 1.7255 5.6493 2.7255 1.4591 0.81667 3.0077 1.7257 4.2852 2.906 2.7333 2.6348 2.9142 6.5389 0.54452 9.1736-2.3682 2.7258-6.6523 3.1805-9.5675 1.0002-0.73032-0.54395-3.099-2.724-3.8294-3.5422-2.2773 2.8166-3.2796 4.2678-5.6493 7.0843 0.0909 0.18184 1.5485 1.1824 1.6394 1.3642 3.5545 3.6333 7.8399 5.1779 12.852 5.0868 8.2938-0.18183 15.674-7.0858 15.856-14.989 0.18183-6.0865-1.9131-10.993-7.4721-13.991-2.0061-1.0894-4.1004-1.9075-6.1051-2.906-1.4591-0.81819-3.0086-1.7255-4.3767-2.7255-1.2757-0.99998-1.6378-2.5458-1.4559-4.0898 0.36514-2.7258 1.9133-4.5411 4.5574-5.3594 2.7333-0.90757 5.921 4.7e-4 7.6528 2.0005 0.27424 0.36211 1.1856 1.3603 1.5507 1.9058 2.2788-2.9076 3.5538-4.9969 5.6493-7.268-3.2891-3.7471-7.858-5.5778-12.444-5.605zm248.07 0.0355c-5.444 0.0295-10.871 2.4761-14.163 7.2056-3.8287 5.7241-3.1899 13.444 1.9146 17.714 2.0955 1.7257 4.7399 2.8164 7.1082 4.1786 1.7318 0.99848 3.7368 1.8167 5.2853 3.0895 3.0985 2.4515 3.4625 6.5412 1.1837 9.4488-2.2788 2.8166-6.6516 3.3581-9.659 1.1778-0.8197-0.63485-3.0088-2.7241-3.7376-3.5422-2.0046 2.1803-3.6448 4.9073-5.6493 7.0873 0.0911 0.18183 1.2754 0.90633 1.2754 0.99726 0.0911 0.0909 0.18141 0.27304 0.27212 0.36401 3.4636 3.6333 7.7484 5.0891 12.76 4.998 8.0213-0.18184 14.857-6.0869 15.767-13.991 0.73032-6.0865-1.4592-11.72-7.3833-14.9-2.0046-1.0894-4.1004-1.9075-6.1051-2.906-1.4576-0.72725-2.9176-1.542-4.1934-2.542-1.6409-1.2712-2.0029-3.0907-1.456-4.998 0.72877-2.6333 2.4602-4.2701 5.1934-4.7229 2.7348-0.45452 5.1938 0.18206 7.0163 2.4532 0.27288 0.36362 1.2779 1.0902 1.5507 1.5448 2.1879-2.2712 3.736-4.3608 6.0132-6.9959-3.3743-3.8324-8.1906-5.687-12.994-5.661zm57.914 0.11837c-8.5901 0.13417-16.178 5.0294-20.857 11.63-2.0046 2.8166-3.5562 6.0869-4.2852 9.4488-0.0911 0.27277-0.0896 0.54406-0.18066 0.81675 0 0.18184-0.0918 0.45438-0.0918 0.63625-0.0926 0.54546-0.18369 1.088-0.18369 1.6335v0.36401c-0.0907 0.54546-0.0888 1.1798-0.0888 1.7252-0.0911 0.54546-0.0911 1.1813 0 1.7253v0.27224c0.0907 1.1818 0.27477 2.4551 0.54747 3.637 0 0.18183 0.0888 0.27095 0.0888 0.45279 0.0907 0.54546 0.27401 0.9993 0.45569 1.5447 0.0911 0.18183 0.18445 0.45441 0.27515 0.63624 0.0926 0.2727 0.18218 0.54486 0.36397 0.90849 0.0907 0.27269 0.27137 0.54402 0.36397 0.81675 0.0911 0.18032 0.0926 0.27095 0.18369 0.45278 0.2725 0.63636 0.5478 1.1828 0.91143 1.7282 0.0922 0.0894 0.0896 0.27009 0.18066 0.36102 0.45468 0.81819 0.91192 1.6387 1.4589 2.3645 0.45585 0.63635 0.9126 1.1813 1.3672 1.7253l5.3771-8.8097c-1.3667-2.453-2.0952-5.1794-2.0952-7.9959 0-0.72575 0.0896-1.4537 0.18066-2.181 0-0.27269 0.0918-0.4523 0.0918-0.72503 0.0911-0.27276 0.0911-0.45524 0.18331-0.72797 0.0911-0.27269 0.0926-0.54697 0.18331-0.8197 0.0911-0.18032 0.0896-0.45146 0.18066-0.63329 2.2788-6.7226 8.8411-11.719 16.223-11.719 9.2047 0 17.043 7.9045 17.043 17.17 0 0.72725-0.0896 1.4508-0.18066 2.178 0 0.27269-0.0918 0.45524-0.0918 0.72797-0.0922 0.27277-0.0926 0.45377-0.1833 0.72502-0.0911 0.2727-0.0926 0.54698-0.18331 0.81971-0.0911 0.18183-0.0896 0.45441-0.18066 0.63624-0.27439 0.90757-0.73213 1.7247-1.1867 2.6338l5.3771 8.8127c0.45467-0.54395 0.91113-1.1828 1.3672-1.7282 2.0046-2.8151 3.5562-6.0854 4.2852-9.4461 0.0911-0.27277 0.0896-0.54403 0.18067-0.81676 0-0.18183 0.0918-0.45437 0.0918-0.63624 0.0922-0.54395 0.1833-1.091 0.1833-1.6365v-0.36401c0.0911-0.54394 0.0919-1.1798 0.0919-1.7253 0-0.63635-6.8e-4 -1.2715-0.0919-1.817v-0.27224c-0.0911-1.1803-0.27477-2.4537-0.54746-3.634 0-0.18183-0.0918-0.27103-0.0918-0.45279-0.0922-0.54546-0.27402-1.0008-0.45574-1.5447-0.0911-0.18183-0.1799-0.45445-0.27212-0.63624-0.0911-0.27277-0.18256-0.54486-0.36397-0.90849-0.0911-0.27121-0.27591-0.54406-0.36699-0.81675-0.0911-0.18183-0.0896-0.27398-0.18067-0.45573-0.27439-0.63636-0.54621-1.1798-0.91147-1.7253-0.0911-0.0909-0.0926-0.27304-0.1833-0.36397-0.45585-0.81819-0.912-1.6342-1.4589-2.3615-5.0139-6.9955-13.122-11.809-21.688-11.627-0.27893-6e-3 -0.5574-7e-3 -0.83452-3e-3zm-232.67 0.48828c-3.0875 0.0113-6.1878 0.0592-9.2863 0.0592-0.0909 0-0.27307 0.0896-0.36401 0.18051v51.416h9.662v-20.892c1.0015 0 1.8229-8e-4 2.6426-0.0917 2.4606 0 5.0117 0.2719 7.4721-0.0917 7.6562-0.99999 13.216-7.5382 13.216-15.261 0-7.994-6.1081-14.809-14.128-15.172-3.053-0.13636-6.1277-0.15934-9.2152-0.14797zm71.554 0.0355c-3.0076-1e-5 -6.0151 0.0238-9.0229 0.0238-0.18335 0-0.3665 0.0888-0.6392 0.0888 0 17.17 8.1e-4 34.248 0.0917 51.416h9.659v-20.62c5.012 7.0847 9.7523 13.898 14.491 20.62h11.757c-5.012-7.1773-9.9345-14.17-14.855-21.256 0.36367-0.0909 0.63874-0.1813 0.91147-0.27224 7.0182-1.9984 11.754-9.0826 10.935-16.442-0.9106-7.268-7.0144-13.174-14.305-13.447-3.0076-0.0909-6.0151-0.11244-9.0229-0.11244zm-127.32 0.0238c0 0.36367 6.8e-4 0.54531-0.09173 0.63625v32.247c0 10.902 10.935 21.714 24.606 18.898 7.838-1.6348 16.134-9.5391 15.95-19.895-0.0909-10.265 0-20.532 0-30.797v-1.089h-9.7538v32.158c-0.0909 6.0865-5.8307 10.992-11.846 10.174-5.0135-0.72578-9.2973-5.1783-9.2062-10.81 0.09241-9.9938 0-20.077 0-30.069v-1.453zm186.01 0c-3.9182 11.083-7.8346 22.164-11.754 33.247h-0.18331c-4.0105-11.083-7.9264-22.166-11.846-33.158h-10.938c6.0151 17.261 12.03 34.43 17.954 51.507h9.7508c5.924-17.17 11.847-34.337 17.862-51.598zm168.88 0v33.339c-0.0903 0-0.18104 0.0917-0.27213 0.0917-8.2938-11.083-16.494-22.259-24.606-33.342h-8.2949v51.507h9.662v-33.156c8.2938 11.264 16.405 22.254 24.426 33.156h8.6559c0-17.261 6.8e-4 -34.337 0.0918-51.598zm-155.39 0.0888v51.507h9.5705v-51.511zm49.667 0v51.507h9.5702v-51.511zm-163.96 0.0917v51.416h27.524v-9.5376h-17.862v-11.447h17.862v-9.6294h-17.862v-11.263h17.862v-9.5406zm-25.406 9.301c1.2303-0.0113 2.4403 0.0117 3.6251 0.14796 3.0076 0.27273 5.1046 2.7241 5.1046 5.8121 0.0909 2.9076-2.0972 5.452-5.1046 5.7233-2.3697 0.18183-4.8318 0-7.3833 0v-11.627c1.2757 0 2.528-0.0449 3.7583-0.0562zm71.361 0c1.2303-0.0113 2.4373 0.0117 3.6222 0.14796 3.0076 0.27273 5.1016 2.7241 5.1016 5.8121 0.0924 2.9076-2.0942 5.452-5.1016 5.7233-2.3697 0.18183-4.8318 0-7.3833 0v-11.627c1.2757 0 2.5309-0.0449 3.7612-0.0562zm158.19 8.9608-20.141 33.156h40.282z" fill="#fff" stroke-width=".77935"/>
 <style type="text/css">.st0{fill:#FC0C18;}
	.st1{fill:#FC0C18;}</style>
</svg>
