<?xml version="1.0" encoding="UTF-8"?>
<!-- Created with Inkscape (http://www.inkscape.org/) -->
<svg width="480" height="320" version="1.1" viewBox="0 0 480 320" xmlns="http://www.w3.org/2000/svg">
 <defs>
  <linearGradient id="a" x2="70.958" y2="70.958" gradientUnits="userSpaceOnUse">
   <stop stop-color="#43d6b5" offset="0"/>
   <stop stop-color="#007367" offset="1"/>
  </linearGradient>
 </defs>
 <g transform="scale(3.7795)">
  <rect width="127" height="84.667" ry="4.2333" fill="url(#a)" stroke-linecap="square" stroke-linejoin="round" stroke-width=".52917" style="paint-order:stroke fill markers"/>
  <path d="m19.991 20.725-4.1161 4.3631v9.27l4.7036 4.3625h4.1161v-5.9983h-1.7639v-6.544h4.7036v4.3631h6.4676v-5.4532l-4.7036-4.3631zm15.875 0v26.176l4.9977 4.3625h3.822v-5.4532h-1.7646v-25.085zm11.759 0v25.085h-1.7633v5.4532h3.822l4.9971-4.3625v-26.176zm8.8197 0v30.538h7.0557v-30.538zm8.2315 0v5.4532h2.3521v9.2706h-2.3521v5.9983h4.7036l4.7036-4.3625v-11.724l-4.9971-4.6356zm11.759 0v30.539h14.111v-5.4532h-7.6433v-19.086h7.6433v-5.999zm16.463 0v30.538h7.0551v-30.538zm8.2315 0v5.4532h2.9397v7.0891h-2.9397v5.999h3.5272v11.997h6.4682v-11.997l-3.2338-2.9992 3.2338-2.9998v-8.1792l-4.7036-4.3631zm-75.259 11.997v5.9983h1.7639v6.544h-4.7036v-4.3625h-7.0558v5.999l4.7036 4.3625h9.9954l4.1161-4.3625v-9.8164l-4.7036-4.3625zm58.208 0v5.4532h4.7043v-5.4532zm-54.092 21.812-1.4705 1.364v6.2715l1.911 1.7718h10.731v-5.5892h-5.8794v1.6358h4.1154v2.1816h-8.2315v-5.999h9.9954v-1.6365zm13.523 0v9.2706h2.3521v-3.8167h4.1154l2.9397 3.8167h2.3521l-2.9397-3.8167h1.1757l1.7639-1.3633v-2.4541l-1.7639-1.6365zm17.639 0-4.7043 9.2706h2.9397l3.5279-7.0884h1.1764l4.1154 7.0884h2.9403l-5.2918-9.2706zm10.583 0v9.2706h2.3515v-3.8167h7.6439v-1.6358h-7.6439v-2.1816h8.8197v-1.6365zm12.347 0 4.7043 4.3631-5.2918 4.9075h3.5272l3.5279-3.2717 3.5279 3.2717h3.5279l-5.2918-4.9075 5.2918-4.3631h-3.5279l-3.5279 3.2723-3.5279-3.2723zm-38.217 1.6365h7.0551v2.1816h-7.0551z" fill="#fafafa" stroke-width=".28976"/>
 </g>
 <style type="text/css">.st0{fill:#FC0C18;}
	.st1{fill:#FC0C18;}</style>
</svg>
