<?xml version="1.0" encoding="UTF-8"?>
<svg width="480" height="320" version="1.1" viewBox="0 0 480 320" xmlns="http://www.w3.org/2000/svg">
 <defs>
  <linearGradient id="a" x1="41.654" x2="18.317" y2="87.094" gradientTransform="scale(3.7795)" gradientUnits="userSpaceOnUse">
   <stop stop-color="#f9c440" offset="0"/>
   <stop stop-color="#f37329" offset=".4"/>
   <stop stop-color="#cc3b02" offset="1"/>
  </linearGradient>
 </defs>
 <rect width="480" height="320" ry="16" fill="url(#a)" stroke-linecap="square" stroke-linejoin="round" stroke-width="2" style="paint-order:stroke fill markers"/>
 <path d="m39.998 110.82v5.8594h7.0059v79.537h7.0078v-79.537h5.7988v-5.8594h-19.812zm368.56 23.17c-17.362 0-31.432 14.145-31.432 31.596 0 17.45 14.07 31.598 31.432 31.598 17.36 0 31.439-14.147 31.439-31.598 0-17.45-14.077-31.596-31.439-31.596zm-227.03 0.41211v0.00195c-3.8358 0-6.627 3.294-6.627 5.8008v49.957c0 3.2283 3.5777 6.1582 6.5977 6.1582h8.2754c3.2319 0 6.4629-3.3539 6.4629-6.0293v-50.256c0-2.2514-3.0497-5.6328-7.0957-5.6328h-7.6133zm-110.46 0.26563v55.654c0 3.3449 3.1518 6.2344 6.6836 6.2344h7.8945c3.344 0 6.6035-2.5538 6.6035-6.1621v-55.727h-6.7637v55.727h-7.7344v-55.727h-6.6836zm69.176 0.1875v61.514h14.617c2.96 0 6.2812-1.8571 6.2812-5.8574 0 0 0.034-19.213 0-21.971-0.02799-2.7619-2.8965-4.5078-2.8965-4.5078s2.8965-1.8845 2.8965-4.5059v-18.812c0-3.55-3.1112-5.8594-6.2812-5.8594h-14.617zm-34.264 0.01953v61.619h6.4043v-28.951h2.416l7.125 28.842h6.2832l-6.6445-29.291c2.294 0 5.3457-2.7587 5.3457-6.4492v-20.166c0-2.9006-3.2911-5.6035-7.0371-5.6035h-13.893zm75.988 5.6133h7.4102v49.482h-7.4102v-49.482zm-35.08 0.34179h7.6699v20.221h-7.6699v-20.221zm-34.266 0.01368h7.6719v20.221h-7.6719v-20.221zm275.32 12.047h6.7598v22.109h3.1484v3.5684h-9.9668v-3.5098h3.2129v-18.543h-3.1543v-3.625zm16.848 0.11328h22.627l1.9434 1.957v4.6641h-3.2031v-3.2246h-20.229v7.7148h21.604l1.8281 1.8457v10.193l-2.2891 2.3027h-22.113l-2.293-2.3027v-21.018l2.125-2.1328zm-257.9 14.412h7.6699v22.93h-7.6699v-22.93zm259.22 0.09375v7.4316h19.822v-7.4316h-19.822z" fill="#fff"/>
 <path d="m218.84 111.19c-3.594 0-6.793 3.2683-6.793 6.3379v73.058c0 3.6323 3.8332 6.0291 6.9453 6.0291h14.559v-48.332h-10.33v5.9161h3.5038v36.442h-8.0939v-72.941h7.9102v17.066h6.9626v-17.309c0-3.0272-3.1966-6.2676-6.7208-6.2676h-7.9434zm28.86 23.52v61.625h6.3984v-28.954h2.418l7.1308 28.84h6.2793l-6.6463-29.289c2.296 0 5.3514-2.7604 5.3514-6.449v-20.166c0-2.9007-3.2971-5.6073-7.039-5.6073h-13.893zm40.456 0.13671c-3.8079 0-6.0431 3.1542-6.0431 5.6326v55.77h6.4022v-29.292h8.0916v29.292h6.404v-55.43c-2e-3 -3.6785-2.5342-5.9705-6.404-5.9705h-8.451zm34.109 0c-3.17 0-5.6776 2.762-5.6776 5.297v56.103h6.5216v-29.292l8.1581 0.0253v-5.9958h-8.1581v-20.73h9.908v-5.4081h-10.752zm23.98 0.0155v21.156c0 2.7257 7.1641 9.4881 7.1641 9.4881s-7.1641 7.1096-7.1641 9.7107v21.156h6.7635v-22.132l4.1072-4.1212 4.1072 4.1737v22.08h6.3632v-21.206c0-2.77-6.7635-9.6071-6.7635-9.6071s6.6814-6.8402 6.6814-9.4356v-21.262h-6.7635v22.457l-3.7852 3.7969-3.8653-3.9061v-22.348h-6.8455zm-91.99 5.7558h7.666v20.221h-7.666zm34.504 0.42577h7.666v19.828h-7.666z" fill="#fff" fill-opacity=".8" stroke-width="1.2994"/>
 <style type="text/css">.st0{fill:#FC0C18;}
	.st1{fill:#FC0C18;}</style>
</svg>
