<?xml version="1.0" encoding="UTF-8"?>
<svg width="480" height="320" version="1.1" viewBox="0 0 480 320" xmlns="http://www.w3.org/2000/svg">
 <defs>
  <linearGradient id="a" x1="94.222" x2="79.341" y1="13.229" y2="87.555" gradientTransform="scale(3.7795)" gradientUnits="userSpaceOnUse">
   <stop stop-color="#64baff" offset="0"/>
   <stop stop-color="#0d52bf" offset="1"/>
  </linearGradient>
 </defs>
 <rect width="480" height="320" ry="16" fill="url(#a)" stroke-linecap="square" stroke-linejoin="round" stroke-width="2" style="paint-order:stroke fill markers"/>
 <path d="m39.999 130.45v11.819h11.766v47.27h23.529v-47.27h11.766v-11.819zm70.59 0v11.819h11.763v35.455h-11.763v11.816h47.059v-11.816h-11.766v-35.455h11.766v-11.819zm70.586 0v11.819h-11.766v35.455h11.766v11.816h35.292v-11.813l11.763-3e-3v-11.819h-11.763v11.819h-23.529v-35.455h23.529v-11.819zm35.292 11.819v11.819l11.763-3e-3v-11.816zm105.88-11.819v11.819h-11.763v11.819h11.763l11.766-3e-3v-11.816h23.529v-11.819zm35.296 11.819v11.819l11.763-3e-3v-11.816zm0 11.819h-35.296v11.816h-11.763v11.819h11.763v11.816h35.296v-11.813l11.763-3e-3v-11.819h-11.763v11.819h-23.529v-11.819h23.529zm35.292-23.639v11.819h-11.763v35.455h11.763v11.816h35.295v-11.813l11.763-3e-3v-35.455h-11.763v-11.819zm11.766 11.819h11.766v11.819h11.763v23.636h-23.529v-11.819h11.766v-11.816h-11.766zm-152.94 11.819v11.816h35.292v-11.816z" fill="#fafafa" stroke-width="1.5151"/>
 <style type="text/css">.st0{fill:#FC0C18;}
	.st1{fill:#FC0C18;}</style>
</svg>
