<?xml version="1.0" encoding="UTF-8"?>
<svg width="480" height="320" version="1.1" viewBox="0 0 480 320" xmlns="http://www.w3.org/2000/svg">
 <defs>
  <linearGradient id="a" x1="44.05" x2="61.232" y1="13.229" y2="101.72" gradientTransform="scale(3.7795)" gradientUnits="userSpaceOnUse">
   <stop stop-color="#68b723" offset="0"/>
   <stop stop-color="#007367" offset="1"/>
  </linearGradient>
 </defs>
 <rect width="480" height="320" ry="16" fill="url(#a)" stroke-linecap="square" stroke-linejoin="round" stroke-width="2" style="paint-order:stroke fill markers"/>
 <path d="m214.03 115.15c-23.92 0-44.939 19.992-44.939 44.938 0 25.629 21.185 44.765 45.105 44.765 4.2716 0 6.8364-0.51303 12.133-1.8795v-23.236c-5.2966 2.7336-8.0292 3.4167-12.301 3.4167-13.327 0-23.41-11.105-23.41-23.407 0-12.814 9.9118-23.749 23.239-23.749 4.4424 0 8.3713 1.1958 12.472 3.5878v-22.725c-4.6133-1.1957-7.6876-1.7083-12.301-1.7083zm105.68 0.17118c-19.992 0-32.987 11.108-32.945 29.173h22.131c-0.0422-7.209 4.3593-11.233 10.814-11.233 6.4127 0 10.978 3.9821 10.978 10.562 0 6.0775-3.8978 10.015-10.227 15.254l-32.019 26.491v16.765h65.888v-18.611h-33.533v-0.50343l8.0485-6.706c19.573-16.304 24.561-24.771 24.561-34.704 0-16.01-13.118-26.488-33.697-26.488zm82.401 0c-23.387 0-37.807 15.926-37.89 44.258-0.0839 28.291 14.502 45.056 37.89 45.097 23.345 0.0422 37.848-16.682 37.89-45.097 0.0423-28.249-14.544-44.258-37.89-44.258zm-362.11 3.4368 27.226 82.484h30.609l27.226-82.484h-25.293l-16.916 58.159h-0.64442l-16.916-58.159zm92.957 0v82.484h22.393v-82.484zm269.16 15.341c8.0474 0 13.705 7.8357 13.747 25.481 0.0423 18.064-5.7003 26.155-13.747 26.155-8.0469 0-13.831-8.0912-13.747-26.155 0.0838-17.645 5.7003-25.481 13.747-25.481zm-174.58 6.6792v17.6h21.188l17.426-17.6zm0 21.36v17.597h38.615l-17.083-17.597z" fill="#fff" stroke-width="1.7079"/>
 <style type="text/css">.st0{fill:#FC0C18;}
	.st1{fill:#FC0C18;}</style>
</svg>
