<svg width="14" height="14" viewBox="0 0 14 14" fill="none" xmlns="http://www.w3.org/2000/svg">
<path fill-rule="evenodd" clip-rule="evenodd" d="M5.98779 1.70474C6.33549 0.76509 7.66451 0.765087 8.01221 1.70473L9.16902 4.83098L12.2953 5.98779C13.2349 6.33549 13.2349 7.66451 12.2953 8.01221L9.16902 9.16902L8.01221 12.2953C7.66451 13.2349 6.33549 13.2349 5.98779 12.2953L4.83098 9.16902L1.70474 8.01221C0.76509 7.66451 0.765087 6.33549 1.70473 5.98779L4.83098 4.83098L5.98779 1.70474ZM8.15681 5.20553L7 2.07929L5.84319 5.20553C5.73387 5.50095 5.50095 5.73387 5.20553 5.84319L2.07929 7L5.20553 8.15681C5.50095 8.26613 5.73387 8.49905 5.84319 8.79447L7 11.9207L8.15681 8.79447C8.26613 8.49905 8.49905 8.26613 8.79447 8.15681L11.9207 7L8.79447 5.84319C8.49905 5.73387 8.26613 5.50095 8.15681 5.20553Z" fill="white"/>
</svg>
